<svg width="24" height="24" viewBox="0 0 24 24" fill="none" xmlns="http://www.w3.org/2000/svg">
<path d="M12 17C15.866 17 19 13.866 19 10C19 6.13401 15.866 3 12 3C8.13401 3 5 6.13401 5 10C5 13.866 8.13401 17 12 17Z" stroke="#7B61FF" stroke-linecap="round" stroke-linejoin="round"/>
<path d="M9 12C10.1046 12 11 11.1046 11 10C11 8.89543 10.1046 8 9 8C7.89543 8 7 8.89543 7 10C7 11.1046 7.89543 12 9 12Z" fill="#7B61FF"/>
<path d="M15 12C16.1046 12 17 11.1046 17 10C17 8.89543 16.1046 8 15 8C13.8954 8 13 8.89543 13 10C13 11.1046 13.8954 12 15 12Z" fill="#7B61FF"/>
<path d="M11.1447 13.7106L11.8211 12.3578C11.8948 12.2104 12.1052 12.2104 12.1789 12.3578L12.8553 13.7106C12.9218 13.8435 12.8251 14 12.6764 14H11.3236C11.1749 14 11.0782 13.8435 11.1447 13.7106Z" fill="#7B61FF"/>
<path d="M8 19.5V16L12 17L16 16V18.691C16 18.8804 15.893 19.0535 15.7236 19.1382L14.7236 19.6382C14.3912 19.8044 14 19.5627 14 19.191V18C14 17.7239 13.7761 17.5 13.5 17.5C13.2239 17.5 13 17.7239 13 18V18.7324C13 18.8996 12.9164 19.0557 12.7773 19.1484L12.1212 19.5859C11.8251 19.7833 11.4234 19.6169 11.3536 19.2679L11.0804 17.9019C11.0336 17.6682 10.8284 17.5 10.5901 17.5H10.4099C10.1716 17.5 9.96635 17.6682 9.91961 17.9019L9.58039 19.5981C9.53365 19.8318 9.32844 20 9.0901 20H8.5C8.22386 20 8 19.7761 8 19.5Z" fill="#7B61FF"/>
</svg>
