<svg width="24" height="24" viewBox="0 0 24 24" fill="none" xmlns="http://www.w3.org/2000/svg">
<path d="M11.5 16C11.5 16.2761 11.7239 16.5 12 16.5C12.2761 16.5 12.5 16.2761 12.5 16H11.5ZM12.5 12C12.5 11.7239 12.2761 11.5 12 11.5C11.7239 11.5 11.5 11.7239 11.5 12H12.5ZM21.5 12C21.5 17.2467 17.2467 21.5 12 21.5V22.5C17.799 22.5 22.5 17.799 22.5 12H21.5ZM12 21.5C6.75329 21.5 2.5 17.2467 2.5 12H1.5C1.5 17.799 6.20101 22.5 12 22.5V21.5ZM2.5 12C2.5 6.75329 6.75329 2.5 12 2.5V1.5C6.20101 1.5 1.5 6.20101 1.5 12H2.5ZM12 2.5C17.2467 2.5 21.5 6.75329 21.5 12H22.5C22.5 6.20101 17.799 1.5 12 1.5V2.5ZM12.5 16V12H11.5V16H12.5ZM12 8H11C11 8.55228 11.4477 9 12 9V8ZM12 8V9C12.5523 9 13 8.55228 13 8H12ZM12 8H13C13 7.44772 12.5523 7 12 7V8ZM12 7C11.4477 7 11 7.44772 11 8H12V7Z" fill="#7B61FF"/>
</svg>
