<svg width="24" height="24" viewBox="0 0 24 24" fill="none" xmlns="http://www.w3.org/2000/svg">
    <path d="M13.882 18.0099L13.8128 17.8749C13.091 18.1037 12.3988 18.1679 11.8154 18.158C11.321 18.1366 10.7656 18.0576 10.1888 17.8749L10.1196 18.0099C10.1196 18.0099 11.944 19.2494 11.944 22H12.0708C12.0692 19.2494 13.882 18.0099 13.882 18.0099Z"
          fill="#A68D67"/>
    <path d="M5.99473 13.8848L6.12986 13.8156C5.90079 13.0946 5.83652 12.4033 5.84641 11.8206C5.86783 11.3267 5.94693 10.772 6.12986 10.1959L5.99473 10.1267C5.99473 10.1267 4.75379 11.949 2 11.949V12.0757C4.75379 12.0757 5.99473 13.8848 5.99473 13.8848Z"
          fill="#A68D67"/>
    <path d="M18.0053 10.1267L17.8701 10.1959C18.0992 10.9169 18.1635 11.6082 18.1536 12.1909C18.1321 12.6848 18.053 13.2395 17.8701 13.8156L18.0053 13.8848C18.0053 13.8848 19.2462 12.0625 22 12.0625V11.9358C19.2478 11.9358 18.0053 10.1267 18.0053 10.1267Z"
          fill="#A68D67"/>
    <path d="M9.80153 8.40824V9.85515H8.46007L4.11597 4.68478L9.80153 8.40824Z" fill="#A68D67"/>
    <path d="M8.353 14.1663H9.80158V15.5062L4.62524 19.8453L8.353 14.1663Z" fill="#A68D67"/>
    <path d="M16.8862 10.484L16.2633 10.8099H13.198V7.74815L13.5243 7.12593C13.5243 7.12593 13.0761 6.97449 11.9999 6.97449C11.1051 6.97449 10.4755 7.12593 10.4755 7.12593L10.8019 7.74815V10.8099H7.73659L7.11365 10.484C7.11365 10.484 6.96204 10.9317 6.96204 12.0066C6.96204 12.9004 7.11365 13.5292 7.11365 13.5292L7.73659 13.2033H10.8019V16.265L10.4755 16.8872C10.4755 16.8872 10.9238 17.0387 11.9999 17.0387C12.8948 17.0387 13.5243 16.8872 13.5243 16.8872L13.198 16.265V13.2033H16.2633L16.8862 13.5292C16.8862 13.5292 17.0378 13.0815 17.0378 12.0066C17.0378 11.1111 16.8862 10.484 16.8862 10.484Z"
          fill="#A68D67"/>
    <path d="M14.1935 8.40824V9.85515H15.5349L19.8807 4.68478L14.1935 8.40824Z" fill="#A68D67"/>
    <path d="M15.6421 14.1663H14.1935V15.5062L19.3698 19.8453L15.6421 14.1663Z" fill="#A68D67"/>
    <path d="M10.1196 5.99012L10.1888 6.1251C10.9107 5.8963 11.6028 5.8321 12.1862 5.84198C12.6806 5.86337 13.236 5.94239 13.8128 6.1251L13.882 5.99012C13.882 5.99012 12.0577 4.75062 12.0577 2H11.9308C11.9308 4.75062 10.1196 5.99012 10.1196 5.99012Z"
          fill="#A68D67"/>
</svg>
