<svg width="25" height="27" viewBox="0 0 25 27" fill="none" xmlns="http://www.w3.org/2000/svg">
    <path d="M13.7466 6.2878C13.7557 6.14965 13.9027 6.07368 14.0113 6.14965L15.1335 6.92325C15.1969 6.868 15.1946 6.8703 15.258 6.81504L12.5385 0.0897928V0L12.5204 0.0460476L12.5023 0V0.0897928L9.78284 6.81504C9.84619 6.8703 9.84392 6.868 9.90727 6.92325L11.0294 6.14965C11.138 6.07368 11.2851 6.14965 11.2941 6.2878L12.2263 24.4352L10.6267 26.7237C10.7308 26.8665 10.7218 26.8549 10.8281 27L12.5204 26.3047L14.2127 27C14.3168 26.8573 14.3077 26.8688 14.4141 26.7237L12.8145 24.4352L13.7466 6.2878Z"
          fill="black"/>
    <path d="M14.6584 8.11587C14.5996 8.12508 14.6063 8.12508 14.5498 8.13429L14.1176 12.9762C15.3167 13.2018 16.2873 13.637 17.0724 14.1872L13.9321 23.3162L14.2443 23.4543L18.1312 15.1013C19.9751 17.0445 20.3416 19.6232 20.4389 20.3162L13.9344 24.8818L14.3145 25.3929L25 18.2463L24.9593 17.8066L22.0181 15.9601C21.586 14.749 20.7376 13.4113 19.4389 12.2878L20.5905 9.81503C20.6357 9.72063 20.7624 9.71142 20.819 9.80121L21.3959 10.7107C21.457 10.6922 21.4548 10.6922 21.5158 10.6738L21.5091 5.01917L21.5339 4.9547L21.5091 4.98233V4.9455L21.4842 5.00996L17.6154 8.93091C17.6448 8.99078 17.6448 8.98847 17.6742 9.04834L18.6946 8.85494C18.7941 8.83652 18.8756 8.93782 18.8439 9.03682L18.0656 11.3001C17.3303 10.8603 16.4977 10.4896 15.5588 10.2249L14.6584 8.11587Z"
          fill="black"/>
    <path d="M11.0837 24.8933L4.56109 20.3139C4.65837 19.6209 5.02715 17.0445 6.86878 15.099L10.7557 23.452L11.0679 23.3139L7.9276 14.185C8.71267 13.6347 9.68326 13.2018 10.8824 12.9739L10.4502 8.132C10.3914 8.12279 10.3982 8.12279 10.3416 8.11358L9.44118 10.218C8.50226 10.485 7.66968 10.8557 6.93439 11.2932L6.15611 9.02993C6.12217 8.92862 6.20588 8.82732 6.30543 8.84804L7.32579 9.04144C7.3552 8.98158 7.3552 8.98388 7.38462 8.92402L3.51584 5.00307L3.49095 4.9386V4.97544L3.46606 4.94781L3.49095 5.01227L3.48416 10.6715C3.54525 10.6899 3.54299 10.6899 3.60407 10.7084L4.181 9.79892C4.23756 9.71143 4.36425 9.71834 4.4095 9.81274L5.56109 12.2855C4.26018 13.4091 3.41403 14.7467 2.9819 15.9578L0.040724 17.8043L0 18.2464L10.7036 25.4044L11.0837 24.8933Z"
          fill="black"/>
</svg>
