<svg width="24" height="24" viewBox="0 0 24 24" fill="none" xmlns="http://www.w3.org/2000/svg">
    <g clip-path="url(#clip0_1714_3137)">
        <path d="M11.9687 0.220077C11.9687 0.220077 12.6256 0 13.2236 0C13.7533 0 14.4672 0.220077 14.4672 0.220077V4.56371H11.9706V0.220077H11.9687Z"
              fill="#A68D67"/>
        <path d="M14.9645 1.28958L17.2788 2.18147C17.387 2.22394 17.4573 2.3224 17.4573 2.43244V4.56178H14.9645V1.28958Z"
              fill="#A68D67"/>
        <path d="M9.06207 6.11971V1.51353C9.06207 1.39384 9.14371 1.28766 9.26522 1.25291L11.4713 0.615845V6.77608L9.35445 6.44403C9.18548 6.41893 9.06207 6.28187 9.06207 6.11971Z"
              fill="#A68D67"/>
        <path d="M6.15534 5.99422V3.75098C6.15534 3.64094 6.22558 3.54055 6.3338 3.49808L8.56458 2.63901V6.77607L6.42683 6.31661C6.26735 6.28186 6.15534 6.14866 6.15534 5.99422Z"
              fill="#A68D67"/>
        <path d="M7.9191 13.2568C7.12172 12.5869 6.62051 11.6583 6.51419 10.6544L6.2389 7.2722H11.7864L10.7669 9.9807L12.4262 8.0502H15.0918L15.9214 7.52703H13.3679C12.5952 7.52703 11.9687 6.93437 11.9668 6.20078V5.08109H17.3947C17.932 5.72587 18.0345 6.00193 18.5718 6.64865L17.5864 11.0039C17.3833 11.8012 16.9276 12.5193 16.2802 13.0656L16.1398 13.1853L13.8197 20.4093L13.1287 15.9073L11.9706 23.0019L10.8068 15.8784L10.0929 20.4093L7.9191 13.2568ZM11.6155 12.529L11.9687 15.5676L12.3218 12.529L14.6627 12.9846L11.9687 11.6544L9.27466 12.9846L11.6155 12.529Z"
              fill="#A68D67"/>
        <path d="M7.86599 17.4266C8.64819 18.222 8.64819 19.5135 7.86599 20.3089C7.08379 21.1043 5.81368 21.1043 5.03148 20.3089C4.24928 19.5135 4.24928 18.222 5.03148 17.4266C5.81368 16.6293 7.0819 16.6293 7.86599 17.4266ZM5.04287 19.5348C5.14729 19.7375 5.29727 19.9151 5.48523 20.029C5.37321 19.8378 5.28588 19.6525 5.22703 19.4575C5.16817 19.2645 5.13969 19.0656 5.13969 18.8687C5.13969 18.834 5.14159 18.7973 5.14349 18.7626C5.15109 18.7683 5.15678 18.7722 5.16438 18.778C5.33524 18.8784 5.61243 18.7143 5.7833 18.4131C5.95417 18.112 5.95417 17.7857 5.7852 17.6853C5.70166 17.6371 5.59344 17.6506 5.48333 17.7124C5.48333 17.7104 5.48523 17.7104 5.48523 17.7085C5.29727 17.8224 5.14539 17.9981 5.04097 18.2027C4.93655 18.4073 4.88339 18.639 4.88339 18.8707C4.88339 19.0985 4.93845 19.3321 5.04287 19.5348Z"
              fill="#A68D67"/>
        <path d="M4.78277 12.9035C5.76621 12.9035 6.5636 13.7143 6.5636 14.7143C6.5636 15.7143 5.76621 16.5251 4.78277 16.5251C3.79933 16.5251 3.00195 15.7143 3.00195 14.7143C3.00005 13.7162 3.79744 12.9035 4.78277 12.9035ZM3.96451 15.8764C3.85249 15.6853 3.76516 15.5 3.70631 15.305C3.64745 15.112 3.61897 14.9131 3.61897 14.7162C3.61897 14.6757 3.62087 14.6351 3.62277 14.5946C3.63226 14.6023 3.64176 14.61 3.65315 14.6158C3.82401 14.7162 4.1012 14.5521 4.27207 14.251C4.44294 13.9498 4.44294 13.6235 4.27397 13.5232C4.18853 13.473 4.07652 13.4884 3.96261 13.556C3.96261 13.556 3.96261 13.556 3.96261 13.5541C3.77465 13.668 3.62277 13.8436 3.51835 14.0483C3.41393 14.2529 3.36077 14.4846 3.36077 14.7162C3.36077 14.9479 3.41583 15.1795 3.51835 15.3842C3.62467 15.5869 3.77655 15.7625 3.96451 15.8764Z"
              fill="#A68D67"/>
        <path d="M4.63277 11.9826C4.05941 11.3996 4.05941 10.4517 4.63277 9.86872C4.96881 9.52702 5.42635 9.3861 5.86302 9.44401L6.04148 11.2413C6.07755 11.6023 6.15919 11.9537 6.28259 12.2857C5.73961 12.5367 5.07892 12.4344 4.63277 11.9826ZM5.33333 9.92471C5.26308 9.87065 5.15296 9.88996 5.04475 9.96332C4.90236 10.0502 4.78085 10.1757 4.69162 10.3243C4.5853 10.5019 4.52645 10.7124 4.52645 10.9247C4.52645 11.1371 4.5853 11.3475 4.69162 11.5251C4.79794 11.7027 4.94982 11.8475 5.12639 11.9305C5.07323 11.8456 5.02387 11.7664 4.9802 11.6834C4.93653 11.6004 4.90046 11.5193 4.87008 11.4344C4.81123 11.2664 4.78085 11.0946 4.78085 10.9247C4.78085 10.8147 4.79414 10.7046 4.81882 10.5965C4.82072 10.5985 4.82262 10.6004 4.82642 10.6023C4.93273 10.6834 5.13208 10.5985 5.27067 10.4112C5.41306 10.2259 5.43964 10.0077 5.33333 9.92471Z"
              fill="#A68D67"/>
        <path d="M17.8485 12.3378C17.9491 12.1081 18.0288 11.8687 18.0877 11.6216L18.6022 9.4556C18.8813 9.50965 19.149 9.64672 19.3654 9.86679C19.9387 10.4498 19.9387 11.3977 19.3654 11.9807C18.9572 12.3996 18.363 12.5193 17.8485 12.3378ZM19.3065 10.3243C19.2173 10.1776 19.0977 10.0521 18.9572 9.96525C18.849 9.88996 18.737 9.87065 18.6648 9.92471C18.5585 10.0058 18.587 10.2239 18.7256 10.4112C18.8661 10.5985 19.0635 10.6834 19.1698 10.6023C19.1717 10.6004 19.1736 10.5985 19.1755 10.5965C19.2002 10.7046 19.2135 10.8147 19.2135 10.9247C19.2135 11.0965 19.1831 11.2683 19.1243 11.4344C19.0958 11.5174 19.0578 11.6004 19.0142 11.6834C18.9724 11.7664 18.9211 11.8456 18.868 11.9305C19.0464 11.8456 19.1964 11.7008 19.3027 11.5251C19.4091 11.3475 19.4679 11.1371 19.4679 10.9247C19.4736 10.7124 19.4148 10.5019 19.3065 10.3243Z"
              fill="#A68D67"/>
        <path d="M18.9705 17.4266C19.7527 18.222 19.7527 19.5135 18.9705 20.3089C18.1883 21.1043 16.9182 21.1043 16.136 20.3089C15.3538 19.5135 15.3538 18.222 16.136 17.4266C16.9182 16.6293 18.1883 16.6293 18.9705 17.4266ZM18.2244 18.4093C18.3952 18.7104 18.6724 18.8745 18.8433 18.7741C18.849 18.7722 18.8528 18.7683 18.8566 18.7645C18.8585 18.7992 18.8604 18.8321 18.8604 18.8668C18.8604 19.0656 18.8319 19.2626 18.773 19.4556C18.7161 19.6506 18.6268 19.8378 18.5148 20.027C18.7028 19.9131 18.8547 19.7355 18.9572 19.5328C19.0616 19.3282 19.1148 19.0965 19.1148 18.8649C19.1148 18.6332 19.0597 18.4015 18.9572 18.1969C18.8831 18.0521 18.7863 17.9228 18.6686 17.8166C18.5167 17.668 18.3421 17.6081 18.2225 17.6776C18.0516 17.7819 18.0516 18.1081 18.2244 18.4093Z"
              fill="#A68D67"/>
        <path d="M17.4365 14.7162C17.4365 13.7162 18.2338 12.9054 19.2173 12.9054C20.2007 12.9054 21 13.7162 21 14.7162C21 15.7162 20.2026 16.527 19.2192 16.527C18.2357 16.527 17.4365 15.7162 17.4365 14.7162ZM19.7337 14.251C19.9045 14.5521 20.1817 14.7162 20.3526 14.6158C20.3602 14.61 20.3678 14.6062 20.3754 14.6004C20.3773 14.639 20.3792 14.6776 20.3792 14.7162C20.3792 14.915 20.3507 15.112 20.2918 15.305C20.2349 15.5 20.1457 15.6872 20.0336 15.8764C20.2216 15.7625 20.3735 15.5849 20.476 15.3822C20.5804 15.1776 20.6336 14.9459 20.6336 14.7143C20.6336 14.4826 20.5785 14.251 20.476 14.0463C20.3963 13.8919 20.2899 13.7529 20.1608 13.6448C20.0128 13.5077 19.8476 13.4537 19.7299 13.5212C19.5628 13.6235 19.5628 13.9498 19.7337 14.251Z"
              fill="#A68D67"/>
    </g>
    <defs>
        <clipPath id="clip0_1714_3137">
            <rect width="18" height="23" fill="white" transform="matrix(-1 0 0 1 21 0)"/>
        </clipPath>
    </defs>
</svg>
