<svg width="24" height="24" viewBox="0 0 24 24" fill="none" xmlns="http://www.w3.org/2000/svg">
    <path d="M0.051762 2L5.4791 11.0549L5.11432 9.67923C5.11432 9.67923 6.07905 7.54539 9.18066 5.04543L9.75468 4.95298V10.1138L10.3065 9.63115V4.65528L9.86949 4.47222L11.5008 3.46077L13.1303 4.47037L12.6933 4.65343V9.63115L13.2451 10.1138V4.95298L13.8192 5.04543C16.9208 7.54539 17.8855 9.67738 17.8855 9.67738L17.5207 11.0531L22.9481 2C22.9944 2.91899 23.0258 4.15788 22.9703 5.44484L20.1983 9.18368C20.2501 9.2262 20.2279 9.20771 20.2798 9.24839L22.9277 6.31205C22.861 7.25878 22.7388 8.11121 22.537 8.94884L20.0372 11.2454C20.0798 11.2953 20.0613 11.275 20.1039 11.3249L22.324 9.79572C22.0704 10.5982 21.7222 11.312 21.2778 12.0997C21.1778 12.2458 21.1167 12.3308 21.1167 12.3308L19.1187 13.5179C19.1465 13.5752 19.1354 13.5531 19.165 13.6104L20.7557 13.0649C20.015 14.1485 18.9817 15.2191 17.8392 16.1455V17.9705C17.8392 18.2738 17.917 18.5733 18.067 18.8377L18.4595 19.5348L12.7859 22.9982L12.51 13.7361H15.0376C16.2542 12.8874 16.369 11.6725 16.369 11.6725H12.8322C12.9766 11.4377 12.9211 11.1326 12.7026 10.9625L12.6026 10.8848L11.5008 12.7117L10.3991 10.8848L10.2991 10.9625C10.0806 11.1326 10.025 11.4377 10.1695 11.6725H6.63271C6.63271 11.6725 6.74752 12.8874 7.96409 13.7361H10.4898L10.2139 22.9982L4.54029 19.5348L4.93285 18.8377C5.08284 18.5733 5.16061 18.2738 5.16061 17.9705V16.1455C4.01626 15.2191 2.98301 14.1485 2.24418 13.0649L3.83479 13.6104C3.86257 13.5531 3.85146 13.5752 3.88108 13.5179L1.8831 12.3308C1.8831 12.3308 1.82014 12.2458 1.722 12.0997C1.27944 11.3101 0.931322 10.5982 0.675787 9.79572L2.89598 11.3268C2.93857 11.2768 2.92005 11.2972 2.96264 11.2472L0.464693 8.94884C0.261005 8.11121 0.140645 7.25878 0.0739838 6.31205L2.72007 9.25024C2.77192 9.20771 2.74969 9.22621 2.80154 9.18553L0.0295425 5.44669C-0.0260086 4.15788 0.00546941 2.91899 0.051762 2Z"
          fill="black"/>
</svg>
