<svg width="24" height="24" viewBox="0 0 24 24" fill="none" xmlns="http://www.w3.org/2000/svg">
    <path d="M6.0789 13.4332C6.34534 15.2916 7.34205 16.6303 7.72199 17.0826C7.68909 17.1237 7.69403 17.1172 7.66113 17.1583C6.22199 16.4577 5.26475 14.7473 5.26475 14.7473C5.42594 16.4248 6.58876 17.877 7.15784 18.497C7.12166 18.5397 7.13153 18.5282 7.09534 18.571C5.046 17.303 3.69896 15.1864 3.56738 12.4876L5.96541 12.7902C5.99172 13.0073 6.02955 13.2227 6.0789 13.4332Z"
          fill="#A68D67"/>
    <path d="M9.5773 6.88276C9.5773 6.88276 10.9243 3.12648 11.4079 0.998356L11.5049 1.05098C11.6628 1.1365 11.7697 1.29274 11.7895 1.472L12 3.37646L12.2105 1.472C12.2303 1.29274 12.3372 1.1365 12.4951 1.05098L12.5921 0.998356C13.0773 3.12483 14.4227 6.88276 14.4227 6.88276C15.6875 10.1276 17.7632 10.4565 17.7632 10.4565L22 11.5798C21.8832 11.7788 21.6727 11.9038 21.4424 11.912C19.7533 11.9662 17.9671 12.1998 17.9671 12.1998C16.2599 12.4152 16.0658 13.8427 16.0658 13.8427L15.2845 18.1664C14.8273 20.7929 15.8503 22 15.8503 22C13.5888 21.3274 13.8849 17.5579 13.8849 17.5579L14.1003 14.6502C13.0526 15.591 12.6842 16.905 12.5773 17.4066C12.5312 17.4066 12.5395 17.4066 12.4918 17.4066L12 15.2423L11.5082 17.4066C11.4622 17.4066 11.4704 17.4066 11.4227 17.4066C11.3158 16.905 10.9474 15.591 9.89967 14.6502L10.1151 17.5579C10.1151 17.5579 10.4112 21.3274 8.14967 22C8.14967 22 9.1727 20.7929 8.71546 18.1648L7.93421 13.8427C7.93421 13.8427 7.74013 12.4169 6.03289 12.2014C6.03289 12.2014 4.24671 11.9679 2.55757 11.9136C2.32566 11.9054 2.11678 11.7804 2 11.5814L6.23684 10.4581C6.23684 10.4565 8.31086 10.1292 9.5773 6.88276ZM9.87336 13.277L11.8388 12.361C11.8388 12.361 11.8125 11.9038 11.3273 11.8495L12 9.64242L12.6727 11.8495C12.1875 11.9038 12.1612 12.361 12.1612 12.361L14.1266 13.277C15.3832 11.1686 14.5872 10.098 13.6316 9.56347C13.1283 9.2806 12.5641 9.13917 12 9.13917C11.4359 9.13917 10.8717 9.2806 10.3684 9.56183C9.41283 10.098 8.61678 11.167 9.87336 13.277Z"
          fill="#A68D67"/>
    <path d="M10.801 12.1587C9.89971 11.5995 10.4441 10.2197 10.4441 10.2197H10.3438C9.40794 11.4515 10.2632 12.435 10.2632 12.435L10.801 12.1587Z"
          fill="#A68D67"/>
    <path d="M8.87008 6.81204C9.0987 6.09993 9.62666 4.52439 9.91449 3.66426C6.70396 4.49315 4.28291 7.15741 3.69409 10.4779L6.36021 9.77398C6.85528 8.53724 7.74343 7.49784 8.87008 6.81204Z"
          fill="#A68D67"/>
    <path d="M11.5559 19.566C11.5559 20.2419 12 20.9902 12 20.9902C12 20.9902 12.4441 20.2436 12.4441 19.566C12.4441 19.0348 12 17.4855 12 17.4855C12 17.4855 11.5559 19.0348 11.5559 19.566Z"
          fill="#A68D67"/>
    <path d="M13.6562 10.2213H13.5559C13.5559 10.2213 14.1019 11.6012 13.199 12.1603L13.7368 12.4366C13.7368 12.435 14.5921 11.4531 13.6562 10.2213Z"
          fill="#A68D67"/>
    <path d="M17.921 13.4332C17.6546 15.2916 16.6579 16.6303 16.278 17.0826C16.3108 17.1237 16.3059 17.1172 16.3388 17.1583C17.778 16.4577 18.7352 14.7473 18.7352 14.7473C18.574 16.4248 17.4112 17.877 16.8421 18.497C16.8783 18.5397 16.8684 18.5282 16.9046 18.571C18.9539 17.303 20.2993 15.1864 20.4326 12.4876L18.0345 12.7902C18.0082 13.0073 17.9704 13.2227 17.921 13.4332Z"
          fill="#A68D67"/>
    <path d="M17.6398 9.77398L20.306 10.4779C19.7172 7.15577 17.2961 4.4915 14.0856 3.66262C14.375 4.52275 14.9014 6.09993 15.13 6.8104C16.2566 7.49785 17.1431 8.53724 17.6398 9.77398Z"
          fill="#A68D67"/>
</svg>
