<svg width="24" height="24" viewBox="0 0 24 24" fill="none" xmlns="http://www.w3.org/2000/svg">
    <g clip-path="url(#clip0_1714_3137)">
        <path d="M21.7608 11.2506C21.7608 9.85943 21.0083 7.92719 20.3958 6.42861C20.8785 6.58595 21.3633 6.76248 21.844 6.96395L21.3694 5.88751C20.9049 5.70138 20.4384 5.53828 19.9719 5.39245C19.8807 5.16603 19.8036 4.96264 19.7427 4.78803C19.5054 4.1011 20.1727 3.21653 20.9881 3.13786V2.00768C20.9881 2.00768 17.2846 1.69876 17.6131 4.79762C14.516 4.18936 11.997 4.31025 11.997 4.31025C11.997 4.31025 9.48 4.18936 6.38292 4.79762C6.71352 1.70067 3.01 2.00768 3.01 2.00768V3.13786C3.82535 3.21653 4.4906 4.1011 4.25533 4.78803C4.19651 4.96072 4.11741 5.16412 4.02614 5.39053C3.55965 5.53636 3.09316 5.69946 2.6287 5.88559L2.15613 6.96395C2.63681 6.7644 3.12156 6.58595 3.60427 6.42861C2.99175 7.92719 2.23928 9.85943 2.23928 11.2506C2.23928 16.5215 6.19024 20.8292 11.7009 20.9923V20.9981H11.7029H11.9179C11.9382 20.9981 11.9564 21 11.9767 21C11.9848 21 11.993 21 12.0011 21C12.0092 21 12.0173 21 12.0254 21C12.0457 21 12.0639 20.9981 12.0842 20.9981H12.2972H12.2992V20.9923C17.8099 20.8273 21.7608 16.5215 21.7608 11.2506ZM15.6052 11.4808L15.6843 11.4636V16.911C15.2482 17.1509 14.7797 17.3466 14.2909 17.4963V11.9797C14.6945 11.7552 15.1346 11.5844 15.6052 11.4808ZM15.6843 11.2256L15.6052 11.2083C15.1346 11.1067 14.6925 10.934 14.2909 10.7095V5.26773C14.7148 5.30035 15.1833 5.34448 15.6843 5.40589V11.2256V11.2256ZM8.3949 11.2083L8.3158 11.2256V5.40589C8.8188 5.34448 9.28732 5.29843 9.70918 5.26773V10.7095C9.30557 10.934 8.86545 11.1047 8.3949 11.2083ZM8.31378 11.4636L8.39288 11.4808C8.86342 11.5825 9.30557 11.7552 9.70716 11.9797V17.4963C9.21633 17.3466 8.74984 17.1509 8.31378 16.911V11.4636ZM12.5953 13.6241C12.8772 13.1463 13.2504 12.7242 13.6926 12.3769V17.6536C13.2423 17.7534 12.7758 17.8148 12.2992 17.834V14.7543C12.2992 14.3609 12.3925 13.9676 12.5953 13.6241ZM17.9255 6.0909C18.5197 7.60483 19.1363 9.69441 19.1363 11.2544C19.1363 13.461 18.0147 15.3587 16.2826 16.5426V5.48647C16.7714 5.55747 17.2846 5.64574 17.8159 5.75319C17.8484 5.86256 17.8849 5.97385 17.9255 6.0909ZM13.6926 5.22936V10.3103C13.2565 9.9688 12.8874 9.55434 12.6075 9.08615C12.3945 8.72925 12.2972 8.32055 12.2972 7.90992V5.19098C12.5852 5.19098 13.0679 5.19482 13.6926 5.22936ZM11.7009 5.19098V7.90992C11.7009 8.32055 11.6056 8.72925 11.3906 9.08615C11.1107 9.55434 10.7415 9.9688 10.3055 10.3103V5.22936C10.9322 5.19482 11.4129 5.19098 11.7009 5.19098ZM4.86176 11.2544C4.86176 9.69441 5.47834 7.60483 6.0726 6.0909C6.1152 5.97385 6.14967 5.86256 6.18415 5.75127C6.71352 5.64382 7.22868 5.55555 7.71748 5.48456V16.5426C5.98539 15.3587 4.86176 13.461 4.86176 11.2544ZM10.3055 17.6536V12.3769C10.7476 12.7242 11.1208 13.1463 11.4027 13.6241C11.6056 13.9676 11.6989 14.3609 11.6989 14.7543V17.834C11.2222 17.8148 10.7557 17.7534 10.3055 17.6536Z"
              fill="#A68D67"/>
        <path d="M22.5802 11.218C22.5072 11.2333 22.5376 11.2256 22.4625 11.241C22.7221 13.39 22.351 15.4297 21.3612 17.1797C20.193 19.2443 18.1911 20.4014 17.246 20.858C17.2723 20.9213 17.2642 20.9022 17.2906 20.9636C24.1865 19.298 23.1602 13.2941 22.5802 11.218Z"
              fill="#A68D67"/>
        <path d="M2.6367 17.1778C1.64693 15.4297 1.2778 13.39 1.53538 11.2391C1.46236 11.2237 1.49279 11.2314 1.41774 11.216C0.837674 13.2941 -0.188601 19.298 6.70529 20.9636C6.73165 20.9002 6.72354 20.9194 6.74991 20.858C5.80679 20.4014 3.80697 19.2443 2.6367 17.1778Z"
              fill="#A68D67"/>
    </g>
    <defs>
        <clipPath id="clip0_1714_3137">
            <rect width="22" height="19" fill="white" transform="translate(1 2)"/>
        </clipPath>
    </defs>
</svg>
