<svg width="24" height="24" viewBox="0 0 24 24" fill="none" xmlns="http://www.w3.org/2000/svg">
    <path d="M15.0563 10.0869C15.5047 11.3398 16.8844 16.1988 13.1425 20.3031L12.6121 23C12.4863 23 12.5118 23 12.3861 23L11.8557 20.3031C8.11376 16.1969 9.49534 11.3398 9.94371 10.0869C9.88539 10.056 9.89997 10.0637 9.84347 10.0328C5.49641 15.2085 10.8423 20.3031 10.8423 20.3031C4.94779 17.0656 4 12.8803 4 12.8803H6.03045C4.84572 10.6178 5.27404 6.58108 5.27404 6.58108L8.02627 6.69305L8.50563 7.43436C9.72499 4.26448 12.4991 0 12.4991 0C12.4991 0 15.275 4.26448 16.4944 7.43436L16.9737 6.69305L19.726 6.58108C19.726 6.58108 20.1543 10.6178 18.9696 12.8803H21C21 12.8803 20.0522 17.0637 14.1595 20.3031C14.1595 20.3031 19.5054 15.2085 15.1584 10.0328C15.1 10.0637 15.1146 10.056 15.0563 10.0869ZM13.1425 9.61197C13.1425 9.61197 12.7196 7.63127 12.5556 5.87452C12.4845 5.87452 12.5118 5.87452 12.4408 5.87452C12.2767 7.62934 11.8539 9.61197 11.8539 9.61197C10.6345 14.8398 12.4973 19.1216 12.4973 19.1216C12.4973 19.1216 14.3619 14.8398 13.1425 9.61197Z"
          fill="#A68D67"/>
    <path d="M19.0443 5.36295C19.0443 5.36295 18.5868 2.83592 15.6596 0.891907C15.5375 1.02897 15.563 1.00195 15.4409 1.13901C16.0023 1.95368 16.8735 3.44596 17.393 5.48264L19.0443 5.36295Z"
          fill="#A68D67"/>
    <path d="M14.7319 21C14.7319 21 17.3255 21.2587 19.212 19.4981C19.212 19.4981 20.3675 18.5116 20.3912 15.9054C20.3912 15.9054 19.3997 19.2973 14.7319 21Z"
          fill="#A68D67"/>
    <path d="M9.33853 0.889954C6.41133 2.83397 5.95384 5.361 5.95384 5.361L7.60518 5.47876C8.12464 3.44401 8.99587 1.9498 9.55725 1.13513C9.43696 0.999992 9.46065 1.02895 9.33853 0.889954Z"
          fill="#A68D67"/>
    <path d="M4.60881 15.9054C4.63251 18.5116 5.78808 19.4981 5.78808 19.4981C7.67454 21.2587 10.2682 21 10.2682 21C5.59852 19.2973 4.60881 15.9054 4.60881 15.9054Z"
          fill="#A68D67"/>
</svg>
