<svg width="24" height="25" viewBox="0 0 24 25" fill="none" xmlns="http://www.w3.org/2000/svg">
    <path d="M12 4.30759H12.0021L14.1733 2.28207C14.1733 2.28207 13.8189 0.854483 12.0021 0H12H11.9979C10.1811 0.854483 9.82666 2.28207 9.82666 2.28207L11.9979 4.30759H12Z"
          fill="black"/>
    <path d="M23.8705 15.0372C23.047 16.1007 21.6357 15.0414 21.6357 15.0414L20.6785 14.3731C20.6763 14.3731 20.6763 14.371 20.6763 14.369L20.9777 13.44C21.1645 12.8648 21.4425 12.3207 21.8012 11.8303L22.1132 11.4041L22.1153 11.4021L22.96 11.3752C22.9622 11.3752 22.9622 11.3752 22.9622 11.3752C22.9749 11.3483 23.3718 10.4297 22.4209 9.76759L22.4188 9.76552C21.4765 9.10759 20.706 9.76552 20.6827 9.78621V9.78828L20.9289 10.5766V10.5786L20.6212 11.0069C20.2603 11.4972 19.8231 11.9297 19.3244 12.2876L18.5179 12.8648C18.5157 12.8648 18.5157 12.8648 18.5136 12.8648L18.1868 12.6372C18.1846 12.6372 18.1846 12.6352 18.1846 12.6331C19.197 8.48483 15.6951 7.52276 13.4857 7.32207C13.4836 7.32207 13.4836 7.32 13.4836 7.32L13.231 3.98483C13.231 3.98276 13.2267 3.98069 13.2246 3.98276L12.0021 5.14966C12 5.15173 11.9979 5.15173 11.9979 5.14966L10.7754 3.98276C10.7733 3.98069 10.769 3.98276 10.769 3.98483L10.5164 7.32C10.5164 7.32207 10.5143 7.32207 10.5143 7.32207C8.30492 7.52276 4.80297 8.48483 5.81535 12.6331C5.81535 12.6352 5.81535 12.6352 5.81323 12.6372L5.48638 12.8648C5.48426 12.8648 5.48426 12.8648 5.48214 12.8648L4.67563 12.2876C4.17687 11.9297 3.73965 11.4972 3.37885 11.0069L3.06686 10.5807V10.5786L3.31305 9.79035C3.31305 9.78828 3.31518 9.78828 3.31305 9.78828C3.28971 9.76966 2.51928 9.11173 1.57694 9.76759L1.57481 9.76966C0.626105 10.4317 1.02299 11.3503 1.0336 11.3772C1.0336 11.3793 1.03573 11.3772 1.03573 11.3772L1.88044 11.4041C1.88256 11.4041 1.88256 11.4041 1.88256 11.4062L2.19455 11.8324C2.55536 12.3228 2.83339 12.8669 3.01804 13.4421L3.31942 14.371C3.31942 14.3731 3.31942 14.3731 3.3173 14.3752L2.36434 15.0414C2.36434 15.0414 0.952954 16.1007 0.129466 15.0372L0 15.1697C0 15.1697 0.848956 18.1697 3.36823 16.4131L7.44747 13.5683C7.44747 13.5683 8.82915 12.5317 9.65476 13.5414C9.65476 13.5414 9.65476 13.5414 9.65476 13.5434L11.6774 22.5579L11.4736 22.7566L7.73824 13.9986C7.73824 13.9966 7.73399 13.9966 7.73399 13.9966L6.13796 15.0848C6.13583 15.0848 6.13583 15.0869 6.13796 15.089L8.97135 19.8393C8.97347 19.8435 8.96923 19.8455 8.96498 19.8435L5.26777 15.6931C5.26565 15.691 5.26353 15.691 5.26353 15.6931L3.69296 16.8166C3.69084 16.8186 3.69084 16.8207 3.69296 16.8228L12 24.0021H12.0064L20.3134 16.8228C20.3155 16.8207 20.3155 16.8186 20.3134 16.8166L18.7428 15.6931C18.7407 15.691 18.7386 15.6931 18.7386 15.6931L15.035 19.8393C15.0329 19.8414 15.0265 19.8393 15.0287 19.8352L17.862 15.0848C17.862 15.0828 17.862 15.0807 17.862 15.0807L16.266 13.9924C16.2639 13.9903 16.2618 13.9924 16.2618 13.9945L12.5264 22.7524L12.3226 22.5538L14.3452 13.5393V13.5372C15.1709 12.5297 16.5525 13.5641 16.5525 13.5641L20.6318 16.409C23.151 18.1676 24 15.1655 24 15.1655L23.8705 15.0372ZM17.5585 12.1966C15.937 11.0648 15.0074 11.9048 14.5511 12.6455C14.549 12.6497 14.5447 12.6476 14.5447 12.6434L15.0923 10.2041C15.0923 10.2021 15.0923 10.2021 15.0923 10.2C15.0456 10.1835 13.8507 9.78621 12.6686 9.93311C12.6664 9.93311 12.6664 9.93517 12.6664 9.93724L12.0042 16.9779C12.0042 16.9821 11.9979 16.9821 11.9979 16.9779L11.3357 9.93724C11.3357 9.93517 11.3336 9.93517 11.3336 9.93311C10.1514 9.78621 8.95649 10.1835 8.9098 10.2C8.90768 10.2 8.90768 10.2021 8.9098 10.2041L9.45738 12.6434C9.45738 12.6476 9.45313 12.6497 9.45101 12.6455C8.99469 11.9028 8.06509 11.0648 6.44358 12.1966L6.29926 12.2979C6.33746 11.2366 7.05271 9.27931 11.8196 9.27931H12.1825C16.9558 9.27931 17.6668 11.2386 17.7029 12.2979L17.5585 12.1966Z"
          fill="black"/>
</svg>
