<svg width="24" height="24" viewBox="0 0 24 24" fill="none" xmlns="http://www.w3.org/2000/svg">
    <path d="M3.48969 10.2894C3.27818 11.0131 3.16248 11.7731 3.16248 12.5607C3.16248 14.2587 3.69217 15.8408 4.59789 17.1657L5.49457 16.3089L6.23036 15.6059C5.70609 14.7026 5.40599 13.6662 5.40599 12.5625C5.40599 12.4208 5.41322 12.2809 5.42226 12.141L5.4078 12.1272L3.48969 10.2894Z"
          fill="black"/>
    <path d="M11.529 6.2838C11.6827 6.27344 11.8382 6.26653 11.9955 6.26653C12.1473 6.26653 12.2974 6.27344 12.4474 6.2838L14.3818 4.43561C13.6225 4.23179 12.8235 4.12125 11.9973 4.12125C11.1657 4.12125 10.363 4.23352 9.6001 4.43907L11.529 6.2838Z"
          fill="black"/>
    <path d="M8.30212 12.559C8.30212 12.8803 8.35094 13.1912 8.4359 13.4866L9.41213 12.5538L8.43771 11.6228C8.35274 11.9217 8.30212 12.2343 8.30212 12.559Z"
          fill="black"/>
    <path d="M12.9662 9.158C12.6571 9.07682 12.3317 9.03018 11.9954 9.03018C11.6483 9.03018 11.3139 9.07855 10.9939 9.16491L11.9755 10.1028L12.9662 9.158Z"
          fill="black"/>
    <path d="M14.9694 12.9632L15.5479 13.5159C15.6383 13.2119 15.6889 12.8924 15.6889 12.559C15.6889 12.2291 15.6383 11.913 15.5497 11.6107L14.5518 12.5642L14.9694 12.9632Z"
          fill="black"/>
    <path d="M11.0029 15.9548C11.3193 16.0395 11.6519 16.0878 11.9954 16.0878C12.3353 16.0878 12.6625 16.0412 12.9753 15.9583L11.9882 15.0152L11.0029 15.9548Z"
          fill="black"/>
    <path d="M15.2839 18.1226L15.2079 18.05C14.257 18.5596 13.1615 18.8532 11.9936 18.8532C10.8348 18.8532 9.7465 18.5648 8.79919 18.0621L7.86997 18.95L7.16492 19.6236C8.55333 20.4924 10.2111 21.0002 11.9918 21.0002C13.7798 21.0002 15.4466 20.489 16.8386 19.6115L15.2947 18.1364L15.2839 18.1226Z"
          fill="black"/>
    <path d="M19.1618 16.9273L19.3986 17.1536C20.3007 15.8305 20.8286 14.2535 20.8286 12.559C20.8286 11.7679 20.7111 11.0027 20.4977 10.2755L18.5652 12.1237C18.576 12.2688 18.5833 12.4139 18.5833 12.5607C18.5833 13.6593 18.2868 14.6939 17.7661 15.5938L19.1491 16.9152L19.1618 16.9273Z"
          fill="black"/>
    <path d="M21.6926 3.29559C21.0309 2.6634 20.4524 3.24204 20.4524 3.24204C20.4524 3.24204 20.823 3.40613 21.2008 3.76541C21.5642 4.11259 21.7486 4.4805 21.7486 4.4805C21.7486 4.4805 22.3524 3.92605 21.6926 3.29559Z"
          fill="black"/>
    <path d="M21.407 8.45672L19.8848 8.58281C19.6335 8.07326 19.2412 7.57062 18.9086 7.19062L21.4757 4.73788C21.4757 4.73788 21.3039 4.38379 20.9279 4.02279C20.6296 3.73779 20.1795 3.49942 20.1795 3.49942L17.6123 5.95216C17.2164 5.63434 16.6885 5.25952 16.1552 5.01943L16.2872 3.56506L15.998 3.57024L13.1 6.34253C13.1 6.34253 14.2823 6.44098 15.6689 7.28908L4.99551 17.4869L4.28503 19.9276L6.8395 19.2488L17.5111 9.0509C18.3517 10.279 18.4928 11.4777 18.4928 11.4777L21.4015 8.73308L21.407 8.45672ZM12.8415 11.932L12.5812 11.9994L12.6517 11.7506L16.553 8.02317L16.7428 8.20453L12.8415 11.932Z"
          fill="black"/>
    <path d="M3.54927 3.24201C3.54927 3.24201 2.97076 2.66337 2.3091 3.29556C1.64743 3.92602 2.25305 4.48047 2.25305 4.48047C2.25305 4.48047 2.43745 4.11256 2.80083 3.76538C3.17685 3.4061 3.54927 3.24201 3.54927 3.24201Z"
          fill="black"/>
    <path d="M10.6161 11.4138L7.25719 8.20455L7.44701 8.02318L10.806 11.2325L11.6321 10.4431L8.33284 7.28909C9.71945 6.44099 10.9018 6.34254 10.9018 6.34254L8.0002 3.57198L7.71095 3.5668L7.84292 5.02117C7.30961 5.26126 6.78353 5.63608 6.38581 5.9539L3.8187 3.50116C3.8187 3.50116 3.36855 3.73952 3.07026 4.02453C2.69604 4.3838 2.52429 4.73962 2.52429 4.73962L5.09141 7.19236C4.75877 7.57063 4.36647 8.075 4.11518 8.58455L2.59299 8.45846L2.59841 8.73482L5.50721 11.4777C5.50721 11.4777 5.65003 10.279 6.48886 9.05091L9.78814 12.2032L9.79718 12.1946L10.6161 11.4138Z"
          fill="black"/>
    <path d="M19.7149 19.9259L19.0044 17.487L14.1992 12.8958L12.6553 14.3709L12.6409 14.3848L12.3571 14.6559L17.1623 19.2471L19.7149 19.9259Z"
          fill="black"/>
</svg>
