<svg width="24" height="24" viewBox="0 0 24 24" fill="none" xmlns="http://www.w3.org/2000/svg">
    <path d="M21.8622 13.3551C21.8622 13.3551 22 12.871 22 12C22 11.2491 21.8622 10.6449 21.8622 10.6449L19.6113 10.1908C19.417 9.36749 19.0919 8.59541 18.6608 7.89753L19.9329 5.98587C19.9329 5.98587 19.689 5.54594 19.0724 4.92933C18.5406 4.39753 18.0159 4.0689 18.0159 4.0689L16.1042 5.34099C15.4046 4.90989 14.6325 4.58481 13.811 4.39046L13.3551 2.13781C13.3551 2.13781 12.871 2 12 2C11.2491 2 10.6449 2.13781 10.6449 2.13781L10.1908 4.38869C9.36749 4.58304 8.59541 4.90813 7.89753 5.33922L5.98587 4.06714C5.98587 4.06714 5.54594 4.31095 4.92933 4.92756C4.39753 5.45936 4.0689 5.9841 4.0689 5.9841L5.34099 7.89576C4.90989 8.59541 4.58481 9.36749 4.39046 10.189L2.13781 10.6449C2.13781 10.6449 2 11.129 2 12C2 12.7509 2.13781 13.3551 2.13781 13.3551L4.38869 13.8092C4.58304 14.6325 4.90813 15.4046 5.33922 16.1025L4.06714 18.0141C4.06714 18.0141 4.31095 18.4541 4.92756 19.0707C5.45936 19.6025 5.9841 19.9311 5.9841 19.9311L7.89576 18.659C8.59541 19.0901 9.36749 19.4152 10.189 19.6095L10.6431 21.8604C10.6431 21.8604 11.1272 21.9982 11.9982 21.9982C12.7491 21.9982 13.3534 21.8604 13.3534 21.8604L13.8074 19.6095C14.6307 19.4152 15.4028 19.0901 16.1007 18.659L18.0124 19.9311C18.0124 19.9311 18.4523 19.6873 19.0689 19.0707C19.6007 18.5389 19.9293 18.0141 19.9293 18.0141L18.6572 16.1025C19.0883 15.4028 19.4134 14.6307 19.6078 13.8092L21.8622 13.3551ZM12 18.4028C8.46466 18.4028 5.59717 15.5371 5.59717 12C5.59717 8.46466 8.4629 5.59717 12 5.59717C15.5371 5.59717 18.4028 8.46466 18.4028 12C18.4028 15.5353 15.5353 18.4028 12 18.4028Z"
          fill="black"/>
    <path d="M13.7297 12.8037L16.8163 12.0935C16.8163 11.9928 16.8163 12.0087 16.8163 11.9097L13.7297 11.1995C13.2156 11.0811 12.8181 10.6747 12.7103 10.1606L12.0937 7.22775C11.9912 7.22775 12.0106 7.22775 11.9082 7.22775L11.2916 10.1606C11.1838 10.6765 10.7845 11.0829 10.2721 11.1995L7.18555 11.9097C7.18555 12.0104 7.18555 11.9945 7.18555 12.0935L10.2721 12.8037C10.7863 12.9221 11.1838 13.3285 11.2916 13.8426L11.9082 16.7772C12.0106 16.7772 11.9912 16.7772 12.0937 16.7772L12.7103 13.8426C12.8181 13.3267 13.2173 12.9221 13.7297 12.8037Z"
          fill="black"/>
    <path d="M14.6007 10.6553L15.5566 10.8761C15.1855 9.70476 14.2527 8.78426 13.0742 8.42914L13.2703 9.362C13.841 9.63762 14.3092 10.0934 14.6007 10.6553Z"
          fill="black"/>
    <path d="M13.2703 14.6376L13.0742 15.5705C14.2509 15.2154 15.1855 14.2931 15.5566 13.1235L14.6007 13.3426C14.3092 13.9044 13.841 14.362 13.2703 14.6376Z"
          fill="black"/>
    <path d="M10.9258 15.5705L10.7297 14.6376C10.159 14.362 9.69083 13.9044 9.39931 13.3426L8.44348 13.1217C8.81451 14.2931 9.74914 15.2154 10.9258 15.5705Z"
          fill="black"/>
    <path d="M9.39931 10.6553C9.69083 10.0935 10.159 9.63588 10.7297 9.36026L10.9258 8.4274C9.74914 8.78252 8.81451 9.70478 8.44348 10.8744L9.39931 10.6553Z"
          fill="black"/>
    <path d="M12.6484 6.4115L12.8233 7.24542C14.818 7.58994 16.3958 9.16238 16.7491 11.1518L17.5866 11.3444C17.2862 8.76309 15.2315 6.71009 12.6484 6.4115Z"
          fill="black"/>
    <path d="M11.1749 7.24542L11.3498 6.4115C8.76674 6.71009 6.71197 8.76309 6.41162 11.3444L7.24908 11.1518C7.6042 9.16238 9.18194 7.58994 11.1749 7.24542Z"
          fill="black"/>
    <path d="M12.8251 16.7542L12.6501 17.5882C15.2332 17.2896 17.288 15.2366 17.5883 12.6553L16.7491 12.8479C16.3957 14.8373 14.818 16.4097 12.8251 16.7542Z"
          fill="black"/>
    <path d="M7.24908 12.8479L6.41162 12.6553C6.71197 15.2366 8.76674 17.2896 11.3498 17.5882L11.1749 16.7542C9.18194 16.4097 7.6042 14.8373 7.24908 12.8479Z"
          fill="black"/>
</svg>
