<svg width="24" height="25" viewBox="0 0 24 25" fill="none" xmlns="http://www.w3.org/2000/svg">
    <path d="M18.5062 10.7933C20.8852 15.0115 19.0834 17.9515 19.0834 17.9515C19.1803 13.8325 16.7026 12.5169 16.7026 12.5169C17.2368 13.2692 17.556 14.2124 17.556 15.2379C17.556 17.6951 15.7309 19.6863 13.4773 19.6863C11.2255 19.6863 9.45775 17.6933 9.39858 15.2379C9.37348 14.2086 9.90775 12.5 11.4191 10.8887C12.4105 9.83321 13.1241 8.71409 13.4755 7.96925C14.8739 4.99928 13.852 1.60261 12.8605 0.998138C12.8605 0.998138 14.241 4.30123 12.0986 7.11213C11.0426 8.497 9.58324 9.62173 8.36771 10.7876C8.05934 11.0665 7.02488 12.3166 6.64121 12.9828C6.06571 13.9878 5.7699 15.1406 5.7699 16.3589C5.7699 20.579 9.15296 24.0019 13.3285 24.0019C17.5022 24.0019 21 20.5322 21 16.3103C21 14.1151 19.883 11.7926 18.5062 10.7933Z"
          fill="black"/>
    <path d="M14.2177 14.4557L13.4343 10.6884L12.649 14.4557C12.6114 14.6372 12.4715 14.7813 12.2923 14.8243L8.46277 15.717L12.2923 16.6078C12.4715 16.649 12.6114 16.7931 12.649 16.9765L13.4325 20.7437L14.216 16.9765C14.2536 16.795 14.3934 16.6509 14.5727 16.6078L18.4022 15.7151L14.5727 14.8225C14.3952 14.7813 14.2554 14.6372 14.2177 14.4557Z"
          fill="black"/>
    <path d="M17.0073 8.82823L16.6989 7.34418L16.3906 8.82823C16.3511 9.02099 16.2041 9.1707 16.0141 9.21562L14.4991 9.56745L16.0141 9.91928C16.2041 9.96419 16.3493 10.1139 16.3906 10.3067L16.6989 11.7907L17.0073 10.3067C17.0468 10.1139 17.1938 9.96419 17.3838 9.91928L18.8987 9.56745L17.3838 9.21562C17.1938 9.17257 17.0468 9.02099 17.0073 8.82823Z"
          fill="black"/>
    <path d="M9.72309 5.93686C9.83246 6.38413 9.68544 6.88194 9.31612 7.43963C8.26373 9.03035 6.25218 11.0272 5.16393 13.2748C3.51453 16.6789 4.6709 20.1579 5.81293 21.5802C5.81293 21.5802 1.4205 18.5897 3.61134 13.4657C4.07748 12.3746 5.04381 11.0814 6.8976 9.40651C7.53405 8.83011 8.32289 8.11709 8.97907 7.35167C9.37349 6.89317 9.63883 6.43279 9.72309 5.93686Z"
          fill="black"/>
</svg>
