<svg width="24" height="24" viewBox="0 0 24 24" fill="none" xmlns="http://www.w3.org/2000/svg">
    <path d="M16.635 7.17386C16.635 7.17386 18.3704 8.65137 19.205 10.808C20.4768 14.0899 19.4253 17.3138 18.4383 18.6416C18.4383 18.6416 22.2983 15.9759 20.5447 11.1247C19.5842 8.47093 16.635 7.17386 16.635 7.17386Z"
          fill="black"/>
    <path d="M11.4585 7.45642L12.0927 8.17304L10.8624 10.0625L10.4434 10.2463L7.23254 7.6726L7.42629 6.08445L11.3608 2.77197L15.7888 6.19509L15.9113 8.58327L15.8103 9.08372L10.9302 14.7095L12.1556 16.3538L11.6042 21.731L10.9485 22L10.2894 16.6142L8.58544 14.6005L13.7619 7.99772L11.3558 5.8121L9.72638 7.3679L10.4434 8.17304L11.4585 7.45642Z"
          fill="black"/>
    <path d="M8.96296 1C8.48936 1.75748 8.56388 2.98306 9.48458 3.61968L10.493 2.77199C9.07556 2.30388 8.96296 1 8.96296 1Z"
          fill="black"/>
    <path d="M6.55529 12.8847C6.55529 11.9196 6.88482 11.0327 7.43625 10.3246C7.43625 10.3246 4.87783 11.5621 4.97884 15.438C4.97884 15.438 3.62594 11.986 6.35327 7.95517C4.54995 9.11266 3 11.8277 3 13.8924C3 16.7674 4.89273 19.2731 7.57369 20.4374C7.6747 20.5106 7.73597 20.5514 7.73597 20.5514L4.52512 20.9855L10.3573 21.6868L9.77939 16.953C7.92971 16.5121 6.55529 14.8593 6.55529 12.8847Z"
          fill="black"/>
    <path d="M16.9098 18.5514C18.0425 17.302 18.7264 15.6951 18.7264 13.9384C18.7264 12.7928 18.4217 11.7068 17.8256 10.7638C17.5706 10.3604 17.0539 9.5093 16.6333 8.88629L16.5339 9.38163L15.6845 10.3604C17.5275 14.0184 15.5205 15.8755 15.5205 15.8755C15.8931 13.6014 15.0983 12.0541 14.7207 11.4719L14.7108 11.4838C14.9062 12.02 14.989 12.5035 14.979 12.8848C14.9376 14.4882 14.0451 15.8823 12.7253 16.5853L12.202 21.68L17.9663 20.9872L14.7555 20.5531C14.7538 20.5514 16.0786 19.6646 16.9098 18.5514Z"
          fill="black"/>
</svg>
