<svg width="24" height="24" viewBox="0 0 24 24" fill="none" xmlns="http://www.w3.org/2000/svg">
    <path d="M6.80989 15.1533C6.80989 15.1533 2.0374 12.6132 2 6.94721L3.95928 6.52013L2.18076 5.0111C2.18076 5.0111 3.17806 1.49479 6.62705 0.00203373L7.31685 3.30684L9.83503 4.8606V5.35887C9.83503 5.85306 9.96177 6.03813 10.3524 6.13372V4.77926L12 3.35768L13.6476 4.77926V6.13168C14.0382 6.0361 14.165 5.85103 14.165 5.35683V4.8606L16.6831 3.3048L17.3729 0C20.8219 1.49275 21.8192 5.00907 21.8192 5.00907L20.0407 6.51809L22 6.94517C21.9647 12.6111 17.1901 15.1513 17.1901 15.1513L15.7025 11.4743L14.1608 10.8886L14.1546 10.4574C14.138 9.90425 13.6476 9.98153 13.6476 9.98153V11.2038L12.8352 11.6532V17.0894L13.3983 17.429C13.4045 17.5104 13.4066 17.5429 13.4128 17.6243L12.9246 18.031V21.9561L13.6684 22.792L13.523 23.0584H12.962L12 24L11.038 23.0584H10.475L10.3295 22.792L11.0733 21.9561V18.031L10.5851 17.6243C10.5913 17.5429 10.5934 17.5104 10.5996 17.429L11.1627 17.0894V11.6532L10.3503 11.2038V9.98153C10.3503 9.98153 9.85996 9.90425 9.84334 10.4574L9.83711 10.8886L8.29545 11.4743L6.80989 15.1533ZM14.2003 9.04601L15.6422 9.62562C15.6775 9.58698 15.6775 9.58698 15.7129 9.54834L14.9046 8.17558L15.6983 6.54453C15.7274 6.48352 15.6609 6.42251 15.6007 6.45505L14.2003 7.21973V9.04601ZM9.79971 9.04601V7.21973L8.39933 6.45505C8.33908 6.42251 8.27259 6.48352 8.30168 6.54453L9.09537 8.17558L8.28714 9.54834C8.32246 9.58698 8.32246 9.58698 8.35778 9.62562L9.79971 9.04601Z"
          fill="#A68D67"/>
    <path d="M4.08191 15.2041C4.91092 16.1966 7.73036 19.6966 8.52405 20.683C8.46379 20.7786 8.46172 20.7806 8.40146 20.8762L6.46504 20.4817L6.42972 22.2225L3.34432 18.5801L5.46774 19.113L3.97803 15.2631C4.03828 15.2306 4.02166 15.2387 4.08191 15.2041Z"
          fill="#A68D67"/>
    <path d="M20.0241 15.2652L18.5344 19.115L20.6578 18.5822L17.5724 22.2246L17.5371 20.4837L15.6007 20.8782C15.5404 20.7827 15.5384 20.7806 15.4781 20.685C16.2718 19.6987 19.0912 16.1986 19.9203 15.2062C19.9784 15.2387 19.9639 15.2306 20.0241 15.2652Z"
          fill="#A68D67"/>
</svg>
