<svg width="24" height="24" viewBox="0 0 24 24" fill="none" xmlns="http://www.w3.org/2000/svg">
<path d="M19.3746 7.12563L19.955 5.81282L18.1873 4.04505L16.8746 4.62561M19.3746 7.12563C18.7177 6.13394 17.8663 5.28243 16.8746 4.62561M19.3746 7.12563C19.989 8.05335 20.4331 9.10376 20.6621 10.2322M16.8746 4.62561C15.9468 4.01114 14.8964 3.56705 13.7679 3.33797M20.6621 10.2322C20.7781 10.8034 20.8389 11.3946 20.8389 12C20.8389 12.6054 20.7781 13.1966 20.6621 13.7678M20.6621 10.2322L22 10.75V13.25L20.6621 13.7678M20.6621 13.7678C20.4331 14.8962 19.989 15.9466 19.3746 16.8744M19.3746 16.8744L19.955 18.1872L18.1873 19.955L16.8746 19.3744M19.3746 16.8744C18.7177 17.8661 17.8663 18.7176 16.8746 19.3744M16.8746 19.3744C15.9468 19.9889 14.8964 20.433 13.7679 20.662M13.7679 20.662C13.1967 20.778 12.6055 20.8388 12.0001 20.8388C11.3947 20.8388 10.8035 20.778 10.2323 20.662M13.7679 20.662L13.25 22H10.75L10.2323 20.662M10.2323 20.662C9.10385 20.433 8.05345 19.9889 7.12573 19.3745M7.12573 19.3745L5.81291 19.955L4.04514 18.1872L4.62571 16.8745M7.12573 19.3745C6.13403 18.7176 5.28253 17.8662 4.62571 16.8745M4.62571 16.8745C4.01123 15.9467 3.56714 14.8963 3.33807 13.7678M3.33807 13.7678C3.22212 13.1966 3.16126 12.6054 3.16126 12C3.16126 11.3946 3.22212 10.8034 3.33807 10.2322M3.33807 13.7678L2 13.25V10.75L3.33807 10.2322M3.33807 10.2322C3.56714 9.10371 4.01123 8.05327 4.62571 7.12552M4.62571 7.12552L4.04514 5.81282L5.81291 4.04505L7.12573 4.62554M4.62571 7.12552C5.28253 6.13384 6.13403 5.28235 7.12573 4.62554M7.12573 4.62554C8.05345 4.0111 9.10385 3.56704 10.2323 3.33797M10.2323 3.33797C10.8035 3.22203 11.3947 3.16116 12.0001 3.16116C12.6055 3.16116 13.1967 3.22203 13.7679 3.33797M10.2323 3.33797L10.75 2H13.25L13.7679 3.33797M10.4654 10.9796C10.9976 11.2043 10.7866 10.5535 10.8537 9.96127C10.9832 7.64609 12.4935 7 12.4935 7C11.6592 8.69951 14.1619 9.42754 15.5116 11.9838C16.7653 14.3552 15.5 18 11.9999 18C8.49989 18 7.4904 14.6455 8.20478 12.5082C8.75375 10.8602 9.5 9.5 9.5 9.5C9.5 9.5 9.93559 10.7548 10.4654 10.9796Z" stroke="#7B61FF" stroke-linecap="round" stroke-linejoin="round"/>
</svg>
