<svg width="72" height="72" viewBox="0 0 72 72" fill="none" xmlns="http://www.w3.org/2000/svg">
<path d="M45 24L6 63L9 66M42 21C42 21 39 18 39 13.5C39 8.99998 39 5.99998 39 5.99998C39 5.99998 28.5 1.49997 21 8.99998C13.5 16.5 18 27 18 27C18 27 21 27 25.5 27C30 27 33 30 33 30M21 21C21 21 19.5 16.5 24 12C28.5 7.49998 33 8.99998 33 8.99998M39 36C39 36 42 39 42 43.5C42 48 42 51 42 51C42 51 52.5 55.5 60 48C67.5 40.5 63 30 63 30C63 30 60 30 55.5 30C51 30 48 27 48 27M60 36C60 36 61.5 40.5 57 45C52.5 49.5 48 48 48 48" stroke="#7B61FF" stroke-width="1.5" stroke-linecap="round" stroke-linejoin="round"/>
</svg>
