<svg width="24" height="24" viewBox="0 0 24 24" fill="none" xmlns="http://www.w3.org/2000/svg">
<path d="M4 19L5 20M9 14L17 6M17 6L18 7M17 6L17 5.41422C17 5.149 17.1054 4.89464 17.2929 4.7071L19.7071 2.29289C19.8946 2.10536 20.149 2 20.4142 2H20.5858C20.851 2 21.1054 2.10536 21.2929 2.29289L21.7071 2.70711C21.8946 2.89464 22 3.149 22 3.41421V3.58579C22 3.851 21.8946 4.10536 21.7071 4.29289L19.2929 6.70711C19.1054 6.89464 18.851 7 18.5858 7H18M18 7L13 12M18.5 4.5L17 3M19.5 3.5L18 2M2.99999 21C1.00001 19 1.99992 16 4.49997 13.5C7.00002 11 9.49999 11.5 11 13C12.5 14.5 13 17 10.5 19.5C7.99996 22 4.99996 23 2.99999 21ZM8.5 17V17C8.5 16.1716 7.82843 15.5 7 15.5V15.5C6.17157 15.5 5.5 16.1716 5.5 17V17C5.5 17.8284 6.17157 18.5 7 18.5V18.5C7.82843 18.5 8.5 17.8284 8.5 17Z" stroke="#7B61FF" stroke-linecap="round" stroke-linejoin="round"/>
</svg>
