<svg width="73" height="72" viewBox="0 0 73 72" fill="none" xmlns="http://www.w3.org/2000/svg">
<path d="M12.5 57L15.5 60M27.5 42L51.5 18M51.5 18L54.5 21M51.5 18L51.5 15.4142C51.5 15.149 51.6054 14.8946 51.7929 14.7071L60.2071 6.29289C60.3946 6.10536 60.649 6 60.9142 6H63.0858C63.351 6 63.6054 6.10536 63.7929 6.29289L66.2071 8.70711C66.3946 8.89464 66.5 9.149 66.5 9.41421V11.5858C66.5 11.851 66.3946 12.1054 66.2071 12.2929L57.7929 20.7071C57.6054 20.8946 57.351 21 57.0858 21H54.5M54.5 21L39.5 36M56 13.5L51.5 9M59 10.5L54.5 6M9.49996 63C3.50004 57 6.49975 48 13.9999 40.5C21.5001 33 29 34.5 33.5 39.0001C37.9999 43.5001 39.4999 51 31.9999 58.5C24.4999 66 15.4999 69 9.49996 63ZM26 51V51C26 48.5147 23.9853 46.5 21.5 46.5V46.5C19.0147 46.5 17 48.5147 17 51V51C17 53.4853 19.0147 55.5 21.5 55.5V55.5C23.9853 55.5 26 53.4853 26 51Z" stroke="#7B61FF" stroke-width="1.5" stroke-linecap="round" stroke-linejoin="round"/>
</svg>
