<svg width="24" height="24" viewBox="0 0 24 24" fill="none" xmlns="http://www.w3.org/2000/svg">
<g clip-path="url(#clip0)">
<path d="M10.8933 12.0069C11.8696 12.9832 13.1492 13.4713 14.4288 13.4713M10.8933 4.93584C10.4296 5.39962 10.0759 5.93185 9.83246 6.5M14.4567 13.4713C13.9963 13.5923 13.513 13.6568 13.0146 13.6568C12.8264 13.6568 12.6402 13.6476 12.4567 13.6296M14.4567 23.4713L12.4567 23.4713L12.4567 13.6296M12.4567 13.6296C9.5944 13.3494 7.35783 10.9358 7.35783 7.99995C7.35783 4.87578 9.89047 2.34313 13.0146 2.34313C14.8099 2.34313 16.4098 3.17939 17.446 4.4836C15.7165 3.48508 13.5589 3.22307 11.8531 4.19972M16.8611 14.9261C16.8611 14.9261 15.5633 15.3909 14.8611 16.3104C14.1589 17.2299 13.7544 18.3769 14.0522 18.6043C14.35 18.8317 15.35 18.1395 16.0522 17.22C16.7544 16.3004 16.8611 14.9261 16.8611 14.9261ZM7.91253 16.7516C7.91253 16.7516 8.11021 18.1158 8.87192 18.9867C9.63364 19.8576 10.6774 20.4818 10.9594 20.2351C11.2414 19.9884 10.7617 18.8709 10 18C9.23828 17.1291 7.91253 16.7516 7.91253 16.7516Z" stroke="#7B61FF" stroke-linecap="round" stroke-linejoin="round"/>
</g>
<defs>
<clipPath id="clip0">
<rect width="24" height="24" fill="white"/>
</clipPath>
</defs>
</svg>
