<svg width="24" height="24" viewBox="0 0 24 24" fill="none" xmlns="http://www.w3.org/2000/svg">
<path d="M3 17V18C3 18.5304 3.21071 19.0391 3.58579 19.4142C3.96086 19.7893 4.46957 20 5 20H6H18H19C19.5304 20 20.0391 19.7893 20.4142 19.4142C20.7893 19.0391 21 18.5304 21 18V17V14M3 17V11V7V6C3 5.46957 3.21071 4.96086 3.58579 4.58579C3.96086 4.21071 4.46957 4 5 4H6H18H19C19.5304 4 20.0391 4.21071 20.4142 4.58579C20.7893 4.96086 21 5.46957 21 6V7V11V14M3 17L8 13L13 15.5L17.5 11L21 14M6 9V9C6.55228 9.55228 7.44772 9.55228 8 9V9C8.55228 8.44772 8.55228 7.55228 8 7V7C7.44772 6.44772 6.55228 6.44772 6 7V7C5.44772 7.55228 5.44772 8.44772 6 9Z" stroke="#7B61FF" stroke-linecap="round" stroke-linejoin="round"/>
</svg>
