<svg width="73" height="72" viewBox="0 0 73 72" fill="none" xmlns="http://www.w3.org/2000/svg">
<g clip-path="url(#clip0)">
<path d="M33.3179 47.0459C23.772 56.5919 15.2867 58.7132 15.2867 58.7132C15.2867 58.7132 18.4687 49.1673 26.954 40.682C35.4393 32.1967 42.1568 27.6005 42.1568 27.6005L44.9852 29.0147M44.9852 29.0147L36.4999 24.7721L31.5923 22.3183C29.6164 21.3303 28.8155 18.9276 29.8035 16.9517L36.4999 3.55888L45.9192 19.2577C46.0033 19.3979 46.1043 19.5273 46.22 19.6429L48.1672 21.5901L49.2278 22.6508M44.9852 29.0147L46.3994 31.8432C46.3994 31.8432 45.0691 33.9717 41.8372 37.8207M44.9852 29.0147L49.2278 37.5L51.6816 42.4076C52.6696 44.3835 55.0723 45.1844 57.0482 44.1964L70.441 37.5L54.7423 28.0807C54.602 27.9966 54.4727 27.8956 54.357 27.78L52.4098 25.8327L51.3492 24.7721M49.2278 22.6508L55.5918 14.1655L59.8344 18.4081L51.3492 24.7721M49.2278 22.6508L51.3492 24.7721M37.5606 15.2261L39.6819 17.3475V21.5901L37.5606 19.4688V15.2261ZM58.7738 36.4393L56.6525 34.318H52.4098L54.5311 36.4393H58.7738Z" stroke="#7B61FF" stroke-width="1.5" stroke-linecap="round" stroke-linejoin="round"/>
</g>
<defs>
<clipPath id="clip0">
<rect width="72" height="72" fill="white" transform="translate(0.5)"/>
</clipPath>
</defs>
</svg>
