<?xml version="1.0" encoding="utf-8"?>
<!-- Generator: Adobe Illustrator 24.0.1, SVG Export Plug-In . SVG Version: 6.00 Build 0)  -->
<svg version="1.1" id="Слой_1" xmlns="http://www.w3.org/2000/svg" xmlns:xlink="http://www.w3.org/1999/xlink" x="0px" y="0px"
	 viewBox="0 0 1920 1080" style="enable-background:new 0 0 1920 1080;" xml:space="preserve">
<style type="text/css">
	.st0{fill:#35393D;}
</style>
<path class="st0" d="M591.3,0c0,1.1-0.1,2.1-0.1,3.2H620c0.3-1.1,0.6-2.1,0.8-3.2H591.3z"/>
<path class="st0" d="M1498.9,3.2c1.5-1.1,3-2.1,4.5-3.2h-15c-1.3,1.1-2.5,2.1-3.8,3.2H1498.9z"/>
<path class="st0" d="M323.3,3.2H516c-1-1.1-1.9-2.1-2.8-3.2H313.9c-0.1,0.9-0.1,1.7-0.2,2.6C316.9,2.7,320.1,3,323.3,3.2z"/>
<path class="st0" d="M1248.4,3.2c0.6-1.1,1.3-2.1,2-3.2h-143.8c-2.1,1.1-4.3,2.2-6.4,3.2H1248.4z"/>
<path class="st0" d="M1442.6,3.2h27.2c1.3-1.1,2.6-2.1,3.8-3.2h-28.5C1444.3,1.1,1443.5,2.1,1442.6,3.2z"/>
<path class="st0" d="M0,591.7c1.1-0.4,2.1-0.7,3.2-1.1v-120c-1.1-0.1-2.1-0.2-3.2-0.2V591.7z"/>
<path class="st0" d="M293.9,3.2c0.7-0.3,1.4-0.6,2.2-0.6c2.5-0.1,5.1-0.2,7.6-0.2c0.1-0.8,0.1-1.6,0.2-2.4h-15.8
	c-0.7,1.1-1.5,2.1-2.2,3.2H293.9z"/>
<path class="st0" d="M3.2,623.6c-1.1,0-2.1,0-3.2,0v7.2c1.1-0.2,2.1-0.4,3.2-0.6V623.6z"/>
<path class="st0" d="M3.2,602c-1.1,0.4-2.1,0.7-3.2,1.1v10.8c1.1,0,2.1,0,3.2,0V602z"/>
<path class="st0" d="M0,460.2c1.1,0.1,2.1,0.1,3.2,0.2v-89.9c-1.1,0.1-2.1,0.3-3.2,0.4V460.2z"/>
<path class="st0" d="M781,3.2c-0.6-1.1-1.2-2.1-1.9-3.2h-11.6c-0.1,1.1-0.2,2.1-0.3,3.2H781z"/>
<path class="st0" d="M1061.8,1076.8c0.6,1.1,1.2,2.1,1.8,3.2h185.9c0.1-1.1,0.2-2.1,0.3-3.2H1061.8z"/>
<path class="st0" d="M434.7,1076.8c-1,1.1-2.1,2.1-3.1,3.2h128c0.5-1.1,1-2.1,1.5-3.2H434.7z"/>
<path class="st0" d="M703.8,3.2c-0.3-1.1-0.6-2.1-0.9-3.2h-50.7c0.1,1.1,0.2,2.1,0.3,3.2H703.8z"/>
<path class="st0" d="M1430.1,3.2c0.8-1.1,1.7-2.1,2.5-3.2H1262c-0.7,1.1-1.3,2.1-2,3.2H1430.1z"/>
<path class="st0" d="M1639.6,1076.8c0.8,1.1,1.6,2.2,2.4,3.2h193.3c0.8-1.1,1.7-2.1,2.5-3.2H1639.6z"/>
<path class="st0" d="M1295.7,1076.8c0.2,1.1,0.3,2.1,0.4,3.2h157.1c0.2-1.1,0.4-2.1,0.6-3.2H1295.7z"/>
<path class="st0" d="M1916.8,455.6c1.1-0.3,2.1-0.7,3.2-1v-65.9c-1.1,0.4-2.1,0.8-3.2,1.2V455.6z"/>
<path class="st0" d="M1519.6,0c-1.5,1.1-3,2.1-4.5,3.2h139.7c0.2-1.1,0.3-2.1,0.5-3.2H1519.6z"/>
<path class="st0" d="M1052.3,3.2c1.1-1.1,2.2-2.1,3.2-3.2h-35.2c-0.2,1.1-0.4,2.1-0.7,3.2H1052.3z"/>
<path class="st0" d="M581.1,3.2c0-1.1,0.1-2.1,0.1-3.2h-54.9c1.1,1.1,2.2,2.2,3.3,3.2H581.1z"/>
<path class="st0" d="M1009.6,3.2c0.2-1.1,0.4-2.1,0.7-3.2h-42.6c-1,1.1-1.9,2.1-2.8,3.2H1009.6z"/>
<path class="st0" d="M572,1076.8c-0.5,1.1-1,2.1-1.5,3.2h223.7c0.6-1.1,1.3-2.1,1.9-3.2H572z"/>
<path class="st0" d="M630.2,3.2h12.3c-0.1-1.1-0.2-2.1-0.3-3.2H631C630.7,1.1,630.4,2.1,630.2,3.2z"/>
<path class="st0" d="M274,3.2c0.7-1.1,1.4-2.1,2.1-3.2h-39.4c-0.2,1.1-0.4,2.1-0.5,3.2H274z"/>
<path class="st0" d="M980.8,1076.8H811.4c-0.7,1.1-1.3,2.1-2,3.2h171.2C980.6,1078.9,980.7,1077.9,980.8,1076.8z"/>
<path class="st0" d="M1286.5,1076.8h-26.7c-0.1,1.1-0.2,2.1-0.3,3.2h27.5C1286.8,1078.9,1286.7,1077.9,1286.5,1076.8z"/>
<path class="st0" d="M3.2,657.6c-1.1,0.2-2.1,0.4-3.2,0.6v124.4c1.1-0.4,2.1-0.9,3.2-1.3V657.6z"/>
<path class="st0" d="M1627.1,1076.8H1464c-0.2,1.1-0.4,2.1-0.5,3.2h165.9C1628.6,1078.9,1627.8,1077.9,1627.1,1076.8z"/>
<path class="st0" d="M0,360.8c1.1-0.1,2.1-0.3,3.2-0.4V288c-1.1,0-2.1,0.1-3.2,0.1V360.8z"/>
<path class="st0" d="M991.4,1076.8c-0.1,1.1-0.2,2.1-0.2,3.2h58.9c0.6-1.1,1.2-2.1,1.9-3.2H991.4z"/>
<path class="st0" d="M418.1,1076.8H3.2V792.1c-1.1,0.4-2.1,0.9-3.2,1.3V1080h415.5C416.3,1078.9,417.2,1077.9,418.1,1076.8z"/>
<path class="st0" d="M1916.8,941v135.7h-66.2c-0.8,1.1-1.6,2.2-2.3,3.2h71.7V933.1C1918.9,935.7,1917.9,938.4,1916.8,941z"/>
<path class="st0" d="M1739.3,3.2h177.6v215.2c1.1,0.1,2.1,0.1,3.2,0.2V0h-175.3C1742.9,1.1,1741.1,2.2,1739.3,3.2z"/>
<path class="st0" d="M1920,708.9c-1.1,0.1-2.1,0.2-3.2,0.3v204.3c1-2.5,2.1-5,3.2-7.5V708.9z"/>
<path class="st0" d="M3.2,278V3.2h222.9c0.2-1.1,0.4-2.1,0.5-3.2H0v278.1C1.1,278,2.1,278,3.2,278z"/>
<path class="st0" d="M792.6,3.2h78.9c0.9-1.1,1.8-2.1,2.6-3.2h-83.5C791.3,1.1,791.9,2.1,792.6,3.2z"/>
<path class="st0" d="M1916.8,313.4c1.1-0.4,2.1-0.7,3.2-1.1v-12.1c-1.1,0.2-2.1,0.5-3.2,0.7V313.4z"/>
<path class="st0" d="M1920,644.5c-1.1,0.3-2.1,0.6-3.2,0.9v53.7c1.1-0.1,2.1-0.2,3.2-0.3V644.5z"/>
<path class="st0" d="M1920,513.3c-1.1,0.5-2.1,1-3.2,1.6v120.6c1.1-0.3,2.1-0.6,3.2-0.9V513.3z"/>
<path class="st0" d="M1920,494.4c-1.1,0.4-2.1,0.9-3.2,1.3v8c1.1-0.5,2.1-1.1,3.2-1.6V494.4z"/>
<path class="st0" d="M1916.8,368.9c0.2,0.1,0.4,0.1,0.6,0.2c1,0.3,1.9,1,2.5,1.8v-47.6c-1.1,0.4-2.1,0.7-3.2,1.1V368.9z"/>
<path class="st0" d="M1916.8,290.8c1.1-0.3,2.1-0.5,3.2-0.8v-61.4c-1.1-0.1-2.1-0.1-3.2-0.2V290.8z"/>
<path class="st0" d="M952.3,3.2c0.9-1.1,1.8-2.2,2.7-3.2h-68.4c-0.8,1.1-1.7,2.1-2.5,3.2H952.3z"/>
<path class="st0" d="M1920,465.2c-1.1,0.3-2.1,0.7-3.2,1V485c1.1-0.4,2.1-0.9,3.2-1.3V465.2z"/>
<path class="st0" d="M1077.8,3.2c2.3-1.1,4.6-2.1,6.8-3.2H1070c-1.1,1.1-2.2,2.1-3.2,3.2H1077.8z"/>
<path class="st0" d="M1665.3,0c-0.2,1.1-0.3,2.1-0.5,3.2h55.9c2.1-1,4.2-2.1,6.3-3.2H1665.3z"/>
<path class="st0" d="M713.9,3.2h43.5c0.1-1.1,0.2-2.1,0.3-3.2h-44.7C713.4,1.1,713.7,2.1,713.9,3.2z"/>
</svg>
