<svg width="72" height="72" viewBox="0 0 72 72" fill="none" xmlns="http://www.w3.org/2000/svg">
<path d="M49.1211 65.3528C48.7636 65.5621 48.6435 66.0215 48.8528 66.3789C49.0621 66.7364 49.5215 66.8565 49.8789 66.6472L49.1211 65.3528ZM22.1211 66.6472C22.4785 66.8565 22.9379 66.7364 23.1472 66.3789C23.3565 66.0215 23.2364 65.5621 22.8789 65.3528L22.1211 66.6472ZM44.4522 10.9919L43.7711 11.3057C43.8565 11.4913 44.014 11.6339 44.2071 11.7007C44.4002 11.7674 44.6121 11.7526 44.794 11.6595L44.4522 10.9919ZM37.6175 7.66005L37.0062 8.09453C37.1829 8.34322 37.4927 8.46006 37.7897 8.39003L37.6175 7.66005ZM49.2875 18.5329L48.9145 19.1836L49.2875 18.5329ZM62.25 42.328C62.25 52.1691 56.9684 60.7582 49.1211 65.3528L49.8789 66.6472C58.1723 61.7915 63.75 52.7173 63.75 42.328H62.25ZM22.8789 65.3528C15.0316 60.7582 9.75 52.1691 9.75 42.328H8.25C8.25 52.7173 13.8277 61.7915 22.1211 66.6472L22.8789 65.3528ZM23.64 34.6762C23.64 36.0817 22.5167 37.2055 21.15 37.2055V38.7055C23.3621 38.7055 25.14 36.893 25.14 34.6762H23.64ZM21.15 37.2055C19.7833 37.2055 18.66 36.0817 18.66 34.6762H17.16C17.16 36.893 18.9379 38.7055 21.15 38.7055V37.2055ZM18.66 34.6762C18.66 33.2707 19.7833 32.1468 21.15 32.1468V30.6468C18.9379 30.6468 17.16 32.4594 17.16 34.6762H18.66ZM21.15 32.1468C22.5167 32.1468 23.64 33.2707 23.64 34.6762H25.14C25.14 32.4594 23.3621 30.6468 21.15 30.6468V32.1468ZM53.34 34.6762C53.34 36.0817 52.2167 37.2055 50.85 37.2055V38.7055C53.0621 38.7055 54.84 36.893 54.84 34.6762H53.34ZM50.85 37.2055C49.4833 37.2055 48.36 36.0817 48.36 34.6762H46.86C46.86 36.893 48.6379 38.7055 50.85 38.7055V37.2055ZM48.36 34.6762C48.36 33.2707 49.4833 32.1468 50.85 32.1468V30.6468C48.6379 30.6468 46.86 32.4594 46.86 34.6762H48.36ZM50.85 32.1468C52.2167 32.1468 53.34 33.2707 53.34 34.6762H54.84C54.84 32.4594 53.0621 30.6468 50.85 30.6468V32.1468ZM28.65 53.2592C28.65 49.137 31.9492 45.8108 36 45.8108V44.3108C31.1038 44.3108 27.15 48.3257 27.15 53.2592H28.65ZM36 45.8108C40.0508 45.8108 43.35 49.137 43.35 53.2592H44.85C44.85 48.3257 40.8962 44.3108 36 44.3108V45.8108ZM27.15 53.2592C27.15 55.7699 28.6189 58.6662 30.3458 60.8836C31.2205 62.0068 32.1938 62.9984 33.1425 63.717C34.061 64.4127 35.071 64.9404 36 64.9404V63.4404C35.579 63.4404 34.9015 63.1677 34.0482 62.5213C33.2249 61.8977 32.342 61.0055 31.5292 59.9619C29.8811 57.8457 28.65 55.2764 28.65 53.2592H27.15ZM36 64.9404C36.929 64.9404 37.939 64.4127 38.8575 63.717C39.8062 62.9984 40.7795 62.0068 41.6542 60.8836C43.3811 58.6662 44.85 55.7699 44.85 53.2592H43.35C43.35 55.2764 42.1189 57.8457 40.4708 59.9619C39.658 61.0055 38.7751 61.8977 37.9518 62.5213C37.0985 63.1677 36.421 63.4404 36 63.4404V64.9404ZM24.75 12C24.75 8.27208 27.7721 5.25 31.5 5.25V3.75C26.9437 3.75 23.25 7.44365 23.25 12H24.75ZM46.5 11.25C48.5711 11.25 50.25 12.9289 50.25 15H51.75C51.75 12.1005 49.3995 9.75 46.5 9.75V11.25ZM44.794 11.6595C45.3049 11.3979 45.8841 11.25 46.5 11.25V9.75C45.6409 9.75 44.828 9.9569 44.1105 10.3243L44.794 11.6595ZM39 8.25C41.1149 8.25 42.9392 9.50053 43.7711 11.3057L45.1334 10.678C44.0657 8.36087 41.7217 6.75 39 6.75V8.25ZM37.7897 8.39003C38.1775 8.29857 38.5826 8.25 39 8.25V6.75C38.4658 6.75 37.9452 6.8122 37.4454 6.93008L37.7897 8.39003ZM31.5 5.25C33.7718 5.25 35.7816 6.37157 37.0062 8.09453L38.2288 7.22557C36.735 5.12372 34.278 3.75 31.5 3.75V5.25ZM50.25 15C50.25 16.1934 49.6934 17.2564 48.8226 17.9444L49.7525 19.1214C50.9678 18.1611 51.75 16.6717 51.75 15H50.25ZM36 15.75C40.6957 15.75 45.1018 16.9977 48.9145 19.1836L49.6605 17.8822C45.6274 15.57 40.9651 14.25 36 14.25V15.75ZM48.9145 19.1836C56.8755 23.7476 62.25 32.4008 62.25 42.328H63.75C63.75 31.8477 58.0742 22.7058 49.6605 17.8822L48.9145 19.1836ZM26.4523 16.4815C25.3927 15.289 24.75 13.7205 24.75 12H23.25C23.25 14.1017 24.0369 16.0214 25.3309 17.4778L26.4523 16.4815ZM9.75 42.328C9.75 31.1635 16.5479 21.6108 26.1755 17.6739L25.6077 16.2855C15.4278 20.4482 8.25 30.542 8.25 42.328H9.75ZM26.1755 17.6739C29.2093 16.4333 32.525 15.75 36 15.75V14.25C32.3266 14.25 28.8183 14.9726 25.6077 16.2855L26.1755 17.6739Z" fill="#7B61FF"/>
</svg>
