<svg width="72" height="72" viewBox="0 0 72 72" fill="none" xmlns="http://www.w3.org/2000/svg">
<path d="M57 15V15.75C57.3478 15.75 57.65 15.5108 57.7299 15.1723C57.8099 14.8337 57.6465 14.4847 57.3354 14.3291L57 15ZM49.2875 18.5329L48.9145 19.1835L49.2875 18.5329ZM41.0581 15.4787L40.9168 16.2153L41.0581 15.4787ZM50.85 10.4999L50.85 11.2499C51.2085 11.2499 51.5169 10.9962 51.586 10.6443C51.655 10.2925 51.4654 9.94104 51.1334 9.80555L50.85 10.4999ZM35.7012 15.0016L35.7095 15.7516L35.7012 15.0016ZM63 21L62.7628 21.7115C63.0928 21.8215 63.4551 21.6902 63.638 21.3943C63.8209 21.0984 63.7763 20.7156 63.5303 20.4696L63 21ZM54.09 22.0404L53.584 22.594L54.09 22.0404ZM33 15.1668L32.9166 14.4214L33 15.1668ZM56.2549 69.0851C56.3019 69.4967 56.6737 69.7921 57.0852 69.7451C57.4967 69.698 57.7922 69.3263 57.7451 68.9147L56.2549 69.0851ZM14.2549 68.9147C14.2078 69.3263 14.5033 69.698 14.9148 69.7451C15.3263 69.7921 15.6981 69.4967 15.7451 69.0851L14.2549 68.9147ZM42 33L41.257 32.8973L41.257 32.8973L42 33ZM30 33L29.257 33.1027L29.257 33.1027L30 33ZM23.64 34.6761C23.64 36.0816 22.5167 37.2055 21.15 37.2055V38.7055C23.3621 38.7055 25.14 36.8929 25.14 34.6761H23.64ZM21.15 37.2055C19.7833 37.2055 18.66 36.0816 18.66 34.6761H17.16C17.16 36.8929 18.9379 38.7055 21.15 38.7055V37.2055ZM18.66 34.6761C18.66 33.2706 19.7833 32.1468 21.15 32.1468V30.6468C18.9379 30.6468 17.16 32.4593 17.16 34.6761H18.66ZM21.15 32.1468C22.5167 32.1468 23.64 33.2706 23.64 34.6761H25.14C25.14 32.4593 23.3621 30.6468 21.15 30.6468V32.1468ZM53.34 34.6761C53.34 36.0816 52.2167 37.2055 50.85 37.2055V38.7055C53.0621 38.7055 54.84 36.8929 54.84 34.6761H53.34ZM50.85 37.2055C49.4833 37.2055 48.36 36.0816 48.36 34.6761H46.86C46.86 36.8929 48.6379 38.7055 50.85 38.7055V37.2055ZM48.36 34.6761C48.36 33.2706 49.4833 32.1468 50.85 32.1468V30.6468C48.6379 30.6468 46.86 32.4593 46.86 34.6761H48.36ZM50.85 32.1468C52.2167 32.1468 53.34 33.2706 53.34 34.6761H54.84C54.84 32.4593 53.0621 30.6468 50.85 30.6468V32.1468ZM28.65 53.2592C28.65 49.137 31.9492 45.8108 36 45.8108V44.3108C31.1038 44.3108 27.15 48.3257 27.15 53.2592H28.65ZM36 45.8108C40.0508 45.8108 43.35 49.137 43.35 53.2592H44.85C44.85 48.3257 40.8962 44.3108 36 44.3108V45.8108ZM27.15 53.2592C27.15 55.7698 28.6189 58.6661 30.3458 60.8835C31.2205 62.0068 32.1938 62.9984 33.1425 63.717C34.061 64.4127 35.071 64.9404 36 64.9404V63.4404C35.579 63.4404 34.9015 63.1676 34.0482 62.5212C33.2249 61.8977 32.342 61.0055 31.5292 59.9619C29.8811 57.8457 28.65 55.2763 28.65 53.2592H27.15ZM36 64.9404C36.929 64.9404 37.939 64.4127 38.8575 63.717C39.8062 62.9984 40.7795 62.0068 41.6542 60.8835C43.3811 58.6661 44.85 55.7698 44.85 53.2592H43.35C43.35 55.2763 42.1189 57.8457 40.4708 59.9619C39.658 61.0055 38.7751 61.8977 37.9518 62.5212C37.0985 63.1676 36.421 63.4404 36 63.4404V64.9404ZM57 14.25C53.8816 14.25 52.0448 14.9564 50.837 15.8558C50.2418 16.299 49.8279 16.7685 49.5089 17.1577C49.1581 17.5855 48.9996 17.8045 48.8226 17.9444L49.7525 19.1213C50.097 18.8491 50.4133 18.4205 50.6689 18.1086C50.9563 17.7581 51.2803 17.3959 51.7329 17.0589C52.6205 16.3979 54.1184 15.75 57 15.75V14.25ZM9.75 42.328C9.75 31.1635 16.5479 21.6107 26.1755 17.6738L25.6077 16.2854C15.4278 20.4482 8.25 30.542 8.25 42.328H9.75ZM36 15.75C37.6811 15.75 39.3247 15.9099 40.9168 16.2153L41.1994 14.7421C39.5146 14.419 37.7765 14.25 36 14.25V15.75ZM40.9168 16.2153C43.7732 16.7632 46.466 17.7798 48.9145 19.1835L49.6605 17.8822C47.0712 16.3977 44.2221 15.322 41.1994 14.7421L40.9168 16.2153ZM57 15C57.3354 14.3291 57.3352 14.329 57.335 14.3289C57.3349 14.3289 57.3347 14.3288 57.3345 14.3287C57.3341 14.3285 57.3337 14.3283 57.3333 14.3281C57.3324 14.3276 57.3313 14.3271 57.3301 14.3265C57.3275 14.3252 57.3243 14.3236 57.3203 14.3217C57.3123 14.3178 57.3014 14.3125 57.2877 14.306C57.2601 14.2929 57.2211 14.2746 57.171 14.252C57.0707 14.2067 56.9259 14.1438 56.7395 14.0692C56.3667 13.9201 55.8269 13.7241 55.1435 13.5288C53.7778 13.1386 51.8327 12.75 49.5 12.75V14.25C51.6673 14.25 53.4722 14.6113 54.7315 14.9711C55.3606 15.1509 55.852 15.3298 56.1824 15.4619C56.3475 15.528 56.4722 15.5823 56.5536 15.619C56.5943 15.6374 56.6241 15.6514 56.6428 15.6603C56.6521 15.6647 56.6586 15.6678 56.6622 15.6696C56.6641 15.6705 56.6652 15.6711 56.6656 15.6713C56.6658 15.6714 56.6658 15.6714 56.6656 15.6713C56.6655 15.6713 56.6654 15.6712 56.6652 15.6711C56.6652 15.6711 56.665 15.671 56.6649 15.671C56.6648 15.6709 56.6646 15.6708 57 15ZM49.5 12.75C47.1464 12.75 44.9552 13.2662 43.3632 13.7749C42.5646 14.0302 41.91 14.2857 41.4529 14.4785C41.2242 14.5749 41.0445 14.6558 40.9205 14.7134C40.8585 14.7422 40.8104 14.7651 40.7769 14.7813C40.7602 14.7894 40.7472 14.7957 40.7379 14.8003C40.7333 14.8026 40.7296 14.8044 40.7269 14.8058C40.7255 14.8065 40.7244 14.807 40.7235 14.8075C40.7231 14.8077 40.7227 14.8079 40.7224 14.808C40.7222 14.8081 40.722 14.8082 40.722 14.8082C40.7218 14.8083 40.7216 14.8084 41.0581 15.4787C41.3946 16.149 41.3944 16.1491 41.3943 16.1491C41.3943 16.1491 41.3942 16.1492 41.3941 16.1492C41.3941 16.1492 41.394 16.1493 41.3941 16.1492C41.3941 16.1492 41.3945 16.149 41.395 16.1488C41.3961 16.1482 41.3981 16.1472 41.4011 16.1458C41.4071 16.1428 41.4167 16.1381 41.43 16.1317C41.4565 16.1189 41.4974 16.0993 41.552 16.074C41.6611 16.0233 41.8246 15.9496 42.0358 15.8606C42.4584 15.6823 43.0706 15.4432 43.8198 15.2037C45.3238 14.7231 47.3536 14.25 49.5 14.25V12.75ZM41.0581 15.4787C41.795 15.6181 41.7949 15.6187 41.7948 15.6193C41.7948 15.6195 41.7946 15.62 41.7946 15.6204C41.7945 15.6211 41.7943 15.6217 41.7942 15.6222C41.794 15.6233 41.7939 15.624 41.7938 15.6245C41.7936 15.6255 41.7936 15.6253 41.7939 15.6241C41.7944 15.6216 41.796 15.6146 41.7987 15.6036C41.8042 15.5816 41.8144 15.5432 41.831 15.4909C41.8641 15.3861 41.9224 15.2258 42.0182 15.0283C42.2096 14.6341 42.5512 14.0904 43.1454 13.5392C44.3206 12.449 46.5725 11.2499 50.85 11.2499L50.85 9.74994C46.2775 9.74995 43.6335 11.0403 42.1252 12.4395C41.3777 13.133 40.9306 13.8339 40.6688 14.3732C40.5381 14.6425 40.4537 14.8712 40.4007 15.0387C40.3742 15.1225 40.3556 15.1911 40.343 15.242C40.3366 15.2674 40.3318 15.2885 40.3282 15.3048C40.3265 15.3129 40.325 15.3199 40.3238 15.3257C40.3232 15.3286 40.3227 15.3311 40.3223 15.3334C40.3221 15.3345 40.3219 15.3356 40.3217 15.3366C40.3216 15.3371 40.3215 15.3378 40.3214 15.338C40.3213 15.3387 40.3212 15.3393 41.0581 15.4787ZM50.85 10.4999C51.1334 9.80555 51.1332 9.80546 51.133 9.80537C51.1329 9.80532 51.1326 9.80521 51.1324 9.80512C51.1319 9.80493 51.1313 9.80469 51.1306 9.80441C51.1292 9.80385 51.1274 9.80311 51.1251 9.8022C51.1206 9.80037 51.1143 9.79783 51.1062 9.79461C51.0901 9.78818 51.0669 9.77905 51.037 9.76743C50.9772 9.74421 50.8902 9.71106 50.7778 9.66984C50.5531 9.58742 50.2268 9.47263 49.8128 9.34026C48.9853 9.07567 47.8054 8.74001 46.3865 8.4524C43.5566 7.87877 39.7359 7.48793 35.8529 8.26452L36.1471 9.73539C39.7641 9.01199 43.3684 9.37114 46.0885 9.9225C47.4446 10.1974 48.5709 10.518 49.3559 10.769C49.7482 10.8944 50.0547 11.0023 50.2612 11.0781C50.3645 11.116 50.4427 11.1458 50.4942 11.1658C50.52 11.1758 50.539 11.1833 50.5512 11.1881C50.5572 11.1906 50.5616 11.1923 50.5641 11.1933C50.5654 11.1939 50.5663 11.1942 50.5667 11.1944C50.5669 11.1944 50.567 11.1945 50.567 11.1945C50.567 11.1945 50.5669 11.1944 50.5669 11.1944C50.5667 11.1944 50.5666 11.1943 50.85 10.4999ZM35.7095 15.7516C35.8062 15.7505 35.903 15.75 36 15.75V14.25C35.8975 14.25 35.7952 14.2505 35.693 14.2516L35.7095 15.7516ZM49.2875 18.5329C49.4029 19.2739 49.4028 19.2739 49.4028 19.2739C49.4028 19.2739 49.4028 19.2739 49.4028 19.2739C49.4029 19.2739 49.4031 19.2739 49.4034 19.2739C49.4039 19.2738 49.4048 19.2736 49.4061 19.2734C49.4086 19.273 49.4127 19.2724 49.4181 19.2716C49.4291 19.2699 49.4457 19.2674 49.4679 19.2641C49.5122 19.2576 49.5784 19.248 49.6641 19.236C49.8356 19.212 50.0852 19.1787 50.3945 19.1415C51.0138 19.0672 51.8694 18.9781 52.8157 18.9187C54.7477 18.7976 56.92 18.8115 58.2699 19.2467L58.7301 17.819C57.08 17.2871 54.646 17.301 52.7218 17.4217C51.74 17.4832 50.855 17.5754 50.2157 17.6522C49.8957 17.6906 49.6365 17.7253 49.4565 17.7504C49.3665 17.763 49.2963 17.7732 49.2482 17.7803C49.2241 17.7839 49.2055 17.7867 49.1928 17.7886C49.1864 17.7896 49.1814 17.7904 49.178 17.7909C49.1763 17.7911 49.1749 17.7914 49.174 17.7915C49.1735 17.7916 49.1731 17.7916 49.1728 17.7917C49.1726 17.7917 49.1725 17.7917 49.1724 17.7917C49.1723 17.7918 49.1722 17.7918 49.2875 18.5329ZM58.2699 19.2467C59.6966 19.7066 60.7604 20.2912 61.4614 20.7547C61.8118 20.9864 62.0713 21.1876 62.2395 21.3274C62.3237 21.3973 62.3849 21.4517 62.4233 21.4869C62.4425 21.5044 62.456 21.5172 62.4637 21.5246C62.4676 21.5283 62.47 21.5306 62.471 21.5316C62.4715 21.5321 62.4716 21.5322 62.4714 21.532C62.4713 21.5319 62.4711 21.5317 62.4708 21.5314C62.4707 21.5313 62.4705 21.5311 62.4703 21.5309C62.4702 21.5308 62.4701 21.5307 62.47 21.5306C62.4698 21.5305 62.4697 21.5303 63 21C63.5303 20.4696 63.5301 20.4695 63.53 20.4693C63.5299 20.4692 63.5297 20.469 63.5296 20.4689C63.5293 20.4686 63.529 20.4683 63.5286 20.468C63.528 20.4673 63.5272 20.4666 63.5264 20.4657C63.5247 20.4641 63.5227 20.462 63.5202 20.4597C63.5154 20.4549 63.509 20.4487 63.5012 20.4412C63.4855 20.4262 63.4638 20.4057 63.4361 20.3804C63.3807 20.3297 63.3013 20.2594 63.198 20.1735C62.9912 20.0018 62.6882 19.7676 62.2886 19.5035C61.4896 18.9752 60.3034 18.3262 58.7301 17.819L58.2699 19.2467ZM48.9145 19.1835C50.5947 20.1468 52.16 21.2924 53.584 22.594L54.596 21.4868C53.0916 20.1117 51.4372 18.9008 49.6605 17.8822L48.9145 19.1835ZM53.584 22.594C58.9054 27.458 62.25 34.4961 62.25 42.328H63.75C63.75 34.0606 60.2176 26.6252 54.596 21.4868L53.584 22.594ZM63.2372 20.2885C60.7976 19.4753 58.4087 19.764 56.6628 20.2334C55.7855 20.4693 55.0566 20.7543 54.5451 20.9814C54.2889 21.0951 54.0861 21.1948 53.9453 21.2672C53.8748 21.3035 53.8197 21.3329 53.7811 21.354C53.7618 21.3646 53.7466 21.373 53.7357 21.3792C53.7302 21.3822 53.7258 21.3848 53.7224 21.3867C53.7207 21.3876 53.7193 21.3884 53.7182 21.3891C53.7176 21.3894 53.7171 21.3897 53.7167 21.3899C53.7165 21.39 53.7162 21.3902 53.7161 21.3903C53.7159 21.3904 53.7156 21.3905 54.09 22.0404C54.4644 22.6903 54.4642 22.6904 54.464 22.6905C54.4639 22.6905 54.4638 22.6906 54.4637 22.6907C54.4635 22.6908 54.4634 22.6908 54.4634 22.6909C54.4633 22.6909 54.4635 22.6908 54.464 22.6905C54.4649 22.69 54.4669 22.6889 54.4699 22.6872C54.4759 22.6838 54.486 22.6782 54.5001 22.6705C54.5283 22.6551 54.5724 22.6315 54.6313 22.6012C54.7492 22.5405 54.9261 22.4534 55.1537 22.3524C55.6096 22.15 56.2645 21.8937 57.0522 21.682C58.6363 21.2561 60.7024 21.0247 62.7628 21.7115L63.2372 20.2885ZM26.1755 17.6738C28.3488 16.7851 30.6665 16.1825 33.0834 15.9121L32.9166 14.4214C30.3598 14.7075 27.9073 15.3451 25.6077 16.2854L26.1755 17.6738ZM33.0834 15.9121C33.9466 15.8155 34.8227 15.7613 35.7095 15.7516L35.693 14.2516C34.7559 14.2619 33.8297 14.3192 32.9166 14.4214L33.0834 15.9121ZM62.25 42.328C62.25 47.5824 60.7448 52.4781 58.1482 56.6002L59.4173 57.3997C62.1609 53.0444 63.75 47.8726 63.75 42.328H62.25ZM13.8518 56.6002C11.2552 52.4781 9.75 47.5824 9.75 42.328H8.25C8.25 47.8726 9.83913 53.0444 12.5827 57.3997L13.8518 56.6002ZM58.1482 56.6002C56.7041 58.8926 56.254 62.0592 56.1409 64.5555C56.0835 65.8206 56.1117 66.9484 56.1541 67.7601C56.1753 68.1664 56.2002 68.4947 56.2199 68.7227C56.2297 68.8367 56.2383 68.9258 56.2445 68.9871C56.2476 69.0178 56.2501 69.0415 56.2519 69.0579C56.2527 69.0662 56.2534 69.0726 56.254 69.0771C56.2542 69.0794 56.2544 69.0812 56.2546 69.0825C56.2546 69.0832 56.2547 69.0837 56.2547 69.0842C56.2548 69.0844 56.2548 69.0846 56.2548 69.0847C56.2548 69.0849 56.2549 69.0851 57 68.9999C57.7451 68.9147 57.7452 68.9149 57.7452 68.9149C57.7452 68.9149 57.7452 68.915 57.7452 68.915C57.7452 68.9149 57.7451 68.9148 57.7451 68.9145C57.7451 68.9139 57.7449 68.9129 57.7448 68.9115C57.7445 68.9085 57.7439 68.9037 57.7432 68.8971C57.7418 68.8839 57.7396 68.8636 57.7369 68.8363C57.7314 68.7819 57.7235 68.7001 57.7143 68.5936C57.6959 68.3806 57.6723 68.0694 57.6521 67.6819C57.6115 66.9059 57.5847 65.8284 57.6393 64.6234C57.7501 62.1793 58.1913 59.3459 59.4173 57.3997L58.1482 56.6002ZM12.5827 57.3997C13.8087 59.3459 14.2499 62.1793 14.3607 64.6234C14.4153 65.8284 14.3885 66.9059 14.3479 67.6819C14.3277 68.0694 14.3041 68.3806 14.2857 68.5936C14.2765 68.7001 14.2686 68.7819 14.2631 68.8363C14.2604 68.8636 14.2582 68.8839 14.2568 68.8971C14.2561 68.9037 14.2555 68.9085 14.2552 68.9115C14.2551 68.9129 14.2549 68.9139 14.2549 68.9145C14.2549 68.9148 14.2548 68.9149 14.2548 68.915C14.2548 68.915 14.2548 68.9149 14.2548 68.9149C14.2548 68.9149 14.2549 68.9147 15 68.9999C15.7451 69.0851 15.7452 69.0849 15.7452 69.0847C15.7452 69.0846 15.7452 69.0844 15.7453 69.0842C15.7453 69.0837 15.7454 69.0832 15.7454 69.0825C15.7456 69.0812 15.7458 69.0794 15.746 69.0771C15.7466 69.0726 15.7473 69.0662 15.7481 69.0579C15.7499 69.0415 15.7524 69.0178 15.7555 68.9871C15.7617 68.9258 15.7703 68.8367 15.7801 68.7227C15.7998 68.4947 15.8247 68.1664 15.8459 67.7601C15.8883 66.9484 15.9165 65.8206 15.8591 64.5555C15.746 62.0592 15.2959 58.8926 13.8518 56.6002L12.5827 57.3997ZM35.8529 8.26452C31.9039 9.05433 29.2398 11.1585 27.5701 13.057C26.7361 14.0053 26.1474 14.9049 25.7657 15.5707C25.5746 15.904 25.4348 16.1797 25.3415 16.3752C25.2948 16.473 25.2597 16.5508 25.2357 16.6057C25.2236 16.6332 25.2144 16.655 25.2077 16.6708C25.2044 16.6787 25.2018 16.685 25.1998 16.6898C25.1988 16.6922 25.198 16.6943 25.1973 16.6959C25.197 16.6967 25.1967 16.6974 25.1965 16.698C25.1964 16.6983 25.1962 16.6987 25.1961 16.6989C25.196 16.6992 25.1959 16.6996 25.8916 16.9796C26.5873 17.2597 26.5872 17.26 26.5871 17.2603C26.5871 17.2603 26.587 17.2605 26.587 17.2607C26.5869 17.2609 26.5868 17.261 26.5868 17.261C26.5868 17.2611 26.5869 17.2607 26.5872 17.26C26.5878 17.2586 26.589 17.2556 26.5909 17.2512C26.5946 17.2424 26.6009 17.2276 26.6098 17.2073C26.6276 17.1666 26.6559 17.1037 26.6952 17.0214C26.7738 16.8566 26.8963 16.6144 27.067 16.3168C27.4087 15.7208 27.9409 14.9067 28.6965 14.0476C30.206 12.3312 32.5961 10.4456 36.1471 9.73539L35.8529 8.26452ZM53.8181 21.7724C47.7614 23.2866 42.1923 26.1304 41.257 32.8973L42.7429 33.1027C43.5426 27.3165 48.2385 24.7134 54.1819 23.2276L53.8181 21.7724ZM41.257 32.8973C40.8244 36.0277 41.948 38.7881 43.7878 41.1235C45.6199 43.449 48.1917 45.3952 50.7668 46.9503C53.3484 48.5093 55.9735 49.6992 57.9485 50.4984C58.9373 50.8985 59.7663 51.2019 60.3495 51.4058C60.6412 51.5077 60.8716 51.5849 61.03 51.6368C61.1092 51.6627 61.1704 51.6824 61.2123 51.6957C61.2333 51.7024 61.2494 51.7075 61.2605 51.7109C61.2661 51.7127 61.2704 51.714 61.2734 51.715C61.275 51.7155 61.2762 51.7158 61.277 51.7161C61.2775 51.7162 61.2779 51.7164 61.2781 51.7164C61.2785 51.7165 61.2787 51.7166 61.5 51C61.7213 50.2834 61.7214 50.2834 61.7214 50.2834C61.7213 50.2834 61.7212 50.2834 61.721 50.2833C61.7206 50.2832 61.7199 50.283 61.7189 50.2827C61.7168 50.282 61.7135 50.281 61.7089 50.2795C61.6998 50.2767 61.6857 50.2722 61.6668 50.2662C61.629 50.2542 61.572 50.2359 61.4971 50.2114C61.3474 50.1623 61.1263 50.0883 60.8445 49.9898C60.2806 49.7927 59.4745 49.4977 58.5112 49.1079C56.5818 48.3272 54.0341 47.1711 51.5422 45.6663C49.0439 44.1575 46.6414 42.3217 44.9661 40.1952C43.2985 38.0785 42.3816 35.7166 42.7429 33.1027L41.257 32.8973ZM17.8181 23.2276C23.7614 24.7134 28.4573 27.3165 29.257 33.1027L30.7429 32.8973C29.8076 26.1304 24.2386 23.2866 18.1819 21.7724L17.8181 23.2276ZM29.257 33.1027C29.6183 35.7167 28.7014 38.0785 27.0339 40.1952C25.3586 42.3217 22.9561 44.1575 20.4577 45.6663C17.9658 47.1712 15.4182 48.3272 13.4888 49.1079C12.5255 49.4977 11.7194 49.7927 11.1555 49.9898C10.8737 50.0883 10.6526 50.1623 10.5029 50.2114C10.428 50.2359 10.371 50.2542 10.3332 50.2662C10.3143 50.2722 10.3002 50.2767 10.2911 50.2795C10.2865 50.281 10.2832 50.282 10.2811 50.2827C10.2801 50.283 10.2794 50.2832 10.279 50.2833C10.2788 50.2834 10.2787 50.2834 10.2786 50.2834C10.2786 50.2834 10.2787 50.2834 10.5 51C10.7213 51.7166 10.7215 51.7165 10.7219 51.7164C10.7221 51.7164 10.7225 51.7162 10.723 51.7161C10.7238 51.7158 10.725 51.7155 10.7266 51.715C10.7296 51.714 10.7339 51.7127 10.7395 51.7109C10.7506 51.7075 10.7667 51.7024 10.7877 51.6957C10.8296 51.6824 10.8908 51.6627 10.97 51.6368C11.1284 51.5849 11.3588 51.5077 11.6505 51.4058C12.2337 51.2019 13.0627 50.8985 14.0515 50.4984C16.0265 49.6992 18.6516 48.5093 21.2332 46.9503C23.8083 45.3952 26.38 43.449 28.2121 41.1235C30.0519 38.7881 31.1756 36.0277 30.7429 32.8973L29.257 33.1027Z" fill="#7B61FF"/>
</svg>
