<svg width="72" height="72" viewBox="0 0 72 72" fill="none" xmlns="http://www.w3.org/2000/svg">
<path d="M55.0697 33.5556C55.0697 32.1079 54.9102 30.6984 54.6082 29.3441M55.0697 33.5556C55.0697 36.9859 54.1741 41.0195 52.6087 44.8889M55.0697 33.5556C55.0697 33.5556 50.1806 21 44.0694 21C37.9581 21 38.0692 21 36.5694 21C35.0695 21 34.5503 20.9321 32.0694 19.5M32.0694 19.5L27.5694 15M32.0694 19.5C30.0016 18.3064 23.0693 21 21.0059 25.8M54.6082 29.3441L56.0694 27C56.0694 15.1 47.8588 9 36.5695 9C25.2802 9 17.0693 15.1 17.0693 27L18.5308 29.3441M54.6082 29.3441C54.6082 29.3441 58.9046 26.1837 60.5696 30C62.2346 33.8163 59.8798 35.7278 58.2147 39.1278C56.5497 42.5278 52.6087 44.8889 52.6087 44.8889M52.6087 44.8889C49.4133 52.7868 43.4271 60 36.5695 60C29.7118 60 23.7257 52.7868 20.5303 44.8889M41.0694 47.6278C41.0694 47.6278 39.5694 49.5 36.5695 49.3278C33.5696 49.1556 31.8695 47.6278 31.8695 47.6278M18.5308 29.3441C18.2288 30.6984 18.0693 32.1079 18.0693 33.5556C18.0693 36.9859 18.9649 41.0195 20.5303 44.8889M18.5308 29.3441C18.5308 29.3441 14.2344 26.1837 12.5693 30C10.9043 33.8163 13.2593 35.7278 14.9243 39.1278C16.5893 42.5278 20.5303 44.8889 20.5303 44.8889M18.5693 64.5V43.5M23.0693 57V67.5M53.0694 64.5V45M48.5694 58.5V67.5M57.3587 12C59.4008 11.1175 60.5695 10.0929 60.5695 9C60.5695 5.68629 49.8244 3 36.5695 3C23.3147 3 12.5695 5.68629 12.5695 9C12.5695 10.0929 13.7383 11.1175 15.7803 12M32.9697 29.4C32.9697 31.3882 31.3579 33 29.3697 33C27.3814 33 25.7697 31.3882 25.7697 29.4C25.7697 27.4118 27.3814 25.8 29.3697 25.8C31.3579 25.8 32.9697 27.4118 32.9697 29.4ZM47.3697 29.4C47.3697 31.3882 45.7579 33 43.7697 33C41.7814 33 40.1697 31.3882 40.1697 29.4C40.1697 27.4118 41.7814 25.8 43.7697 25.8C45.7579 25.8 47.3697 27.4118 47.3697 29.4Z" stroke="#7B61FF" stroke-width="1.5" stroke-linecap="round" stroke-linejoin="round"/>
</svg>
