<svg width="72" height="72" viewBox="0 0 72 72" fill="none" xmlns="http://www.w3.org/2000/svg">
<path d="M19.3333 31.0833C19.3333 34.1101 20.1402 37.6692 21.5505 41.0833M19.3333 31.0833C19.3333 29.806 19.477 28.5623 19.7491 27.3674M19.3333 31.0833V51.0833M52.2509 27.3674C50.5622 19.9513 43.9274 17.75 36 17.75C28.0726 17.75 21.4378 19.9513 19.7491 27.3674M52.2509 27.3674C52.523 28.5623 52.6667 29.806 52.6667 31.0833C52.6667 34.1101 51.8598 37.6692 50.4495 41.0833M52.2509 27.3674L52.6667 25.5C52.6667 15 46.1704 9.41666 36 9.41666C25.8296 9.41666 17.179 14.2569 13.9841 23.3348M52.2509 27.3674C52.2509 27.3674 55.5 22.1326 57 25.5C58.5 28.8674 57 33 55.5 36C54 39 50.4495 41.0833 50.4495 41.0833M50.4495 41.0833C47.5709 48.052 42.178 54.4167 36 54.4167C29.822 54.4167 24.4291 48.052 21.5505 41.0833M21.5505 41.0833L6 17.75C9.15726 19.9585 11.4989 21.5964 13.9841 23.3348M19.7491 27.3674C17.537 25.82 15.7253 24.5527 13.9841 23.3348M12.6667 57.75C12.6667 57.75 12.6667 44.9096 12.6667 37.75M19.3333 59.4167V61.0833M36 3V63M33 43.5C33 43.5 34.6901 45 36 45C39 45 40.5 43.5 40.5 43.5M46.8002 32.3999C46.8002 34.3882 45.1884 35.9999 43.2002 35.9999C41.212 35.9999 39.6002 34.3882 39.6002 32.3999C39.6002 30.4117 41.212 28.7999 43.2002 28.7999C45.1884 28.7999 46.8002 30.4117 46.8002 32.3999ZM32.1 32.3999C32.1 34.3882 30.4882 35.9999 28.5 35.9999C26.5118 35.9999 24.9 34.3882 24.9 32.3999C24.9 30.4117 26.5118 28.7999 28.5 28.7999C30.4882 28.7999 32.1 30.4117 32.1 32.3999Z" stroke="#7B61FF" stroke-width="1.5" stroke-linecap="round" stroke-linejoin="round"/>
</svg>
