<svg width="72" height="72" viewBox="0 0 72 72" fill="none" xmlns="http://www.w3.org/2000/svg">
<path d="M36 12L36.5303 11.4697C36.2374 11.1768 35.7626 11.1768 35.4697 11.4697L36 12ZM41.3569 32.6141C41.1438 32.9693 41.2589 33.43 41.6141 33.6431C41.9693 33.8562 42.43 33.7411 42.6431 33.3859L41.3569 32.6141ZM63 6L63.7463 6.07463C63.7823 5.71456 63.5561 5.38013 63.2085 5.27955C62.8609 5.17897 62.491 5.34093 62.3292 5.66459L63 6ZM50.4 35.55C50.1515 35.8814 50.2186 36.3515 50.55 36.6C50.8814 36.8485 51.3515 36.7814 51.6 36.45L50.4 35.55ZM55.5 30L54.9697 29.4697C54.9446 29.4948 54.9213 29.5216 54.9 29.55L55.5 30ZM60 30L60.6431 30.3859C60.7821 30.1542 60.7858 29.8656 60.6526 29.6305C60.5195 29.3953 60.2702 29.25 60 29.25V30ZM51 45L50.3569 44.6141C50.2494 44.7933 50.2215 45.0091 50.2799 45.2097C50.3383 45.4103 50.4777 45.5774 50.6646 45.6708L51 45ZM56.6646 48.6708C57.0351 48.8561 57.4856 48.7059 57.6708 48.3354C57.8561 47.9649 57.7059 47.5144 57.3354 47.3292L56.6646 48.6708ZM55.8931 57.6387C56.2458 57.4217 56.3558 56.9597 56.1387 56.6069C55.9217 56.2542 55.4597 56.1442 55.1069 56.3613L55.8931 57.6387ZM36 69L35.6069 69.6387C35.848 69.7871 36.152 69.7871 36.3931 69.6387L36 69ZM29.3569 33.3859C29.57 33.7411 30.0307 33.8562 30.3859 33.6431C30.7411 33.43 30.8562 32.9693 30.6431 32.6141L29.3569 33.3859ZM9 6L9.67082 5.66459C9.50899 5.34093 9.13914 5.17897 8.79154 5.27955C8.44394 5.38013 8.21772 5.71456 8.25372 6.07463L9 6ZM20.4 36.45C20.6485 36.7814 21.1186 36.8485 21.45 36.6C21.7814 36.3515 21.8485 35.8814 21.6 35.55L20.4 36.45ZM16.5 30L17.1 29.55C17.0787 29.5216 17.0554 29.4948 17.0303 29.4697L16.5 30ZM12 30V29.25C11.7298 29.25 11.4805 29.3953 11.3474 29.6305C11.2142 29.8656 11.2179 30.1542 11.3569 30.3859L12 30ZM21 45L21.3354 45.6708C21.5223 45.5774 21.6617 45.4103 21.7201 45.2097C21.7785 45.0091 21.7506 44.7933 21.6431 44.6141L21 45ZM14.6646 47.3292C14.2941 47.5144 14.1439 47.9649 14.3292 48.3354C14.5144 48.7059 14.9649 48.8561 15.3354 48.6708L14.6646 47.3292ZM16.8931 56.3613C16.5403 56.1442 16.0783 56.2542 15.8613 56.6069C15.6442 56.9597 15.7542 57.4217 16.1069 57.6387L16.8931 56.3613ZM36 57L35.4697 57.5303C35.7626 57.8232 36.2374 57.8232 36.5303 57.5303L36 57ZM33 54L33.5303 53.4697C33.2374 53.1768 32.7626 53.1768 32.4697 53.4697L33 54ZM30 57L29.4697 57.5303C29.7626 57.8232 30.2374 57.8232 30.5303 57.5303L30 57ZM27.5303 53.4697C27.2374 53.1768 26.7626 53.1768 26.4697 53.4697C26.1768 53.7626 26.1768 54.2374 26.4697 54.5303L27.5303 53.4697ZM39 54L39.5303 53.4697C39.2374 53.1768 38.7626 53.1768 38.4697 53.4697L39 54ZM42 57L41.4697 57.5303C41.7626 57.8232 42.2374 57.8232 42.5303 57.5303L42 57ZM45.5303 54.5303C45.8232 54.2374 45.8232 53.7626 45.5303 53.4697C45.2374 53.1768 44.7626 53.1768 44.4697 53.4697L45.5303 54.5303ZM36.75 19.5C36.75 19.0858 36.4142 18.75 36 18.75C35.5858 18.75 35.25 19.0858 35.25 19.5H36.75ZM35.25 30C35.25 30.4142 35.5858 30.75 36 30.75C36.4142 30.75 36.75 30.4142 36.75 30H35.25ZM35.4697 12.5303L47.4697 24.5303L48.5303 23.4697L36.5303 11.4697L35.4697 12.5303ZM42 33C42.6431 33.3859 42.6431 33.3859 42.6431 33.3858C42.6432 33.3858 42.6432 33.3857 42.6433 33.3856C42.6434 33.3854 42.6436 33.3851 42.6439 33.3847C42.6444 33.3838 42.6452 33.3825 42.6462 33.3807C42.6483 33.3772 42.6515 33.3719 42.6557 33.3649C42.6641 33.3509 42.6767 33.33 42.6933 33.3025C42.7263 33.2477 42.7751 33.1668 42.8378 33.0633C42.9632 32.8563 43.1441 32.5586 43.366 32.1966C43.8099 31.4724 44.4169 30.4918 45.0702 29.4652C45.7242 28.4376 46.4214 27.3686 47.0463 26.466C47.6836 25.5454 48.2102 24.8504 48.5303 24.5303L47.4697 23.4697C47.0398 23.8996 46.4414 24.7046 45.813 25.6122C45.1723 26.5376 44.4633 27.6249 43.8048 28.6598C43.1456 29.6957 42.5338 30.6839 42.0871 31.4128C41.8637 31.7773 41.6813 32.0773 41.5548 32.2863C41.4915 32.3908 41.4421 32.4725 41.4085 32.5283C41.3917 32.5562 41.3789 32.5775 41.3702 32.592C41.3659 32.5992 41.3626 32.6047 41.3603 32.6084C41.3592 32.6102 41.3584 32.6117 41.3578 32.6126C41.3575 32.6131 41.3573 32.6135 41.3571 32.6137C41.3571 32.6138 41.357 32.6139 41.357 32.614C41.3569 32.6141 41.3569 32.6141 42 33ZM48.5303 24.5303C49.2229 23.8377 50.2688 23.1404 51.6234 22.1728C52.9469 21.2274 54.4865 20.0742 56.0303 18.5303L54.9697 17.4697C53.5135 18.9258 52.0531 20.0226 50.7516 20.9522C49.4812 21.8596 48.2771 22.6623 47.4697 23.4697L48.5303 24.5303ZM56.0303 18.5303C57.6123 16.9484 59.533 13.8602 61.0262 11.2471C61.7816 9.92509 62.4421 8.69839 62.9137 7.80243C63.1496 7.35427 63.3384 6.9884 63.4685 6.73418C63.5335 6.60707 63.5839 6.50783 63.6181 6.44016C63.6352 6.40632 63.6482 6.38036 63.6571 6.36275C63.6615 6.35395 63.6649 6.34723 63.6672 6.34265C63.6683 6.34036 63.6692 6.33861 63.6698 6.3374C63.6701 6.3368 63.6704 6.33633 63.6705 6.336C63.6706 6.33583 63.6707 6.33568 63.6707 6.3356C63.6708 6.33549 63.6708 6.33541 63 6C62.3292 5.66459 62.3292 5.66458 62.3292 5.66461C62.3291 5.66466 62.3291 5.66472 62.3291 5.66483C62.329 5.66504 62.3288 5.66539 62.3285 5.66588C62.328 5.66685 62.3273 5.66837 62.3263 5.67042C62.3242 5.67452 62.3211 5.68075 62.3169 5.68907C62.3085 5.7057 62.296 5.73065 62.2794 5.76346C62.2462 5.82908 62.197 5.92614 62.1331 6.05097C62.0053 6.30066 61.8192 6.66135 61.5863 7.10382C61.1204 7.98911 60.4684 9.19991 59.7238 10.5029C58.217 13.1398 56.3877 16.0516 54.9697 17.4697L56.0303 18.5303ZM63 6C62.2537 5.92537 62.2537 5.9254 62.2537 5.92549C62.2537 5.92559 62.2537 5.92573 62.2537 5.92594C62.2536 5.92636 62.2536 5.927 62.2535 5.92787C62.2533 5.92961 62.253 5.93226 62.2527 5.93579C62.252 5.94285 62.2509 5.95347 62.2495 5.96754C62.2466 5.99569 62.2423 6.03765 62.2367 6.09261C62.2254 6.20251 62.2087 6.36437 62.1868 6.5716C62.143 6.98608 62.0787 7.58194 61.9969 8.30648C61.8333 9.75596 61.5996 11.7187 61.3194 13.7737C61.0389 15.8304 60.7129 17.9714 60.3651 19.7802C60.0103 21.6251 59.6504 23.0221 59.3292 23.6646L60.6708 24.3354C61.0996 23.4779 61.4897 21.8749 61.8381 20.0635C62.1933 18.2161 62.5236 16.0446 62.8056 13.9763C63.0879 11.9063 63.323 9.93154 63.4875 8.47477C63.5697 7.74619 63.6344 7.14673 63.6785 6.72918C63.7005 6.52039 63.7174 6.35706 63.7289 6.24577C63.7346 6.19013 63.7389 6.1475 63.7418 6.1187C63.7433 6.1043 63.7444 6.09336 63.7451 6.08598C63.7455 6.08229 63.7458 6.07949 63.746 6.07759C63.7461 6.07665 63.7461 6.07592 63.7462 6.07543C63.7462 6.07518 63.7462 6.07498 63.7463 6.07486C63.7463 6.07471 63.7463 6.07463 63 6ZM59.3292 23.6646C58.6173 25.0883 57.5349 26.5366 56.6113 27.6449C56.1528 28.1951 55.7401 28.6537 55.4426 28.974C55.294 29.1341 55.1744 29.2594 55.0926 29.344C55.0517 29.3863 55.0203 29.4184 54.9994 29.4396C54.989 29.4502 54.9812 29.458 54.9762 29.4631C54.9737 29.4656 54.9719 29.4674 54.9708 29.4685C54.9703 29.4691 54.9699 29.4695 54.9697 29.4696C54.9696 29.4697 54.9696 29.4698 54.9695 29.4698C54.9695 29.4698 54.9696 29.4698 54.9696 29.4698C54.9696 29.4697 54.9697 29.4697 55.5 30C56.0303 30.5303 56.0304 30.5303 56.0305 30.5302C56.0305 30.5301 56.0306 30.53 56.0307 30.5299C56.0309 30.5298 56.0311 30.5295 56.0314 30.5293C56.0319 30.5287 56.0327 30.528 56.0336 30.5271C56.0354 30.5253 56.0379 30.5228 56.0411 30.5195C56.0475 30.513 56.0568 30.5037 56.0687 30.4916C56.0925 30.4674 56.127 30.4321 56.1711 30.3865C56.2592 30.2953 56.3857 30.1628 56.5418 29.9947C56.8537 29.6588 57.2847 29.1799 57.7637 28.6051C58.7151 27.4634 59.8827 25.9117 60.6708 24.3354L59.3292 23.6646ZM54.9 29.55L50.4 35.55L51.6 36.45L56.1 30.45L54.9 29.55ZM55.5 30.75H60V29.25H55.5V30.75ZM59.3569 29.6141L50.3569 44.6141L51.6431 45.3859L60.6431 30.3859L59.3569 29.6141ZM50.6646 45.6708L56.6646 48.6708L57.3354 47.3292L51.3354 44.3292L50.6646 45.6708ZM55.1069 56.3613L35.6069 68.3613L36.3931 69.6387L55.8931 57.6387L55.1069 56.3613ZM35.4697 11.4697L23.4697 23.4697L24.5303 24.5303L36.5303 12.5303L35.4697 11.4697ZM30 33C30.6431 32.6141 30.6431 32.6141 30.643 32.614C30.643 32.6139 30.6429 32.6138 30.6429 32.6137C30.6427 32.6135 30.6425 32.6131 30.6422 32.6126C30.6416 32.6117 30.6408 32.6102 30.6397 32.6084C30.6374 32.6047 30.6341 32.5992 30.6298 32.592C30.6211 32.5775 30.6083 32.5562 30.5915 32.5283C30.5579 32.4725 30.5085 32.3908 30.4452 32.2863C30.3187 32.0773 30.1363 31.7773 29.9129 31.4128C29.4662 30.6839 28.8544 29.6957 28.1952 28.6598C27.5367 27.6249 26.8277 26.5376 26.187 25.6122C25.5586 24.7046 24.9602 23.8996 24.5303 23.4697L23.4697 24.5303C23.7898 24.8504 24.3164 25.5454 24.9537 26.466C25.5786 27.3686 26.2758 28.4376 26.9298 29.4652C27.5831 30.4918 28.1901 31.4724 28.634 32.1966C28.8559 32.5586 29.0368 32.8563 29.1622 33.0633C29.2249 33.1668 29.2737 33.2477 29.3067 33.3025C29.3233 33.33 29.3359 33.3509 29.3443 33.3649C29.3485 33.3719 29.3517 33.3772 29.3538 33.3807C29.3548 33.3825 29.3556 33.3838 29.3561 33.3847C29.3564 33.3851 29.3566 33.3854 29.3567 33.3856C29.3568 33.3857 29.3568 33.3858 29.3569 33.3858C29.3569 33.3859 29.3569 33.3859 30 33ZM24.5303 23.4697C23.7229 22.6623 22.5188 21.8596 21.2484 20.9522C19.9469 20.0226 18.4865 18.9258 17.0303 17.4697L15.9697 18.5303C17.5135 20.0742 19.0531 21.2274 20.3766 22.1728C21.7312 23.1404 22.7771 23.8377 23.4697 24.5303L24.5303 23.4697ZM17.0303 17.4697C15.6123 16.0516 13.783 13.1398 12.2762 10.5029C11.5316 9.19991 10.8796 7.98911 10.4137 7.10382C10.1808 6.66135 9.99465 6.30066 9.8669 6.05097C9.80304 5.92614 9.75378 5.82908 9.72061 5.76346C9.70403 5.73065 9.69146 5.7057 9.6831 5.68907C9.67892 5.68075 9.67579 5.67452 9.67374 5.67042C9.67271 5.66837 9.67195 5.66685 9.67147 5.66588C9.67122 5.66539 9.67105 5.66504 9.67094 5.66483C9.67088 5.66472 9.67086 5.66466 9.67083 5.66461C9.67082 5.66458 9.67082 5.66459 9 6C8.32918 6.33541 8.32922 6.33549 8.32927 6.3356C8.32932 6.33568 8.32939 6.33583 8.32947 6.336C8.32964 6.33633 8.32987 6.3368 8.33018 6.3374C8.33078 6.33861 8.33166 6.34036 8.33281 6.34265C8.3351 6.34723 8.33847 6.35395 8.3429 6.36275C8.35175 6.38036 8.36482 6.40632 8.38193 6.44016C8.41614 6.50783 8.4665 6.60707 8.53153 6.73418C8.6616 6.9884 8.85044 7.35427 9.08631 7.80243C9.55787 8.69839 10.2184 9.92509 10.9738 11.2471C12.467 13.8602 14.3877 16.9484 15.9697 18.5303L17.0303 17.4697ZM9 6C8.25372 6.07463 8.25373 6.07471 8.25375 6.07486C8.25376 6.07498 8.25378 6.07518 8.2538 6.07543C8.25385 6.07592 8.25392 6.07665 8.25402 6.07759C8.25421 6.07949 8.25449 6.08229 8.25486 6.08598C8.2556 6.09336 8.25671 6.1043 8.25817 6.1187C8.26108 6.1475 8.26542 6.19013 8.27113 6.24577C8.28256 6.35706 8.29948 6.52039 8.32153 6.72918C8.36564 7.14673 8.43029 7.74619 8.51255 8.47477C8.67702 9.93154 8.91211 11.9063 9.19438 13.9763C9.47642 16.0446 9.80666 18.2161 10.1619 20.0635C10.5103 21.8749 10.9004 23.4779 11.3292 24.3354L12.6708 23.6646C12.3496 23.0221 11.9897 21.6251 11.6349 19.7802C11.2871 17.9714 10.9611 15.8304 10.6806 13.7737C10.4004 11.7187 10.1667 9.75596 10.0031 8.30648C9.92127 7.58194 9.85702 6.98608 9.81323 6.5716C9.79134 6.36437 9.77457 6.20251 9.76329 6.09261C9.75765 6.03765 9.75338 5.99569 9.75053 5.96754C9.74911 5.95347 9.74803 5.94285 9.74732 5.93579C9.74697 5.93226 9.7467 5.92961 9.74653 5.92787C9.74644 5.927 9.74638 5.92636 9.74633 5.92594C9.74631 5.92573 9.7463 5.92559 9.74629 5.92549C9.74628 5.9254 9.74628 5.92537 9 6ZM11.3292 24.3354C12.1173 25.9117 13.2849 27.4634 14.2363 28.6051C14.7153 29.1799 15.1463 29.6588 15.4582 29.9947C15.6143 30.1628 15.7408 30.2953 15.8289 30.3865C15.873 30.4321 15.9075 30.4674 15.9313 30.4916C15.9432 30.5037 15.9525 30.513 15.9589 30.5195C15.9621 30.5228 15.9646 30.5253 15.9664 30.5271C15.9673 30.528 15.9681 30.5287 15.9686 30.5293C15.9689 30.5295 15.9691 30.5298 15.9693 30.5299C15.9694 30.53 15.9695 30.5301 15.9695 30.5302C15.9696 30.5303 15.9697 30.5303 16.5 30C17.0303 29.4697 17.0304 29.4697 17.0304 29.4698C17.0304 29.4698 17.0305 29.4698 17.0305 29.4698C17.0304 29.4698 17.0304 29.4697 17.0303 29.4696C17.0301 29.4695 17.0297 29.4691 17.0292 29.4685C17.0281 29.4674 17.0263 29.4656 17.0238 29.4631C17.0188 29.458 17.011 29.4502 17.0006 29.4396C16.9797 29.4184 16.9483 29.3863 16.9074 29.344C16.8256 29.2594 16.706 29.1341 16.5574 28.974C16.2599 28.6537 15.8472 28.1951 15.3887 27.6449C14.4651 26.5366 13.3827 25.0883 12.6708 23.6646L11.3292 24.3354ZM15.9 30.45L20.4 36.45L21.6 35.55L17.1 29.55L15.9 30.45ZM16.5 29.25H12V30.75H16.5V29.25ZM11.3569 30.3859L20.3569 45.3859L21.6431 44.6141L12.6431 29.6141L11.3569 30.3859ZM20.6646 44.3292L14.6646 47.3292L15.3354 48.6708L21.3354 45.6708L20.6646 44.3292ZM16.1069 57.6387L35.6069 69.6387L36.3931 68.3613L16.8931 56.3613L16.1069 57.6387ZM31.6501 41.4C31.6501 42.974 30.3741 44.25 28.8001 44.25V45.75C31.2025 45.75 33.1501 43.8024 33.1501 41.4H31.6501ZM28.8001 44.25C27.2261 44.25 25.9501 42.974 25.9501 41.4H24.4501C24.4501 43.8024 26.3976 45.75 28.8001 45.75V44.25ZM25.9501 41.4C25.9501 39.826 27.2261 38.55 28.8001 38.55V37.05C26.3976 37.05 24.4501 38.9976 24.4501 41.4H25.9501ZM28.8001 38.55C30.3741 38.55 31.6501 39.826 31.6501 41.4H33.1501C33.1501 38.9976 31.2025 37.05 28.8001 37.05V38.55ZM46.0501 41.4C46.0501 42.974 44.7741 44.25 43.2001 44.25V45.75C45.6025 45.75 47.5501 43.8024 47.5501 41.4H46.0501ZM43.2001 44.25C41.6261 44.25 40.3501 42.974 40.3501 41.4H38.8501C38.8501 43.8024 40.7976 45.75 43.2001 45.75V44.25ZM40.3501 41.4C40.3501 39.826 41.6261 38.55 43.2001 38.55V37.05C40.7976 37.05 38.8501 38.9976 38.8501 41.4H40.3501ZM43.2001 38.55C44.7741 38.55 46.0501 39.826 46.0501 41.4H47.5501C47.5501 38.9976 45.6025 37.05 43.2001 37.05V38.55ZM36.5303 56.4697L33.5303 53.4697L32.4697 54.5303L35.4697 57.5303L36.5303 56.4697ZM32.4697 53.4697L29.4697 56.4697L30.5303 57.5303L33.5303 54.5303L32.4697 53.4697ZM30.5303 56.4697L27.5303 53.4697L26.4697 54.5303L29.4697 57.5303L30.5303 56.4697ZM36.5303 57.5303L39.5303 54.5303L38.4697 53.4697L35.4697 56.4697L36.5303 57.5303ZM38.4697 54.5303L41.4697 57.5303L42.5303 56.4697L39.5303 53.4697L38.4697 54.5303ZM42.5303 57.5303L45.5303 54.5303L44.4697 53.4697L41.4697 56.4697L42.5303 57.5303ZM35.25 19.5V30H36.75V19.5H35.25Z" fill="#7B61FF"/>
</svg>
