<svg width="72" height="72" viewBox="0 0 72 72" fill="none" xmlns="http://www.w3.org/2000/svg">
<path d="M45 55.5C45 55.5 46.5 57 48 57C49.5 57 51 55.5 51 55.5M46.5 61.5C47.6716 61.5 48.3284 61.5 49.5 61.5M46.5 66H48M49.5 9L46.7517 6.93878C44.6111 5.33332 42.1381 4.22762 39.5143 3.70286V3.70286C37.1944 3.23888 34.8056 3.23888 32.4857 3.70286V3.70286C29.8619 4.22762 27.3889 5.33332 25.2483 6.93878L22.5 9M42 37.5C42 37.5 39 39 36 39C33 39 30 37.5 30 37.5M27 55.5C27 55.5 25.5 57 24 57C22.5 57 21 55.5 21 55.5M25.5 61.5C24.3284 61.5 23.6716 61.5 22.5 61.5M25.5 66H24M54 15V27C54 27 54 33 51 33C48 33 45 30 42 30C39 30 37.5 31.5 36 31.5C34.5 31.5 33 30 30 30C27 30 24 33 21 33C18 33 18 27 18 27V15C18 15 9 27.9 10.5 37.5C12 47.1 15.0652 45.3 19.5 46.5C23.9348 47.7 22.5 51 24.7826 51C27.0652 51 31.5 51 36 48C40.5 51 44.9348 51 47.2174 51C49.5 51 48.0652 47.7 52.5 46.5C56.9348 45.3 60 47.1 61.5 37.5C63 27.9 54 15 54 15ZM33 18C33 19.6569 31.6569 21 30 21C28.3431 21 27 19.6569 27 18C27 16.3431 28.3431 15 30 15C31.6569 15 33 16.3431 33 18ZM45 18C45 19.6569 43.6569 21 42 21C40.3431 21 39 19.6569 39 18C39 16.3431 40.3431 15 42 15C43.6569 15 45 16.3431 45 18Z" stroke="#7B61FF" stroke-width="1.5" stroke-linecap="round" stroke-linejoin="round"/>
</svg>
