<svg width="24" height="24" viewBox="0 0 24 24" fill="none" xmlns="http://www.w3.org/2000/svg">
<path d="M17.5556 10.3611C17.5556 9.93534 17.5077 9.52075 17.417 9.12245M17.5556 10.3611C17.5556 11.37 17.2866 12.5564 16.8165 13.6944M17.5556 10.3611V15.3611M6.44444 10.3611C6.44444 11.37 6.71338 12.5564 7.18349 13.6944M6.44444 10.3611C6.44444 9.93534 6.49234 9.52075 6.58304 9.12245M6.44444 10.3611V17.0278M17.417 9.12245C16.8541 6.65045 14.6425 5.91666 12 5.91666C9.35752 5.91666 7.14594 6.65045 6.58304 9.12245M17.417 9.12245L19.3386 7.77826M16.8165 13.6944C15.857 16.0173 14.0593 18.1389 12 18.1389C9.94066 18.1389 8.14303 16.0173 7.18349 13.6944M16.8165 13.6944L22 5.91666L19.3386 7.77826M7.18349 13.6944L2 5.91666C3.05242 6.65282 3.83296 7.1988 4.66136 7.77826M6.58304 9.12245C5.84567 8.60667 5.24177 8.18425 4.66136 7.77826M4.66136 7.77826C5.72633 4.7523 8.60987 3.13889 12 3.13889C15.3901 3.13889 18.2737 4.7523 19.3386 7.77826M4.22222 19.25C4.22222 19.25 4.22222 14.9699 4.22222 12.5833M19.7778 15.9167V12.5833M17.5556 18.1389V18.6944M6.44444 19.8056V20.3611" stroke="#7B61FF" stroke-linecap="round" stroke-linejoin="round"/>
<path d="M9.77774 11.4722C10.3914 11.4722 10.8888 10.9748 10.8888 10.3611C10.8888 9.74746 10.3914 9.25 9.77774 9.25C9.16409 9.25 8.66663 9.74746 8.66663 10.3611C8.66663 10.9748 9.16409 11.4722 9.77774 11.4722Z" fill="#7B61FF"/>
<path d="M14.2222 11.4722C14.8358 11.4722 15.3333 10.9748 15.3333 10.3611C15.3333 9.74746 14.8358 9.25 14.2222 9.25C13.6085 9.25 13.1111 9.74746 13.1111 10.3611C13.1111 10.9748 13.6085 11.4722 14.2222 11.4722Z" fill="#7B61FF"/>
</svg>
