<svg width="72" height="72" viewBox="0 0 72 72" fill="none" xmlns="http://www.w3.org/2000/svg">
<path d="M52.6667 31.0833C52.6667 29.806 52.523 28.5622 52.2509 27.3673M52.6667 31.0833C52.6667 34.11 51.8598 37.6692 50.4495 41.0833M52.6667 31.0833V46.0833M19.3333 31.0833C19.3333 34.11 20.1402 37.6692 21.5505 41.0833M19.3333 31.0833C19.3333 29.806 19.477 28.5622 19.7491 27.3673M19.3333 31.0833V51.0833M52.2509 27.3673C50.5622 19.9513 43.9274 17.75 36 17.75C28.0726 17.75 21.4378 19.9513 19.7491 27.3673M52.2509 27.3673L58.0159 23.3347M50.4495 41.0833C47.5709 48.052 42.178 54.4166 36 54.4166C29.822 54.4166 24.4291 48.052 21.5505 41.0833M50.4495 41.0833L66 17.75L58.0159 23.3347M21.5505 41.0833L6 17.75C9.15726 19.9584 11.4989 21.5964 13.9841 23.3347M19.7491 27.3673C17.537 25.82 15.7253 24.5527 13.9841 23.3347M13.9841 23.3347C17.179 14.2569 25.8296 9.41663 36 9.41663C46.1704 9.41663 54.821 14.2569 58.0159 23.3347M12.6667 57.75C12.6667 57.75 12.6667 44.9096 12.6667 37.75M59.3333 47.75V37.75M52.6667 54.4166V56.0833M19.3333 59.4166V61.0833M33 43.5C33 43.5 34.5 45 36 45C37.5 45 39 43.5 39 43.5M33 31.5C33 33.1568 31.6569 34.5 30 34.5C28.3431 34.5 27 33.1568 27 31.5C27 29.8431 28.3431 28.5 30 28.5C31.6569 28.5 33 29.8431 33 31.5ZM45 31.5C45 33.1568 43.6569 34.5 42 34.5C40.3431 34.5 39 33.1568 39 31.5C39 29.8431 40.3431 28.5 42 28.5C43.6569 28.5 45 29.8431 45 31.5Z" stroke="#7B61FF" stroke-width="1.5" stroke-linecap="round" stroke-linejoin="round"/>
</svg>
