<svg width="72" height="72" viewBox="0 0 72 72" fill="none" xmlns="http://www.w3.org/2000/svg">
<path d="M43.6862 56.2265C44.0874 56.1236 44.3293 55.7149 44.2263 55.3137C44.1234 54.9124 43.7148 54.6706 43.3135 54.7735L43.6862 56.2265ZM28.6864 54.7735C28.2852 54.6706 27.8765 54.9124 27.7736 55.3137C27.6707 55.7149 27.9126 56.1236 28.3138 56.2265L28.6864 54.7735ZM36 24L35.3416 24.3591C35.473 24.6001 35.7255 24.75 36 24.75C36.2745 24.75 36.527 24.6001 36.6584 24.3591L36 24ZM21 18L20.3292 18.3354C20.437 18.551 20.6419 18.7017 20.8799 18.7403C21.1178 18.7789 21.3599 18.7008 21.5303 18.5303L21 18ZM24 15L24.6708 14.6646C24.563 14.449 24.3581 14.2983 24.1201 14.2597C23.8822 14.2211 23.6401 14.2992 23.4697 14.4697L24 15ZM26.3292 21.3354C26.5144 21.7059 26.9649 21.8561 27.3354 21.6708C27.7059 21.4856 27.8561 21.0351 27.6708 20.6646L26.3292 21.3354ZM51 18L50.4697 18.5303C50.6401 18.7008 50.8822 18.7789 51.1201 18.7403C51.3581 18.7017 51.563 18.551 51.6708 18.3354L51 18ZM48 15L48.5303 14.4697C48.3599 14.2992 48.1178 14.2211 47.8799 14.2597C47.6419 14.2983 47.437 14.449 47.3292 14.6646L48 15ZM44.3292 20.6646C44.1439 21.0351 44.2941 21.4856 44.6646 21.6708C45.0351 21.8561 45.4856 21.7059 45.6708 21.3354L44.3292 20.6646ZM43.3135 54.7735C41.2217 55.31 40.3782 56.25 35.9999 56.25L35.9999 57.75C40.6217 57.75 41.9758 56.6652 43.6862 56.2265L43.3135 54.7735ZM28.3138 56.2265C30.0242 56.6652 31.3782 57.75 35.9999 57.75L35.9999 56.25C31.6217 56.25 30.7783 55.31 28.6864 54.7735L28.3138 56.2265ZM30.75 31.5C30.75 33.5711 29.0711 35.25 27 35.25V36.75C29.8995 36.75 32.25 34.3995 32.25 31.5H30.75ZM27 35.25C24.9289 35.25 23.25 33.5711 23.25 31.5H21.75C21.75 34.3995 24.1005 36.75 27 36.75V35.25ZM23.25 31.5C23.25 29.4289 24.9289 27.75 27 27.75V26.25C24.1005 26.25 21.75 28.6005 21.75 31.5H23.25ZM27 27.75C29.0711 27.75 30.75 29.4289 30.75 31.5H32.25C32.25 28.6005 29.8995 26.25 27 26.25V27.75ZM48.75 31.5C48.75 33.5711 47.0711 35.25 45 35.25V36.75C47.8995 36.75 50.25 34.3995 50.25 31.5H48.75ZM45 35.25C42.9289 35.25 41.25 33.5711 41.25 31.5H39.75C39.75 34.3995 42.1005 36.75 45 36.75V35.25ZM41.25 31.5C41.25 29.4289 42.9289 27.75 45 27.75V26.25C42.1005 26.25 39.75 28.6005 39.75 31.5H41.25ZM45 27.75C47.0711 27.75 48.75 29.4289 48.75 31.5H50.25C50.25 28.6005 47.8995 26.25 45 26.25V27.75ZM65.25 36C65.25 52.1543 52.1543 65.25 36 65.25V66.75C52.9828 66.75 66.75 52.9828 66.75 36H65.25ZM36 65.25C19.8457 65.25 6.75 52.1543 6.75 36H5.25C5.25 52.9828 19.0172 66.75 36 66.75V65.25ZM6.75 36C6.75 19.8457 19.8457 6.75 36 6.75V5.25C19.0172 5.25 5.25 19.0172 5.25 36H6.75ZM36 6.75C52.1543 6.75 65.25 19.8457 65.25 36H66.75C66.75 19.0172 52.9828 5.25 36 5.25V6.75ZM26.3416 7.85914L35.3416 24.3591L36.6584 23.6409L27.6584 7.14086L26.3416 7.85914ZM36.6584 24.3591L45.6584 7.85914L44.3416 7.14086L35.3416 23.6409L36.6584 24.3591ZM17.3292 12.3354L20.3292 18.3354L21.6708 17.6646L18.6708 11.6646L17.3292 12.3354ZM21.5303 18.5303L24.5303 15.5303L23.4697 14.4697L20.4697 17.4697L21.5303 18.5303ZM23.3292 15.3354L26.3292 21.3354L27.6708 20.6646L24.6708 14.6646L23.3292 15.3354ZM10.5 21C9.85688 21.3859 9.85694 21.386 9.85701 21.3861C9.85706 21.3862 9.85715 21.3863 9.85724 21.3865C9.85743 21.3868 9.85769 21.3872 9.85801 21.3878C9.85867 21.3888 9.85959 21.3904 9.86078 21.3924C9.86317 21.3963 9.86664 21.4021 9.87116 21.4096C9.8802 21.4245 9.89347 21.4464 9.91078 21.4748C9.94541 21.5316 9.9962 21.6146 10.0617 21.7203C10.1927 21.9316 10.3826 22.2344 10.6198 22.6019C11.0936 23.3364 11.7579 24.3329 12.5184 25.3786C13.2775 26.4224 14.1404 27.526 15.0114 28.4696C15.8685 29.3982 16.7879 30.2325 17.6646 30.6708L18.3354 29.3292C17.7121 29.0175 16.944 28.3518 16.1136 27.4522C15.2971 26.5677 14.4725 25.5151 13.7316 24.4964C12.9921 23.4796 12.3439 22.5074 11.8802 21.7887C11.6486 21.4297 11.4635 21.1348 11.3367 20.9301C11.2733 20.8278 11.2245 20.7481 11.1918 20.6944C11.1754 20.6675 11.163 20.6471 11.1548 20.6336C11.1508 20.6268 11.1477 20.6218 11.1458 20.6185C11.1448 20.6169 11.1441 20.6157 11.1436 20.615C11.1434 20.6146 11.1433 20.6144 11.1432 20.6142C11.1431 20.6141 11.1431 20.6141 11.1431 20.6141C11.1431 20.6141 11.1431 20.6141 10.5 21ZM17.6646 30.6708C19.2094 31.4432 20.3857 31.8383 21.1931 32.0401C21.5967 32.141 21.9076 32.1935 22.1257 32.2208C22.2348 32.2344 22.3205 32.2417 22.3829 32.2456C22.4141 32.2476 22.4395 32.2487 22.459 32.2493C22.4688 32.2496 22.4771 32.2498 22.4839 32.2499C22.4873 32.2499 22.4904 32.25 22.493 32.25C22.4944 32.25 22.4956 32.25 22.4968 32.25C22.4974 32.25 22.4979 32.25 22.4985 32.25C22.4987 32.25 22.4991 32.25 22.4993 32.25C22.4996 32.25 22.5 32.25 22.5 31.5C22.5 30.75 22.5004 30.75 22.5007 30.75C22.5008 30.75 22.5012 30.75 22.5014 30.75C22.5018 30.75 22.5023 30.75 22.5027 30.75C22.5034 30.75 22.5042 30.75 22.5048 30.75C22.506 30.75 22.5068 30.75 22.5073 30.75C22.5083 30.7501 22.5078 30.7501 22.5058 30.75C22.5019 30.7499 22.4921 30.7495 22.4765 30.7485C22.4451 30.7466 22.3902 30.7422 22.3118 30.7324C22.1549 30.7127 21.9033 30.6715 21.5569 30.5849C20.8643 30.4117 19.7906 30.0568 18.3354 29.3292L17.6646 30.6708ZM24.9697 35.4697C24.3686 36.0708 22.8555 37.5837 21.3026 39.326C19.7666 41.0493 18.1287 43.0655 17.3292 44.6646L18.6708 45.3354C19.3713 43.9345 20.8834 42.0507 22.4224 40.324C23.9445 38.6163 25.4314 37.1292 26.0303 36.5303L24.9697 35.4697ZM17.3292 44.6646C16.5288 46.2653 15.7622 49.3636 15.2041 51.9679C14.921 53.2894 14.6852 54.5155 14.5202 55.411C14.4377 55.8589 14.3728 56.2246 14.3285 56.4786C14.3064 56.6056 14.2894 56.7047 14.2779 56.7723C14.2721 56.806 14.2677 56.8319 14.2648 56.8495C14.2633 56.8583 14.2622 56.865 14.2614 56.8695C14.261 56.8718 14.2607 56.8735 14.2605 56.8747C14.2604 56.8753 14.2604 56.8758 14.2603 56.8761C14.2603 56.8763 14.2602 56.8764 14.2602 56.8765C14.2602 56.8766 14.2602 56.8767 15 57C15.7398 57.1233 15.7398 57.1233 15.7398 57.1233C15.7398 57.1232 15.7398 57.1232 15.7398 57.123C15.7399 57.1228 15.7399 57.1225 15.74 57.122C15.7402 57.121 15.7404 57.1195 15.7408 57.1174C15.7415 57.1133 15.7425 57.107 15.7439 57.0987C15.7467 57.082 15.751 57.057 15.7566 57.0241C15.7678 56.9584 15.7844 56.8612 15.8062 56.7363C15.8498 56.4864 15.9139 56.1255 15.9954 55.6827C16.1586 54.797 16.3915 53.5856 16.6709 52.2821C17.2378 49.6364 17.9712 46.7347 18.6708 45.3354L17.3292 44.6646ZM32.25 57V66H33.75V57H32.25ZM38.25 57V66H39.75V57H38.25ZM53.3292 11.6646L50.3292 17.6646L51.6708 18.3354L54.6708 12.3354L53.3292 11.6646ZM51.5303 17.4697L48.5303 14.4697L47.4697 15.5303L50.4697 18.5303L51.5303 17.4697ZM47.3292 14.6646L44.3292 20.6646L45.6708 21.3354L48.6708 15.3354L47.3292 14.6646ZM61.5 21C60.8569 20.6141 60.8569 20.6141 60.8569 20.6141C60.8569 20.6141 60.8569 20.6141 60.8568 20.6142C60.8567 20.6144 60.8566 20.6146 60.8564 20.615C60.8559 20.6157 60.8552 20.6169 60.8542 20.6185C60.8523 20.6218 60.8492 20.6268 60.8452 20.6336C60.837 20.6471 60.8246 20.6675 60.8082 20.6944C60.7755 20.7481 60.7267 20.8278 60.6633 20.9301C60.5365 21.1348 60.3514 21.4297 60.1198 21.7887C59.6561 22.5074 59.0079 23.4796 58.2684 24.4964C57.5275 25.5151 56.7029 26.5677 55.8864 27.4522C55.056 28.3518 54.2879 29.0175 53.6646 29.3292L54.3354 30.6708C55.2121 30.2325 56.1315 29.3982 56.9886 28.4696C57.8596 27.526 58.7225 26.4224 59.4816 25.3786C60.2421 24.3329 60.9064 23.3364 61.3802 22.6019C61.6174 22.2344 61.8073 21.9316 61.9383 21.7203C62.0038 21.6146 62.0546 21.5316 62.0892 21.4748C62.1065 21.4464 62.1198 21.4245 62.1288 21.4096C62.1334 21.4021 62.1368 21.3963 62.1392 21.3924C62.1404 21.3904 62.1413 21.3888 62.142 21.3878C62.1423 21.3872 62.1426 21.3868 62.1428 21.3865C62.1429 21.3863 62.1429 21.3862 62.143 21.3861C62.1431 21.386 62.1431 21.3859 61.5 21ZM53.6646 29.3292C52.2094 30.0568 51.1357 30.4117 50.4431 30.5849C50.0967 30.6715 49.8451 30.7127 49.6882 30.7324C49.6098 30.7422 49.5549 30.7466 49.5235 30.7485C49.5079 30.7495 49.4981 30.7499 49.4942 30.75C49.4922 30.7501 49.4917 30.7501 49.4927 30.75C49.4932 30.75 49.494 30.75 49.4952 30.75C49.4958 30.75 49.4966 30.75 49.4973 30.75C49.4977 30.75 49.4982 30.75 49.4986 30.75C49.4988 30.75 49.4992 30.75 49.4993 30.75C49.4996 30.75 49.5 30.75 49.5 31.5C49.5 32.25 49.5004 32.25 49.5007 32.25C49.5009 32.25 49.5013 32.25 49.5015 32.25C49.5021 32.25 49.5026 32.25 49.5032 32.25C49.5044 32.25 49.5056 32.25 49.507 32.25C49.5096 32.25 49.5127 32.2499 49.5161 32.2499C49.5229 32.2498 49.5312 32.2496 49.541 32.2493C49.5605 32.2487 49.5859 32.2476 49.6171 32.2456C49.6795 32.2417 49.7652 32.2344 49.8743 32.2208C50.0924 32.1935 50.4033 32.141 50.8069 32.0401C51.6143 31.8383 52.7906 31.4432 54.3354 30.6708L53.6646 29.3292ZM45.9697 36.5303C46.5686 37.1292 48.0555 38.6163 49.5776 40.324C51.1166 42.0507 52.6287 43.9345 53.3292 45.3354L54.6708 44.6646C53.8713 43.0655 52.2334 41.0493 50.6974 39.326C49.1445 37.5837 47.6314 36.0708 47.0303 35.4697L45.9697 36.5303ZM53.3292 45.3354C54.0288 46.7347 54.7622 49.6364 55.3291 52.2821C55.6085 53.5856 55.8414 54.797 56.0046 55.6827C56.0861 56.1255 56.1502 56.4864 56.1938 56.7363C56.2156 56.8612 56.2322 56.9584 56.2434 57.0241C56.249 57.057 56.2533 57.082 56.2561 57.0987C56.2575 57.107 56.2585 57.1133 56.2592 57.1174C56.2596 57.1195 56.2598 57.121 56.26 57.122C56.2601 57.1225 56.2601 57.1228 56.2602 57.123C56.2602 57.1232 56.2602 57.1232 56.2602 57.1233C56.2602 57.1233 56.2602 57.1233 57 57C57.7398 56.8767 57.7398 56.8766 57.7398 56.8765C57.7398 56.8764 57.7397 56.8763 57.7397 56.8761C57.7396 56.8758 57.7396 56.8753 57.7395 56.8747C57.7393 56.8735 57.739 56.8718 57.7386 56.8695C57.7378 56.865 57.7367 56.8583 57.7352 56.8495C57.7323 56.8319 57.7279 56.806 57.7221 56.7723C57.7106 56.7047 57.6936 56.6056 57.6715 56.4786C57.6272 56.2246 57.5623 55.8589 57.4798 55.411C57.3148 54.5155 57.079 53.2894 56.7959 51.9679C56.2378 49.3636 55.4712 46.2653 54.6708 44.6646L53.3292 45.3354Z" fill="#7B61FF"/>
</svg>
