<svg width="72" height="72" viewBox="0 0 72 72" fill="none" xmlns="http://www.w3.org/2000/svg">
<path d="M24 22.5C24 22.5 25.2334 23.2401 27 24.1199M57 39C57 39 60 40.5 62.3434 41.2811C64.6868 42.0623 63.8434 39.7811 64.5 34.5C65.1565 29.2189 70.5 24 69 22.5C67.7126 21.2126 59.7959 25.4497 56.6291 27.625M56.6291 27.625C56.1061 27.9843 55.7126 28.2874 55.5 28.5C54 30 52.5 36 52.5 36C52.5 36 51 27 46.5 27C41.9999 27 40.5 27 36 27C33.3249 27 29.5896 25.4097 27 24.1199M56.6291 27.625C54.9662 18.8909 47.7593 10.5 36 10.5C24.3117 10.5 17.1211 18.7897 15.4016 27.4666M15.2644 39C15.2644 39 12.2644 40.5 9.92092 41.2811C7.57747 42.0623 8.42092 39.7811 7.76436 34.5C7.10781 29.2189 1.76436 24 3.26436 22.5C4.52115 21.2432 12.0959 25.2514 15.4016 27.4666M15.4016 27.4666C16.0413 27.8953 16.5211 28.2568 16.7644 28.5C18.2644 30 19.7644 36 19.7644 36L27 24.1199M31.5 49.5C31.5 49.5 33 51 36 51C39 51 40.5 49.5 40.5 49.5M44.9999 60C44.9999 60 52.4999 60 53.9999 63C55.4999 66 53.9999 70.5 53.9999 70.5M27 60C27 60 19.5 60 18 63C16.5 66 18 70.5 18 70.5M54 42C51.6916 50.6745 44.5063 57 36 57C27.4937 57 20.3084 50.6745 18 42M32.4001 35.8023C32.4001 37.7906 30.7883 39.4023 28.8001 39.4023C26.8118 39.4023 25.2001 37.7906 25.2001 35.8023C25.2001 33.8141 26.8118 32.2023 28.8001 32.2023C30.7883 32.2023 32.4001 33.8141 32.4001 35.8023ZM46.8001 35.8023C46.8001 37.7906 45.1883 39.4023 43.2001 39.4023C41.2118 39.4023 39.6001 37.7906 39.6001 35.8023C39.6001 33.8141 41.2118 32.2023 43.2001 32.2023C45.1883 32.2023 46.8001 33.8141 46.8001 35.8023Z" stroke="#7B61FF" stroke-width="1.5" stroke-linecap="round" stroke-linejoin="round"/>
</svg>
