<svg width="72" height="72" viewBox="0 0 72 72" fill="none" xmlns="http://www.w3.org/2000/svg">
<path d="M52.6667 31.0833C52.6667 29.806 52.523 28.5622 52.2509 27.3673M52.6667 31.0833C52.6667 34.11 51.8598 37.6692 50.4495 41.0833M52.6667 31.0833V45M19.3333 31.0833C19.3333 34.11 20.1402 37.6692 21.5505 41.0833M19.3333 31.0833C19.3333 29.806 19.477 28.5622 19.7491 27.3673M19.3333 31.0833V51.0833M52.2509 27.3673C50.5622 19.9513 43.9274 17.75 36 17.75C28.0726 17.75 21.4378 19.9513 19.7491 27.3673M52.2509 27.3673L58.0159 23.3347M50.4495 41.0833L66 17.75L58.0159 23.3347M50.4495 41.0833C49.974 42.2345 49.4299 43.3692 48.8249 44.4614M21.5505 41.0833C24.4291 48.052 29.822 54.4166 36 54.4166C36.8106 54.4166 37.6077 54.3071 38.3873 54.1009M21.5505 41.0833L6 17.75C9.15726 19.9584 11.4989 21.5964 13.9841 23.3347M19.7491 27.3673C17.537 25.82 15.7253 24.5527 13.9841 23.3347M13.9841 23.3347C17.179 14.2569 25.8296 9.41663 36 9.41663C46.1704 9.41663 54.821 14.2569 58.0159 23.3347M12.6667 57.75C12.6667 57.75 12.6667 44.9096 12.6667 37.75M59.3333 42.4166V37.75M19.3333 59.4166V61.0833M43.5 55.5L48 51V66M52.6667 66L57 51M69 66H61.5V61.5L69 57V51H61.5V54.1009" stroke="#7B61FF" stroke-width="1.5" stroke-linecap="round" stroke-linejoin="round"/>
<path d="M29.3332 34.4167C31.1742 34.4167 32.6665 32.9243 32.6665 31.0833C32.6665 29.2424 31.1742 27.75 29.3332 27.75C27.4923 27.75 25.9999 29.2424 25.9999 31.0833C25.9999 32.9243 27.4923 34.4167 29.3332 34.4167Z" fill="#7B61FF"/>
<path d="M42.6666 34.4167C44.5075 34.4167 45.9999 32.9243 45.9999 31.0833C45.9999 29.2424 44.5075 27.75 42.6666 27.75C40.8256 27.75 39.3333 29.2424 39.3333 31.0833C39.3333 32.9243 40.8256 34.4167 42.6666 34.4167Z" fill="#7B61FF"/>
</svg>
