<svg width="72" height="72" viewBox="0 0 72 72" fill="none" xmlns="http://www.w3.org/2000/svg">
<path d="M48 30C48 30 46.1292 41.2481 43.5 48C40.8366 54.8396 36 60 36 60C36 60 31.1634 54.8396 28.5 48C25.8708 41.2481 24 30 24 30M36 42V33M36 46.5V48M19.5 24C19.5 14.8873 26.8873 7.5 36 7.5C45.1127 7.5 52.5 14.8873 52.5 24M32.3292 22.65C32.3292 24.3897 30.9189 25.8 29.1792 25.8C27.4395 25.8 26.0292 24.3897 26.0292 22.65C26.0292 20.9103 27.4395 19.5 29.1792 19.5C30.9189 19.5 32.3292 20.9103 32.3292 22.65ZM44.9292 22.65C44.9292 24.3897 43.5189 25.8 41.7792 25.8C40.0395 25.8 38.6292 24.3897 38.6292 22.65C38.6292 20.9103 40.0395 19.5 41.7792 19.5C43.5189 19.5 44.9292 20.9103 44.9292 22.65Z" stroke="#7B61FF" stroke-width="1.5" stroke-linecap="round" stroke-linejoin="round"/>
</svg>
