<svg width="72" height="72" viewBox="0 0 72 72" fill="none" xmlns="http://www.w3.org/2000/svg">
<path d="M29.9018 9.88895C31.9636 9.2811 34.0522 9 36.0003 9C37.9483 9 40.0369 9.2811 42.0987 9.88895C43.7491 10.3755 45.3823 11.0714 46.9125 12C46.9125 12 43.8819 11.6276 42 12C39.4301 12.5085 37.4999 15 35.9999 15C34.4999 15 32.5698 12.5085 29.9999 12C28.1182 11.6276 25.0879 12 25.0879 12C26.6182 11.0714 28.2514 10.3755 29.9018 9.88895Z" fill="#7B61FF"/>
<path d="M24.0001 30C24.0001 30 25.8709 41.2481 28.5001 48C31.1635 54.8396 36.0001 60 36.0001 60C36.0001 60 40.8367 54.8396 43.5001 48C46.1293 41.2481 48.0001 30 48.0001 30M21.0002 51C21.0002 51 20.054 45.4692 19.5002 43.5C18.5754 40.2118 16.5002 36 16.5001 31.5C15.5847 21.4301 19.6975 15.2711 25.0879 12M51 51C51 51 51.9462 45.4692 52.5 43.5C53.4248 40.2118 55.5001 36 55.5001 31.5C56.4155 21.4301 52.3028 15.2711 46.9125 12M25.0879 12C26.6182 11.0714 28.2514 10.3755 29.9018 9.88895C31.9636 9.2811 34.0522 9 36.0003 9C37.9483 9 40.0369 9.2811 42.0987 9.88895C43.7491 10.3755 45.3823 11.0714 46.9125 12M25.0879 12C25.0879 12 28.1182 11.6276 29.9999 12C32.5698 12.5085 34.4999 15 35.9999 15C37.4999 15 39.4301 12.5085 42 12C43.8819 11.6276 46.9125 12 46.9125 12M35.9999 33V43.5M32.3293 22.65C32.3293 24.3897 30.919 25.8 29.1793 25.8C27.4396 25.8 26.0293 24.3897 26.0293 22.65C26.0293 20.9103 27.4396 19.5 29.1793 19.5C30.919 19.5 32.3293 20.9103 32.3293 22.65ZM39.6709 22.65C39.6709 24.3897 41.0812 25.8 42.8209 25.8C44.5606 25.8 45.9709 24.3897 45.9709 22.65C45.9709 20.9103 44.5606 19.5 42.8209 19.5C41.0812 19.5 39.6709 20.9103 39.6709 22.65Z" stroke="#7B61FF" stroke-width="1.5" stroke-linecap="round" stroke-linejoin="round"/>
</svg>
