<svg width="72" height="72" viewBox="0 0 72 72" fill="none" xmlns="http://www.w3.org/2000/svg">
<path d="M41.2646 32.8529C41.1833 33.2591 41.4467 33.6542 41.8529 33.7354C42.2591 33.8167 42.6542 33.5533 42.7354 33.1471L41.2646 32.8529ZM60 9L60.7442 9.09303C60.7864 8.75558 60.5962 8.43198 60.2809 8.3046C59.9656 8.17722 59.604 8.27794 59.4 8.55L60 9ZM51 36L50.2724 35.8181C50.2164 36.0422 50.2667 36.2795 50.4088 36.4616C50.551 36.6436 50.7691 36.75 51 36.75V36ZM52.5 30L51.9697 29.4697C51.8736 29.5658 51.8054 29.6862 51.7724 29.8181L52.5 30ZM51 45L50.376 44.584C50.2267 44.8079 50.2088 45.0947 50.3292 45.3354L51 45ZM53.3292 51.3354C53.5144 51.7059 53.9649 51.8561 54.3354 51.6708C54.7059 51.4856 54.8561 51.0351 54.6708 50.6646L53.3292 51.3354ZM52.9411 57.6066C53.2761 57.3629 53.3502 56.8939 53.1066 56.5589C52.8629 56.2239 52.3939 56.1498 52.0589 56.3934L52.9411 57.6066ZM36 69L35.5589 69.6066C35.8219 69.7978 36.1781 69.7978 36.4411 69.6066L36 69ZM29.2646 33.1471C29.3458 33.5533 29.7409 33.8167 30.1471 33.7354C30.5533 33.6542 30.8167 33.2591 30.7354 32.8529L29.2646 33.1471ZM12 9L12.6 8.55C12.396 8.27794 12.0344 8.17722 11.7191 8.3046C11.4038 8.43198 11.2136 8.75558 11.2558 9.09303L12 9ZM21 36V36.75C21.231 36.75 21.449 36.6436 21.5912 36.4616C21.7333 36.2795 21.7836 36.0422 21.7276 35.8181L21 36ZM19.5 30L20.2276 29.8181C20.1946 29.6862 20.1264 29.5658 20.0303 29.4697L19.5 30ZM19.9411 56.3934C19.6061 56.1498 19.1371 56.2239 18.8934 56.5589C18.6498 56.8939 18.7239 57.3629 19.0589 57.6066L19.9411 56.3934ZM36 57L35.4697 57.5303C35.7626 57.8232 36.2374 57.8232 36.5303 57.5303L36 57ZM33 54L33.5303 53.4697C33.2374 53.1768 32.7626 53.1768 32.4697 53.4697L33 54ZM30 57L29.4697 57.5303C29.7626 57.8232 30.2374 57.8232 30.5303 57.5303L30 57ZM27.5303 53.4697C27.2374 53.1768 26.7626 53.1768 26.4697 53.4697C26.1768 53.7626 26.1768 54.2374 26.4697 54.5303L27.5303 53.4697ZM39 54L39.5303 53.4697C39.2374 53.1768 38.7626 53.1768 38.4697 53.4697L39 54ZM42 57L41.4697 57.5303C41.7626 57.8232 42.2374 57.8232 42.5303 57.5303L42 57ZM45.5303 54.5303C45.8232 54.2374 45.8232 53.7626 45.5303 53.4697C45.2374 53.1768 44.7626 53.1768 44.4697 53.4697L45.5303 54.5303ZM57 36L57.624 36.416C57.7775 36.1859 57.7918 35.89 57.6613 35.6461C57.5307 35.4022 57.2766 35.25 57 35.25V36ZM21 45L21.6708 45.3354C21.7912 45.0947 21.7733 44.8079 21.624 44.584L21 45ZM17.3292 50.6646C17.1439 51.0351 17.2941 51.4856 17.6646 51.6708C18.0351 51.8561 18.4856 51.7059 18.6708 51.3354L17.3292 50.6646ZM15 36V35.25C14.7234 35.25 14.4693 35.4022 14.3387 35.6461C14.2082 35.89 14.2225 36.1859 14.376 36.416L15 36ZM42 33C42.7354 33.1471 42.7354 33.1471 42.7354 33.1471C42.7354 33.1471 42.7354 33.147 42.7355 33.147C42.7355 33.1468 42.7355 33.1465 42.7356 33.1462C42.7358 33.1454 42.736 33.1442 42.7364 33.1425C42.737 33.1392 42.738 33.1342 42.7394 33.1273C42.7422 33.1137 42.7464 33.0932 42.7519 33.0662C42.763 33.0123 42.7795 32.9324 42.8012 32.8298C42.8445 32.6248 42.9082 32.3293 42.9894 31.9699C43.1519 31.2503 43.3836 30.2772 43.6611 29.2598C43.9393 28.2397 44.2598 27.1888 44.5984 26.3083C44.952 25.3891 45.2805 24.7802 45.5303 24.5303L44.4697 23.4697C43.9695 23.9698 43.548 24.8609 43.1984 25.7698C42.834 26.7175 42.4982 27.8228 42.2139 28.8652C41.9289 29.9103 41.6919 30.906 41.5262 31.6395C41.4433 32.0066 41.3781 32.3088 41.3336 32.5198C41.3113 32.6253 41.2942 32.708 41.2825 32.7646C41.2767 32.7929 41.2723 32.8147 41.2693 32.8295C41.2678 32.837 41.2666 32.8427 41.2658 32.8466C41.2654 32.8485 41.2651 32.85 41.2649 32.8511C41.2648 32.8516 41.2647 32.852 41.2647 32.8523C41.2646 32.8525 41.2646 32.8526 41.2646 32.8527C41.2646 32.8528 41.2646 32.8529 42 33ZM45.5303 24.5303C46.2229 23.8377 47.2688 23.1404 48.6234 22.1728C49.9469 21.2274 51.4865 20.0742 53.0303 18.5303L51.9697 17.4697C50.5135 18.9258 49.0531 20.0226 47.7516 20.9522C46.4813 21.8596 45.2771 22.6623 44.4697 23.4697L45.5303 24.5303ZM53.0303 18.5303C54.5621 16.9985 56.4594 14.7201 57.9607 12.8435C58.7143 11.9014 59.3736 11.0538 59.8445 10.4417C60.08 10.1355 60.2685 9.88808 60.3983 9.71696C60.4632 9.6314 60.5134 9.56491 60.5476 9.51968C60.5646 9.49707 60.5776 9.47978 60.5864 9.46807C60.5908 9.46222 60.5942 9.45776 60.5964 9.45474C60.5976 9.45323 60.5984 9.45207 60.599 9.45128C60.5993 9.45089 60.5996 9.45058 60.5997 9.45037C60.5998 9.45026 60.5999 9.45017 60.5999 9.45012C60.6 9.45005 60.6 9.45 60 9C59.4 8.55 59.4 8.55 59.4 8.55002C59.4 8.55006 59.3999 8.5501 59.3999 8.55018C59.3998 8.55033 59.3996 8.55057 59.3993 8.55091C59.3988 8.55157 59.3981 8.5526 59.397 8.55398C59.3949 8.55675 59.3918 8.56095 59.3876 8.56654C59.3792 8.57772 59.3666 8.59448 59.3499 8.61655C59.3166 8.66068 59.2673 8.72602 59.2033 8.81038C59.0753 8.97911 58.8888 9.22387 58.6555 9.52709C58.1889 10.1337 57.5357 10.9736 56.7894 11.9065C55.2906 13.7799 53.4379 16.0015 51.9697 17.4697L53.0303 18.5303ZM60 9C59.2558 8.90697 59.2558 8.90699 59.2558 8.90704C59.2558 8.90712 59.2558 8.90723 59.2557 8.90739C59.2557 8.90771 59.2556 8.90821 59.2556 8.90889C59.2554 8.91026 59.2551 8.91234 59.2548 8.91514C59.2541 8.92073 59.253 8.92918 59.2516 8.94039C59.2487 8.9628 59.2445 8.99629 59.2389 9.0402C59.2276 9.12803 59.2109 9.25755 59.189 9.42364C59.1453 9.75585 59.0811 10.2343 58.9994 10.8179C58.836 11.9856 58.6026 13.5725 58.3227 15.2517C58.0426 16.9324 57.7172 18.6977 57.3702 20.2244C57.0178 21.7749 56.6589 23.0051 56.3292 23.6646L57.6708 24.3354C58.0911 23.4949 58.4822 22.1001 58.8329 20.5568C59.1891 18.9898 59.5199 17.1926 59.8023 15.4983C60.0849 13.8025 60.3203 12.2019 60.4849 11.0259C60.5673 10.4376 60.632 9.95508 60.6762 9.61933C60.6983 9.45144 60.7153 9.32021 60.7267 9.23079C60.7324 9.18608 60.7368 9.15182 60.7397 9.12864C60.7412 9.11706 60.7423 9.10824 60.743 9.10228C60.7434 9.0993 60.7437 9.09703 60.7439 9.09548C60.744 9.09471 60.7441 9.09412 60.7441 9.09371C60.7441 9.0935 60.7442 9.09333 60.7442 9.09323C60.7442 9.09311 60.7442 9.09303 60 9ZM56.3292 23.6646C55.6173 25.0883 54.5349 26.5366 53.6113 27.6449C53.1528 28.1951 52.7401 28.6537 52.4426 28.974C52.294 29.1341 52.1744 29.2594 52.0926 29.344C52.0517 29.3863 52.0203 29.4184 51.9994 29.4396C51.989 29.4502 51.9812 29.458 51.9762 29.4631C51.9737 29.4656 51.9719 29.4674 51.9708 29.4685C51.9703 29.4691 51.9699 29.4695 51.9697 29.4696C51.9696 29.4697 51.9696 29.4698 51.9696 29.4698C51.9695 29.4698 51.9696 29.4698 51.9696 29.4698C51.9696 29.4697 51.9697 29.4697 52.5 30C53.0303 30.5303 53.0304 30.5303 53.0305 30.5302C53.0305 30.5301 53.0306 30.53 53.0307 30.5299C53.0309 30.5298 53.0311 30.5295 53.0314 30.5293C53.0319 30.5287 53.0327 30.528 53.0336 30.5271C53.0354 30.5253 53.0379 30.5228 53.0411 30.5195C53.0475 30.513 53.0568 30.5037 53.0687 30.4916C53.0925 30.4674 53.127 30.4321 53.1711 30.3865C53.2592 30.2953 53.3857 30.1628 53.5418 29.9947C53.8537 29.6588 54.2847 29.1799 54.7637 28.6051C55.7151 27.4634 56.8827 25.9117 57.6708 24.3354L56.3292 23.6646ZM51.7724 29.8181L50.2724 35.8181L51.7276 36.1819L53.2276 30.1819L51.7724 29.8181ZM50.3292 45.3354L53.3292 51.3354L54.6708 50.6646L51.6708 44.6646L50.3292 45.3354ZM52.0589 56.3934L35.5589 68.3934L36.4411 69.6066L52.9411 57.6066L52.0589 56.3934ZM30 33C30.7354 32.8529 30.7354 32.8528 30.7354 32.8527C30.7354 32.8526 30.7354 32.8525 30.7353 32.8523C30.7353 32.852 30.7352 32.8516 30.7351 32.8511C30.7349 32.85 30.7346 32.8485 30.7342 32.8466C30.7334 32.8427 30.7322 32.837 30.7307 32.8295C30.7277 32.8147 30.7233 32.7929 30.7175 32.7646C30.7058 32.708 30.6887 32.6253 30.6664 32.5198C30.6219 32.3088 30.5567 32.0066 30.4738 31.6395C30.3081 30.906 30.0711 29.9103 29.7861 28.8652C29.5018 27.8228 29.1661 26.7175 28.8016 25.7698C28.452 24.8609 28.0305 23.9698 27.5303 23.4697L26.4697 24.5303C26.7195 24.7802 27.048 25.3891 27.4016 26.3083C27.7402 27.1888 28.0607 28.2397 28.3389 29.2598C28.6164 30.2772 28.8481 31.2503 29.0106 31.9699C29.0918 32.3293 29.1555 32.6248 29.1988 32.8298C29.2205 32.9324 29.237 33.0123 29.2481 33.0662C29.2537 33.0932 29.2578 33.1137 29.2606 33.1273C29.262 33.1342 29.263 33.1392 29.2637 33.1425C29.264 33.1442 29.2642 33.1454 29.2644 33.1462C29.2645 33.1465 29.2645 33.1468 29.2645 33.147C29.2646 33.147 29.2646 33.1471 29.2646 33.1471C29.2646 33.1471 29.2646 33.1471 30 33ZM27.5303 23.4697C26.7229 22.6623 25.5188 21.8596 24.2484 20.9522C22.9469 20.0226 21.4865 18.9258 20.0303 17.4697L18.9697 18.5303C20.5135 20.0742 22.0531 21.2274 23.3766 22.1728C24.7313 23.1404 25.7771 23.8377 26.4697 24.5303L27.5303 23.4697ZM20.0303 17.4697C18.5621 16.0015 16.7094 13.7799 15.2107 11.9065C14.4643 10.9736 13.8111 10.1337 13.3445 9.52709C13.1112 9.22387 12.9247 8.97911 12.7967 8.81038C12.7327 8.72602 12.6834 8.66068 12.6501 8.61655C12.6334 8.59448 12.6208 8.57772 12.6124 8.56654C12.6082 8.56095 12.6051 8.55675 12.603 8.55398C12.6019 8.5526 12.6012 8.55157 12.6007 8.55091C12.6004 8.55057 12.6002 8.55033 12.6001 8.55018C12.6001 8.5501 12.6 8.55006 12.6 8.55002C12.6 8.55 12.6 8.55 12 9C11.4 9.45 11.4 9.45005 11.4001 9.45012C11.4001 9.45017 11.4002 9.45026 11.4003 9.45037C11.4004 9.45058 11.4007 9.45089 11.401 9.45128C11.4016 9.45207 11.4024 9.45323 11.4036 9.45474C11.4058 9.45776 11.4092 9.46222 11.4136 9.46807C11.4224 9.47978 11.4354 9.49707 11.4524 9.51968C11.4866 9.56491 11.5368 9.6314 11.6017 9.71696C11.7315 9.88808 11.92 10.1355 12.1555 10.4417C12.6264 11.0538 13.2857 11.9014 14.0393 12.8435C15.5406 14.7201 17.4379 16.9985 18.9697 18.5303L20.0303 17.4697ZM12 9C11.2558 9.09303 11.2558 9.09311 11.2558 9.09323C11.2558 9.09333 11.2559 9.0935 11.2559 9.09371C11.2559 9.09412 11.256 9.09471 11.2561 9.09548C11.2563 9.09703 11.2566 9.0993 11.257 9.10228C11.2577 9.10824 11.2588 9.11706 11.2603 9.12864C11.2632 9.15182 11.2676 9.18608 11.2733 9.23079C11.2847 9.32021 11.3017 9.45144 11.3238 9.61933C11.368 9.95508 11.4327 10.4376 11.5151 11.0259C11.6797 12.2019 11.9151 13.8025 12.1977 15.4983C12.4801 17.1926 12.8109 18.9898 13.1671 20.5568C13.5178 22.1001 13.9089 23.4949 14.3292 24.3354L15.6708 23.6646C15.3411 23.0051 14.9822 21.7749 14.6298 20.2244C14.2828 18.6977 13.9574 16.9324 13.6773 15.2517C13.3974 13.5725 13.164 11.9856 13.0006 10.8179C12.9189 10.2343 12.8547 9.75585 12.811 9.42364C12.7891 9.25755 12.7724 9.12803 12.7611 9.0402C12.7555 8.99629 12.7513 8.9628 12.7484 8.94039C12.747 8.92918 12.7459 8.92073 12.7452 8.91514C12.7449 8.91234 12.7446 8.91026 12.7444 8.90889C12.7444 8.90821 12.7443 8.90771 12.7443 8.90739C12.7442 8.90723 12.7442 8.90712 12.7442 8.90704C12.7442 8.90699 12.7442 8.90697 12 9ZM14.3292 24.3354C15.1173 25.9117 16.2849 27.4634 17.2363 28.6051C17.7153 29.1799 18.1463 29.6588 18.4582 29.9947C18.6143 30.1628 18.7408 30.2953 18.8289 30.3865C18.873 30.4321 18.9075 30.4674 18.9313 30.4916C18.9432 30.5037 18.9525 30.513 18.9589 30.5195C18.9621 30.5228 18.9646 30.5253 18.9664 30.5271C18.9673 30.528 18.9681 30.5287 18.9686 30.5293C18.9689 30.5295 18.9691 30.5298 18.9693 30.5299C18.9694 30.53 18.9695 30.5301 18.9695 30.5302C18.9696 30.5303 18.9697 30.5303 19.5 30C20.0303 29.4697 20.0304 29.4697 20.0304 29.4698C20.0304 29.4698 20.0305 29.4698 20.0305 29.4698C20.0304 29.4698 20.0304 29.4697 20.0303 29.4696C20.0301 29.4695 20.0297 29.4691 20.0292 29.4685C20.0281 29.4674 20.0263 29.4656 20.0238 29.4631C20.0188 29.458 20.011 29.4502 20.0006 29.4396C19.9797 29.4184 19.9483 29.3863 19.9074 29.344C19.8256 29.2594 19.706 29.1341 19.5574 28.974C19.2599 28.6537 18.8472 28.1951 18.3887 27.6449C17.4651 26.5366 16.3827 25.0883 15.6708 23.6646L14.3292 24.3354ZM18.7724 30.1819L20.2724 36.1819L21.7276 35.8181L20.2276 29.8181L18.7724 30.1819ZM19.0589 57.6066L35.5589 69.6066L36.4411 68.3934L19.9411 56.3934L19.0589 57.6066ZM31.6501 41.4C31.6501 42.974 30.3741 44.25 28.8001 44.25V45.75C31.2025 45.75 33.1501 43.8024 33.1501 41.4H31.6501ZM28.8001 44.25C27.2261 44.25 25.9501 42.974 25.9501 41.4H24.4501C24.4501 43.8024 26.3976 45.75 28.8001 45.75V44.25ZM25.9501 41.4C25.9501 39.826 27.2261 38.55 28.8001 38.55V37.05C26.3976 37.05 24.4501 38.9976 24.4501 41.4H25.9501ZM28.8001 38.55C30.3741 38.55 31.6501 39.826 31.6501 41.4H33.1501C33.1501 38.9976 31.2025 37.05 28.8001 37.05V38.55ZM46.0501 41.4C46.0501 42.974 44.7741 44.25 43.2001 44.25V45.75C45.6025 45.75 47.5501 43.8024 47.5501 41.4H46.0501ZM43.2001 44.25C41.6261 44.25 40.3501 42.974 40.3501 41.4H38.8501C38.8501 43.8024 40.7976 45.75 43.2001 45.75V44.25ZM40.3501 41.4C40.3501 39.826 41.6261 38.55 43.2001 38.55V37.05C40.7976 37.05 38.8501 38.9976 38.8501 41.4H40.3501ZM43.2001 38.55C44.7741 38.55 46.0501 39.826 46.0501 41.4H47.5501C47.5501 38.9976 45.6025 37.05 43.2001 37.05V38.55ZM36.5303 56.4697L33.5303 53.4697L32.4697 54.5303L35.4697 57.5303L36.5303 56.4697ZM32.4697 53.4697L29.4697 56.4697L30.5303 57.5303L33.5303 54.5303L32.4697 53.4697ZM30.5303 56.4697L27.5303 53.4697L26.4697 54.5303L29.4697 57.5303L30.5303 56.4697ZM36.5303 57.5303L39.5303 54.5303L38.4697 53.4697L35.4697 56.4697L36.5303 57.5303ZM38.4697 54.5303L41.4697 57.5303L42.5303 56.4697L39.5303 53.4697L38.4697 54.5303ZM42.5303 57.5303L45.5303 54.5303L44.4697 53.4697L41.4697 56.4697L42.5303 57.5303ZM51.624 45.416L57.624 36.416L56.376 35.584L50.376 44.584L51.624 45.416ZM57 35.25H51V36.75H57V35.25ZM20.3292 44.6646L17.3292 50.6646L18.6708 51.3354L21.6708 45.3354L20.3292 44.6646ZM21.624 44.584L15.624 35.584L14.376 36.416L20.376 45.416L21.624 44.584ZM15 36.75H21V35.25H15V36.75Z" fill="#7B61FF"/>
</svg>
