<svg width="72" height="72" viewBox="0 0 72 72" fill="none" xmlns="http://www.w3.org/2000/svg">
<path d="M43.4999 55.5L43.6862 56.2265C43.933 56.1632 44.1308 55.9789 44.2114 55.7372L43.4999 55.5ZM46.4999 46.5L47.2341 46.3468C47.1648 46.015 46.8817 45.7709 46.5434 45.7513C46.205 45.7316 45.8955 45.9413 45.7884 46.2628L46.4999 46.5ZM47.9998 53.6886L47.2656 53.8418C47.3159 54.0829 47.4814 54.2839 47.7084 54.3796C47.9353 54.4754 48.1948 54.4535 48.4026 54.3213L47.9998 53.6886ZM28.5001 55.5L27.7886 55.7372C27.8692 55.9789 28.067 56.1632 28.3138 56.2265L28.5001 55.5ZM25.5001 46.5L26.2116 46.2628C26.1044 45.9413 25.795 45.7316 25.4566 45.7513C25.1183 45.7709 24.8351 46.015 24.7659 46.3468L25.5001 46.5ZM24.0001 53.6886L23.5974 54.3213C23.8052 54.4535 24.0647 54.4754 24.2916 54.3796C24.5185 54.2839 24.684 54.0829 24.7343 53.8418L24.0001 53.6886ZM54.356 48.4054C54.5798 48.0569 54.4788 47.5929 54.1303 47.369C53.7818 47.1451 53.3178 47.2461 53.0939 47.5946L54.356 48.4054ZM18.906 47.5946C18.6822 47.2461 18.2182 47.1451 17.8697 47.369C17.5212 47.5929 17.4201 48.0569 17.644 48.4054L18.906 47.5946ZM44.632 12.7971C44.2438 12.6526 43.812 12.8502 43.6675 13.2384C43.5231 13.6266 43.7206 14.0584 44.1088 14.2029L44.632 12.7971ZM46.6232 15.3131C46.9915 15.5027 47.4437 15.3577 47.6333 14.9894C47.8228 14.6211 47.6779 14.1689 47.3095 13.9794L46.6232 15.3131ZM13.0494 26.7186C12.894 27.1025 13.0793 27.5398 13.4632 27.6952C13.8472 27.8506 14.2844 27.6654 14.4398 27.2814L13.0494 26.7186ZM36.0001 12.75C36.4143 12.75 36.7501 12.4142 36.7501 12C36.7501 11.5858 36.4143 11.25 36.0001 11.25V12.75ZM43.3135 54.7735C41.2217 55.31 40.3782 56.25 35.9999 56.25L35.9999 57.75C40.6217 57.75 41.9758 56.6652 43.6862 56.2265L43.3135 54.7735ZM44.2114 55.7372L47.2114 46.7372L45.7884 46.2628L42.7884 55.2628L44.2114 55.7372ZM45.7657 46.6532L47.2656 53.8418L48.734 53.5354L47.2341 46.3468L45.7657 46.6532ZM28.3138 56.2265C30.0242 56.6652 31.3782 57.75 35.9999 57.75L35.9999 56.25C31.6217 56.25 30.7783 55.31 28.6864 54.7735L28.3138 56.2265ZM29.2116 55.2628L26.2116 46.2628L24.7886 46.7372L27.7886 55.7372L29.2116 55.2628ZM24.7659 46.3468L23.266 53.5354L24.7343 53.8418L26.2343 46.6532L24.7659 46.3468ZM53.0939 47.5946C51.6586 49.8291 49.7879 51.6614 47.5971 53.0559L48.4026 54.3213C50.7715 52.8134 52.7999 50.8277 54.356 48.4054L53.0939 47.5946ZM17.644 48.4054C19.2001 50.8277 21.2285 52.8134 23.5974 54.3213L24.4029 53.0559C22.2121 51.6614 20.3414 49.8291 18.906 47.5946L17.644 48.4054ZM30.75 31.5C30.75 33.5711 29.0711 35.25 27 35.25V36.75C29.8995 36.75 32.25 34.3995 32.25 31.5H30.75ZM27 35.25C24.9289 35.25 23.25 33.5711 23.25 31.5H21.75C21.75 34.3995 24.1005 36.75 27 36.75V35.25ZM23.25 31.5C23.25 29.4289 24.9289 27.75 27 27.75V26.25C24.1005 26.25 21.75 28.6005 21.75 31.5H23.25ZM27 27.75C29.0711 27.75 30.75 29.4289 30.75 31.5H32.25C32.25 28.6005 29.8995 26.25 27 26.25V27.75ZM48.75 31.5C48.75 33.5711 47.0711 35.25 45 35.25V36.75C47.8995 36.75 50.25 34.3995 50.25 31.5H48.75ZM45 35.25C42.9289 35.25 41.25 33.5711 41.25 31.5H39.75C39.75 34.3995 42.1005 36.75 45 36.75V35.25ZM41.25 31.5C41.25 29.4289 42.9289 27.75 45 27.75V26.25C42.1005 26.25 39.75 28.6005 39.75 31.5H41.25ZM45 27.75C47.0711 27.75 48.75 29.4289 48.75 31.5H50.25C50.25 28.6005 47.8995 26.25 45 26.25V27.75ZM44.1088 14.2029C44.9723 14.5243 45.8116 14.8955 46.6232 15.3131L47.3095 13.9794C46.4454 13.5347 45.5517 13.1394 44.632 12.7971L44.1088 14.2029ZM14.4398 27.2814C17.8895 18.7594 26.2439 12.75 36.0001 12.75V11.25C25.612 11.25 16.7205 17.6496 13.0494 26.7186L14.4398 27.2814ZM65.25 36C65.25 52.1543 52.1543 65.25 36 65.25V66.75C52.9828 66.75 66.75 52.9828 66.75 36H65.25ZM36 65.25C19.8457 65.25 6.75 52.1543 6.75 36H5.25C5.25 52.9828 19.0172 66.75 36 66.75V65.25ZM6.75 36C6.75 19.8457 19.8457 6.75 36 6.75V5.25C19.0172 5.25 5.25 19.0172 5.25 36H6.75ZM36 6.75C52.1543 6.75 65.25 19.8457 65.25 36H66.75C66.75 19.0172 52.9828 5.25 36 5.25V6.75Z" fill="#7B61FF"/>
</svg>
