<svg width="72" height="72" viewBox="0 0 72 72" fill="none" xmlns="http://www.w3.org/2000/svg">
<path d="M33 13.9091L33 14.6591L33 13.9091ZM46.5827 16.3636L46.1985 15.7194L46.5827 16.3636ZM62.635 9L63.2719 8.60403C63.0835 8.30089 62.7075 8.17257 62.3731 8.29723L62.635 9ZM62.635 17.5909L63.3464 17.8282L62.635 17.5909ZM52.5 51L51.9574 50.4822L52.5 51ZM33 60L33 59.25L33 60ZM19.4172 16.3636L19.8014 15.7194L19.4172 16.3636ZM3.36492 9L3.62685 8.29723C3.29239 8.17257 2.91641 8.30089 2.72797 8.60403L3.36492 9ZM3.36492 17.5909L2.65346 17.8282L3.36492 17.5909ZM13.4999 51L14.0425 50.4822L13.4999 51ZM33 14.6591C35.5249 14.6591 37.9276 15.7006 40.2939 16.5874C41.4457 17.0191 42.6039 17.4167 43.7053 17.5657C44.8228 17.7168 45.9395 17.6204 46.9668 17.0078L46.1985 15.7194C45.5517 16.1052 44.8073 16.2011 43.9064 16.0792C42.9893 15.9552 41.9718 15.6144 40.8203 15.1828C38.5799 14.3432 35.8653 13.1591 33 13.1591L33 14.6591ZM46.9668 17.0078C50.009 15.1936 53.9842 13.3686 57.218 11.9911C58.831 11.3041 60.2522 10.7314 61.2698 10.3306C61.7786 10.1303 62.1862 9.97301 62.4663 9.86595C62.6063 9.81243 62.7144 9.77146 62.7873 9.74397C62.8237 9.73022 62.8514 9.71984 62.8698 9.71293C62.879 9.70948 62.8859 9.7069 62.8904 9.7052C62.8927 9.70435 62.8944 9.70372 62.8955 9.70332C62.896 9.70312 62.8964 9.70297 62.8966 9.70288C62.8968 9.70283 62.8968 9.70281 62.8969 9.70278C62.8969 9.70277 62.8969 9.70277 62.635 9C62.3731 8.29723 62.373 8.29726 62.3729 8.2973C62.3728 8.29733 62.3726 8.29739 62.3724 8.29746C62.3721 8.29759 62.3716 8.29778 62.3709 8.29803C62.3696 8.29852 62.3677 8.29923 62.3652 8.30016C62.3602 8.30203 62.3528 8.30479 62.3432 8.30842C62.3238 8.31567 62.2952 8.32641 62.2578 8.34053C62.183 8.36876 62.0728 8.4105 61.9307 8.46484C61.6464 8.57351 61.234 8.73262 60.7202 8.93498C59.6927 9.33961 58.2585 9.91753 56.6302 10.6111C53.3813 11.995 49.3304 13.8518 46.1985 15.7194L46.9668 17.0078ZM62.635 9C61.998 9.39597 61.9978 9.39558 61.9976 9.3952C61.9975 9.39509 61.9973 9.39472 61.9971 9.3945C61.9969 9.39406 61.9966 9.39366 61.9964 9.39331C61.996 9.3926 61.9956 9.39206 61.9954 9.39171C61.995 9.391 61.995 9.39099 61.9954 9.3917C61.9962 9.3931 61.9987 9.39734 62.0027 9.40438C62.0107 9.41847 62.0246 9.4438 62.0432 9.48027C62.0804 9.55322 62.1361 9.67065 62.1998 9.83181C62.3271 10.1539 62.4866 10.6513 62.5939 11.318C62.8077 12.6469 62.8179 14.6724 61.9235 17.3536L63.3464 17.8282C64.3171 14.9185 64.3272 12.6485 64.0748 11.0797C63.949 10.2976 63.7588 9.69548 63.5947 9.28041C63.5127 9.07295 63.4373 8.91234 63.3798 8.79938C63.351 8.7429 63.3267 8.69831 63.3082 8.66573C63.299 8.64944 63.2913 8.63614 63.2852 8.62586C63.2821 8.62071 63.2795 8.61632 63.2773 8.61268C63.2761 8.61087 63.2752 8.60924 63.2743 8.60779C63.2738 8.60707 63.2734 8.6064 63.273 8.60577C63.2728 8.60546 63.2726 8.60502 63.2725 8.60487C63.2722 8.60444 63.2719 8.60403 62.635 9ZM61.9235 17.3536C61.622 18.2576 61.1657 19.4695 60.6431 20.8555C60.1229 22.235 59.541 23.7767 58.9972 25.3196C58.4538 26.8616 57.9443 28.4166 57.5699 29.8246C57.1992 31.2192 56.9458 32.5237 56.9458 33.5455H58.4458C58.4458 32.7263 58.6563 31.5765 59.0196 30.21C59.3793 28.857 59.8742 27.3442 60.412 25.8182C60.9494 24.2933 61.5254 22.7669 62.0466 21.3848C62.5653 20.0092 63.0336 18.7661 63.3464 17.8282L61.9235 17.3536ZM56.9458 33.5455C56.9458 40.3112 56.5111 45.7108 51.9574 50.4822L53.0425 51.5178C58.0363 46.2853 58.4458 40.3357 58.4458 33.5455H56.9458ZM51.9886 19.4052C52.9219 18.6632 54.5751 17.8723 56.0207 17.3885C56.7425 17.147 57.3573 17.0009 57.7649 16.965C57.9816 16.9459 58.0594 16.9661 58.0516 16.9635C58.0405 16.9599 57.9618 16.9329 57.8822 16.8429C57.79 16.7386 57.75 16.6098 57.75 16.5H59.25C59.25 16.2675 59.1715 16.0366 59.0062 15.8496C58.8536 15.6769 58.6672 15.5866 58.5175 15.5377C58.2325 15.4446 57.9099 15.4464 57.6332 15.4708C57.0539 15.5218 56.3101 15.7099 55.5446 15.9661C54.0157 16.4777 52.1798 17.3368 51.0551 18.2311L51.9886 19.4052ZM57.75 16.5C57.75 16.4909 57.7505 16.5116 57.7376 16.5744C57.7255 16.6332 57.7055 16.7109 57.6755 16.8095C57.6154 17.0072 57.5247 17.2578 57.4065 17.5573C57.1702 18.1563 56.8446 18.8996 56.4849 19.7206C55.7766 21.3369 54.9339 23.2567 54.5054 24.7473L55.947 25.1618C56.3417 23.7887 57.1359 21.9721 57.8587 20.3226C58.2145 19.5106 58.553 18.7385 58.8019 18.1078C58.9263 17.7923 59.0335 17.4993 59.1106 17.246C59.1816 17.0125 59.25 16.7419 59.25 16.5H57.75ZM51.9574 50.4822C47.2755 55.3879 41.1199 59.25 33 59.25L33 60.75C41.6544 60.75 48.1769 56.616 53.0425 51.5178L51.9574 50.4822ZM33 13.1591C30.1346 13.1591 27.4201 14.3432 25.1796 15.1828C24.0281 15.6144 23.0106 15.9552 22.0935 16.0792C21.1926 16.2011 20.4482 16.1052 19.8014 15.7194L19.0331 17.0078C20.0604 17.6204 21.1772 17.7168 22.2946 17.5657C23.396 17.4167 24.5542 17.0191 25.706 16.5874C28.0723 15.7006 30.475 14.6591 33 14.6591L33 13.1591ZM19.8014 15.7194C16.6696 13.8518 12.6186 11.995 9.36975 10.6111C7.74144 9.91753 6.30717 9.33961 5.27969 8.93498C4.76586 8.73262 4.35353 8.57351 4.06924 8.46484C3.92709 8.4105 3.81694 8.36876 3.74211 8.34053C3.70469 8.32641 3.6761 8.31567 3.65676 8.30842C3.64708 8.30479 3.63972 8.30203 3.63472 8.30016C3.63222 8.29923 3.63031 8.29852 3.62899 8.29803C3.62834 8.29778 3.62783 8.29759 3.62747 8.29746C3.6273 8.29739 3.62714 8.29733 3.62705 8.2973C3.62693 8.29726 3.62685 8.29723 3.36492 9C3.10298 9.70277 3.10298 9.70277 3.10301 9.70278C3.10307 9.70281 3.10314 9.70283 3.10327 9.70288C3.10351 9.70297 3.1039 9.70312 3.10445 9.70332C3.10553 9.70372 3.10722 9.70435 3.10949 9.7052C3.11403 9.7069 3.12093 9.70948 3.13013 9.71293C3.14855 9.71984 3.17618 9.73022 3.21262 9.74397C3.2855 9.77146 3.39361 9.81243 3.53363 9.86595C3.81369 9.97301 4.22133 10.1303 4.73006 10.3306C5.74771 10.7314 7.1689 11.3041 8.78192 11.9911C12.0157 13.3686 15.9909 15.1936 19.0331 17.0078L19.8014 15.7194ZM3.36492 9C2.72797 8.60403 2.72771 8.60444 2.72745 8.60487C2.72735 8.60502 2.72708 8.60546 2.72689 8.60577C2.7265 8.6064 2.72608 8.60707 2.72564 8.60779C2.72476 8.60924 2.72376 8.61087 2.72265 8.61268C2.72044 8.61632 2.7178 8.62071 2.71474 8.62586C2.70864 8.63614 2.70089 8.64944 2.69167 8.66573C2.67323 8.69831 2.64892 8.7429 2.62015 8.79938C2.5626 8.91234 2.48717 9.07295 2.40517 9.28041C2.2411 9.69548 2.05092 10.2976 1.92508 11.0797C1.67266 12.6485 1.68286 14.9185 2.65346 17.8282L4.07638 17.3536C3.18201 14.6724 3.1922 12.6469 3.40603 11.318C3.51331 10.6513 3.67281 10.1539 3.80015 9.83181C3.86384 9.67065 3.91954 9.55322 3.9567 9.48027C3.97528 9.4438 3.98922 9.41847 3.99719 9.40438C4.00118 9.39734 4.00367 9.3931 4.00451 9.3917C4.00493 9.39099 4.00493 9.391 4.0045 9.39171C4.00428 9.39206 4.00396 9.3926 4.00352 9.39331C4.0033 9.39366 4.00305 9.39406 4.00278 9.3945C4.00264 9.39472 4.00242 9.39509 4.00235 9.3952C4.00211 9.39558 4.00187 9.39597 3.36492 9ZM2.65346 17.8282C2.9663 18.7661 3.43464 20.0092 3.95331 21.3848C4.47447 22.7669 5.05053 24.2933 5.58795 25.8182C6.12574 27.3442 6.6206 28.857 6.98033 30.21C7.34364 31.5765 7.55409 32.7263 7.55409 33.5455H9.05409C9.05409 32.5237 8.80074 31.2192 8.42997 29.8246C8.0556 28.4166 7.54608 26.8616 7.00267 25.3196C6.4589 23.7767 5.87698 22.235 5.35684 20.8555C4.83422 19.4695 4.37795 18.2576 4.07638 17.3536L2.65346 17.8282ZM7.55409 33.5455C7.55409 40.3357 7.96358 46.2853 12.9574 51.5178L14.0425 50.4822C9.48885 45.7108 9.05409 40.3112 9.05409 33.5455H7.55409ZM14.9448 18.2311C13.8201 17.3368 11.9842 16.4777 10.4553 15.9661C9.6898 15.7099 8.94601 15.5218 8.36669 15.4708C8.09 15.4464 7.7674 15.4446 7.48242 15.5377C7.33275 15.5866 7.14633 15.6769 6.9937 15.8496C6.82844 16.0366 6.74994 16.2675 6.74994 16.5H8.24994C8.24994 16.6098 8.20989 16.7386 8.1177 16.8429C8.03815 16.9329 7.95944 16.9599 7.94833 16.9635C7.94046 16.9661 8.01832 16.9459 8.23505 16.965C8.64256 17.0009 9.25743 17.147 9.97924 17.3885C11.4249 17.8723 13.078 18.6632 14.0113 19.4052L14.9448 18.2311ZM6.74994 16.5C6.74994 16.7419 6.81829 17.0125 6.88931 17.246C6.96638 17.4993 7.07358 17.7923 7.19804 18.1078C7.44689 18.7385 7.78536 19.5106 8.14117 20.3226C8.86397 21.9721 9.65816 23.7887 10.0529 25.1618L11.4945 24.7473C11.066 23.2567 10.2233 21.3369 9.51506 19.7206C9.15533 18.8996 8.82972 18.1563 8.59337 17.5573C8.47523 17.2578 8.38455 17.0072 8.32439 16.8095C8.29441 16.7109 8.2744 16.6332 8.26234 16.5744C8.24943 16.5116 8.24994 16.4909 8.24994 16.5H6.74994ZM12.9574 51.5178C17.823 56.616 24.3455 60.75 33 60.75L33 59.25C24.88 59.25 18.7244 55.3879 14.0425 50.4822L12.9574 51.5178ZM33 45C32.3292 45.3354 32.3293 45.3356 32.3295 45.3359C32.3295 45.336 32.3297 45.3363 32.3298 45.3366C32.33 45.337 32.3303 45.3375 32.3305 45.338C32.3311 45.3391 32.3317 45.3404 32.3324 45.3418C32.3339 45.3447 32.3357 45.3483 32.338 45.3526C32.3424 45.3611 32.3483 45.3726 32.3558 45.3866C32.3708 45.4147 32.3919 45.4533 32.4192 45.501C32.4736 45.5962 32.5529 45.7282 32.6572 45.8847C32.8651 46.1965 33.1768 46.6124 33.5947 47.0303C34.4264 47.862 35.731 48.75 37.5 48.75L37.5 47.25C36.2691 47.25 35.3236 46.6379 34.6554 45.9696C34.3233 45.6375 34.0725 45.3034 33.9053 45.0527C33.8221 44.9279 33.7608 44.8256 33.7215 44.7568C33.7019 44.7224 33.6878 44.6966 33.6794 44.6807C33.6751 44.6728 33.6723 44.6673 33.6709 44.6646C33.6702 44.6632 33.6698 44.6625 33.6698 44.6625C33.6698 44.6625 33.6699 44.6627 33.6701 44.663C33.6701 44.6632 33.6703 44.6634 33.6704 44.6636C33.6705 44.6638 33.6706 44.664 33.6706 44.6641C33.6707 44.6643 33.6708 44.6646 33 45ZM37.5 48.75C39.2691 48.75 40.5736 47.862 41.4054 47.0303C41.8233 46.6124 42.135 46.1965 42.3428 45.8847C42.4471 45.7282 42.5265 45.5962 42.5809 45.501C42.6081 45.4533 42.6292 45.4147 42.6442 45.3866C42.6517 45.3726 42.6577 45.3611 42.6621 45.3526C42.6643 45.3483 42.6661 45.3447 42.6676 45.3418C42.6683 45.3404 42.669 45.3391 42.6695 45.338C42.6698 45.3375 42.67 45.337 42.6702 45.3366C42.6704 45.3363 42.6705 45.336 42.6706 45.3359C42.6707 45.3356 42.6708 45.3354 42 45C41.3292 44.6646 41.3293 44.6643 41.3294 44.6641C41.3295 44.664 41.3296 44.6638 41.3297 44.6636C41.3298 44.6634 41.3299 44.6632 41.33 44.663C41.3302 44.6627 41.3302 44.6625 41.3302 44.6625C41.3302 44.6625 41.3299 44.6632 41.3292 44.6646C41.3277 44.6673 41.3249 44.6728 41.3207 44.6807C41.3122 44.6966 41.2982 44.7224 41.2785 44.7568C41.2392 44.8256 41.1779 44.9279 41.0947 45.0527C40.9276 45.3034 40.6768 45.6375 40.3447 45.9696C39.6764 46.6379 38.731 47.25 37.5 47.25L37.5 48.75ZM24 45C23.3292 45.3354 23.3293 45.3356 23.3295 45.3359C23.3295 45.336 23.3297 45.3363 23.3298 45.3366C23.33 45.337 23.3303 45.3375 23.3305 45.338C23.3311 45.3391 23.3317 45.3404 23.3324 45.3418C23.3339 45.3447 23.3357 45.3483 23.338 45.3526C23.3424 45.3611 23.3483 45.3726 23.3558 45.3866C23.3708 45.4147 23.3919 45.4533 23.4192 45.501C23.4736 45.5962 23.5529 45.7282 23.6572 45.8847C23.8651 46.1965 24.1768 46.6124 24.5947 47.0303C25.4264 47.862 26.731 48.75 28.5 48.75L28.5 47.25C27.2691 47.25 26.3236 46.6379 25.6554 45.9696C25.3233 45.6375 25.0725 45.3034 24.9053 45.0527C24.8221 44.9279 24.7608 44.8256 24.7215 44.7568C24.7019 44.7224 24.6878 44.6966 24.6794 44.6807C24.6751 44.6728 24.6723 44.6673 24.6709 44.6646C24.6702 44.6632 24.6698 44.6625 24.6698 44.6625C24.6698 44.6625 24.6699 44.6627 24.6701 44.663C24.6701 44.6632 24.6703 44.6634 24.6704 44.6636C24.6705 44.6638 24.6706 44.664 24.6706 44.6641C24.6707 44.6643 24.6708 44.6646 24 45ZM28.5 48.75C30.2691 48.75 31.5736 47.862 32.4054 47.0303C32.8233 46.6124 33.135 46.1965 33.3428 45.8847C33.4471 45.7282 33.5265 45.5962 33.5809 45.501C33.6081 45.4533 33.6292 45.4147 33.6442 45.3866C33.6517 45.3726 33.6577 45.3611 33.6621 45.3526C33.6643 45.3483 33.6661 45.3447 33.6676 45.3418C33.6683 45.3404 33.669 45.3391 33.6695 45.338C33.6698 45.3375 33.67 45.337 33.6702 45.3366C33.6704 45.3363 33.6705 45.336 33.6706 45.3359C33.6707 45.3356 33.6708 45.3354 33 45C32.3292 44.6646 32.3293 44.6643 32.3294 44.6641C32.3295 44.664 32.3296 44.6638 32.3297 44.6636C32.3298 44.6634 32.3299 44.6632 32.33 44.663C32.3302 44.6627 32.3302 44.6625 32.3302 44.6625C32.3302 44.6625 32.3299 44.6632 32.3292 44.6646C32.3277 44.6673 32.3249 44.6728 32.3207 44.6807C32.3122 44.6966 32.2982 44.7224 32.2785 44.7568C32.2392 44.8256 32.1779 44.9279 32.0947 45.0527C31.9276 45.3034 31.6768 45.6375 31.3447 45.9696C30.6764 46.6379 29.731 47.25 28.5 47.25L28.5 48.75ZM33.75 45L33.7499 40.5L32.2499 40.5L32.25 45L33.75 45ZM43.95 30C43.95 31.574 42.674 32.85 41.1 32.85V34.35C43.5025 34.35 45.45 32.4024 45.45 30H43.95ZM41.1 32.85C39.526 32.85 38.25 31.574 38.25 30H36.75C36.75 32.4024 38.6976 34.35 41.1 34.35V32.85ZM38.25 30C38.25 28.426 39.526 27.15 41.1 27.15V25.65C38.6976 25.65 36.75 27.5975 36.75 30H38.25ZM41.1 27.15C42.674 27.15 43.95 28.426 43.95 30H45.45C45.45 27.5975 43.5025 25.65 41.1 25.65V27.15ZM27.7499 30C27.7499 31.574 26.474 32.85 24.8999 32.85V34.35C27.3024 34.35 29.2499 32.4024 29.2499 30H27.7499ZM24.8999 32.85C23.3259 32.85 22.0499 31.574 22.0499 30H20.5499C20.5499 32.4024 22.4975 34.35 24.8999 34.35V32.85ZM22.0499 30C22.0499 28.426 23.3259 27.15 24.8999 27.15V25.65C22.4975 25.65 20.5499 27.5976 20.5499 30H22.0499ZM24.8999 27.15C26.474 27.15 27.7499 28.426 27.7499 30H29.2499C29.2499 27.5976 27.3024 25.65 24.8999 25.65V27.15Z" fill="#7B61FF"/>
</svg>
