<svg width="72" height="72" viewBox="0 0 72 72" fill="none" xmlns="http://www.w3.org/2000/svg">
<path d="M54.0388 32.3441C54.3409 33.6984 54.5003 35.1079 54.5003 36.5556C54.5003 39.9859 53.6048 44.0195 52.0393 47.8889M54.0388 32.3441L55.5 30C55.5 18.1 47.2894 12 36.0001 12C24.7108 12 16.5 18.1 16.5 30L17.9615 32.3441M54.0388 32.3441C54.0388 32.3441 58.3352 29.1837 60.0002 33C61.6652 36.8163 59.3104 38.7278 57.6454 42.1278C55.9804 45.5278 52.0393 47.8889 52.0393 47.8889M52.0393 47.8889C48.844 55.7868 42.8578 63 36.0001 63C29.1425 63 23.1563 55.7868 19.961 47.8889M42 52.3281C42 52.3281 39 51 36 51C33 51 30 52.5 30 52.5M17.9615 32.3441C17.6595 33.6984 17.5 35.1079 17.5 36.5556C17.5 39.9859 18.3955 44.0195 19.961 47.8889M17.9615 32.3441C17.9615 32.3441 13.665 29.1837 12 33C10.335 36.8163 12.6899 38.7278 14.3549 42.1278C16.0199 45.5278 19.961 47.8889 19.961 47.8889M32.4003 32.4C32.4003 34.3882 30.7885 36 28.8003 36C26.8121 36 25.2003 34.3882 25.2003 32.4C25.2003 30.4118 26.8121 28.8 28.8003 28.8C30.7885 28.8 32.4003 30.4118 32.4003 32.4ZM46.8003 32.4C46.8003 34.3882 45.1885 36 43.2003 36C41.2121 36 39.6003 34.3882 39.6003 32.4C39.6003 30.4118 41.2121 28.8 43.2003 28.8C45.1885 28.8 46.8003 30.4118 46.8003 32.4Z" stroke="#7B61FF" stroke-width="1.5" stroke-linecap="round" stroke-linejoin="round"/>
</svg>
