<svg width="73" height="72" viewBox="0 0 73 72" fill="none" xmlns="http://www.w3.org/2000/svg">
<path d="M58.6237 21.3769L60.3651 17.4384L55.0618 12.1351L51.1237 13.8768M58.6237 21.3769C56.6532 18.4018 54.0988 15.8473 51.1237 13.8768M58.6237 21.3769C60.467 24.1601 61.7992 27.3113 62.4864 30.6967M51.1237 13.8768C48.3405 12.0334 45.1891 10.7012 41.8036 10.0139M62.4864 30.6967C62.8342 32.4102 63.0168 34.1838 63.0168 36C63.0168 37.8162 62.8342 39.5897 62.4864 41.3033M62.4864 30.6967L66.5 32.25V39.75L62.4864 41.3033M62.4864 41.3033C61.7992 44.6887 60.467 47.8399 58.6237 50.6231M58.6237 50.6231L60.3651 54.5616L55.0618 59.8649L51.1237 58.1232M58.6237 50.6231C56.6532 53.5982 54.0988 56.1527 51.1237 58.1232M51.1237 58.1232C48.3405 59.9666 45.1891 61.2989 41.8036 61.9861M41.8036 61.9861C40.09 62.3339 38.3165 62.5165 36.5003 62.5165C34.6841 62.5165 32.9105 62.3339 31.197 61.9861M41.8036 61.9861L40.25 66H32.75L31.197 61.9861M31.197 61.9861C27.8116 61.2989 24.6603 59.9667 21.8772 58.1234M21.8772 58.1234L17.9387 59.8649L12.6354 54.5616L14.3771 50.6234M21.8772 58.1234C18.9021 56.1529 16.3476 53.5985 14.3771 50.6234M14.3771 50.6234C12.5337 47.8402 11.2014 44.6889 10.5142 41.3033M10.5142 41.3033C10.1664 39.5897 9.98378 37.8162 9.98378 36C9.98378 34.1838 10.1664 32.4102 10.5142 30.6967M10.5142 41.3033L6.5 39.75V32.25L10.5142 30.6967M10.5142 30.6967C11.2014 27.3111 12.5337 24.1598 14.3771 21.3766M14.3771 21.3766L12.6354 17.4384L17.9387 12.1351L21.8772 13.8766M14.3771 21.3766C16.3476 18.4015 18.9021 15.847 21.8772 13.8766M21.8772 13.8766C24.6603 12.0333 27.8116 10.7011 31.197 10.0139M31.197 10.0139C32.9105 9.66609 34.6841 9.48349 36.5003 9.48349C38.3165 9.48349 40.09 9.66609 41.8036 10.0139M31.197 10.0139L32.75 6H40.25L41.8036 10.0139M31.8961 32.9387C33.4927 33.6129 32.8598 31.6606 33.0612 29.8838C33.4496 22.9383 37.9804 21 37.9804 21C35.4776 26.0985 42.9858 28.2826 47.0348 35.9515C50.796 43.0656 47 54 36.4998 54C25.9997 54 22.9712 43.9364 25.1143 37.5246C26.7612 32.5806 29 28.5 29 28.5C29 28.5 30.3068 32.2645 31.8961 32.9387Z" stroke="#4D4DAA" stroke-width="1.5" stroke-linecap="round" stroke-linejoin="round"/>
</svg>
