<svg width="24" height="24" viewBox="0 0 24 24" fill="none" xmlns="http://www.w3.org/2000/svg">
<path d="M15 17.2414C16.0803 16.5957 17 15.4135 17 13.2632C17 12.854 16.9556 12.4309 16.8752 12M9 17.2414C7.9197 16.5957 7 15.4135 7 13.2632C7 12.854 7.04439 12.4309 7.1248 12M15.3612 8C13.9032 5.25375 12 3 12 3C12 3 10.0968 5.25375 8.63883 8M12 22C12 22 12.8149 20.3209 13.0576 17.9153C13.1 17.4944 13.125 17.0512 13.125 16.5909C13.125 13.5 12.75 11.4394 12.75 11.4394L13.5 10.7954L15 11L16.5 10L15 9L13.6633 9.22278C13.5546 9.24089 13.4446 9.24999 13.3345 9.24999H12.75L12.5 6H11.5L11.25 9.24999H10.6655C10.5554 9.24999 10.4454 9.24089 10.3367 9.22278L9 9L7.5 10L9 11L10.5 10.7954L11.25 11.4394C11.25 11.4394 10.875 13.5 10.875 16.5909C10.875 17.0512 10.9 17.4944 10.9424 17.9153C11.1851 20.3209 12 22 12 22Z" stroke="#4D4DAA" stroke-linecap="round" stroke-linejoin="round"/>
</svg>
