<svg width="24" height="24" viewBox="0 0 24 24" fill="none" xmlns="http://www.w3.org/2000/svg">
<path d="M12.8361 10.5863L4.03658 19.3859L5.11407 20.4634L5.82118 19.7563M18.0104 6.48959L17.7747 6.72529M17.7747 6.72529V6.72529C18.9648 7.91546 18.9648 9.8451 17.7747 11.0353L17.6849 11.1251C16.4947 12.3152 14.565 12.3152 13.3749 11.1251V11.1251C12.1847 9.9349 12.1847 8.00525 13.3749 6.81508L13.4647 6.72529C14.6548 5.53512 16.5845 5.53512 17.7747 6.72529V6.72529ZM15.5411 12.1913L15.5369 12.5996M12.3086 8.95885L11.9003 8.96306M14.2169 6.16647L14.0232 5.77304M18.3335 10.2831L18.7269 10.4767M14.6124 13.4625L14.9799 13.83L15.5186 14.3688L16.0686 13.8188L16.4438 13.4436C17.3069 13.2614 18.1326 12.8323 18.8073 12.1577C18.9527 12.0122 19.0868 11.8597 19.2094 11.7013L20.3134 11.2577L20.0247 10.0753C20.3798 8.79168 20.1769 7.39558 19.4122 6.27379L19.4133 6.1641L19.4246 5.07538L18.3358 5.0866L18.2262 5.08773C17.1044 4.32301 15.7083 4.12017 14.4246 4.47523L13.2423 4.18658L12.7986 5.29053C12.6403 5.41316 12.4878 5.54722 12.3423 5.69269C11.6676 6.36737 11.2386 7.19309 11.0563 8.05614L10.6811 8.43133L10.1312 8.9813L10.6699 9.52005L11.0375 9.88759M16.5961 7.90381C16.0104 7.31802 15.0606 7.31802 14.4748 7.90381" stroke="#4D4DAA" stroke-linecap="round" stroke-linejoin="round"/>
</svg>
