<svg width="24" height="24" viewBox="0 0 24 24" fill="none" xmlns="http://www.w3.org/2000/svg">
<path d="M17.5803 9C17.5803 9 18.5803 8 19.0803 6.5C19.5803 5 19.5803 3 19.5803 3C19.5803 3 21.5803 6.5 21.0803 9.5C20.5803 12.5 18.5803 16 18.5803 16M5.58032 9C5.58032 9 4.58032 8 4.08032 6.5C3.58032 5 3.58032 3 3.58032 3C3.58032 3 1.58032 6.5 2.08032 9.5C2.58032 12.5 4.58032 16 4.58032 16M8 10.7143C8 10.7143 8 7.5 11.5 7.5M9.08028 12.4286V21L6.58028 18.4286V10.7143C6.58028 10.7143 6.58028 10.7143 6.58028 10.7143C6.58028 10.7143 6.58028 6 11.5803 6C16.5803 6 16.5803 10.7143 16.5803 10.7143C16.5803 10.7143 16.5803 10.7143 16.5803 10.7143V18.4286L14.0803 21V12.4286L11.5803 14.1429L9.08028 12.4286Z" stroke="#4D4DAA" stroke-linecap="round" stroke-linejoin="round"/>
</svg>
