<svg width="72" height="72" viewBox="0 0 72 72" fill="none" xmlns="http://www.w3.org/2000/svg">
<path d="M12.6366 25.4999C13.9826 21.9378 16.1278 18.844 19.4998 16.5C21.0227 15.4414 22.8471 14.7282 24.7188 14.2529M12.6366 25.4999C10.9544 29.9518 10.5205 35.135 10.5001 40.4999C10.4758 46.8678 10.6327 52.8685 15.0001 58.4999C20.5732 65.6859 36 64.4999 36 64.4999C36 64.4999 51.4269 65.686 57 58.5C61.3673 52.8687 61.5242 46.8679 61.5 40.5C61.4796 35.1352 61.0457 29.9519 59.3634 25.5M12.6366 25.4999C12.6366 25.4999 4.50027 17.9999 12.0001 11.9999C19.4999 5.99985 24.7188 14.2529 24.7188 14.2529M24.7188 14.2529C30.1594 12.8713 36 13.4999 36 13.4999C36 13.4999 41.8407 12.8714 47.2812 14.253M36 48V45M36 48L31.5 51M36 48L40.5 51M36 45C36 45 30 44.6197 30 42C30 39.3803 33.3803 39 36 39C38.6198 39 42.0001 39.3804 42.0001 42.0001C42.0001 44.6199 36 45 36 45ZM59.3634 25.5C58.0174 21.938 55.8722 18.8441 52.5002 16.5002C50.9773 15.4415 49.1529 14.7283 47.2812 14.253M59.3634 25.5C59.3634 25.5 67.4998 18 60 12C52.5002 5.99999 47.2812 14.253 47.2812 14.253M36 58.4999C36 58.4999 19.4998 60 19.4998 46.5C19.4998 33 36 33 36 33C36 33 52.5002 33.0001 52.5002 46.5001C52.5002 60.0001 36 58.4999 36 58.4999ZM28.5 27C28.5 28.2709 27.4488 29.3012 26.1521 29.3012C24.8555 29.3012 23.8043 28.2709 23.8043 27C23.8043 25.7291 24.8555 24.6988 26.1521 24.6988C27.4488 24.6988 28.5 25.7291 28.5 27ZM43.5001 27.0001C43.5001 28.2711 44.5512 29.3014 45.8479 29.3014C47.1446 29.3014 48.1958 28.2711 48.1958 27.0001C48.1958 25.7292 47.1446 24.6989 45.8479 24.6989C44.5512 24.6989 43.5001 25.7292 43.5001 27.0001Z" stroke="#4D4DAA" stroke-width="1.5" stroke-linecap="round" stroke-linejoin="round"/>
</svg>
