<svg width="72" height="72" viewBox="0 0 72 72" fill="none" xmlns="http://www.w3.org/2000/svg">
<path d="M53.7282 26.1192C54.0251 27.4834 54.1818 28.9033 54.1818 30.3616C54.1818 33.817 53.3017 37.8803 51.7631 41.778M53.7282 26.1192C53.7282 26.1192 57.5097 23.2406 60.0174 21.5154C63.9885 18.7837 67.5 15 67.5 15L63.5353 24.286M53.7282 26.1192C52.3339 19.711 47.8484 14.9148 42 12.9615M51.7631 41.778C48.6228 49.7339 42.7396 57 36 57C29.2604 57 23.3772 49.7339 20.2369 41.778C18.6984 37.8803 17.8182 33.817 17.8182 30.3616C17.8182 28.9033 17.9749 27.4834 18.2718 26.1192C19.6661 19.711 24.1516 14.9148 30 12.9615M51.7631 41.778L59.285 30.3616L61.4998 27L63.5353 24.286M18.2892 26.1192C18.2892 26.1192 14.5077 23.2406 12 21.5154C8.02893 18.7837 4.5 15 4.5 15L10.5176 27L11.8043 28.9529M20.2543 41.778L11.8043 28.9529M63.5353 24.286V30.8373M11.8043 28.9529V37.5M42.5455 57L42.5455 46.5C42.5455 46.5 38.8084 43.6384 36 43.5C32.8493 43.3447 28.5 46.5 28.5 46.5L28.5 57M36 51L36 64.5M42.5455 60.7982V63M36 69V70.5M28.5 60.7982V63M30 12.9615C31.8785 12.3341 33.8976 12 36 12C38.1024 12 40.1215 12.3341 42 12.9615M30 12.9615L33 18M42 12.9615L39 18M32.7273 30.8373C32.7273 32.7288 31.262 34.2622 29.4546 34.2622C27.6471 34.2622 26.1818 32.7288 26.1818 30.8373C26.1818 28.9457 27.6471 27.4123 29.4546 27.4123C31.262 27.4123 32.7273 28.9457 32.7273 30.8373ZM45.8182 30.8373C45.8182 32.7288 44.3529 34.2622 42.5455 34.2622C40.738 34.2622 39.2727 32.7288 39.2727 30.8373C39.2727 28.9457 40.738 27.4123 42.5455 27.4123C44.3529 27.4123 45.8182 28.9457 45.8182 30.8373Z" stroke="#4D4DAA" stroke-width="1.5" stroke-linecap="round" stroke-linejoin="round"/>
</svg>
