<svg width="72" height="72" viewBox="0 0 72 72" fill="none" xmlns="http://www.w3.org/2000/svg">
<path d="M39.9363 31.9765C40.3375 31.8736 40.5794 31.4649 40.4765 31.0637C40.3736 30.6624 39.9649 30.4206 39.5637 30.5235L39.9363 31.9765ZM32.4364 30.5235C32.0352 30.4206 31.6265 30.6624 31.5236 31.0637C31.4207 31.4649 31.6626 31.8736 32.0638 31.9765L32.4364 30.5235ZM49.0647 18.3003C49.2305 18.6798 49.6726 18.8531 50.0522 18.6873C50.4318 18.5214 50.605 18.0793 50.4392 17.6997L49.0647 18.3003ZM21.5609 17.6997C21.3951 18.0793 21.5683 18.5214 21.9479 18.6873C22.3275 18.8531 22.7696 18.6798 22.9354 18.3003L21.5609 17.6997ZM24.5997 32.5495C24.3509 32.2184 23.8808 32.1516 23.5496 32.4003C23.2184 32.6491 23.1516 33.1193 23.4004 33.4505L24.5997 32.5495ZM48.6008 33.4504C48.8496 33.1192 48.7828 32.6491 48.4516 32.4003C48.1204 32.1516 47.6502 32.2184 47.4015 32.5496L48.6008 33.4504ZM48.0001 25.7979H47.2501C47.2501 26.1078 47.4406 26.3857 47.7296 26.4974C48.0185 26.6092 48.3465 26.5318 48.5549 26.3026L48.0001 25.7979ZM60.0001 24.2979L59.2559 24.2054L59.2559 24.2054L60.0001 24.2979ZM57.8436 31.0791L57.6064 31.7906L57.6064 31.7906L57.8436 31.0791ZM52.8355 28.1271C52.4651 27.9419 52.0146 28.092 51.8293 28.4625C51.6441 28.833 51.7942 29.2835 52.1647 29.4688L52.8355 28.1271ZM53.2501 24C53.2501 24.4142 53.5859 24.75 54.0001 24.75C54.4143 24.75 54.7501 24.4142 54.7501 24H53.2501ZM24 25.7979L23.4452 26.3026C23.6536 26.5318 23.9816 26.6092 24.2705 26.4974C24.5595 26.3857 24.75 26.1078 24.75 25.7979H24ZM12 24.2979L12.7442 24.2054L12.7442 24.2054L12 24.2979ZM14.1565 31.0791L14.3937 31.7906L14.3937 31.7906L14.1565 31.0791ZM19.8354 29.4688C20.2059 29.2835 20.356 28.833 20.1708 28.4625C19.9855 28.092 19.535 27.9419 19.1645 28.1271L19.8354 29.4688ZM17.25 24C17.25 24.4142 17.5857 24.75 18 24.75C18.4142 24.75 18.75 24.4142 18.75 24H17.25ZM46.9161 39.876C46.5714 39.6462 46.1058 39.7393 45.876 40.084C45.6462 40.4286 45.7394 40.8943 46.084 41.124L46.9161 39.876ZM50.25 55.5C50.25 55.9142 50.5858 56.25 51 56.25C51.4143 56.25 51.75 55.9142 51.75 55.5H50.25ZM47.25 48C47.25 47.5858 46.9143 47.25 46.5 47.25C46.0858 47.25 45.75 47.5858 45.75 48H47.25ZM26.25 48C26.25 47.5858 25.9143 47.25 25.5 47.25C25.0858 47.25 24.75 47.5858 24.75 48H26.25ZM42 69V69.75H42.0501L42.0998 69.7433L42 69ZM30 69L29.9003 69.7433L29.95 69.75H30V69ZM25.9161 41.124C26.2607 40.8943 26.3538 40.4286 26.1241 40.084C25.8943 39.7393 25.4287 39.6462 25.084 39.876L25.9161 41.124ZM20.25 55.5C20.25 55.9142 20.5858 56.25 21 56.25C21.4143 56.25 21.75 55.9142 21.75 55.5H20.25ZM39.5637 30.5235C38.4224 30.8162 38.1283 31.25 36 31.25L36 32.75C38.3718 32.75 39.1765 32.1714 39.9363 31.9765L39.5637 30.5235ZM32.0638 31.9765C32.8236 32.1714 33.6283 32.75 36 32.75L36 31.25C33.8718 31.25 33.5777 30.8162 32.4364 30.5235L32.0638 31.9765ZM33 21.75C33 22.5784 32.3285 23.25 31.5 23.25V24.75C33.1569 24.75 34.5 23.4069 34.5 21.75H33ZM31.5 23.25C30.6716 23.25 30 22.5784 30 21.75H28.5C28.5 23.4069 29.8432 24.75 31.5 24.75V23.25ZM30 21.75C30 20.9216 30.6716 20.25 31.5 20.25V18.75C29.8432 18.75 28.5 20.0931 28.5 21.75H30ZM31.5 20.25C32.3285 20.25 33 20.9216 33 21.75H34.5C34.5 20.0931 33.1569 18.75 31.5 18.75V20.25ZM42 21.75C42 22.5784 41.3285 23.25 40.5 23.25V24.75C42.1569 24.75 43.5 23.4069 43.5 21.75H42ZM40.5 23.25C39.6716 23.25 39 22.5784 39 21.75H37.5C37.5 23.4069 38.8432 24.75 40.5 24.75V23.25ZM39 21.75C39 20.9216 39.6716 20.25 40.5 20.25V18.75C38.8432 18.75 37.5 20.0931 37.5 21.75H39ZM40.5 20.25C41.3285 20.25 42 20.9216 42 21.75H43.5C43.5 20.0931 42.1569 18.75 40.5 18.75V20.25ZM36 9.75C41.8423 9.75 46.865 13.2659 49.0647 18.3003L50.4392 17.6997C48.0095 12.1387 42.4597 8.25 36 8.25V9.75ZM22.9354 18.3003C25.1351 13.2659 30.1578 9.75 36 9.75V8.25C29.5404 8.25 23.9906 12.1387 21.5609 17.6997L22.9354 18.3003ZM36 38.25C31.3388 38.25 27.2008 36.0122 24.5997 32.5495L23.4004 33.4505C26.2725 37.2739 30.8469 39.75 36 39.75V38.25ZM47.4015 32.5496C44.8004 36.0124 40.6616 38.25 36 38.25V39.75C41.1534 39.75 45.7286 37.2742 48.6008 33.4504L47.4015 32.5496ZM48.0001 25.7979C48.7501 25.7979 48.7501 25.7982 48.7501 25.7984C48.7501 25.7984 48.7501 25.7986 48.7501 25.7987C48.7501 25.7989 48.7501 25.799 48.7501 25.7991C48.7501 25.7992 48.7501 25.799 48.7501 25.7986C48.7501 25.7978 48.7501 25.7959 48.7502 25.7929C48.7502 25.787 48.7504 25.777 48.7507 25.763C48.7513 25.7349 48.7526 25.6911 48.7552 25.6328C48.7605 25.5162 48.7713 25.3422 48.7933 25.1226C48.8373 24.6825 48.9257 24.0629 49.1027 23.3548C49.4589 21.93 50.1609 20.1979 51.5305 18.8283L50.4698 17.7676C48.8394 19.398 48.0413 21.4158 47.6475 22.991C47.4496 23.7829 47.3505 24.4759 47.3007 24.9733C47.2758 25.2224 47.2632 25.4235 47.2568 25.5647C47.2536 25.6353 47.2519 25.691 47.251 25.7304C47.2506 25.75 47.2504 25.7656 47.2503 25.777C47.2502 25.7826 47.2502 25.7872 47.2502 25.7907C47.2501 25.7925 47.2501 25.794 47.2501 25.7952C47.2501 25.7958 47.2501 25.7963 47.2501 25.7968C47.2501 25.797 47.2501 25.7973 47.2501 25.7974C47.2501 25.7977 47.2501 25.7979 48.0001 25.7979ZM63.9698 12.8283C63.9806 12.8391 64.0163 12.8705 64.0144 13.0179C64.0123 13.1861 63.9587 13.4379 63.8219 13.7945C63.547 14.5111 63.0343 15.4118 62.4077 16.5078C61.1947 18.6297 59.6061 21.3883 59.2559 24.2054L60.7444 24.3905C61.0507 21.9265 62.4621 19.435 63.71 17.2522C64.3139 16.1959 64.8968 15.1806 65.2224 14.3317C65.3859 13.9056 65.5088 13.4623 65.5143 13.0373C65.5201 12.5916 65.3946 12.1318 65.0305 11.7676L63.9698 12.8283ZM59.2559 24.2054C59.0885 25.5519 59.017 26.7052 58.9668 27.6558C58.9155 28.6263 58.8879 29.3319 58.8122 29.8543C58.7297 30.4234 58.6203 30.4962 58.6405 30.4818C58.6975 30.441 58.6349 30.5523 58.0807 30.3676L57.6064 31.7906C58.224 31.9965 58.9347 32.1156 59.5132 31.7017C60.0549 31.3142 60.215 30.6331 60.2967 30.0694C60.3851 29.459 60.4162 28.6529 60.4647 27.7349C60.5142 26.7968 60.5835 25.6846 60.7444 24.3905L59.2559 24.2054ZM58.0807 30.3676C56.9462 29.9894 55.6382 29.4318 54.6026 28.9625C54.0874 28.7289 53.6444 28.5195 53.3305 28.3686C53.1736 28.2932 53.0492 28.2324 52.9643 28.1907C52.9218 28.1699 52.8893 28.1538 52.8675 28.143C52.8567 28.1376 52.8485 28.1336 52.8431 28.1309C52.8404 28.1296 52.8384 28.1286 52.8372 28.1279C52.8365 28.1276 52.8361 28.1274 52.8358 28.1273C52.8357 28.1272 52.8356 28.1271 52.8355 28.1271C52.8355 28.1271 52.8355 28.1271 52.8355 28.1271C52.8355 28.1271 52.8355 28.1271 52.5001 28.7979C52.1647 29.4688 52.1648 29.4688 52.1648 29.4688C52.1649 29.4688 52.1649 29.4689 52.165 29.4689C52.1651 29.469 52.1653 29.4691 52.1655 29.4692C52.166 29.4694 52.1666 29.4697 52.1675 29.4701C52.1691 29.4709 52.1714 29.4721 52.1745 29.4736C52.1806 29.4767 52.1896 29.4811 52.2013 29.4869C52.2246 29.4985 52.2588 29.5154 52.303 29.5371C52.3913 29.5805 52.5195 29.643 52.6805 29.7205C53.0024 29.8752 53.4558 30.0896 53.9835 30.3287C55.0338 30.8047 56.3975 31.3876 57.6064 31.7906L58.0807 30.3676ZM65.0305 11.7676C64.6456 11.3827 64.1102 11.27 63.6402 11.2526C63.1513 11.2345 62.5925 11.3139 62.0089 11.4505C60.8369 11.7248 59.4253 12.2636 57.9955 12.9308C55.1496 14.2589 52.0594 16.178 50.4698 17.7676L51.5305 18.8283C52.9409 17.4179 55.8507 15.587 58.6298 14.2901C60.0125 13.6448 61.3196 13.1524 62.3507 12.911C62.8687 12.7898 63.2825 12.7403 63.5847 12.7515C63.9057 12.7634 63.9797 12.8382 63.9698 12.8283L65.0305 11.7676ZM48.0001 25.7979C48.5549 26.3026 48.5549 26.3027 48.5548 26.3027C48.5548 26.3027 48.5548 26.3027 48.5548 26.3027C48.5548 26.3027 48.5549 26.3027 48.555 26.3026C48.5552 26.3023 48.5556 26.3019 48.5561 26.3013C48.5572 26.3001 48.559 26.2981 48.5616 26.2954C48.5666 26.2899 48.5744 26.2814 48.5848 26.2701C48.6057 26.2476 48.6371 26.2138 48.6779 26.1705C48.7595 26.0839 48.8786 25.9592 49.0265 25.8091C49.3231 25.5081 49.7316 25.1091 50.1829 24.7122C50.6374 24.3125 51.1191 23.9294 51.5631 23.6504C52.0389 23.3515 52.352 23.25 52.5001 23.25V21.75C51.8982 21.75 51.2739 22.0607 50.7652 22.3802C50.225 22.7196 49.6754 23.161 49.1923 23.5858C48.7062 24.0133 48.2709 24.4388 47.9581 24.7562C47.8013 24.9153 47.6744 25.0482 47.5861 25.1419C47.5419 25.1888 47.5074 25.2259 47.4836 25.2517C47.4717 25.2646 47.4624 25.2746 47.456 25.2816C47.4528 25.2851 47.4503 25.2878 47.4485 25.2898C47.4476 25.2908 47.4469 25.2915 47.4464 25.2921C47.4461 25.2924 47.4459 25.2927 47.4457 25.2928C47.4456 25.2929 47.4455 25.293 47.4455 25.2931C47.4454 25.2932 47.4453 25.2933 48.0001 25.7979ZM52.5001 23.25C52.7439 23.25 52.8769 23.3088 52.9513 23.3584C53.0304 23.4112 53.0925 23.4869 53.1418 23.5854C53.1925 23.6869 53.2216 23.7974 53.2369 23.8889C53.2442 23.9329 53.2476 23.9679 53.2491 23.989C53.2499 23.9994 53.2501 24.006 53.2502 24.0081C53.2502 24.0092 53.2502 24.0091 53.2502 24.0078C53.2502 24.0071 53.2502 24.0062 53.2501 24.0049C53.2501 24.0042 53.2501 24.0035 53.2501 24.0027C53.2501 24.0023 53.2501 24.0018 53.2501 24.0014C53.2501 24.0012 53.2501 24.0008 53.2501 24.0007C53.2501 24.0004 53.2501 24 54.0001 24C54.7501 24 54.7501 23.9996 54.7501 23.9992C54.7501 23.9991 54.7501 23.9987 54.7501 23.9985C54.7501 23.9979 54.7501 23.9974 54.7501 23.9968C54.7501 23.9956 54.7501 23.9943 54.7501 23.993C54.7501 23.9902 54.75 23.9871 54.75 23.9836C54.7499 23.9766 54.7497 23.9681 54.7493 23.9582C54.7487 23.9383 54.7475 23.9127 54.7453 23.8821C54.7409 23.8212 54.7326 23.739 54.7165 23.6423C54.6849 23.4526 54.6202 23.1881 54.4835 22.9146C54.3452 22.6381 54.1261 22.3388 53.7833 22.1103C53.4359 21.8787 53.0064 21.75 52.5001 21.75V23.25ZM24 25.7979C24.75 25.7979 24.75 25.7977 24.75 25.7974C24.75 25.7973 24.75 25.797 24.75 25.7968C24.75 25.7963 24.75 25.7958 24.75 25.7952C24.75 25.794 24.7499 25.7925 24.7499 25.7907C24.7499 25.7872 24.7499 25.7826 24.7498 25.777C24.7497 25.7656 24.7495 25.75 24.7491 25.7304C24.7482 25.691 24.7465 25.6353 24.7433 25.5647C24.7369 25.4235 24.7243 25.2224 24.6994 24.9733C24.6496 24.4759 24.5505 23.7829 24.3526 22.991C23.9588 21.4158 23.1607 19.398 21.5303 17.7676L20.4696 18.8283C21.8392 20.1979 22.5411 21.93 22.8974 23.3548C23.0744 24.0629 23.1628 24.6825 23.2068 25.1226C23.2288 25.3422 23.2396 25.5162 23.2449 25.6328C23.2475 25.6911 23.2488 25.7349 23.2494 25.763C23.2497 25.777 23.2498 25.787 23.2499 25.7929C23.2499 25.7959 23.25 25.7978 23.25 25.7986C23.25 25.799 23.25 25.7992 23.25 25.7991C23.25 25.799 23.25 25.7989 23.25 25.7987C23.25 25.7986 23.25 25.7984 23.25 25.7984C23.25 25.7982 23.25 25.7979 24 25.7979ZM6.96963 11.7676C6.60546 12.1318 6.48002 12.5916 6.48579 13.0373C6.49129 13.4623 6.61424 13.9056 6.7777 14.3317C7.10334 15.1806 7.68624 16.1959 8.29014 17.2522C9.53797 19.435 10.9494 21.9265 11.2557 24.3905L12.7442 24.2054C12.394 21.3883 10.8054 18.6297 9.59237 16.5078C8.96584 15.4118 8.45309 14.5111 8.17819 13.7945C8.04138 13.4379 7.98784 13.1861 7.98566 13.0179C7.98376 12.8705 8.01946 12.8391 8.03029 12.8283L6.96963 11.7676ZM11.2557 24.3905C11.4166 25.6846 11.4859 26.7968 11.5354 27.7349C11.5839 28.6529 11.615 29.459 11.7034 30.0694C11.7851 30.6331 11.9452 31.3142 12.4869 31.7017C13.0654 32.1156 13.7761 31.9965 14.3937 31.7906L13.9193 30.3676C13.3652 30.5523 13.3026 30.441 13.3596 30.4818C13.3798 30.4962 13.2704 30.4234 13.1879 29.8543C13.1122 29.3319 13.0846 28.6263 13.0333 27.6558C12.9831 26.7052 12.9116 25.5519 12.7442 24.2054L11.2557 24.3905ZM14.3937 31.7906C15.6026 31.3876 16.9663 30.8047 18.0166 30.3287C18.5443 30.0896 18.9977 29.8752 19.3196 29.7205C19.4806 29.643 19.6088 29.5805 19.6971 29.5371C19.7413 29.5154 19.7755 29.4985 19.7988 29.4869C19.8105 29.4811 19.8195 29.4767 19.8256 29.4736C19.8286 29.4721 19.831 29.4709 19.8326 29.4701C19.8335 29.4697 19.8341 29.4694 19.8345 29.4692C19.8348 29.4691 19.835 29.469 19.8351 29.4689C19.8352 29.4689 19.8352 29.4688 19.8353 29.4688C19.8353 29.4688 19.8354 29.4688 19.5 28.7979C19.1645 28.1271 19.1646 28.1271 19.1646 28.1271C19.1646 28.1271 19.1646 28.1271 19.1645 28.1271C19.1645 28.1271 19.1644 28.1272 19.1643 28.1273C19.164 28.1274 19.1636 28.1276 19.1629 28.1279C19.1617 28.1286 19.1597 28.1296 19.157 28.1309C19.1516 28.1336 19.1434 28.1376 19.1326 28.143C19.1108 28.1538 19.0783 28.1699 19.0358 28.1907C18.9509 28.2324 18.8265 28.2932 18.6696 28.3686C18.3557 28.5195 17.9127 28.7289 17.3974 28.9625C16.3619 29.4318 15.0539 29.9894 13.9193 30.3676L14.3937 31.7906ZM8.03029 12.8283C8.02038 12.8382 8.09443 12.7634 8.41541 12.7515C8.71758 12.7403 9.13136 12.7898 9.64936 12.911C10.6805 13.1524 11.9876 13.6448 13.3703 14.2901C16.1494 15.587 19.0592 17.4179 20.4696 18.8283L21.5303 17.7676C19.9407 16.178 16.8505 14.2589 14.0046 12.9308C12.5748 12.2636 11.1632 11.7248 9.99119 11.4505C9.40762 11.3139 8.84874 11.2345 8.3599 11.2526C7.88986 11.27 7.35454 11.3827 6.96963 11.7676L8.03029 12.8283ZM24 25.7979C24.5548 25.2933 24.5547 25.2932 24.5546 25.2931C24.5546 25.293 24.5545 25.2929 24.5544 25.2928C24.5542 25.2927 24.554 25.2924 24.5537 25.2921C24.5532 25.2915 24.5525 25.2908 24.5516 25.2898C24.5498 25.2878 24.5473 25.2851 24.5441 25.2816C24.5377 25.2746 24.5284 25.2646 24.5165 25.2517C24.4927 25.2259 24.4582 25.1888 24.414 25.1419C24.3257 25.0482 24.1988 24.9153 24.042 24.7562C23.7292 24.4388 23.2939 24.0133 22.8078 23.5858C22.3247 23.161 21.7751 22.7196 21.2348 22.3802C20.7262 22.0607 20.1018 21.75 19.5 21.75V23.25C19.6481 23.25 19.9612 23.3515 20.4369 23.6504C20.881 23.9294 21.3627 24.3125 21.8172 24.7122C22.2685 25.1091 22.677 25.5081 22.9736 25.8091C23.1215 25.9592 23.2406 26.0839 23.3222 26.1705C23.363 26.2138 23.3944 26.2476 23.4153 26.2701C23.4257 26.2814 23.4335 26.2899 23.4385 26.2954C23.441 26.2981 23.4429 26.3001 23.444 26.3013C23.4445 26.3019 23.4449 26.3023 23.4451 26.3026C23.4452 26.3027 23.4453 26.3027 23.4453 26.3027C23.4453 26.3027 23.4452 26.3027 23.4453 26.3027C23.4452 26.3027 23.4452 26.3026 24 25.7979ZM19.5 21.75C18.9937 21.75 18.5642 21.8787 18.2167 22.1103C17.874 22.3388 17.6549 22.6381 17.5166 22.9146C17.3799 23.1881 17.3152 23.4526 17.2836 23.6423C17.2675 23.739 17.2591 23.8212 17.2548 23.8821C17.2526 23.9127 17.2514 23.9383 17.2507 23.9582C17.2504 23.9681 17.2502 23.9766 17.2501 23.9836C17.25 23.9871 17.25 23.9902 17.25 23.993C17.25 23.9943 17.25 23.9956 17.25 23.9968C17.25 23.9974 17.25 23.9979 17.25 23.9985C17.25 23.9987 17.25 23.9991 17.25 23.9992C17.25 23.9996 17.25 24 18 24C18.75 24 18.75 24.0004 18.75 24.0007C18.75 24.0008 18.75 24.0012 18.75 24.0014C18.75 24.0018 18.75 24.0023 18.75 24.0027C18.75 24.0035 18.7499 24.0042 18.7499 24.0049C18.7499 24.0062 18.7499 24.0071 18.7499 24.0078C18.7499 24.0091 18.7499 24.0092 18.7499 24.0081C18.75 24.006 18.7502 23.9994 18.751 23.989C18.7525 23.9679 18.7559 23.9329 18.7632 23.8889C18.7784 23.7974 18.8075 23.6869 18.8583 23.5854C18.9075 23.4869 18.9697 23.4112 19.0488 23.3584C19.1232 23.3088 19.2562 23.25 19.5 23.25V21.75ZM46.5 40.5C46.084 41.124 46.0838 41.1239 46.0835 41.1237C46.0834 41.1237 46.0832 41.1235 46.0831 41.1234C46.0829 41.1233 46.0827 41.1231 46.0826 41.1231C46.0824 41.1229 46.0824 41.123 46.0827 41.1232C46.0834 41.1236 46.0851 41.1248 46.0878 41.1266C46.0932 41.1304 46.1027 41.1369 46.1159 41.1464C46.1425 41.1653 46.1842 41.1955 46.2389 41.2372C46.3483 41.3206 46.5093 41.4492 46.7049 41.6231C47.0966 41.9712 47.623 42.4973 48.15 43.2C49.2024 44.6031 50.25 46.6991 50.25 49.5H51.75C51.75 46.3009 50.5477 43.8969 49.35 42.3C48.7521 41.5027 48.1535 40.9038 47.7014 40.5019C47.4751 40.3008 47.2846 40.1482 47.1479 40.0441C47.0796 39.992 47.0246 39.9519 46.9852 39.9239C46.9655 39.9099 46.9497 39.8989 46.9381 39.891C46.9323 39.887 46.9276 39.8837 46.9239 39.8812C46.922 39.88 46.9205 39.8789 46.9192 39.878C46.9185 39.8776 46.9179 39.8772 46.9174 39.8769C46.9171 39.8767 46.9168 39.8765 46.9167 39.8764C46.9164 39.8762 46.9161 39.876 46.5 40.5ZM50.25 49.5V55.5H51.75V49.5H50.25ZM45.75 48V55.5H47.25V48H45.75ZM26.25 55.5V48H24.75V55.5H26.25ZM28.5 60C28.5 59.25 28.5006 59.25 28.5011 59.25C28.5013 59.25 28.5018 59.25 28.5021 59.25C28.5028 59.25 28.5034 59.25 28.5039 59.25C28.5051 59.25 28.506 59.25 28.5068 59.25C28.5084 59.2501 28.5093 59.2501 28.5096 59.2501C28.5101 59.2501 28.5082 59.2501 28.5038 59.2498C28.4951 59.2494 28.477 59.2483 28.451 59.2455C28.3988 59.2399 28.3161 59.2278 28.2132 59.2021C28.0066 59.1504 27.7285 59.0464 27.45 58.8375C26.9277 58.4457 26.25 57.567 26.25 55.5H24.75C24.75 57.933 25.5724 59.3043 26.55 60.0375C27.0215 60.3911 27.4935 60.5683 27.8494 60.6573C28.0278 60.7019 28.1794 60.725 28.2912 60.7369C28.3473 60.7429 28.3937 60.7462 28.4289 60.748C28.4465 60.7488 28.4614 60.7494 28.4733 60.7496C28.4793 60.7498 28.4845 60.7499 28.4889 60.7499C28.4912 60.75 28.4932 60.75 28.4951 60.75C28.496 60.75 28.4969 60.75 28.4977 60.75C28.4981 60.75 28.4987 60.75 28.4989 60.75C28.4995 60.75 28.5 60.75 28.5 60ZM27.75 60V67.5H29.25V60H27.75ZM45.75 55.5C45.75 57.567 45.0724 58.4457 44.55 58.8375C44.2715 59.0464 43.9935 59.1504 43.7869 59.2021C43.684 59.2278 43.6013 59.2399 43.5491 59.2455C43.523 59.2483 43.505 59.2494 43.4963 59.2498C43.4919 59.2501 43.49 59.2501 43.4905 59.2501C43.4908 59.2501 43.4917 59.2501 43.4933 59.25C43.4941 59.25 43.495 59.25 43.4962 59.25C43.4967 59.25 43.4973 59.25 43.498 59.25C43.4983 59.25 43.4988 59.25 43.499 59.25C43.4995 59.25 43.5 59.25 43.5 60C43.5 60.75 43.5006 60.75 43.5012 60.75C43.5014 60.75 43.502 60.75 43.5024 60.75C43.5032 60.75 43.5041 60.75 43.505 60.75C43.5069 60.75 43.5089 60.75 43.5111 60.7499C43.5156 60.7499 43.5208 60.7498 43.5268 60.7496C43.5387 60.7494 43.5536 60.7488 43.5712 60.748C43.6064 60.7462 43.6528 60.7429 43.7089 60.7369C43.8207 60.725 43.9723 60.7019 44.1507 60.6573C44.5066 60.5683 44.9785 60.3911 45.45 60.0375C46.4277 59.3043 47.25 57.933 47.25 55.5H45.75ZM44.25 67.5V60H42.75V67.5H44.25ZM43.5 59.25H36V60.75H43.5V59.25ZM36 59.25H28.5V60.75H36V59.25ZM35.25 60V69H36.75V60H35.25ZM36 69.75H42V68.25H36V69.75ZM42 69C42.0998 69.7433 42.1001 69.7433 42.1004 69.7433C42.1005 69.7432 42.1008 69.7432 42.1011 69.7432C42.1015 69.7431 42.102 69.743 42.1025 69.743C42.1035 69.7428 42.1046 69.7427 42.1059 69.7425C42.1083 69.7422 42.1111 69.7418 42.1142 69.7413C42.1206 69.7404 42.1284 69.7392 42.1375 69.7377C42.1559 69.7347 42.1799 69.7305 42.2087 69.7248C42.2662 69.7136 42.344 69.6963 42.4356 69.6708C42.6159 69.6206 42.8643 69.5344 43.12 69.3895C43.6418 69.0935 44.25 68.5074 44.25 67.5H42.75C42.75 67.7914 42.6083 67.9553 42.3801 68.0846C42.2608 68.1523 42.1342 68.1976 42.0332 68.2258C41.9842 68.2394 41.9448 68.248 41.9203 68.2528C41.9081 68.2552 41.8998 68.2566 41.8962 68.2572C41.8944 68.2575 41.8938 68.2576 41.8945 68.2575C41.8948 68.2574 41.8954 68.2573 41.8964 68.2572C41.8969 68.2571 41.8975 68.257 41.8981 68.257C41.8984 68.2569 41.8988 68.2569 41.8992 68.2568C41.8993 68.2568 41.8996 68.2568 41.8997 68.2567C41.9 68.2567 41.9003 68.2567 42 69ZM27.75 67.5C27.75 68.5074 28.3583 69.0935 28.8801 69.3895C29.1358 69.5344 29.3842 69.6206 29.5645 69.6708C29.6561 69.6963 29.7339 69.7136 29.7913 69.7248C29.8202 69.7305 29.8442 69.7347 29.8625 69.7377C29.8717 69.7392 29.8795 69.7404 29.8859 69.7413C29.889 69.7418 29.8918 69.7422 29.8942 69.7425C29.8954 69.7427 29.8966 69.7428 29.8976 69.743C29.8981 69.743 29.8986 69.7431 29.899 69.7432C29.8993 69.7432 29.8996 69.7432 29.8997 69.7433C29.9 69.7433 29.9003 69.7433 30 69C30.0998 68.2567 30.1001 68.2567 30.1004 68.2567C30.1004 68.2568 30.1007 68.2568 30.1009 68.2568C30.1013 68.2569 30.1016 68.2569 30.102 68.257C30.1026 68.257 30.1032 68.2571 30.1037 68.2572C30.1047 68.2573 30.1053 68.2574 30.1056 68.2575C30.1063 68.2576 30.1057 68.2575 30.1039 68.2572C30.1002 68.2566 30.092 68.2552 30.0798 68.2528C30.0553 68.248 30.0159 68.2394 29.9669 68.2258C29.8659 68.1976 29.7393 68.1523 29.62 68.0846C29.3918 67.9553 29.25 67.7914 29.25 67.5H27.75ZM30 69.75H36V68.25H30V69.75ZM25.5 40.5C25.084 39.876 25.0837 39.8762 25.0834 39.8764C25.0833 39.8765 25.0829 39.8767 25.0827 39.8769C25.0822 39.8772 25.0816 39.8776 25.0809 39.878C25.0796 39.8789 25.0781 39.88 25.0762 39.8812C25.0725 39.8837 25.0678 39.887 25.062 39.891C25.0503 39.8989 25.0346 39.9099 25.0149 39.9239C24.9755 39.9519 24.9205 39.992 24.8522 40.0441C24.7155 40.1482 24.525 40.3008 24.2986 40.5019C23.8466 40.9038 23.248 41.5027 22.65 42.3C21.4524 43.8969 20.25 46.3009 20.25 49.5H21.75C21.75 46.6991 22.7977 44.6031 23.85 43.2C24.3771 42.4973 24.9035 41.9712 25.2952 41.6231C25.4907 41.4492 25.6518 41.3206 25.7612 41.2372C25.8159 41.1955 25.8576 41.1653 25.8842 41.1464C25.8974 41.1369 25.9069 41.1304 25.9123 41.1266C25.915 41.1248 25.9167 41.1236 25.9173 41.1232C25.9177 41.123 25.9177 41.1229 25.9175 41.1231C25.9174 41.1231 25.9172 41.1233 25.917 41.1234C25.9169 41.1235 25.9166 41.1237 25.9166 41.1237C25.9163 41.1239 25.9161 41.124 25.5 40.5ZM20.25 49.5V55.5H21.75V49.5H20.25Z" fill="#4D4DAA"/>
</svg>
