<svg width="72" height="72" viewBox="0 0 72 72" fill="none" xmlns="http://www.w3.org/2000/svg">
<path d="M52.2509 21.3674C50.5622 13.9514 43.9274 9 36 9C28.0726 9 21.4378 13.9514 19.7491 21.3674M52.2509 21.3674C52.523 22.5623 52.6667 23.8061 52.6667 25.0834C52.6667 28.1101 51.8598 31.6693 50.4495 35.0834M52.2509 21.3674C52.2509 21.3674 55.4585 18.3389 58.0159 17.3348C62.0088 15.7672 69 17.3348 69 17.3348L63 20.7214M50.4495 35.0834C47.5709 42.0521 42.178 48.4167 36 48.4167C29.822 48.4167 24.4291 42.0521 21.5505 35.0834M50.4495 35.0834L58.2248 23.4167L63 20.7214M21.5505 35.0834C20.1402 31.6693 19.3333 28.1101 19.3333 25.0834C19.3333 23.8061 19.477 22.5623 19.7491 21.3674M21.5505 35.0834L13.7752 23.4167L12 22.2772M19.7491 21.3674C17.537 19.8201 15.7253 18.5528 13.9841 17.3348C11.4989 15.5965 3 16.5 3 16.5L6 18.4257M31.5 37.5C31.5 37.5 33 39.0001 36 39.0001C39 39 40.5 37.5 40.5 37.5M63 27V20.7214M12 27V22.2772M12 22.2772L6 18.4257M6 24V18.4257M45 51C45 51 52.5 51 54 54C55.5 57 54 61.5 54 61.5M27.0002 51C27.0002 51 19.5002 51 18.0002 54C16.5002 57 18.0002 61.5 18.0002 61.5M33 25.5001C33 27.1569 31.6569 28.5001 30 28.5001C28.3431 28.5001 27 27.1569 27 25.5001C27 23.8432 28.3431 22.5001 30 22.5001C31.6569 22.5001 33 23.8432 33 25.5001ZM45 25.5001C45 27.1569 43.6569 28.5001 42 28.5001C40.3431 28.5001 39 27.1569 39 25.5001C39 23.8432 40.3431 22.5001 42 22.5001C43.6569 22.5001 45 23.8432 45 25.5001Z" stroke="#4D4DAA" stroke-width="1.5" stroke-linecap="round" stroke-linejoin="round"/>
</svg>
