<svg width="72" height="72" viewBox="0 0 72 72" fill="none" xmlns="http://www.w3.org/2000/svg">
<path d="M54.0388 32.3441C54.3409 33.6984 54.5003 35.1079 54.5003 36.5556C54.5003 39.9859 53.6048 44.0195 52.0393 47.8889M54.0388 32.3441L55.5 30C55.5 18.1 47.2894 12 36.0001 12C33.8802 12 31.8688 12.2151 30 12.6433M54.0388 32.3441C54.0388 32.3441 58.3352 29.1837 60.0002 33C61.6652 36.8163 59.3104 38.7278 57.6454 42.1278C55.9804 45.5278 52.0393 47.8889 52.0393 47.8889M52.0393 47.8889C48.844 55.7868 42.8578 63 36.0001 63C35.0301 63 34.0776 62.8557 33.1479 62.5855C29.4329 61.506 26.0831 58.4171 23.445 54.4977M40.5 50.6278C40.5 50.6278 39 52.3278 36.0001 52.3278C34.8513 52.3278 33.893 52.0785 33.1479 51.7708C31.9474 51.275 31.3001 50.6278 31.3001 50.6278M17.9615 32.3441C17.6595 33.6984 17.5 35.1079 17.5 36.5556C17.5 39.9859 18.3955 44.0195 19.961 47.8889M17.9615 32.3441L16.5 30C16.5 28.0336 16.7242 26.2255 17.1495 24.5771M17.9615 32.3441C17.9615 32.3441 13.665 29.1837 12 33C10.335 36.8163 12.6899 38.7278 14.3549 42.1278C16.0199 45.5278 19.961 47.8889 19.961 47.8889M19.961 47.8889C20.8983 50.2057 22.0758 52.4636 23.445 54.4977M30 12.6433L36.0001 24L42.0001 12.6433M30 12.6433C26.6798 13.4041 23.8096 14.8375 21.5797 16.9324M17.1495 24.5771C17.1495 24.5771 19.5 28.5 21 30C22.5 31.5 25.3137 31.5 25.3137 31.5M17.1495 24.5771C17.9559 21.4514 19.4853 18.9001 21.5797 16.9324M25.3137 31.5C25.2397 31.7877 25.2003 32.0892 25.2003 32.4C25.2003 33.7324 25.9241 34.8957 27 35.5182M25.3137 31.5C25.7134 29.9473 27.1228 28.8 28.8003 28.8C30.7885 28.8 32.4003 30.4118 32.4003 32.4C32.4003 34.3882 30.7885 36 28.8003 36C28.1445 36 27.5296 35.8246 27 35.5182M21.5797 16.9324L25.5 22.5L27 19.5L28.8003 22.5M23.445 54.4977C23.445 54.4977 24 45.2556 24 42.1278C24 39 27 35.5182 27 35.5182M54.8506 24.5771C54.8506 24.5771 52.5001 28.5 51.0001 30C49.5001 31.5 46.6864 31.5 46.6864 31.5M50.4204 16.9324L46.5001 22.5L45.0001 19.5L43.1998 22.5M48.5551 54.4977C48.5551 54.4977 48.0001 45.2556 48.0001 42.1278C48.0001 39 45.0001 35.5182 45.0001 35.5182M46.8003 32.4C46.8003 34.3882 45.1885 36 43.2003 36C41.2121 36 39.6003 34.3882 39.6003 32.4C39.6003 30.4118 41.2121 28.8 43.2003 28.8C45.1885 28.8 46.8003 30.4118 46.8003 32.4Z" stroke="#4D4DAA" stroke-width="1.5" stroke-linecap="round" stroke-linejoin="round"/>
</svg>
