<svg width="72" height="72" viewBox="0 0 72 72" fill="none" xmlns="http://www.w3.org/2000/svg">
<path d="M35.9999 57L35.9999 57.75L35.9999 57ZM28.5001 55.5L27.7886 55.7372C27.8692 55.9789 28.067 56.1632 28.3138 56.2265L28.5001 55.5ZM25.5001 46.5L26.2116 46.2628C26.1044 45.9413 25.795 45.7316 25.4566 45.7513C25.1183 45.7709 24.8351 46.015 24.7659 46.3468L25.5001 46.5ZM24.0001 53.6886L23.5974 54.3213C23.8052 54.4535 24.0647 54.4754 24.2916 54.3796C24.5185 54.2839 24.684 54.0829 24.7343 53.8418L24.0001 53.6886ZM18.906 47.5946C18.6822 47.2461 18.2182 47.1451 17.8697 47.369C17.5212 47.5929 17.4201 48.0569 17.644 48.4054L18.906 47.5946ZM44.632 12.7971C44.2438 12.6526 43.812 12.8502 43.6675 13.2384C43.5231 13.6266 43.7206 14.0584 44.1088 14.2029L44.632 12.7971ZM46.6232 15.3131C46.9915 15.5027 47.4437 15.3577 47.6333 14.9894C47.8228 14.6211 47.6779 14.1689 47.3095 13.9794L46.6232 15.3131ZM13.0494 26.7186C12.894 27.1025 13.0793 27.5398 13.4632 27.6952C13.8472 27.8506 14.2844 27.6654 14.4398 27.2814L13.0494 26.7186ZM36.0001 12.75C36.4143 12.75 36.7501 12.4142 36.7501 12C36.7501 11.5858 36.4143 11.25 36.0001 11.25V12.75ZM63.9111 44.7753C63.7869 45.1704 64.0067 45.5914 64.4019 45.7155C64.797 45.8397 65.218 45.6199 65.3421 45.2247L63.9111 44.7753ZM42.1492 66.1349C42.5551 66.0525 42.8174 65.6566 42.735 65.2507C42.6526 64.8448 42.2567 64.5825 41.8508 64.6649L42.1492 66.1349ZM39.8538 57.419C40.2599 57.3371 40.5226 56.9415 40.4407 56.5355C40.3588 56.1295 39.9633 55.8667 39.5572 55.9486L39.8538 57.419ZM42.9697 54.9697C42.6768 55.2626 42.6768 55.7374 42.9697 56.0303C43.2626 56.3232 43.7374 56.3232 44.0303 56.0303L42.9697 54.9697ZM48 51H48.75C48.75 50.6967 48.5673 50.4232 48.287 50.3071C48.0068 50.191 47.6842 50.2552 47.4697 50.4697L48 51ZM47.25 66C47.25 66.4142 47.5858 66.75 48 66.75C48.4142 66.75 48.75 66.4142 48.75 66H47.25ZM51.9461 65.7918C51.8312 66.1898 52.0606 66.6056 52.4585 66.7205C52.8565 66.8355 53.2722 66.6061 53.3872 66.2082L51.9461 65.7918ZM57.7205 51.2082C57.8355 50.8102 57.6061 50.3944 57.2082 50.2795C56.8102 50.1645 56.3944 50.3939 56.2795 50.7918L57.7205 51.2082ZM61.5 51V50.25C61.0858 50.25 60.75 50.5858 60.75 51H61.5ZM69 51H69.75C69.75 50.5858 69.4142 50.25 69 50.25V51ZM69 57L69.3859 57.6431C69.6118 57.5076 69.75 57.2634 69.75 57H69ZM61.5 66H60.75C60.75 66.4142 61.0858 66.75 61.5 66.75V66ZM69 66.75C69.4142 66.75 69.75 66.4142 69.75 66C69.75 65.5858 69.4142 65.25 69 65.25V66.75ZM61.5 61.5L61.1141 60.8569C60.8882 60.9924 60.75 61.2366 60.75 61.5H61.5ZM60.75 54.101C60.75 54.5152 61.0858 54.851 61.5 54.851C61.9142 54.851 62.25 54.5152 62.25 54.101H60.75ZM28.3138 56.2265C30.0242 56.6652 31.3782 57.75 35.9999 57.75L35.9999 56.25C31.6217 56.25 30.7783 55.31 28.6864 54.7735L28.3138 56.2265ZM29.2116 55.2628L26.2116 46.2628L24.7886 46.7372L27.7886 55.7372L29.2116 55.2628ZM24.7659 46.3468L23.266 53.5354L24.7343 53.8418L26.2343 46.6532L24.7659 46.3468ZM17.644 48.4054C19.2001 50.8277 21.2285 52.8134 23.5974 54.3213L24.4029 53.0559C22.2121 51.6614 20.3414 49.8291 18.906 47.5946L17.644 48.4054ZM30.75 31.5C30.75 33.5711 29.0711 35.25 27 35.25V36.75C29.8995 36.75 32.25 34.3995 32.25 31.5H30.75ZM27 35.25C24.9289 35.25 23.25 33.5711 23.25 31.5H21.75C21.75 34.3995 24.1005 36.75 27 36.75V35.25ZM23.25 31.5C23.25 29.4289 24.9289 27.75 27 27.75V26.25C24.1005 26.25 21.75 28.6005 21.75 31.5H23.25ZM27 27.75C29.0711 27.75 30.75 29.4289 30.75 31.5H32.25C32.25 28.6005 29.8995 26.25 27 26.25V27.75ZM48.75 31.5C48.75 33.5711 47.0711 35.25 45 35.25V36.75C47.8995 36.75 50.25 34.3995 50.25 31.5H48.75ZM45 35.25C42.9289 35.25 41.25 33.5711 41.25 31.5H39.75C39.75 34.3995 42.1005 36.75 45 36.75V35.25ZM41.25 31.5C41.25 29.4289 42.9289 27.75 45 27.75V26.25C42.1005 26.25 39.75 28.6005 39.75 31.5H41.25ZM45 27.75C47.0711 27.75 48.75 29.4289 48.75 31.5H50.25C50.25 28.6005 47.8995 26.25 45 26.25V27.75ZM44.1088 14.2029C44.9723 14.5243 45.8116 14.8955 46.6232 15.3131L47.3095 13.9794C46.4454 13.5347 45.5517 13.1394 44.632 12.7971L44.1088 14.2029ZM14.4398 27.2814C17.8895 18.7594 26.2439 12.75 36.0001 12.75V11.25C25.612 11.25 16.7205 17.6496 13.0494 26.7186L14.4398 27.2814ZM36 65.25C19.8457 65.25 6.75 52.1543 6.75 36H5.25C5.25 52.9828 19.0172 66.75 36 66.75V65.25ZM6.75 36C6.75 19.8457 19.8457 6.75 36 6.75V5.25C19.0172 5.25 5.25 19.0172 5.25 36H6.75ZM36 6.75C52.1543 6.75 65.25 19.8457 65.25 36H66.75C66.75 19.0172 52.9828 5.25 36 5.25V6.75ZM65.25 36C65.25 39.0585 64.7808 42.006 63.9111 44.7753L65.3421 45.2247C66.2571 42.3117 66.75 39.2127 66.75 36H65.25ZM41.8508 64.6649C39.961 65.0485 38.0044 65.25 36 65.25V66.75C38.1052 66.75 40.1617 66.5383 42.1492 66.1349L41.8508 64.6649ZM39.5572 55.9486C38.6841 56.1247 37.5629 56.25 35.9999 56.25L35.9999 57.75C37.6445 57.75 38.8669 57.6181 39.8538 57.419L39.5572 55.9486ZM44.0303 56.0303L48.5303 51.5303L47.4697 50.4697L42.9697 54.9697L44.0303 56.0303ZM47.25 51V66H48.75V51H47.25ZM53.3872 66.2082L57.7205 51.2082L56.2795 50.7918L51.9461 65.7918L53.3872 66.2082ZM61.5 51.75H69V50.25H61.5V51.75ZM68.25 51V57H69.75V51H68.25ZM61.5 66.75H69V65.25H61.5V66.75ZM68.6141 56.3569L61.1141 60.8569L61.8859 62.1431L69.3859 57.6431L68.6141 56.3569ZM60.75 61.5V66H62.25V61.5H60.75ZM60.75 51V54.101H62.25V51H60.75Z" fill="#4D4DAA"/>
</svg>
