<svg width="72" height="72" viewBox="0 0 72 72" fill="none" xmlns="http://www.w3.org/2000/svg">
<path d="M36.0001 10.2123L35.5825 10.8353C35.8351 11.0047 36.165 11.0047 36.4177 10.8353L36.0001 10.2123ZM13.2937 10.2123L12.902 9.57276C12.6829 9.70695 12.5477 9.94398 12.5438 10.2009C12.5399 10.4578 12.6677 10.6989 12.8827 10.8397L13.2937 10.2123ZM17.5511 13.0017L17.9584 13.6315C18.1714 13.4937 18.3004 13.2576 18.3011 13.004C18.3019 12.7503 18.1744 12.5134 17.9622 12.3744L17.5511 13.0017ZM7.61711 22.7646L8.29178 23.0922L7.61711 22.7646ZM6.19796 36.7114L5.45236 36.7925C5.4768 37.0173 5.60136 37.2191 5.79137 37.3416C5.98138 37.4642 6.21655 37.4945 6.43143 37.4241L6.19796 36.7114ZM10.4554 35.3168L11.1949 35.442C11.2387 35.183 11.1439 34.9199 10.9448 34.7485C10.7458 34.5771 10.4716 34.5223 10.2219 34.6041L10.4554 35.3168ZM11.8746 51.8786L12.5234 51.5026L12.5234 51.5026L11.8746 51.8786ZM18.9703 59.0265L18.5271 59.6316C18.7045 59.7616 18.9302 59.8071 19.1442 59.7561C19.3582 59.7051 19.539 59.5627 19.6387 59.3666L18.9703 59.0265ZM20.3894 56.2372L20.9899 55.7878C20.8347 55.5803 20.5833 55.4677 20.3251 55.4899C20.0669 55.5122 19.8385 55.6661 19.721 55.8971L20.3894 56.2372ZM27.4852 63.2106L27.8661 62.5646L27.4852 63.2106ZM36 66L35.8639 66.7375C35.9539 66.7542 36.0462 66.7542 36.1362 66.7375L36 66ZM36 19.9752L35.6135 20.6179C35.8513 20.7609 36.1487 20.7609 36.3865 20.6179L36 19.9752ZM24.6469 17.1858L24.4113 16.4738L24.6469 17.1858ZM17.5511 29.738L18.3011 29.7263L17.5511 29.738ZM23.2277 40.8956L23.976 40.9468C23.9898 40.7456 23.9219 40.5473 23.7877 40.3967L23.2277 40.8956ZM26.0659 49.2636L25.7039 49.9205L26.0659 49.2636ZM35.9999 56.2371L35.9743 56.9866L35.9999 56.9875L36.0256 56.9866L35.9999 56.2371ZM30.3233 54.8424L29.9058 55.4654L30.3233 54.8424ZM26.7887 49.5643L27.0024 48.8454L26.7887 49.5643ZM31.7425 38.1061L31.1597 37.634C30.9165 37.9343 30.9412 38.3702 31.2168 38.641L31.7425 38.1061ZM35.9999 35.3168L36 36.0668L35.9999 35.3168ZM58.7064 10.2123L59.1174 10.8397C59.3324 10.6989 59.4603 10.4578 59.4563 10.2009C59.4524 9.94397 59.3172 9.70694 59.0981 9.57274L58.7064 10.2123ZM54.449 13.0017L54.038 12.3744C53.8258 12.5134 53.6982 12.7503 53.699 13.0039C53.6997 13.2576 53.8287 13.4937 54.0417 13.6315L54.449 13.0017ZM64.383 22.7646L63.7083 23.0921L64.383 22.7646ZM65.8022 36.7114L65.5687 37.4241C65.7836 37.4945 66.0187 37.4642 66.2088 37.3416C66.3988 37.219 66.5233 37.0173 66.5478 36.7925L65.8022 36.7114ZM61.5447 35.3168L61.7782 34.604C61.5286 34.5223 61.2543 34.5771 61.0553 34.7485C60.8562 34.9199 60.7614 35.183 60.8053 35.442L61.5447 35.3168ZM60.1256 51.8786L59.4767 51.5026L59.4767 51.5026L60.1256 51.8786ZM53.0298 59.0265L52.3614 59.3666C52.4611 59.5627 52.642 59.7051 52.856 59.7561C53.07 59.8071 53.2956 59.7616 53.4731 59.6316L53.0298 59.0265ZM51.6107 56.2372L52.2791 55.8971C52.1616 55.6661 51.9332 55.5121 51.675 55.4899C51.4168 55.4677 51.1654 55.5803 51.0102 55.7878L51.6107 56.2372ZM44.5149 63.2106L44.134 62.5646L44.5149 63.2106ZM47.3532 17.1858L47.5889 16.4738L47.3532 17.1858ZM54.449 29.738L53.6991 29.7263L54.449 29.738ZM48.7724 40.8955L48.2124 40.3966C48.0782 40.5473 48.0104 40.7456 48.0241 40.9468L48.7724 40.8955ZM45.9342 49.2636L46.2962 49.9205L45.9342 49.2636ZM41.6768 54.8424L42.0943 55.4654L41.6768 54.8424ZM45.2114 49.5643L44.9977 48.8454L45.2114 49.5643ZM40.2576 38.1061L40.7833 38.641C41.0589 38.3702 41.0836 37.9343 40.8404 37.634L40.2576 38.1061ZM30.5022 26.0421C30.5022 26.8847 29.8011 27.5933 28.9043 27.5933V29.0933C30.601 29.0933 32.0022 27.7414 32.0022 26.0421H30.5022ZM28.9043 27.5933C28.0076 27.5933 27.3065 26.8847 27.3065 26.0421H25.8065C25.8065 27.7414 27.2077 29.0933 28.9043 29.0933V27.5933ZM27.3065 26.0421C27.3065 25.1995 28.0076 24.4909 28.9043 24.4909V22.9909C27.2077 22.9909 25.8065 24.3428 25.8065 26.0421H27.3065ZM28.9043 24.4909C29.801 24.4909 30.5022 25.1995 30.5022 26.0421H32.0022C32.0022 24.3428 30.601 22.9909 28.9043 22.9909V24.4909ZM36.0001 10.2123C36.4177 9.58937 36.4176 9.58929 36.4174 9.5892C36.4173 9.58915 36.4172 9.58905 36.417 9.58895C36.4167 9.58875 36.4164 9.58849 36.4159 9.58818C36.415 9.58755 36.4137 9.58669 36.412 9.5856C36.4088 9.58342 36.4041 9.58033 36.3981 9.57636C36.3862 9.56841 36.3688 9.55692 36.3462 9.54211C36.3011 9.51251 36.2353 9.46963 36.1505 9.41528C35.9809 9.3066 35.7354 9.15192 35.4281 8.96566C34.8142 8.59348 33.9508 8.0935 32.9523 7.58198C30.9814 6.57227 28.3866 5.46581 26.1272 5.28077L26.0048 6.77577C27.9517 6.93521 30.3238 7.92079 32.2684 8.91699C33.2277 9.40843 34.0592 9.88988 34.6506 10.2484C34.946 10.4275 35.1809 10.5755 35.341 10.6781C35.421 10.7294 35.4824 10.7694 35.5232 10.7962C35.5436 10.8096 35.5589 10.8197 35.5689 10.8263C35.5738 10.8296 35.5775 10.832 35.5798 10.8335C35.5809 10.8343 35.5817 10.8348 35.5821 10.8351C35.5824 10.8353 35.5825 10.8354 35.5826 10.8354C35.5826 10.8354 35.5826 10.8354 35.5826 10.8354C35.5825 10.8354 35.5825 10.8353 36.0001 10.2123ZM26.1272 5.28077C23.3097 5.05002 19.9693 6.16536 17.4169 7.27121C16.1232 7.83171 14.9979 8.40515 14.1961 8.83839C13.7947 9.05521 13.4735 9.23743 13.2515 9.36606C13.1405 9.43039 13.0543 9.48135 12.9953 9.51658C12.9658 9.5342 12.943 9.54788 12.9274 9.55734C12.9196 9.56207 12.9135 9.56575 12.9093 9.56833C12.9071 9.56962 12.9055 9.57064 12.9043 9.57138C12.9037 9.57175 12.9032 9.57205 12.9028 9.57228C12.9026 9.57239 12.9024 9.57251 12.9023 9.57257C12.9021 9.57267 12.902 9.57276 13.2937 10.2123C13.6854 10.8519 13.6853 10.852 13.6853 10.852C13.6853 10.852 13.6853 10.852 13.6853 10.852C13.6854 10.8519 13.6856 10.8518 13.6859 10.8516C13.6865 10.8513 13.6876 10.8506 13.6891 10.8497C13.6921 10.8478 13.697 10.8449 13.7036 10.8409C13.7167 10.8329 13.7369 10.8208 13.7639 10.8047C13.8177 10.7726 13.8985 10.7248 14.0037 10.6639C14.2141 10.5419 14.5223 10.3671 14.9091 10.1581C15.6833 9.73977 16.7688 9.18674 18.0132 8.64758C20.537 7.55411 23.5828 6.57742 26.0048 6.77577L26.1272 5.28077ZM12.8827 10.8397L17.1401 13.6291L17.9622 12.3744L13.7047 9.585L12.8827 10.8397ZM17.5511 13.0017C17.1438 12.372 17.1437 12.372 17.1436 12.3721C17.1435 12.3722 17.1433 12.3723 17.1431 12.3724C17.1428 12.3727 17.1423 12.373 17.1417 12.3734C17.1405 12.3741 17.1389 12.3752 17.1368 12.3765C17.1326 12.3792 17.1267 12.3831 17.1189 12.3882C17.1035 12.3983 17.081 12.4131 17.0518 12.4323C16.9936 12.4708 16.9088 12.5274 16.8005 12.6007C16.584 12.7474 16.2736 12.9615 15.8944 13.2332C15.1364 13.7764 14.1006 14.5521 12.9886 15.4833C10.7897 17.3247 8.19799 19.8511 6.94243 22.437L8.29178 23.0922C9.399 20.8118 11.7743 18.4567 13.9517 16.6333C15.0279 15.7321 16.0326 14.9795 16.7681 14.4525C17.1355 14.1892 17.4351 13.9827 17.6419 13.8425C17.7453 13.7725 17.8254 13.7191 17.8792 13.6835C17.9061 13.6657 17.9264 13.6524 17.9398 13.6437C17.9464 13.6393 17.9514 13.6361 17.9545 13.6341C17.956 13.633 17.9572 13.6323 17.9578 13.6319C17.9582 13.6317 17.9584 13.6315 17.9585 13.6315C17.9585 13.6314 17.9585 13.6314 17.9585 13.6314C17.9585 13.6315 17.9584 13.6315 17.5511 13.0017ZM6.94243 22.437C5.66715 25.0635 5.31343 28.6915 5.25817 31.5762C5.23024 33.0349 5.2785 34.3352 5.33369 35.2711C5.36131 35.7394 5.39072 36.1173 5.41334 36.3793C5.42465 36.5103 5.43427 36.6123 5.44113 36.6823C5.44456 36.7172 5.4473 36.7442 5.44921 36.7627C5.45017 36.7719 5.45092 36.7791 5.45145 36.784C5.45172 36.7865 5.45192 36.7885 5.45208 36.7899C5.45215 36.7906 5.45221 36.7912 5.45226 36.7916C5.45228 36.7918 5.45231 36.792 5.45232 36.7922C5.45234 36.7923 5.45236 36.7925 6.19796 36.7114C6.94356 36.6303 6.94357 36.6304 6.94358 36.6305C6.94357 36.6304 6.94358 36.6304 6.94357 36.6304C6.94356 36.6303 6.94353 36.63 6.94349 36.6296C6.9434 36.6288 6.94326 36.6275 6.94307 36.6257C6.94267 36.622 6.94206 36.6161 6.94123 36.6082C6.93959 36.5923 6.93712 36.5681 6.93396 36.5358C6.92764 36.4714 6.91856 36.3752 6.90778 36.2502C6.8862 36.0003 6.85782 35.636 6.83109 35.1828C6.77758 34.2755 6.73088 33.0154 6.7579 31.6049C6.81256 28.7512 7.1684 25.4058 8.29178 23.0922L6.94243 22.437ZM6.43143 37.4241L10.6889 36.0295L10.2219 34.6041L5.96449 35.9987L6.43143 37.4241ZM10.4554 35.3168C9.71593 35.1916 9.7159 35.1917 9.71587 35.192C9.71584 35.1921 9.7158 35.1923 9.71576 35.1926C9.71567 35.1931 9.71555 35.1938 9.71541 35.1946C9.71513 35.1963 9.71474 35.1987 9.71424 35.2017C9.71324 35.2077 9.71181 35.2163 9.70999 35.2275C9.70634 35.2499 9.70109 35.2824 9.69447 35.3247C9.68122 35.4093 9.66243 35.5328 9.63983 35.6911C9.59463 36.0079 9.5341 36.4646 9.47196 37.0295C9.34778 38.1583 9.21662 39.724 9.18925 41.471C9.13519 44.9223 9.48092 49.2444 11.2257 52.2547L12.5234 51.5026C10.9993 48.8729 10.6355 44.9141 10.6891 41.4945C10.7155 39.806 10.8425 38.2887 10.963 37.1935C11.0232 36.6463 11.0816 36.2057 11.1248 35.9031C11.1464 35.7518 11.1641 35.6351 11.1764 35.5569C11.1825 35.5178 11.1873 35.4884 11.1904 35.4691C11.192 35.4594 11.1932 35.4523 11.1939 35.4478C11.1943 35.4455 11.1946 35.4439 11.1947 35.4429C11.1948 35.4424 11.1949 35.4421 11.1949 35.442C11.1949 35.4419 11.1949 35.4419 11.1949 35.4419C11.1949 35.4419 11.1949 35.442 10.4554 35.3168ZM11.2257 52.2547C12.2711 54.0585 14.1221 55.9115 15.6597 57.283C16.4373 57.9767 17.1518 58.562 17.6721 58.9741C17.9324 59.1803 18.1447 59.3436 18.2925 59.4558C18.3665 59.5119 18.4243 59.5553 18.4641 59.5849C18.484 59.5997 18.4993 59.6111 18.5099 59.6189C18.5152 59.6228 18.5193 59.6259 18.5222 59.628C18.5236 59.629 18.5247 59.6299 18.5256 59.6305C18.526 59.6308 18.5263 59.631 18.5265 59.6312C18.5267 59.6313 18.5268 59.6314 18.5269 59.6314C18.527 59.6315 18.5271 59.6316 18.9703 59.0265C19.4135 58.4215 19.4136 58.4216 19.4136 58.4216C19.4136 58.4216 19.4136 58.4216 19.4136 58.4216C19.4135 58.4215 19.4134 58.4214 19.4132 58.4213C19.4127 58.4209 19.412 58.4204 19.411 58.4196C19.4089 58.4181 19.4056 58.4157 19.4011 58.4124C19.3922 58.4058 19.3785 58.3956 19.3603 58.3821C19.3239 58.355 19.2696 58.3143 19.1994 58.261C19.0589 58.1544 18.8549 57.9975 18.6034 57.7983C18.1002 57.3997 17.409 56.8334 16.6582 56.1637C15.1389 54.8084 13.442 53.0875 12.5234 51.5026L11.2257 52.2547ZM19.6387 59.3666L21.0579 56.5773L19.721 55.8971L18.3018 58.6865L19.6387 59.3666ZM20.3894 56.2372C19.7889 56.6865 19.789 56.6866 19.7891 56.6867C19.7891 56.6868 19.7892 56.6869 19.7893 56.687C19.7895 56.6873 19.7897 56.6876 19.79 56.688C19.7906 56.6888 19.7915 56.6899 19.7925 56.6913C19.7946 56.6941 19.7976 56.698 19.8015 56.7032C19.8093 56.7135 19.8206 56.7284 19.8353 56.7478C19.8647 56.7864 19.9078 56.8428 19.9635 56.9147C20.075 57.0587 20.2371 57.2654 20.442 57.5191C20.8513 58.0263 21.4325 58.7234 22.1211 59.4841C23.4836 60.9893 25.3207 62.805 27.1042 63.8567L27.8661 62.5646C26.2893 61.6348 24.5785 59.9637 23.2332 58.4775C22.5679 57.7425 22.0053 57.0678 21.6092 56.5771C21.4113 56.3319 21.2554 56.1331 21.1495 55.9963C21.0965 55.9279 21.0561 55.8751 21.0291 55.8397C21.0157 55.8219 21.0056 55.8086 20.999 55.7999C20.9957 55.7955 20.9933 55.7923 20.9918 55.7903C20.991 55.7893 20.9905 55.7886 20.9902 55.7882C20.99 55.788 20.9899 55.7878 20.9899 55.7878C20.9899 55.7877 20.9899 55.7878 20.9899 55.7877C20.9899 55.7878 20.9899 55.7878 20.3894 56.2372ZM27.1042 63.8567C28.6986 64.7968 30.9096 65.515 32.6732 65.9937C33.5645 66.2356 34.3596 66.4211 34.9322 66.5461C35.2187 66.6087 35.4501 66.6562 35.6105 66.6883C35.6907 66.7043 35.7532 66.7165 35.7961 66.7247C35.8175 66.7288 35.8341 66.732 35.8455 66.7341C35.8511 66.7352 35.8555 66.736 35.8586 66.7366C35.8602 66.7368 35.8614 66.7371 35.8622 66.7372C35.8627 66.7373 35.863 66.7374 35.8633 66.7374C35.8634 66.7375 35.8636 66.7375 35.8636 66.7375C35.8638 66.7375 35.8639 66.7375 36 66C36.1362 65.2625 36.1362 65.2625 36.1363 65.2625C36.1363 65.2625 36.1363 65.2625 36.1362 65.2625C36.1362 65.2625 36.136 65.2624 36.1358 65.2624C36.1353 65.2623 36.1345 65.2622 36.1334 65.262C36.1312 65.2615 36.1276 65.2609 36.1228 65.26C36.1131 65.2581 36.0984 65.2553 36.0787 65.2516C36.0394 65.244 35.9807 65.2326 35.9044 65.2174C35.7518 65.1869 35.5292 65.1411 35.2523 65.0807C34.6979 64.9596 33.9279 64.78 33.0662 64.5461C31.3238 64.0732 29.2773 63.3967 27.8661 62.5646L27.1042 63.8567ZM36 19.9752C36.3865 19.3324 36.3864 19.3324 36.3862 19.3322C36.3861 19.3322 36.3859 19.3321 36.3857 19.3319C36.3853 19.3317 36.3848 19.3314 36.3842 19.331C36.383 19.3303 36.3813 19.3293 36.3793 19.3281C36.3752 19.3256 36.3693 19.3222 36.3619 19.3178C36.347 19.3089 36.3255 19.2963 36.2976 19.2801C36.242 19.2476 36.1611 19.2011 36.0573 19.1427C35.8498 19.0261 35.5504 18.8623 35.1783 18.6709C34.4351 18.2886 33.3961 17.793 32.2151 17.3423C31.0366 16.8926 29.699 16.4807 28.3617 16.2757C27.0308 16.0716 25.6487 16.0643 24.4113 16.4738L24.8825 17.8978C25.8107 17.5907 26.9305 17.5738 28.1344 17.7584C29.3319 17.942 30.5619 18.317 31.6803 18.7438C32.7961 19.1696 33.7832 19.6401 34.4921 20.0047C34.8459 20.1868 35.129 20.3417 35.3224 20.4504C35.4191 20.5047 35.4932 20.5474 35.5426 20.5762C35.5672 20.5905 35.5857 20.6014 35.5976 20.6085C35.6036 20.612 35.6079 20.6146 35.6106 20.6162C35.6119 20.617 35.6128 20.6175 35.6133 20.6178C35.6136 20.6179 35.6137 20.618 35.6137 20.6181C35.6137 20.6181 35.6137 20.618 35.6137 20.618C35.6136 20.618 35.6135 20.6179 36 19.9752ZM24.4113 16.4738C18.5313 18.4194 16.7121 24.0244 16.8012 29.7497L18.3011 29.7263C18.2156 24.2377 19.9471 19.5309 24.8825 17.8978L24.4113 16.4738ZM16.8012 29.7497C16.8427 32.4136 18.3708 35.3584 19.788 37.5506C20.509 38.6658 21.2263 39.6236 21.7632 40.3024C22.0319 40.6422 22.2561 40.9131 22.4141 41.1C22.493 41.1935 22.5555 41.266 22.5987 41.3157C22.6203 41.3405 22.637 41.3597 22.6487 41.3729C22.6545 41.3795 22.659 41.3846 22.6622 41.3882C22.6638 41.39 22.6651 41.3914 22.666 41.3925C22.6664 41.393 22.6668 41.3934 22.6671 41.3938C22.6673 41.3939 22.6674 41.3941 22.6675 41.3942C22.6676 41.3943 22.6677 41.3945 23.2277 40.8956C23.7877 40.3967 23.7878 40.3967 23.7878 40.3968C23.7878 40.3968 23.7879 40.3968 23.7878 40.3968C23.7878 40.3967 23.7877 40.3966 23.7874 40.3963C23.787 40.3959 23.7863 40.395 23.7852 40.3938C23.783 40.3913 23.7795 40.3873 23.7747 40.3819C23.7651 40.371 23.7504 40.3542 23.731 40.3319C23.6921 40.2871 23.6341 40.2198 23.5598 40.1318C23.4111 39.9559 23.1973 39.6976 22.9397 39.372C22.424 38.7199 21.7364 37.8015 21.0477 36.7362C19.6457 34.5675 18.3354 31.9335 18.3011 29.7263L16.8012 29.7497ZM23.2277 40.8956C22.4795 40.8443 22.4795 40.8445 22.4795 40.8447C22.4794 40.8449 22.4794 40.8451 22.4794 40.8453C22.4794 40.8458 22.4793 40.8463 22.4793 40.847C22.4792 40.8483 22.4791 40.85 22.479 40.8521C22.4787 40.8563 22.4783 40.8621 22.4779 40.8694C22.477 40.884 22.4758 40.9047 22.4745 40.9312C22.4718 40.9842 22.4683 41.0603 22.4652 41.1568C22.459 41.3496 22.4542 41.6245 22.459 41.9591C22.4686 42.6262 22.5168 43.5402 22.6735 44.5188C22.8294 45.4933 23.0973 46.5601 23.5603 47.5182C24.0235 48.4767 24.7036 49.3692 25.7039 49.9205L26.4279 48.6068C25.7845 48.2522 25.2879 47.6458 24.9108 46.8655C24.5335 46.0847 24.2972 45.1727 24.1546 44.2817C24.0126 43.3947 23.9677 42.5563 23.9588 41.9375C23.9544 41.6291 23.9589 41.3776 23.9645 41.2049C23.9672 41.1185 23.9702 41.052 23.9725 41.0081C23.9736 40.9861 23.9746 40.9698 23.9752 40.9595C23.9755 40.9543 23.9757 40.9506 23.9759 40.9485C23.9759 40.9475 23.976 40.9468 23.976 40.9465C23.976 40.9464 23.976 40.9463 23.976 40.9464C23.976 40.9464 23.976 40.9465 23.976 40.9465C23.976 40.9467 23.976 40.9468 23.2277 40.8956ZM35.9999 56.2371C36.0256 55.4875 36.0257 55.4875 36.0257 55.4875C36.0258 55.4875 36.0258 55.4875 36.0258 55.4875C36.0259 55.4875 36.0259 55.4875 36.0258 55.4875C36.0256 55.4875 36.0253 55.4875 36.0247 55.4875C36.0235 55.4874 36.0214 55.4874 36.0184 55.4872C36.0125 55.487 36.0031 55.4866 35.9903 55.4861C35.9648 55.4849 35.9261 55.483 35.8754 55.4802C35.7741 55.4745 35.6254 55.465 35.4405 55.4496C35.0698 55.4189 34.5569 55.3652 33.9888 55.2737C32.8198 55.0855 31.5406 54.7553 30.7409 54.2194L29.9058 55.4654C30.994 56.1946 32.5531 56.5619 33.7504 56.7546C34.3654 56.8537 34.9178 56.9114 35.3165 56.9445C35.5162 56.9611 35.6783 56.9715 35.7915 56.9779C35.8481 56.981 35.8926 56.9832 35.9235 56.9846C35.939 56.9853 35.9511 56.9857 35.9596 56.9861C35.9639 56.9863 35.9672 56.9864 35.9697 56.9865C35.9709 56.9865 35.9719 56.9865 35.9727 56.9866C35.9731 56.9866 35.9734 56.9866 35.9737 56.9866C35.9738 56.9866 35.974 56.9866 35.974 56.9866C35.9742 56.9866 35.9743 56.9866 35.9999 56.2371ZM25.7039 49.9205C25.9842 50.0749 26.276 50.1944 26.575 50.2832L27.0024 48.8454C26.8001 48.7853 26.6085 48.7063 26.4279 48.6068L25.7039 49.9205ZM26.575 50.2832C27.6596 50.6057 28.8351 50.5258 29.9396 50.271C31.0499 50.0149 32.1436 49.5693 33.0972 49.1C34.0536 48.6292 34.8883 48.125 35.4831 47.7393C35.7812 47.5461 36.0205 47.3817 36.1864 47.2647C36.2694 47.2062 36.3342 47.1594 36.3788 47.1268C36.4012 47.1106 36.4185 47.0978 36.4306 47.0888C36.4366 47.0844 36.4414 47.0808 36.4447 47.0783C36.4464 47.077 36.4478 47.076 36.4488 47.0752C36.4493 47.0749 36.4498 47.0745 36.4501 47.0743C36.4503 47.0742 36.4505 47.074 36.4506 47.0739C36.4507 47.0738 36.4509 47.0737 36.0001 46.4743C35.5492 45.8749 35.5493 45.8749 35.5494 45.8748C35.5494 45.8748 35.5495 45.8747 35.5495 45.8747C35.5495 45.8747 35.5494 45.8748 35.5493 45.8749C35.5489 45.8752 35.5483 45.8757 35.5473 45.8764C35.5453 45.8779 35.542 45.8803 35.5375 45.8837C35.5283 45.8905 35.514 45.9011 35.4947 45.9151C35.4563 45.9432 35.3981 45.9851 35.3221 46.0387C35.1701 46.1459 34.9469 46.2993 34.6671 46.4807C34.1063 46.8443 33.324 47.3165 32.4348 47.7541C31.5427 48.1932 30.5622 48.588 29.6025 48.8094C28.6369 49.0321 27.7466 49.0666 27.0024 48.8454L26.575 50.2832ZM30.7409 54.2194C29.8649 53.6323 29.0532 52.4544 28.4367 51.3231C28.1372 50.7736 27.8992 50.2643 27.7362 49.8924C27.6548 49.7068 27.5926 49.5564 27.5511 49.4535C27.5303 49.4021 27.5148 49.3626 27.5047 49.3366C27.4996 49.3236 27.4959 49.314 27.4936 49.3079C27.4924 49.3049 27.4916 49.3027 27.4912 49.3015C27.4909 49.3009 27.4908 49.3005 27.4907 49.3004C27.4907 49.3003 27.4907 49.3003 27.4907 49.3003C27.4907 49.3003 27.4908 49.3004 27.4908 49.3004C27.4908 49.3005 27.4908 49.3006 26.7887 49.5643C26.0866 49.828 26.0867 49.8282 26.0867 49.8283C26.0867 49.8284 26.0868 49.8286 26.0869 49.8287C26.087 49.829 26.0871 49.8293 26.0872 49.8297C26.0875 49.8305 26.0879 49.8315 26.0884 49.8328C26.0894 49.8353 26.0907 49.8388 26.0923 49.8432C26.0957 49.8519 26.1004 49.8643 26.1066 49.8801C26.1189 49.9117 26.1367 49.9571 26.16 50.0147C26.2064 50.1298 26.2744 50.294 26.3624 50.4947C26.538 50.8952 26.7947 51.4447 27.1196 52.0409C27.7518 53.2011 28.7073 54.6622 29.9058 55.4654L30.7409 54.2194ZM35.2499 42.2902L35.2501 46.4743L36.7501 46.4743L36.7499 42.2901L35.2499 42.2902ZM36.5256 41.7552L32.2682 37.5712L31.2168 38.641L35.4742 42.8251L36.5256 41.7552ZM31.7425 38.1061C32.3253 38.5781 32.3252 38.5783 32.3251 38.5784C32.3251 38.5784 32.325 38.5785 32.325 38.5785C32.3249 38.5786 32.3249 38.5786 32.3249 38.5786C32.3249 38.5786 32.3251 38.5784 32.3253 38.5781C32.3259 38.5774 32.327 38.5761 32.3286 38.5742C32.3318 38.5703 32.3371 38.5638 32.3444 38.5551C32.359 38.5375 32.3817 38.5106 32.4118 38.4756C32.4721 38.4057 32.5618 38.3038 32.6761 38.1808C32.9056 37.9338 33.2297 37.6064 33.6096 37.2812C33.9917 36.9541 34.4153 36.6422 34.8433 36.4151C35.2766 36.1852 35.6683 36.0668 36 36.0668L35.9999 34.5668C35.3324 34.5668 34.6924 34.7971 34.1402 35.0901C33.5825 35.386 33.0666 35.7715 32.6341 36.1417C32.1995 36.5138 31.8338 36.8837 31.5773 37.1597C31.4486 37.2982 31.3462 37.4143 31.2752 37.4968C31.2396 37.5381 31.2118 37.5711 31.1923 37.5944C31.1826 37.6061 31.175 37.6153 31.1695 37.622C31.1668 37.6253 31.1646 37.628 31.163 37.63C31.1621 37.631 31.1614 37.6319 31.1609 37.6325C31.1606 37.6329 31.1604 37.6332 31.1602 37.6334C31.1601 37.6335 31.16 37.6337 31.1599 37.6337C31.1598 37.6339 31.1597 37.634 31.7425 38.1061ZM39.9979 26.0421C39.9979 27.7414 41.3992 29.0933 43.0958 29.0933V27.5933C42.1991 27.5933 41.4979 26.8847 41.4979 26.0421H39.9979ZM43.0958 29.0933C44.7924 29.0933 46.1937 27.7414 46.1937 26.0421H44.6937C44.6937 26.8847 43.9925 27.5933 43.0958 27.5933V29.0933ZM46.1937 26.0421C46.1937 24.3428 44.7925 22.9908 43.0958 22.9908V24.4908C43.9925 24.4908 44.6937 25.1995 44.6937 26.0421H46.1937ZM43.0958 22.9908C41.3991 22.9908 39.9979 24.3428 39.9979 26.0421H41.4979C41.4979 25.1995 42.1991 24.4908 43.0958 24.4908V22.9908ZM36.0001 10.2123C36.4177 10.8353 36.4176 10.8354 36.4176 10.8354C36.4176 10.8354 36.4175 10.8354 36.4176 10.8354C36.4176 10.8354 36.4178 10.8353 36.418 10.8351C36.4184 10.8348 36.4192 10.8343 36.4204 10.8335C36.4226 10.832 36.4263 10.8296 36.4313 10.8263C36.4412 10.8197 36.4565 10.8096 36.4769 10.7962C36.5178 10.7694 36.5791 10.7294 36.6591 10.6781C36.8193 10.5755 37.0541 10.4275 37.3495 10.2484C37.941 9.88988 38.7725 9.40842 39.7317 8.91698C41.6763 7.92078 44.0485 6.9352 45.9953 6.77576L45.8729 5.28076C43.6136 5.4658 41.0187 6.57226 39.0478 7.58198C38.0493 8.0935 37.186 8.59348 36.572 8.96566C36.2647 9.15192 36.0192 9.3066 35.8497 9.41528C35.7649 9.46963 35.699 9.51251 35.6539 9.54211C35.6314 9.55692 35.614 9.56841 35.602 9.57636C35.596 9.58033 35.5914 9.58342 35.5881 9.5856C35.5865 9.58669 35.5852 9.58755 35.5842 9.58818C35.5838 9.58849 35.5834 9.58875 35.5831 9.58895C35.5829 9.58905 35.5828 9.58915 35.5827 9.5892C35.5826 9.58929 35.5825 9.58937 36.0001 10.2123ZM45.9953 6.77576C48.4173 6.57741 51.4631 7.5541 53.9869 8.64757C55.2314 9.18673 56.3168 9.73976 57.0911 10.1581C57.4778 10.367 57.786 10.5419 57.9964 10.6639C58.1017 10.7248 58.1824 10.7726 58.2363 10.8047C58.2632 10.8208 58.2834 10.8329 58.2966 10.8409C58.3032 10.8449 58.308 10.8478 58.311 10.8497C58.3125 10.8506 58.3136 10.8512 58.3142 10.8516C58.3145 10.8518 58.3147 10.8519 58.3148 10.852C58.3149 10.852 58.3148 10.852 58.3149 10.852C58.3148 10.852 58.3147 10.8519 58.7064 10.2123C59.0981 9.57274 59.098 9.57266 59.0978 9.57256C59.0977 9.5725 59.0975 9.57238 59.0973 9.57227C59.097 9.57203 59.0965 9.57173 59.0959 9.57136C59.0947 9.57063 59.093 9.56961 59.0909 9.56832C59.0866 9.56574 59.0806 9.56206 59.0727 9.55733C59.0571 9.54787 59.0344 9.53419 59.0048 9.51657C58.9458 9.48134 58.8596 9.43038 58.7486 9.36605C58.5266 9.23742 58.2054 9.0552 57.8041 8.83838C57.0022 8.40514 55.877 7.8317 54.5833 7.2712C52.0308 6.16535 48.6905 5.05001 45.8729 5.28076L45.9953 6.77576ZM58.2954 9.58499L54.038 12.3744L54.86 13.6291L59.1174 10.8397L58.2954 9.58499ZM54.449 13.0017C54.0417 13.6315 54.0416 13.6314 54.0416 13.6314C54.0416 13.6314 54.0416 13.6314 54.0417 13.6315C54.0418 13.6315 54.042 13.6317 54.0423 13.6319C54.043 13.6323 54.0441 13.633 54.0456 13.6341C54.0488 13.6361 54.0537 13.6393 54.0604 13.6437C54.0737 13.6524 54.094 13.6657 54.1209 13.6835C54.1747 13.7191 54.2549 13.7725 54.3582 13.8425C54.565 13.9826 54.8646 14.1892 55.2321 14.4525C55.9676 14.9795 56.9722 15.732 58.0484 16.6333C60.2258 18.4567 62.6011 20.8118 63.7083 23.0921L65.0577 22.437C63.8021 19.8511 61.2104 17.3247 59.0115 15.4833C57.8995 14.5521 56.8637 13.7763 56.1058 13.2332C55.7265 12.9614 55.4161 12.7474 55.1996 12.6007C55.0914 12.5274 55.0065 12.4708 54.9483 12.4323C54.9191 12.413 54.8967 12.3983 54.8812 12.3882C54.8735 12.3831 54.8675 12.3792 54.8633 12.3765C54.8612 12.3752 54.8596 12.3741 54.8584 12.3733C54.8578 12.373 54.8574 12.3727 54.857 12.3724C54.8568 12.3723 54.8566 12.3722 54.8566 12.3721C54.8564 12.372 54.8563 12.3719 54.449 13.0017ZM63.7083 23.0921C64.8317 25.4058 65.1876 28.7512 65.2422 31.6049C65.2692 33.0154 65.2225 34.2755 65.169 35.1828C65.1423 35.636 65.1139 36.0003 65.0923 36.2502C65.0816 36.3751 65.0725 36.4714 65.0662 36.5358C65.063 36.568 65.0605 36.5923 65.0589 36.6082C65.0581 36.6161 65.0575 36.622 65.0571 36.6257C65.0569 36.6275 65.0567 36.6288 65.0566 36.6296C65.0566 36.63 65.0566 36.6303 65.0566 36.6304C65.0565 36.6304 65.0565 36.6304 65.0565 36.6304C65.0566 36.6304 65.0566 36.6303 65.8022 36.7114C66.5478 36.7925 66.5478 36.7923 66.5478 36.7921C66.5478 36.792 66.5478 36.7918 66.5479 36.7916C66.5479 36.7912 66.548 36.7906 66.548 36.7899C66.5482 36.7885 66.5484 36.7865 66.5487 36.784C66.5492 36.779 66.55 36.7719 66.5509 36.7627C66.5528 36.7441 66.5556 36.7172 66.559 36.6823C66.5659 36.6123 66.5755 36.5103 66.5868 36.3793C66.6094 36.1173 66.6388 35.7394 66.6664 35.2711C66.7216 34.3352 66.7699 33.0349 66.7419 31.5762C66.6867 28.6915 66.333 25.0635 65.0577 22.437L63.7083 23.0921ZM66.0356 35.9987L61.7782 34.604L61.3112 36.0295L65.5687 37.4241L66.0356 35.9987ZM61.5447 35.3168C60.8053 35.442 60.8052 35.4419 60.8052 35.4419C60.8052 35.4419 60.8052 35.4419 60.8052 35.442C60.8053 35.4421 60.8053 35.4424 60.8054 35.4429C60.8056 35.4439 60.8058 35.4455 60.8062 35.4478C60.807 35.4523 60.8081 35.4594 60.8097 35.4691C60.8129 35.4884 60.8176 35.5178 60.8237 35.5569C60.836 35.6351 60.8537 35.7518 60.8753 35.9031C60.9185 36.2057 60.977 36.6463 61.0372 37.1935C61.1576 38.2887 61.2846 39.806 61.3111 41.4945C61.3646 44.9141 61.0008 48.8729 59.4767 51.5026L60.7745 52.2547C62.5192 49.2444 62.8649 44.9223 62.8109 41.471C62.7835 39.724 62.6523 38.1583 62.5282 37.0294C62.466 36.4645 62.4055 36.0078 62.3603 35.6911C62.3377 35.5327 62.3189 35.4093 62.3057 35.3247C62.299 35.2824 62.2938 35.2499 62.2901 35.2275C62.2883 35.2163 62.2869 35.2077 62.2859 35.2017C62.2854 35.1987 62.285 35.1963 62.2847 35.1946C62.2846 35.1938 62.2845 35.1931 62.2844 35.1926C62.2843 35.1923 62.2843 35.1921 62.2843 35.1919C62.2842 35.1917 62.2842 35.1915 61.5447 35.3168ZM59.4767 51.5026C58.5581 53.0875 56.8612 54.8084 55.3419 56.1636C54.5911 56.8334 53.8999 57.3997 53.3967 57.7983C53.1452 57.9974 52.9412 58.1544 52.8008 58.261C52.7305 58.3143 52.6762 58.355 52.6399 58.3821C52.6217 58.3956 52.608 58.4058 52.599 58.4124C52.5945 58.4157 52.5912 58.4181 52.5892 58.4196C52.5881 58.4204 52.5874 58.4209 52.587 58.4212C52.5868 58.4214 52.5866 58.4215 52.5866 58.4215C52.5865 58.4216 52.5865 58.4216 52.5865 58.4216C52.5866 58.4215 52.5866 58.4215 53.0298 59.0265C53.4731 59.6316 53.4731 59.6315 53.4733 59.6314C53.4733 59.6314 53.4735 59.6313 53.4736 59.6312C53.4738 59.631 53.4742 59.6307 53.4746 59.6304C53.4754 59.6298 53.4765 59.629 53.478 59.628C53.4808 59.6258 53.4849 59.6228 53.4902 59.6189C53.5008 59.6111 53.5162 59.5997 53.536 59.5849C53.5758 59.5553 53.6337 59.5119 53.7076 59.4558C53.8554 59.3436 54.0677 59.1803 54.328 58.9741C54.8483 58.562 55.5628 57.9767 56.3404 57.283C57.8781 55.9114 59.729 54.0585 60.7745 52.2547L59.4767 51.5026ZM53.6983 58.6864L52.2791 55.8971L50.9422 56.5772L52.3614 59.3666L53.6983 58.6864ZM51.6107 56.2372C51.0102 55.7878 51.0102 55.7878 51.0103 55.7877C51.0102 55.7877 51.0103 55.7877 51.0102 55.7878C51.0102 55.7878 51.0101 55.7879 51.0099 55.7882C51.0096 55.7886 51.0091 55.7893 51.0083 55.7903C51.0068 55.7923 51.0044 55.7955 51.0011 55.7999C50.9945 55.8086 50.9844 55.8219 50.971 55.8396C50.944 55.875 50.9036 55.9279 50.8506 55.9963C50.7447 56.1331 50.5888 56.3319 50.3909 56.5771C49.9948 57.0678 49.4322 57.7425 48.7669 58.4775C47.4217 59.9637 45.7108 61.6348 44.134 62.5646L44.8959 63.8567C46.6795 62.805 48.5165 60.9893 49.879 59.4841C50.5676 58.7234 51.1488 58.0263 51.5582 57.5191C51.763 57.2654 51.9251 57.0587 52.0366 56.9147C52.0923 56.8427 52.1354 56.7864 52.1649 56.7478C52.1796 56.7284 52.1909 56.7135 52.1986 56.7032C52.2025 56.698 52.2055 56.694 52.2076 56.6913C52.2087 56.6899 52.2095 56.6888 52.2101 56.688C52.2104 56.6876 52.2106 56.6872 52.2108 56.687C52.2109 56.6869 52.211 56.6867 52.211 56.6867C52.2111 56.6866 52.2112 56.6865 51.6107 56.2372ZM44.134 62.5646C42.7228 63.3967 40.6763 64.0732 38.9339 64.5461C38.0722 64.78 37.3021 64.9596 36.7478 65.0807C36.4709 65.1411 36.2483 65.1869 36.0957 65.2174C36.0194 65.2326 35.9606 65.244 35.9213 65.2516C35.9017 65.2553 35.8869 65.2581 35.8772 65.26C35.8724 65.2609 35.8689 65.2615 35.8666 65.262C35.8655 65.2622 35.8647 65.2623 35.8643 65.2624C35.864 65.2624 35.8639 65.2625 35.8638 65.2625C35.8638 65.2625 35.8638 65.2625 35.8638 65.2625C35.8638 65.2625 35.8639 65.2625 36 66C36.1362 66.7375 36.1363 66.7375 36.1364 66.7375C36.1365 66.7375 36.1366 66.7375 36.1367 66.7374C36.137 66.7374 36.1374 66.7373 36.1378 66.7372C36.1387 66.7371 36.1399 66.7368 36.1414 66.7366C36.1445 66.736 36.1489 66.7352 36.1546 66.7341C36.166 66.732 36.1825 66.7288 36.2039 66.7247C36.2468 66.7165 36.3093 66.7043 36.3896 66.6883C36.55 66.6562 36.7813 66.6087 37.0678 66.5461C37.6404 66.4211 38.4355 66.2356 39.3268 65.9937C41.0905 65.515 43.3015 64.7968 44.8959 63.8567L44.134 62.5646ZM36 19.9752C36.3865 20.6179 36.3864 20.618 36.3863 20.618C36.3864 20.618 36.3863 20.6181 36.3863 20.6181C36.3864 20.618 36.3865 20.6179 36.3867 20.6178C36.3872 20.6175 36.3882 20.617 36.3895 20.6162C36.3921 20.6146 36.3965 20.612 36.4024 20.6085C36.4144 20.6014 36.4328 20.5905 36.4575 20.5762C36.5068 20.5474 36.581 20.5047 36.6777 20.4504C36.8711 20.3417 37.1541 20.1868 37.508 20.0047C38.2168 19.6401 39.204 19.1696 40.3198 18.7438C41.4382 18.317 42.6682 17.942 43.8657 17.7583C45.0696 17.5738 46.1894 17.5907 47.1176 17.8978L47.5889 16.4738C46.3514 16.0643 44.9693 16.0716 43.6384 16.2757C42.3012 16.4807 40.9635 16.8926 39.785 17.3423C38.604 17.793 37.5649 18.2886 36.8218 18.6709C36.4497 18.8623 36.1503 19.0261 35.9428 19.1427C35.839 19.2011 35.7581 19.2476 35.7024 19.2801C35.6746 19.2963 35.6531 19.3089 35.6382 19.3178C35.6307 19.3222 35.6249 19.3256 35.6208 19.3281C35.6187 19.3293 35.6171 19.3303 35.6159 19.331C35.6153 19.3314 35.6148 19.3317 35.6144 19.3319C35.6142 19.3321 35.614 19.3322 35.6139 19.3322C35.6137 19.3323 35.6135 19.3324 36 19.9752ZM47.1176 17.8978C52.053 19.5309 53.7846 24.2377 53.6991 29.7263L55.1989 29.7497C55.2881 24.0244 53.4688 18.4194 47.5889 16.4738L47.1176 17.8978ZM53.6991 29.7263C53.6647 31.9335 52.3545 34.5675 50.9524 36.7362C50.2637 37.8015 49.5761 38.7198 49.0604 39.372C48.8029 39.6976 48.589 39.9559 48.4403 40.1318C48.366 40.2198 48.3081 40.2871 48.2692 40.3318C48.2497 40.3542 48.235 40.371 48.2255 40.3819C48.2207 40.3873 48.2172 40.3913 48.215 40.3937C48.2139 40.395 48.2131 40.3958 48.2127 40.3963C48.2125 40.3966 48.2123 40.3967 48.2123 40.3968C48.2123 40.3968 48.2123 40.3968 48.2123 40.3968C48.2123 40.3967 48.2124 40.3966 48.7724 40.8955C49.3324 41.3945 49.3325 41.3943 49.3326 41.3942C49.3327 41.3941 49.3329 41.3939 49.333 41.3937C49.3333 41.3934 49.3337 41.393 49.3341 41.3925C49.3351 41.3914 49.3363 41.39 49.3379 41.3882C49.3411 41.3846 49.3457 41.3795 49.3515 41.3729C49.3631 41.3597 49.3799 41.3405 49.4015 41.3157C49.4446 41.266 49.5071 41.1935 49.5861 41.1C49.744 40.9131 49.9683 40.6422 50.237 40.3024C50.7738 39.6235 51.4911 38.6658 52.2121 37.5506C53.6293 35.3584 55.1574 32.4136 55.1989 29.7497L53.6991 29.7263ZM48.7724 40.8955C48.0241 40.9468 48.0241 40.9467 48.0241 40.9465C48.0241 40.9465 48.0241 40.9464 48.0241 40.9464C48.0241 40.9463 48.0241 40.9463 48.0241 40.9465C48.0241 40.9468 48.0242 40.9474 48.0243 40.9485C48.0244 40.9506 48.0246 40.9543 48.0249 40.9595C48.0256 40.9698 48.0265 40.9861 48.0276 41.0081C48.0299 41.052 48.0329 41.1185 48.0357 41.2048C48.0412 41.3776 48.0457 41.6291 48.0413 41.9375C48.0324 42.5563 47.9875 43.3946 47.8455 44.2817C47.7029 45.1727 47.4666 46.0847 47.0893 46.8655C46.7122 47.6458 46.2156 48.2522 45.5722 48.6067L46.2962 49.9205C47.2965 49.3692 47.9766 48.4767 48.4398 47.5182C48.9029 46.5601 49.1707 45.4932 49.3267 44.5187C49.4833 43.5402 49.5316 42.6262 49.5411 41.9591C49.546 41.6245 49.5411 41.3496 49.5349 41.1568C49.5318 41.0603 49.5284 40.9841 49.5256 40.9312C49.5243 40.9047 49.5231 40.884 49.5222 40.8694C49.5218 40.8621 49.5214 40.8563 49.5212 40.8521C49.521 40.85 49.5209 40.8483 49.5208 40.847C49.5208 40.8463 49.5207 40.8458 49.5207 40.8453C49.5207 40.8451 49.5207 40.8448 49.5207 40.8447C49.5207 40.8445 49.5206 40.8443 48.7724 40.8955ZM35.9999 56.2371C36.0256 56.9866 36.0257 56.9866 36.0258 56.9866C36.0259 56.9866 36.0261 56.9866 36.0262 56.9866C36.0265 56.9866 36.0268 56.9866 36.0272 56.9866C36.0279 56.9865 36.029 56.9865 36.0302 56.9865C36.0326 56.9864 36.036 56.9863 36.0403 56.9861C36.0488 56.9857 36.0609 56.9853 36.0763 56.9846C36.1073 56.9832 36.1517 56.981 36.2084 56.9779C36.3216 56.9715 36.4837 56.9611 36.6835 56.9445C37.0822 56.9114 37.6345 56.8537 38.2496 56.7546C39.4469 56.5618 41.0062 56.1946 42.0943 55.4654L41.2592 54.2193C40.4595 54.7553 39.1803 55.0855 38.0112 55.2737C37.443 55.3652 36.9302 55.4189 36.5595 55.4496C36.3745 55.465 36.2258 55.4745 36.1245 55.4802C36.0738 55.483 36.0351 55.4849 36.0096 55.4861C35.9968 55.4866 35.9874 55.487 35.9815 55.4872C35.9785 55.4874 35.9764 55.4874 35.9752 55.4875C35.9746 55.4875 35.9742 55.4875 35.9741 55.4875C35.974 55.4875 35.974 55.4875 35.974 55.4875C35.974 55.4875 35.9741 55.4875 35.9741 55.4875C35.9742 55.4875 35.9743 55.4875 35.9999 56.2371ZM45.5722 48.6067C45.3917 48.7062 45.2 48.7853 44.9977 48.8454L45.4251 50.2832C45.7241 50.1944 46.0159 50.0749 46.2962 49.9205L45.5722 48.6067ZM44.9977 48.8454C44.2535 49.0666 43.3632 49.0321 42.3977 48.8094C41.4379 48.588 40.4575 48.1932 39.5654 47.7541C38.6761 47.3164 37.8938 46.8443 37.333 46.4807C37.0532 46.2993 36.8301 46.1459 36.678 46.0387C36.602 45.9851 36.5439 45.9432 36.5054 45.9151C36.4861 45.9011 36.4718 45.8905 36.4627 45.8837C36.4581 45.8803 36.4548 45.8779 36.4528 45.8764C36.4518 45.8757 36.4512 45.8752 36.4509 45.8749C36.4507 45.8748 36.4506 45.8747 36.4506 45.8747C36.4506 45.8747 36.4507 45.8748 36.4507 45.8748C36.4508 45.8749 36.4509 45.8749 36.0001 46.4743C35.5492 47.0737 35.5494 47.0738 35.5496 47.0739C35.5496 47.074 35.5498 47.0742 35.55 47.0743C35.5504 47.0745 35.5508 47.0749 35.5513 47.0752C35.5523 47.076 35.5537 47.077 35.5554 47.0783C35.5588 47.0808 35.5635 47.0844 35.5695 47.0888C35.5816 47.0978 35.5989 47.1106 35.6213 47.1268C35.6659 47.1594 35.7307 47.2062 35.8137 47.2647C35.9796 47.3817 36.219 47.5461 36.517 47.7393C37.1118 48.125 37.9466 48.6292 38.903 49.0999C39.8565 49.5693 40.9502 50.0149 42.0605 50.271C43.1651 50.5258 44.3405 50.6056 45.4251 50.2832L44.9977 48.8454ZM42.0943 55.4654C43.2928 54.6622 44.2483 53.2011 44.8806 52.0409C45.2055 51.4447 45.4622 50.8952 45.6377 50.4946C45.7257 50.294 45.7937 50.1298 45.8402 50.0147C45.8634 49.9571 45.8812 49.9117 45.8935 49.8801C45.8997 49.8643 45.9044 49.8519 45.9078 49.8431C45.9094 49.8388 45.9108 49.8353 45.9117 49.8328C45.9122 49.8315 45.9126 49.8305 45.9129 49.8297C45.913 49.8293 45.9132 49.829 45.9133 49.8287C45.9133 49.8285 45.9134 49.8284 45.9134 49.8283C45.9135 49.8282 45.9135 49.828 45.2114 49.5643C44.5093 49.3006 44.5093 49.3005 44.5094 49.3004C44.5094 49.3004 44.5094 49.3003 44.5094 49.3003C44.5094 49.3003 44.5094 49.3003 44.5094 49.3004C44.5093 49.3005 44.5092 49.3009 44.509 49.3015C44.5085 49.3027 44.5077 49.3049 44.5065 49.3079C44.5042 49.3139 44.5005 49.3236 44.4955 49.3366C44.4853 49.3626 44.4698 49.4021 44.4491 49.4535C44.4076 49.5564 44.3453 49.7068 44.2639 49.8924C44.1009 50.2643 43.8629 50.7736 43.5634 51.3231C42.947 52.4544 42.1352 53.6323 41.2592 54.2193L42.0943 55.4654ZM36.5256 42.8251L40.7833 38.641L39.7319 37.5711L35.4743 41.7552L36.5256 42.8251ZM40.2576 38.1061C40.8404 37.634 40.8403 37.6339 40.8402 37.6337C40.8402 37.6337 40.84 37.6335 40.8399 37.6334C40.8397 37.6331 40.8395 37.6328 40.8392 37.6325C40.8387 37.6318 40.838 37.631 40.8372 37.63C40.8355 37.628 40.8333 37.6253 40.8306 37.622C40.8251 37.6153 40.8175 37.6061 40.8078 37.5944C40.7883 37.5711 40.7605 37.5381 40.725 37.4968C40.6539 37.4142 40.5515 37.2981 40.4227 37.1597C40.1662 36.8836 39.8006 36.5138 39.3659 36.1416C38.9334 35.7714 38.4174 35.386 37.8598 35.0901C37.3075 34.797 36.6675 34.5668 35.9999 34.5668L36 36.0668C36.3316 36.0668 36.7233 36.1852 37.1567 36.4151C37.5847 36.6422 38.0083 36.9541 38.3904 37.2812C38.7704 37.6064 39.0945 37.9338 39.324 38.1808C39.4383 38.3038 39.5281 38.4056 39.5883 38.4756C39.6184 38.5106 39.6411 38.5375 39.6558 38.5551C39.6631 38.5638 39.6684 38.5703 39.6716 38.5742C39.6732 38.5761 39.6743 38.5774 39.6748 38.5781C39.6751 38.5784 39.6752 38.5786 39.6752 38.5786C39.6752 38.5786 39.6752 38.5786 39.6751 38.5785C39.6751 38.5785 39.675 38.5784 39.675 38.5784C39.6749 38.5783 39.6748 38.5781 40.2576 38.1061Z" fill="#4D4DAA"/>
</svg>
