<svg width="72" height="72" viewBox="0 0 72 72" fill="none" xmlns="http://www.w3.org/2000/svg">
<path d="M36 30.375L36 31.125L36 30.375ZM45.3631 32.0625L45.7465 32.7071L45.7465 32.7071L45.3631 32.0625ZM54 37.5L53.7376 36.7974C53.5072 36.8835 53.3336 37.077 53.2731 37.3154L54 37.5ZM36 60L36 59.25L36 60ZM26.6369 32.0625L26.2535 32.7071L26.2535 32.7071L26.6369 32.0625ZM18 37.5L18.7269 37.3154C18.669 37.0873 18.5074 36.8996 18.2904 36.8085L18 37.5ZM42.8746 52.0861C43.0602 51.7158 42.9105 51.2652 42.5402 51.0795C42.17 50.8939 41.7193 51.0436 41.5336 51.4138L42.8746 52.0861ZM30.4664 51.4138C30.2808 51.0436 29.8301 50.8939 29.4599 51.0795C29.0896 51.2652 28.9399 51.7158 29.1255 52.0861L30.4664 51.4138ZM7.71429 49.3333L7.01891 49.0523L6.77767 49.6494L7.33129 49.9782L7.71429 49.3333ZM10.8571 41.5556L11.5525 41.8365L11.7395 41.3737L11.3848 41.0225L10.8571 41.5556ZM3 33.7778L2.55292 33.1756L1.85159 33.6963L2.47237 34.3108L3 33.7778ZM9.28571 29.1111L9.73279 29.7133L10.0357 29.4884V29.1111H9.28571ZM9.28571 21.3333V20.5833H8.53571V21.3333H9.28571ZM18.7143 21.3333V22.0833H19.1757L19.3837 21.6715L18.7143 21.3333ZM21.8571 15.1111L22.2401 14.4663L21.5497 14.0562L21.1877 14.773L21.8571 15.1111ZM29.7143 19.7778L29.3313 20.4226L29.8895 20.7542L30.2976 20.2492L29.7143 19.7778ZM36 12L36.5833 11.5286L36 10.8068L35.4167 11.5286L36 12ZM64.2857 49.3333L64.6687 49.9782L65.2223 49.6494L64.9811 49.0523L64.2857 49.3333ZM61.1429 41.5556L60.6152 41.0225L60.2605 41.3737L60.4475 41.8365L61.1429 41.5556ZM69 33.7778L69.5276 34.3108L70.1484 33.6963L69.4471 33.1756L69 33.7778ZM62.7143 29.1111H61.9643V29.4884L62.2672 29.7133L62.7143 29.1111ZM62.7143 21.3333H63.4643V20.5833H62.7143V21.3333ZM53.2857 21.3333L52.6163 21.6715L52.8243 22.0833H53.2857V21.3333ZM50.1429 15.1111L50.8123 14.773L50.4503 14.0562L49.7599 14.4663L50.1429 15.1111ZM42.2857 19.7778L41.7024 20.2492L42.1105 20.7542L42.6687 20.4226L42.2857 19.7778ZM36 31.125C37.6881 31.125 39.2963 31.8191 40.9468 32.436C41.7409 32.7328 42.561 33.0149 43.3486 33.1212C44.1522 33.2296 44.9794 33.1633 45.7465 32.7071L44.9797 31.4179C44.5927 31.648 44.137 31.714 43.5492 31.6347C42.9454 31.5532 42.2657 31.3276 41.472 31.031C39.947 30.461 38.0277 29.625 36 29.625L36 31.125ZM45.7465 32.7071C46.8452 32.0536 47.882 31.2794 48.8298 30.6034C49.7986 29.9125 50.6733 29.3248 51.5214 28.9585C52.3555 28.5981 53.1102 28.4759 53.8558 28.6566C54.6076 28.8388 55.4597 29.3557 56.4306 30.4882L57.5694 29.5118C56.4689 28.2282 55.3627 27.4784 54.2091 27.1988C53.0494 26.9177 51.9518 27.1386 50.9265 27.5815C49.9152 28.0183 48.9235 28.6941 47.9588 29.3822C46.973 30.0853 46.009 30.8057 44.9797 31.4179L45.7465 32.7071ZM56.4306 30.4882C57.3728 31.5871 57.5955 32.4658 57.5323 33.1405C57.4674 33.8339 57.0865 34.4671 56.5226 35.0324C55.9602 35.5962 55.2666 36.04 54.6959 36.3472C54.4138 36.4991 54.1691 36.6136 53.9967 36.6895C53.9107 36.7273 53.8431 36.7554 53.7984 36.7734C53.776 36.7825 53.7594 36.789 53.749 36.793C53.7439 36.795 53.7403 36.7964 53.7384 36.7971C53.7374 36.7975 53.7368 36.7977 53.7367 36.7977C53.7366 36.7978 53.7367 36.7977 53.7368 36.7977C53.7369 36.7977 53.7371 36.7976 53.7371 36.7976C53.7373 36.7975 53.7376 36.7974 54 37.5C54.2624 38.2026 54.2627 38.2025 54.263 38.2024C54.2632 38.2023 54.2635 38.2022 54.2638 38.2021C54.2644 38.2019 54.2651 38.2016 54.2659 38.2013C54.2675 38.2007 54.2695 38.1999 54.272 38.199C54.2769 38.1971 54.2835 38.1946 54.2917 38.1914C54.3081 38.185 54.3311 38.176 54.3601 38.1643C54.4179 38.1409 54.4997 38.1069 54.6009 38.0624C54.803 37.9735 55.084 37.8418 55.4068 37.6681C56.0459 37.324 56.8791 36.799 57.5846 36.0917C58.2885 35.3861 58.9166 34.4462 59.0258 33.2804C59.1367 32.0959 58.6986 30.829 57.5694 29.5118L56.4306 30.4882ZM54 37.5C53.2731 37.3154 53.2731 37.3155 53.273 37.3155C53.273 37.3156 53.273 37.3157 53.273 37.3158C53.2729 37.316 53.2729 37.3162 53.2728 37.3165C53.2726 37.3172 53.2724 37.318 53.2721 37.3191C53.2716 37.3213 53.2708 37.3243 53.2698 37.3283C53.2678 37.3363 53.2649 37.3479 53.2612 37.3629C53.2537 37.393 53.2429 37.4369 53.2292 37.4933C53.2018 37.6062 53.1629 37.7694 53.1164 37.9728C53.0233 38.3794 52.8993 38.948 52.7753 39.5975C52.5296 40.8835 52.2739 42.535 52.2739 43.875H53.7739C53.7739 42.6838 54.0062 41.1478 54.2486 39.879C54.3686 39.2512 54.4886 38.7007 54.5786 38.3074C54.6235 38.111 54.6609 37.9541 54.6869 37.8469C54.6999 37.7933 54.7101 37.7521 54.7169 37.7247C54.7203 37.7109 54.7229 37.7006 54.7246 37.6939C54.7254 37.6905 54.7261 37.6881 54.7264 37.6865C54.7266 37.6857 54.7268 37.6852 54.7269 37.6849C54.7269 37.6847 54.7269 37.6846 54.7269 37.6846C54.7269 37.6845 54.7269 37.6846 54.7269 37.6845C54.7269 37.6846 54.7269 37.6846 54 37.5ZM52.2739 43.875C52.2739 46.1947 52.1507 48.3032 51.436 50.1976C50.7331 52.0606 49.4376 53.7662 46.989 55.2314L47.7592 56.5186C50.4807 54.89 52.01 52.9256 52.8395 50.7271C53.6571 48.5598 53.7739 46.2152 53.7739 43.875H52.2739ZM46.989 55.2314C45.6906 56.0084 44.6753 56.6651 43.8334 57.1874C42.9814 57.7161 42.3013 58.1109 41.616 58.4104C40.2787 58.995 38.847 59.25 36 59.25L36 60.75C38.9346 60.75 40.605 60.4894 42.2168 59.7849C43.0062 59.4398 43.7624 58.9968 44.6243 58.462C45.4964 57.9209 46.4726 57.2885 47.7592 56.5186L46.989 55.2314ZM36 29.625C33.9724 29.625 32.053 30.461 30.528 31.031C29.7343 31.3276 29.0546 31.5532 28.4508 31.6347C27.863 31.714 27.4073 31.648 27.0203 31.4179L26.2535 32.7071C27.0206 33.1633 27.8478 33.2296 28.6514 33.1212C29.439 33.0149 30.2591 32.7328 31.0532 32.436C32.7037 31.8191 34.3119 31.125 36 31.125L36 29.625ZM27.0203 31.4179C25.9841 30.8016 25.0189 30.0999 24.0301 29.4212C23.0621 28.7568 22.0712 28.1146 21.0603 27.7005C20.0367 27.2812 18.9492 27.0771 17.8022 27.3363C16.6588 27.5948 15.5533 28.2917 14.4482 29.492L15.5518 30.508C16.5181 29.4583 17.3709 28.9716 18.1329 28.7994C18.8912 28.628 19.6559 28.7462 20.4917 29.0885C21.3403 29.4362 22.2157 29.9952 23.1813 30.6579C24.1261 31.3064 25.1617 32.0577 26.2535 32.7071L27.0203 31.4179ZM14.4482 29.492C13.3069 30.7317 12.8623 31.9646 12.9744 33.1414C13.0837 34.29 13.7106 35.2377 14.407 35.9586C15.1074 36.6836 15.9353 37.2395 16.5718 37.6094C16.8931 37.7961 17.1728 37.9396 17.3738 38.0371C17.4745 38.0859 17.5558 38.1234 17.6132 38.1492C17.6419 38.1621 17.6647 38.1721 17.6809 38.1792C17.689 38.1827 17.6955 38.1855 17.7003 38.1876C17.7027 38.1886 17.7047 38.1894 17.7063 38.1901C17.707 38.1904 17.7077 38.1907 17.7082 38.1909C17.7085 38.191 17.7089 38.1912 17.709 38.1912C17.7093 38.1914 17.7096 38.1915 18 37.5C18.2904 36.8085 18.2906 36.8086 18.2908 36.8087C18.2909 36.8087 18.291 36.8088 18.2911 36.8088C18.2912 36.8089 18.2912 36.8089 18.2911 36.8088C18.291 36.8087 18.2904 36.8085 18.2893 36.808C18.2873 36.8072 18.2836 36.8056 18.2784 36.8033C18.2678 36.7987 18.251 36.7914 18.2284 36.7812C18.1832 36.7609 18.1151 36.7295 18.0285 36.6875C17.8551 36.6034 17.6091 36.4773 17.3255 36.3125C16.7522 35.9793 16.0534 35.5039 15.4859 34.9164C14.9144 34.3248 14.5323 33.6788 14.4676 32.9992C14.4056 32.3479 14.6216 31.5183 15.5518 30.508L14.4482 29.492ZM18 37.5C17.2731 37.6846 17.2731 37.6846 17.2731 37.6845C17.2731 37.6846 17.2731 37.6845 17.2731 37.6846C17.2731 37.6846 17.2731 37.6847 17.2731 37.6849C17.2732 37.6852 17.2734 37.6857 17.2736 37.6865C17.2739 37.6881 17.2746 37.6905 17.2754 37.6939C17.2771 37.7006 17.2797 37.7109 17.2831 37.7247C17.2899 37.7521 17.3001 37.7933 17.3131 37.8469C17.3391 37.9541 17.3765 38.111 17.4214 38.3074C17.5114 38.7007 17.6314 39.2512 17.7514 39.879C17.9938 41.1478 18.2261 42.6838 18.2261 43.875H19.7261C19.7261 42.535 19.4704 40.8835 19.2247 39.5975C19.1007 38.948 18.9767 38.3794 18.8836 37.9728C18.8371 37.7694 18.7982 37.6062 18.7708 37.4933C18.7571 37.4369 18.7463 37.393 18.7388 37.3629C18.7351 37.3479 18.7322 37.3363 18.7302 37.3283C18.7292 37.3243 18.7284 37.3213 18.7279 37.3191C18.7276 37.318 18.7274 37.3172 18.7272 37.3165C18.7271 37.3162 18.7271 37.316 18.727 37.3158C18.727 37.3157 18.727 37.3156 18.727 37.3155C18.7269 37.3155 18.7269 37.3154 18 37.5ZM18.2261 43.875C18.2261 46.2152 18.3429 48.5598 19.1605 50.7271C19.99 52.9256 21.5193 54.8901 24.2408 56.5186L25.011 55.2314C22.5624 53.7662 21.2668 52.0606 20.5639 50.1976C19.8492 48.3032 19.7261 46.1947 19.7261 43.875H18.2261ZM24.2408 56.5186C25.5274 57.2885 26.5036 57.9209 27.3758 58.462C28.2377 58.9968 28.9939 59.4399 29.7832 59.7849C31.3951 60.4894 33.0654 60.75 36 60.75L36 59.25C33.153 59.25 31.7213 58.995 30.384 58.4104C29.6988 58.1109 29.0187 57.7161 28.1666 57.1874C27.3248 56.6651 26.3094 56.0084 25.011 55.2314L24.2408 56.5186ZM36 51.75C35.3296 52.0861 35.3297 52.0864 35.3299 52.0867C35.3299 52.0868 35.3301 52.087 35.3302 52.0873C35.3304 52.0877 35.3306 52.0881 35.3308 52.0886C35.3313 52.0895 35.3319 52.0906 35.3325 52.0918C35.3337 52.0943 35.3352 52.0972 35.337 52.1006C35.3405 52.1074 35.3451 52.1162 35.3508 52.1268C35.3621 52.148 35.3778 52.1766 35.3978 52.2115C35.4377 52.2811 35.4952 52.3765 35.5704 52.489C35.72 52.7129 35.9445 53.0116 36.2459 53.3123C36.8449 53.9096 37.7997 54.5625 39.1021 54.5625L39.1021 53.0625C38.3364 53.0625 37.7402 52.6841 37.3052 52.2502C37.0896 52.0352 36.9263 51.8183 36.8174 51.6554C36.7634 51.5746 36.724 51.5089 36.6993 51.4657C36.6869 51.4442 36.6784 51.4285 36.6735 51.4195C36.6711 51.415 36.6697 51.4122 36.6692 51.4112C36.6689 51.4107 36.6689 51.4107 36.6691 51.4111C36.6692 51.4113 36.6694 51.4117 36.6696 51.4121C36.6697 51.4123 36.6699 51.4126 36.67 51.4129C36.6701 51.413 36.6702 51.4133 36.6703 51.4133C36.6704 51.4136 36.6705 51.4138 36 51.75ZM39.1021 54.5625C40.4044 54.5625 41.3592 53.9096 41.9582 53.3123C42.2597 53.0116 42.4841 52.7129 42.6338 52.489C42.709 52.3765 42.7665 52.2811 42.8064 52.2115C42.8264 52.1766 42.842 52.148 42.8534 52.1268C42.859 52.1162 42.8636 52.1074 42.8672 52.1006C42.8689 52.0972 42.8704 52.0943 42.8717 52.0918C42.8723 52.0906 42.8728 52.0895 42.8733 52.0886C42.8736 52.0881 42.8738 52.0877 42.874 52.0873C42.8741 52.087 42.8742 52.0868 42.8743 52.0867C42.8744 52.0864 42.8746 52.0861 42.2041 51.75C41.5336 51.4138 41.5338 51.4136 41.5339 51.4133C41.5339 51.4133 41.5341 51.413 41.5341 51.4129C41.5343 51.4126 41.5344 51.4123 41.5345 51.4121C41.5348 51.4117 41.5349 51.4113 41.535 51.4111C41.5353 51.4107 41.5352 51.4107 41.535 51.4112C41.5345 51.4122 41.533 51.415 41.5306 51.4195C41.5258 51.4285 41.5172 51.4442 41.5049 51.4657C41.4802 51.5089 41.4407 51.5746 41.3867 51.6554C41.2778 51.8183 41.1145 52.0352 40.899 52.2502C40.464 52.6841 39.8678 53.0625 39.1021 53.0625L39.1021 54.5625ZM29.796 51.75C29.1255 52.0861 29.1257 52.0864 29.1258 52.0867C29.1259 52.0868 29.126 52.087 29.1261 52.0873C29.1263 52.0877 29.1265 52.0881 29.1268 52.0886C29.1273 52.0895 29.1278 52.0906 29.1284 52.0918C29.1297 52.0943 29.1312 52.0972 29.1329 52.1006C29.1365 52.1074 29.1411 52.1162 29.1467 52.1268C29.1581 52.148 29.1737 52.1766 29.1937 52.2115C29.2336 52.2811 29.2911 52.3765 29.3663 52.489C29.516 52.7129 29.7404 53.0116 30.0419 53.3123C30.6409 53.9096 31.5957 54.5625 32.898 54.5625L32.898 53.0625C32.1323 53.0625 31.5361 52.6841 31.1011 52.2502C30.8856 52.0352 30.7222 51.8183 30.6134 51.6554C30.5594 51.5746 30.5199 51.5089 30.4952 51.4657C30.4829 51.4442 30.4743 51.4285 30.4695 51.4195C30.4671 51.415 30.4656 51.4122 30.4651 51.4112C30.4649 51.4107 30.4648 51.4107 30.4651 51.4111C30.4652 51.4113 30.4653 51.4117 30.4656 51.4121C30.4657 51.4123 30.4658 51.4126 30.466 51.4129C30.466 51.413 30.4662 51.4133 30.4662 51.4133C30.4663 51.4136 30.4664 51.4138 29.796 51.75ZM32.898 54.5625C34.2004 54.5625 35.1552 53.9096 35.7542 53.3123C36.0556 53.0116 36.2801 52.7129 36.4297 52.489C36.5049 52.3765 36.5624 52.2811 36.6023 52.2115C36.6223 52.1766 36.638 52.148 36.6493 52.1268C36.655 52.1162 36.6596 52.1074 36.6631 52.1006C36.6649 52.0972 36.6664 52.0943 36.6676 52.0918C36.6682 52.0906 36.6688 52.0895 36.6693 52.0886C36.6695 52.0881 36.6697 52.0877 36.6699 52.0873C36.67 52.087 36.6702 52.0868 36.6702 52.0867C36.6704 52.0864 36.6705 52.0861 36 51.75C35.3296 51.4138 35.3297 51.4136 35.3298 51.4133C35.3299 51.4133 35.33 51.413 35.3301 51.4129C35.3302 51.4126 35.3303 51.4123 35.3305 51.4121C35.3307 51.4117 35.3309 51.4113 35.331 51.4111C35.3312 51.4107 35.3312 51.4107 35.3309 51.4112C35.3304 51.4122 35.329 51.415 35.3266 51.4195C35.3217 51.4285 35.3132 51.4442 35.3008 51.4657C35.2761 51.5089 35.2367 51.5746 35.1826 51.6554C35.0738 51.8183 34.9104 52.0352 34.6949 52.2502C34.2599 52.6841 33.6637 53.0625 32.898 53.0625L32.898 54.5625ZM36.75 51.75L36.75 48.6562L35.25 48.6563L35.25 51.75L36.75 51.75ZM43.3153 41.4375C43.3153 42.3883 42.5419 43.1625 41.5837 43.1625V44.6625C43.3666 44.6625 44.8153 43.2205 44.8153 41.4375H43.3153ZM41.5837 43.1625C40.6255 43.1625 39.8521 42.3883 39.8521 41.4375H38.3521C38.3521 43.2205 39.8008 44.6625 41.5837 44.6625V43.1625ZM39.8521 41.4375C39.8521 40.4867 40.6255 39.7125 41.5837 39.7125V38.2125C39.8008 38.2125 38.3521 39.6545 38.3521 41.4375H39.8521ZM41.5837 39.7125C42.5419 39.7125 43.3153 40.4867 43.3153 41.4375H44.8153C44.8153 39.6545 43.3666 38.2125 41.5837 38.2125V39.7125ZM32.148 41.4375C32.148 42.3883 31.3746 43.1625 30.4163 43.1625V44.6625C32.1992 44.6625 33.648 43.2205 33.648 41.4375H32.148ZM30.4163 43.1625C29.4581 43.1625 28.6847 42.3883 28.6847 41.4375H27.1847C27.1847 43.2205 28.6335 44.6625 30.4163 44.6625V43.1625ZM28.6847 41.4375C28.6847 40.4867 29.4581 39.7125 30.4163 39.7125V38.2125C28.6335 38.2125 27.1847 39.6545 27.1847 41.4375H28.6847ZM30.4163 39.7125C31.3746 39.7125 32.148 40.4867 32.148 41.4375H33.648C33.648 39.6545 32.1992 38.2125 30.4163 38.2125V39.7125ZM15.9544 53.3552L8.09728 48.6885L7.33129 49.9782L15.1884 54.6448L15.9544 53.3552ZM8.40966 49.6143L11.5525 41.8365L10.1618 41.2746L7.01891 49.0523L8.40966 49.6143ZM11.3848 41.0225L3.52763 33.2448L2.47237 34.3108L10.3295 42.0886L11.3848 41.0225ZM3.44708 34.38L9.73279 29.7133L8.83864 28.5089L2.55292 33.1756L3.44708 34.38ZM10.0357 29.1111V21.3333H8.53571V29.1111H10.0357ZM9.28571 22.0833H18.7143V20.5833H9.28571V22.0833ZM19.3837 21.6715L22.5266 15.4493L21.1877 14.773L18.0448 20.9952L19.3837 21.6715ZM21.4741 15.7559L29.3313 20.4226L30.0973 19.1329L22.2401 14.4663L21.4741 15.7559ZM30.2976 20.2492L36.5833 12.4714L35.4167 11.5286L29.131 19.3064L30.2976 20.2492ZM56.8116 54.6448L64.6687 49.9782L63.9027 48.6885L56.0456 53.3552L56.8116 54.6448ZM64.9811 49.0523L61.8382 41.2746L60.4475 41.8365L63.5903 49.6143L64.9811 49.0523ZM61.6705 42.0886L69.5276 34.3108L68.4724 33.2448L60.6152 41.0225L61.6705 42.0886ZM69.4471 33.1756L63.1614 28.5089L62.2672 29.7133L68.5529 34.38L69.4471 33.1756ZM63.4643 29.1111V21.3333H61.9643V29.1111H63.4643ZM62.7143 20.5833H53.2857V22.0833H62.7143V20.5833ZM53.9552 20.9952L50.8123 14.773L49.4734 15.4493L52.6163 21.6715L53.9552 20.9952ZM49.7599 14.4663L41.9027 19.1329L42.6687 20.4226L50.5259 15.7559L49.7599 14.4663ZM42.869 19.3064L36.5833 11.5286L35.4167 12.4714L41.7024 20.2492L42.869 19.3064Z" fill="#4D4DAA"/>
</svg>
