<svg width="72" height="72" viewBox="0 0 72 72" fill="none" xmlns="http://www.w3.org/2000/svg">
<path d="M27 19.5001C27 19.5001 30.433 18.9279 32.6327 18.5613M32.6327 18.5613C33.9477 18.3421 34.6668 18.0001 36 18.0001C37.3331 18.0001 38.0523 18.3421 39.3673 18.5612M32.6327 18.5613C24.0001 15.0001 24.0001 12.7519 18 13.5001C13.1775 14.1014 1.87975 29.7964 2.99999 34.5001C4.5 42 8.61336 41.2686 12 45C14.7228 48 16.5 51 19.5 52.5C22.5 54.0001 26.1973 54.0615 26.1973 54.0615M21 21.0001C21 21.0001 22.5 22.6902 22.5 24.0001C22.5 25.5 19.1692 30 19.5 36C19.8549 42.4379 27 49.5 27 49.5M27 49.5C25.4056 54.2831 26.4375 62.3982 26.4375 62.3982L31.5 52.5M27 49.5C27.129 49.113 27.2469 48.7148 27.3547 48.3104M28.5 39.0001C28.5 39.0001 28.5 44.0123 27.3547 48.3104M31.5 52.5L27.3547 48.3104M31.5 52.5L33 69M45 19.5C45 19.5 41.567 18.9279 39.3673 18.5612M39.3673 18.5612C47.9999 15 47.9999 12.7518 54 13.5C58.8225 14.1014 70.1202 29.7964 69 34.5C67.5 42 63.3866 41.2686 60 45C57.2772 48 55.5 51 52.5 52.5C49.5 54 45.8027 54.0615 45.8027 54.0615M51 21C51 21 49.5 22.6902 49.5 24C49.5 25.5 52.8308 30 52.5 36C52.1451 42.4378 45 49.5 45 49.5M45 49.5C46.5944 54.2831 45.5625 62.3981 45.5625 62.3981L40.5 52.5M45 49.5C44.871 49.1129 44.753 48.7148 44.6453 48.3103M43.5 39C43.5 39 43.5 44.0122 44.6453 48.3103M40.5 52.5L44.6453 48.3103M40.5 52.5L39 69M31.5 31.5C31.5 33.1569 30.1569 34.5 28.5 34.5C26.8431 34.5 25.5 33.1569 25.5 31.5C25.5 29.8431 26.8431 28.5 28.5 28.5C30.1569 28.5 31.5 29.8431 31.5 31.5ZM40.5 31.5C40.5 33.1569 41.8431 34.5 43.5 34.5C45.1569 34.5 46.5 33.1569 46.5 31.5C46.5 29.8431 45.1569 28.5 43.5 28.5C41.8431 28.5 40.5 29.8431 40.5 31.5Z" stroke="#4D4DAA" stroke-width="1.5" stroke-linecap="round" stroke-linejoin="round"/>
</svg>
