<svg width="72" height="72" viewBox="0 0 72 72" fill="none" xmlns="http://www.w3.org/2000/svg">
<path d="M19.5 37.5C19.5 38.4162 19.5 39.4581 19.5 40.5C19.5 41.5929 20.0972 43.6811 20.929 46.0394M19.5 37.5C19.5 35.7781 19.5 34.5 19.5 34.5L19.7483 29.1655M19.5 37.5C19.5 37.5 16.5 33 15 31.5C13.5 30 9 27 9 27C9 27 12 36 13.5 39C15 42 20.929 46.0394 20.929 46.0394M20.929 46.0394C22.3806 50.1548 24.5465 55.0929 25.5 57C26.9999 60 34.5 64.5 36 64.5C37.5 64.5 45.0001 60 46.5 57C47.4535 55.0929 49.6194 50.1548 51.071 46.0394M34.5 21L31.5 13.5L34.5 6H36H37.5L40.5 13.5L37.5 21M33.8334 9.33283L30 6L24 9L25.5 16.5L31.5 24M24 10.5L18 16.5L22.5 21L25.5 22.5M24 25.5L18 24L17.0301 22.0602M19.5 18L16.5 21L17.0301 22.0602M21 30L19.7483 29.1655M17.0301 22.0602L15 25.5L16.5 27L19.7483 29.1655M28.5 27L31.5 31.5L36 36M36 36L40.5 31.5L43.5 27M36 36V39M52.5 37.5C52.5 38.4162 52.5 39.4581 52.5 40.5C52.5 41.5929 51.9028 43.6811 51.071 46.0394M52.5 37.5C52.5 35.7781 52.5 34.5 52.5 34.5L52.2517 29.1655M52.5 37.5C52.5 37.5 55.5 33 57 31.5C58.5 30 63 27 63 27C63 27 60 36 58.5 39C57 42 51.071 46.0394 51.071 46.0394M38.1666 9.33283L42 6L48 9L46.5 16.5L40.5 24M48 10.5L54 16.5L49.5 21L46.5 22.5M48 25.5L54 24L54.9699 22.0602M52.5 18L55.5 21L54.9699 22.0602M51 30L52.2517 29.1655M54.9699 22.0602L57 25.5L55.5 27L52.2517 29.1655M30 54C30 54 33.8879 55.5 36 55.5C38.1121 55.5 42 54 42 54M31.5 39C31.5 40.6569 30.1569 42 28.5 42C26.8431 42 25.5 40.6569 25.5 39C25.5 37.3431 26.8431 36 28.5 36C30.1569 36 31.5 37.3431 31.5 39ZM40.5 39C40.5 40.6569 41.8431 42 43.5 42C45.1569 42 46.5 40.6569 46.5 39C46.5 37.3431 45.1569 36 43.5 36C41.8431 36 40.5 37.3431 40.5 39Z" stroke="#4D4DAA" stroke-width="1.5" stroke-linecap="round" stroke-linejoin="round"/>
</svg>
