<svg width="72" height="72" viewBox="0 0 72 72" fill="none" xmlns="http://www.w3.org/2000/svg">
<path d="M33 16.9091L33 17.6591L33 16.9091ZM46.5827 19.3636L46.1985 18.7194L46.5827 19.3636ZM62.635 12L63.2719 11.604C63.0835 11.3009 62.7075 11.1726 62.3731 11.2972L62.635 12ZM62.635 20.5909L63.3464 20.8282L62.635 20.5909ZM51.0551 21.2311C50.7309 21.4889 50.677 21.9607 50.9348 22.285C51.1926 22.6092 51.6644 22.663 51.9886 22.4052L51.0551 21.2311ZM54.5054 27.7473C54.391 28.1454 54.6209 28.5609 55.019 28.6754C55.4171 28.7898 55.8326 28.5598 55.947 28.1618L54.5054 27.7473ZM33 60L33 59.25L33 60ZM19.4172 19.3636L19.8014 18.7194L19.4172 19.3636ZM3.36492 12L3.62685 11.2972C3.29239 11.1726 2.91641 11.3009 2.72797 11.604L3.36492 12ZM3.36492 20.5909L2.65346 20.8282L3.36492 20.5909ZM14.0113 22.4052C14.3355 22.663 14.8073 22.6092 15.0651 22.285C15.3229 21.9607 15.269 21.4889 14.9448 21.2311L14.0113 22.4052ZM10.0529 28.1618C10.1673 28.5598 10.5828 28.7898 10.9809 28.6754C11.379 28.5609 11.6089 28.1454 11.4945 27.7473L10.0529 28.1618ZM42.6708 48.3354C42.8561 47.9649 42.7059 47.5144 42.3354 47.3291C41.9649 47.1439 41.5144 47.2941 41.3292 47.6646L42.6708 48.3354ZM24.6708 47.6646C24.4856 47.2941 24.0351 47.1439 23.6646 47.3291C23.2941 47.5144 23.144 47.9649 23.3292 48.3354L24.6708 47.6646ZM33 17.6591C35.5249 17.6591 37.9276 18.7006 40.2939 19.5874C41.4457 20.0191 42.6039 20.4167 43.7053 20.5657C44.8228 20.7168 45.9395 20.6204 46.9668 20.0078L46.1985 18.7194C45.5517 19.1052 44.8073 19.2011 43.9064 19.0792C42.9893 18.9552 41.9718 18.6144 40.8203 18.1828C38.5799 17.3432 35.8653 16.1591 33 16.1591L33 17.6591ZM46.9668 20.0078C50.009 18.1936 53.9842 16.3686 57.218 14.9911C58.831 14.3041 60.2522 13.7314 61.2698 13.3306C61.7786 13.1303 62.1862 12.973 62.4663 12.866C62.6063 12.8124 62.7144 12.7715 62.7873 12.744C62.8237 12.7302 62.8514 12.7198 62.8698 12.7129C62.879 12.7095 62.8859 12.7069 62.8904 12.7052C62.8927 12.7044 62.8944 12.7037 62.8955 12.7033C62.896 12.7031 62.8964 12.703 62.8966 12.7029C62.8968 12.7028 62.8968 12.7028 62.8969 12.7028C62.8969 12.7028 62.8969 12.7028 62.635 12C62.3731 11.2972 62.373 11.2973 62.3729 11.2973C62.3728 11.2973 62.3726 11.2974 62.3724 11.2975C62.3721 11.2976 62.3716 11.2978 62.3709 11.298C62.3696 11.2985 62.3677 11.2992 62.3652 11.3002C62.3602 11.302 62.3528 11.3048 62.3432 11.3084C62.3238 11.3157 62.2952 11.3264 62.2578 11.3405C62.183 11.3688 62.0728 11.4105 61.9307 11.4648C61.6464 11.5735 61.234 11.7326 60.7202 11.935C59.6927 12.3396 58.2585 12.9175 56.6302 13.6111C53.3813 14.995 49.3304 16.8518 46.1985 18.7194L46.9668 20.0078ZM62.635 12C61.998 12.396 61.9978 12.3956 61.9976 12.3952C61.9975 12.3951 61.9973 12.3947 61.9971 12.3945C61.9969 12.3941 61.9966 12.3937 61.9964 12.3933C61.996 12.3926 61.9956 12.3921 61.9954 12.3917C61.995 12.391 61.995 12.391 61.9954 12.3917C61.9962 12.3931 61.9987 12.3973 62.0027 12.4044C62.0107 12.4185 62.0246 12.4438 62.0432 12.4803C62.0804 12.5532 62.1361 12.6707 62.1998 12.8318C62.3271 13.1539 62.4866 13.6513 62.5939 14.318C62.8077 15.6469 62.8179 17.6724 61.9235 20.3536L63.3464 20.8282C64.3171 17.9185 64.3272 15.6485 64.0748 14.0797C63.949 13.2976 63.7588 12.6955 63.5947 12.2804C63.5127 12.073 63.4373 11.9123 63.3798 11.7994C63.351 11.7429 63.3267 11.6983 63.3082 11.6657C63.299 11.6494 63.2913 11.6361 63.2852 11.6259C63.2821 11.6207 63.2795 11.6163 63.2773 11.6127C63.2761 11.6109 63.2752 11.6092 63.2743 11.6078C63.2738 11.6071 63.2734 11.6064 63.273 11.6058C63.2728 11.6055 63.2726 11.605 63.2725 11.6049C63.2722 11.6044 63.2719 11.604 62.635 12ZM61.9235 20.3536C61.622 21.2576 61.1657 22.4695 60.6431 23.8555C60.1229 25.235 59.541 26.7767 58.9972 28.3196C58.4538 29.8616 57.9443 31.4166 57.5699 32.8246C57.1992 34.2192 56.9458 35.5237 56.9458 36.5455H58.4458C58.4458 35.7263 58.6563 34.5765 59.0196 33.21C59.3793 31.857 59.8742 30.3442 60.412 28.8182C60.9494 27.2933 61.5254 25.7669 62.0466 24.3848C62.5653 23.0092 63.0336 21.7661 63.3464 20.8282L61.9235 20.3536ZM56.9458 36.5455C56.9458 39.9243 56.7687 43.0451 55.7084 45.8629C54.66 48.6493 52.7275 51.1888 49.1141 53.3569L49.8858 54.6431C53.7724 52.3112 55.9378 49.5124 57.1123 46.3911C58.275 43.3011 58.4458 39.9447 58.4458 36.5455H56.9458ZM51.9886 22.4052C52.9219 21.6632 54.5751 20.8723 56.0207 20.3885C56.7425 20.147 57.3573 20.0009 57.7649 19.965C57.9816 19.9459 58.0594 19.9661 58.0516 19.9635C58.0405 19.9599 57.9618 19.9329 57.8822 19.8429C57.79 19.7386 57.75 19.6098 57.75 19.5H59.25C59.25 19.2675 59.1715 19.0366 59.0062 18.8496C58.8536 18.6769 58.6672 18.5866 58.5175 18.5377C58.2325 18.4446 57.9099 18.4464 57.6332 18.4708C57.0539 18.5218 56.3101 18.7099 55.5446 18.9661C54.0157 19.4777 52.1798 20.3368 51.0551 21.2311L51.9886 22.4052ZM57.75 19.5C57.75 19.4909 57.7505 19.5116 57.7376 19.5744C57.7255 19.6332 57.7055 19.7109 57.6755 19.8095C57.6154 20.0072 57.5247 20.2578 57.4065 20.5573C57.1702 21.1563 56.8446 21.8996 56.4849 22.7206C55.7766 24.3369 54.9339 26.2567 54.5054 27.7473L55.947 28.1618C56.3417 26.7887 57.1359 24.9721 57.8587 23.3226C58.2145 22.5106 58.553 21.7385 58.8019 21.1078C58.9263 20.7923 59.0335 20.4993 59.1106 20.246C59.1816 20.0125 59.25 19.7419 59.25 19.5H57.75ZM49.1141 53.3569C47.2332 54.4854 45.7691 55.4351 44.5411 56.1991C43.3028 56.9695 42.299 57.5547 41.2816 58.0006C39.28 58.8778 37.1496 59.25 33 59.25L33 60.75C37.2375 60.75 39.6071 60.3722 41.8837 59.3744C43.0054 58.8828 44.0854 58.2492 45.3334 57.4728C46.5918 56.6899 48.0168 55.7646 49.8858 54.6431L49.1141 53.3569ZM33 16.1591C30.1346 16.1591 27.4201 17.3432 25.1796 18.1828C24.0281 18.6144 23.0106 18.9552 22.0935 19.0792C21.1926 19.2011 20.4482 19.1052 19.8014 18.7194L19.0331 20.0078C20.0604 20.6204 21.1772 20.7168 22.2946 20.5657C23.396 20.4167 24.5542 20.0191 25.706 19.5874C28.0723 18.7006 30.475 17.6591 33 17.6591L33 16.1591ZM19.8014 18.7194C16.6696 16.8518 12.6186 14.995 9.36975 13.6111C7.74144 12.9175 6.30717 12.3396 5.27969 11.935C4.76586 11.7326 4.35353 11.5735 4.06924 11.4648C3.92709 11.4105 3.81694 11.3688 3.74211 11.3405C3.70469 11.3264 3.6761 11.3157 3.65676 11.3084C3.64708 11.3048 3.63972 11.302 3.63472 11.3002C3.63222 11.2992 3.63031 11.2985 3.62899 11.298C3.62834 11.2978 3.62783 11.2976 3.62747 11.2975C3.6273 11.2974 3.62714 11.2973 3.62705 11.2973C3.62693 11.2973 3.62685 11.2972 3.36492 12C3.10298 12.7028 3.10298 12.7028 3.10301 12.7028C3.10307 12.7028 3.10314 12.7028 3.10327 12.7029C3.10351 12.703 3.1039 12.7031 3.10445 12.7033C3.10553 12.7037 3.10722 12.7044 3.10949 12.7052C3.11403 12.7069 3.12093 12.7095 3.13013 12.7129C3.14855 12.7198 3.17618 12.7302 3.21262 12.744C3.2855 12.7715 3.39361 12.8124 3.53363 12.866C3.81369 12.973 4.22133 13.1303 4.73006 13.3306C5.74771 13.7314 7.1689 14.3041 8.78192 14.9911C12.0157 16.3686 15.9909 18.1936 19.0331 20.0078L19.8014 18.7194ZM3.36492 12C2.72797 11.604 2.72771 11.6044 2.72745 11.6049C2.72735 11.605 2.72708 11.6055 2.72689 11.6058C2.7265 11.6064 2.72608 11.6071 2.72564 11.6078C2.72476 11.6092 2.72376 11.6109 2.72265 11.6127C2.72044 11.6163 2.7178 11.6207 2.71474 11.6259C2.70864 11.6361 2.70089 11.6494 2.69167 11.6657C2.67323 11.6983 2.64892 11.7429 2.62015 11.7994C2.5626 11.9123 2.48717 12.073 2.40517 12.2804C2.2411 12.6955 2.05092 13.2976 1.92508 14.0797C1.67266 15.6485 1.68286 17.9185 2.65346 20.8282L4.07638 20.3536C3.18201 17.6724 3.1922 15.6469 3.40603 14.318C3.51331 13.6513 3.67281 13.1539 3.80015 12.8318C3.86384 12.6707 3.91954 12.5532 3.9567 12.4803C3.97528 12.4438 3.98922 12.4185 3.99719 12.4044C4.00118 12.3973 4.00367 12.3931 4.00451 12.3917C4.00493 12.391 4.00493 12.391 4.0045 12.3917C4.00428 12.3921 4.00396 12.3926 4.00352 12.3933C4.0033 12.3937 4.00305 12.3941 4.00278 12.3945C4.00264 12.3947 4.00242 12.3951 4.00235 12.3952C4.00211 12.3956 4.00187 12.396 3.36492 12ZM2.65346 20.8282C2.9663 21.7661 3.43464 23.0092 3.95331 24.3848C4.47447 25.7669 5.05053 27.2933 5.58795 28.8182C6.12574 30.3442 6.6206 31.857 6.98033 33.21C7.34364 34.5765 7.55409 35.7263 7.55409 36.5455H9.05409C9.05409 35.5237 8.80074 34.2192 8.42997 32.8246C8.0556 31.4166 7.54608 29.8616 7.00267 28.3196C6.4589 26.7767 5.87698 25.235 5.35684 23.8555C4.83422 22.4695 4.37795 21.2576 4.07638 20.3536L2.65346 20.8282ZM7.55409 36.5455C7.55409 39.9447 7.72485 43.3011 8.88753 46.3911C10.062 49.5125 12.2275 52.3112 16.1141 54.6431L16.8858 53.3569C13.2723 51.1888 11.3399 48.6493 10.2914 45.8629C9.23121 43.0451 9.05409 39.9243 9.05409 36.5455H7.55409ZM14.9448 21.2311C13.8201 20.3368 11.9842 19.4777 10.4553 18.9661C9.6898 18.7099 8.94601 18.5218 8.36669 18.4708C8.09 18.4464 7.7674 18.4446 7.48242 18.5377C7.33275 18.5866 7.14633 18.6769 6.9937 18.8496C6.82844 19.0366 6.74994 19.2675 6.74994 19.5H8.24994C8.24994 19.6098 8.20989 19.7386 8.1177 19.8429C8.03815 19.9329 7.95944 19.9599 7.94833 19.9635C7.94046 19.9661 8.01832 19.9459 8.23505 19.965C8.64256 20.0009 9.25743 20.147 9.97924 20.3885C11.4249 20.8723 13.078 21.6632 14.0113 22.4052L14.9448 21.2311ZM6.74994 19.5C6.74994 19.7419 6.81829 20.0125 6.88931 20.246C6.96638 20.4993 7.07358 20.7923 7.19804 21.1078C7.44689 21.7385 7.78536 22.5106 8.14117 23.3226C8.86397 24.9721 9.65816 26.7887 10.0529 28.1618L11.4945 27.7473C11.066 26.2567 10.2233 24.3369 9.51506 22.7206C9.15533 21.8996 8.82972 21.1563 8.59337 20.5573C8.47523 20.2578 8.38455 20.0072 8.32439 19.8095C8.29441 19.7109 8.2744 19.6332 8.26234 19.5744C8.24943 19.5116 8.24994 19.4909 8.24994 19.5H6.74994ZM16.1141 54.6431C17.9832 55.7646 19.4082 56.6899 20.6665 57.4728C21.9146 58.2492 22.9946 58.8828 24.1162 59.3744C26.3928 60.3722 28.7624 60.75 33 60.75L33 59.25C28.8503 59.25 26.7199 58.8778 24.7183 58.0006C23.7009 57.5547 22.6972 56.9695 21.4589 56.1991C20.2309 55.4351 18.7668 54.4854 16.8858 53.3569L16.1141 54.6431ZM33 48C32.3292 48.3354 32.3293 48.3356 32.3295 48.3359C32.3295 48.336 32.3297 48.3363 32.3298 48.3366C32.33 48.337 32.3303 48.3375 32.3305 48.338C32.3311 48.3391 32.3317 48.3404 32.3324 48.3418C32.3339 48.3447 32.3357 48.3483 32.338 48.3526C32.3424 48.3611 32.3483 48.3726 32.3558 48.3866C32.3708 48.4147 32.3919 48.4533 32.4192 48.501C32.4736 48.5962 32.5529 48.7282 32.6572 48.8847C32.8651 49.1965 33.1768 49.6124 33.5947 50.0303C34.4264 50.862 35.731 51.75 37.5 51.75L37.5 50.25C36.2691 50.25 35.3236 49.6379 34.6554 48.9696C34.3233 48.6375 34.0725 48.3034 33.9053 48.0527C33.8221 47.9279 33.7608 47.8256 33.7215 47.7568C33.7019 47.7224 33.6878 47.6966 33.6794 47.6807C33.6751 47.6728 33.6723 47.6673 33.6709 47.6646C33.6702 47.6632 33.6698 47.6625 33.6698 47.6625C33.6698 47.6625 33.6699 47.6627 33.6701 47.663C33.6701 47.6632 33.6703 47.6634 33.6704 47.6636C33.6705 47.6638 33.6706 47.664 33.6706 47.6641C33.6707 47.6643 33.6708 47.6646 33 48ZM37.5 51.75C39.2691 51.75 40.5736 50.862 41.4054 50.0303C41.8233 49.6124 42.135 49.1965 42.3428 48.8847C42.4471 48.7282 42.5265 48.5962 42.5809 48.501C42.6081 48.4533 42.6292 48.4147 42.6442 48.3866C42.6517 48.3726 42.6577 48.3611 42.6621 48.3526C42.6643 48.3483 42.6661 48.3447 42.6676 48.3418C42.6683 48.3404 42.669 48.3391 42.6695 48.338C42.6698 48.3375 42.67 48.337 42.6702 48.3366C42.6704 48.3363 42.6705 48.336 42.6706 48.3359C42.6707 48.3356 42.6708 48.3354 42 48C41.3292 47.6646 41.3293 47.6643 41.3294 47.6641C41.3295 47.664 41.3296 47.6638 41.3297 47.6636C41.3298 47.6634 41.3299 47.6632 41.33 47.663C41.3302 47.6627 41.3302 47.6625 41.3302 47.6625C41.3302 47.6625 41.3299 47.6632 41.3292 47.6646C41.3277 47.6673 41.3249 47.6728 41.3207 47.6807C41.3122 47.6966 41.2982 47.7224 41.2785 47.7568C41.2392 47.8256 41.1779 47.9279 41.0947 48.0527C40.9276 48.3034 40.6768 48.6375 40.3447 48.9696C39.6764 49.6379 38.731 50.25 37.5 50.25L37.5 51.75ZM24 48C23.3292 48.3354 23.3293 48.3356 23.3295 48.3359C23.3295 48.336 23.3297 48.3363 23.3298 48.3366C23.33 48.337 23.3303 48.3375 23.3305 48.338C23.3311 48.3391 23.3317 48.3404 23.3324 48.3418C23.3339 48.3447 23.3357 48.3483 23.338 48.3526C23.3424 48.3611 23.3483 48.3726 23.3558 48.3866C23.3708 48.4147 23.3919 48.4533 23.4192 48.501C23.4736 48.5962 23.5529 48.7282 23.6572 48.8847C23.8651 49.1965 24.1768 49.6124 24.5947 50.0303C25.4264 50.862 26.731 51.75 28.5 51.75L28.5 50.25C27.2691 50.25 26.3236 49.6379 25.6554 48.9696C25.3233 48.6375 25.0725 48.3034 24.9053 48.0527C24.8221 47.9279 24.7608 47.8256 24.7215 47.7568C24.7019 47.7224 24.6878 47.6966 24.6794 47.6807C24.6751 47.6728 24.6723 47.6673 24.6709 47.6646C24.6702 47.6632 24.6698 47.6625 24.6698 47.6625C24.6698 47.6625 24.6699 47.6627 24.6701 47.663C24.6701 47.6632 24.6703 47.6634 24.6704 47.6636C24.6705 47.6638 24.6706 47.664 24.6706 47.6641C24.6707 47.6643 24.6708 47.6646 24 48ZM28.5 51.75C30.2691 51.75 31.5736 50.862 32.4054 50.0303C32.8233 49.6124 33.135 49.1965 33.3428 48.8847C33.4471 48.7282 33.5265 48.5962 33.5809 48.501C33.6081 48.4533 33.6292 48.4147 33.6442 48.3866C33.6517 48.3726 33.6577 48.3611 33.6621 48.3526C33.6643 48.3483 33.6661 48.3447 33.6676 48.3418C33.6683 48.3404 33.669 48.3391 33.6695 48.338C33.6698 48.3375 33.67 48.337 33.6702 48.3366C33.6704 48.3363 33.6705 48.336 33.6706 48.3359C33.6707 48.3356 33.6708 48.3354 33 48C32.3292 47.6646 32.3293 47.6643 32.3294 47.6641C32.3295 47.664 32.3296 47.6638 32.3297 47.6636C32.3298 47.6634 32.3299 47.6632 32.33 47.663C32.3302 47.6627 32.3302 47.6625 32.3302 47.6625C32.3302 47.6625 32.3299 47.6632 32.3292 47.6646C32.3277 47.6673 32.3249 47.6728 32.3207 47.6807C32.3122 47.6966 32.2982 47.7224 32.2785 47.7568C32.2392 47.8256 32.1779 47.9279 32.0947 48.0527C31.9276 48.3034 31.6768 48.6375 31.3447 48.9696C30.6764 49.6379 29.731 50.25 28.5 50.25L28.5 51.75ZM33.75 48L33.7499 43.5L32.2499 43.5L32.25 48L33.75 48ZM43.95 33C43.95 34.574 42.674 35.85 41.1 35.85V37.35C43.5025 37.35 45.45 35.4024 45.45 33H43.95ZM41.1 35.85C39.526 35.85 38.25 34.574 38.25 33H36.75C36.75 35.4024 38.6976 37.35 41.1 37.35V35.85ZM38.25 33C38.25 31.426 39.526 30.15 41.1 30.15V28.65C38.6976 28.65 36.75 30.5975 36.75 33H38.25ZM41.1 30.15C42.674 30.15 43.95 31.426 43.95 33H45.45C45.45 30.5975 43.5025 28.65 41.1 28.65V30.15ZM27.7499 33C27.7499 34.574 26.474 35.85 24.8999 35.85V37.35C27.3024 37.35 29.2499 35.4024 29.2499 33H27.7499ZM24.8999 35.85C23.3259 35.85 22.0499 34.574 22.0499 33H20.5499C20.5499 35.4024 22.4975 37.35 24.8999 37.35V35.85ZM22.0499 33C22.0499 31.426 23.3259 30.15 24.8999 30.15V28.65C22.4975 28.65 20.5499 30.5976 20.5499 33H22.0499ZM24.8999 30.15C26.474 30.15 27.7499 31.426 27.7499 33H29.2499C29.2499 30.5976 27.3024 28.65 24.8999 28.65V30.15Z" fill="#4D4DAA"/>
</svg>
