<svg width="72" height="72" viewBox="0 0 72 72" fill="none" xmlns="http://www.w3.org/2000/svg">
<path d="M42.4154 62.3765C42.8166 62.2736 43.0585 61.8649 42.9556 61.4637C42.8526 61.0624 42.444 60.8206 42.0427 60.9235L42.4154 62.3765ZM31.9156 60.9235C31.5143 60.8206 31.1057 61.0624 31.0027 61.4637C30.8998 61.8649 31.1417 62.2736 31.5429 62.3765L31.9156 60.9235ZM56.6357 38.6782C56.458 38.304 56.0106 38.1448 55.6364 38.3226C55.2623 38.5003 55.1031 38.9477 55.2808 39.3218L56.6357 38.6782ZM18.6775 39.3218C18.8552 38.9477 18.696 38.5003 18.3219 38.3226C17.9477 38.1448 17.5003 38.304 17.3226 38.6782L18.6775 39.3218ZM45.7158 35.2978C45.328 35.4432 45.1315 35.8755 45.2769 36.2633C45.4223 36.6512 45.8547 36.8477 46.2425 36.7022L45.7158 35.2978ZM55.5648 2.53148C55.306 2.20803 54.8341 2.15559 54.5106 2.41435C54.1872 2.67311 54.1347 3.14507 54.3935 3.46852L55.5648 2.53148ZM50.4792 18L49.7676 17.7628L49.7676 17.7628L50.4792 18ZM50.9316 16.1267L50.1914 16.0062L50.1914 16.0062L50.9316 16.1267ZM51.2068 7.3181C51.1063 6.91625 50.6991 6.67193 50.2973 6.77239C49.8954 6.87285 49.6511 7.28006 49.7515 7.6819L51.2068 7.3181ZM54.6641 18.6806C55.04 18.8546 55.4858 18.6909 55.6598 18.315C55.8338 17.9391 55.6701 17.4933 55.2942 17.3194L54.6641 18.6806ZM44.0631 24.876C43.7185 25.1057 43.6254 25.5714 43.8551 25.916C44.0849 26.2607 44.5505 26.3538 44.8952 26.124L44.0631 24.876ZM48.0049 22.252L47.4304 21.7699L48.0049 22.252ZM51.5045 26.0807C51.8253 26.3428 52.2978 26.2953 52.5599 25.9746C52.822 25.6539 52.7745 25.1814 52.4538 24.9193L51.5045 26.0807ZM25.4776 36.7022C25.8654 36.8477 26.2977 36.6512 26.4432 36.2633C26.5886 35.8755 26.3921 35.4432 26.0043 35.2978L25.4776 36.7022ZM17.3266 3.46852C17.5853 3.14507 17.5329 2.67311 17.2094 2.41435C16.886 2.15559 16.414 2.20803 16.1553 2.53148L17.3266 3.46852ZM21.2409 18L21.9524 17.7628L21.9524 17.7628L21.2409 18ZM20.7885 16.1267L21.5287 16.0062L21.5287 16.0062L20.7885 16.1267ZM21.9685 7.6819C22.069 7.28006 21.8247 6.87285 21.4228 6.77239C21.021 6.67193 20.6138 6.91625 20.5133 7.3181L21.9685 7.6819ZM16.4259 17.3194C16.05 17.4933 15.8863 17.9391 16.0603 18.315C16.2343 18.6909 16.68 18.8546 17.0559 18.6806L16.4259 17.3194ZM26.8249 26.124C27.1696 26.3538 27.6352 26.2607 27.865 25.916C28.0947 25.5714 28.0016 25.1057 27.657 24.876L26.8249 26.124ZM23.7152 22.252L24.2897 21.7699L23.7152 22.252ZM19.2663 24.9193C18.9456 25.1814 18.8981 25.6539 19.1602 25.9746C19.4223 26.2953 19.8948 26.3428 20.2155 26.0807L19.2663 24.9193ZM42.0427 60.9235C40.5212 61.3137 40.0074 61.95 36.9791 61.95L36.9791 63.45C40.2509 63.45 41.2753 62.6689 42.4154 62.3765L42.0427 60.9235ZM31.5429 62.3765C32.683 62.6689 33.7074 63.45 36.9791 63.45L36.9791 61.95C33.9509 61.95 33.4371 61.3137 31.9156 60.9235L31.5429 62.3765ZM33.0792 44.85C33.0792 46.1755 32.0046 47.25 30.6792 47.25V48.75C32.8331 48.75 34.5792 47.0039 34.5792 44.85H33.0792ZM30.6792 47.25C29.3537 47.25 28.2792 46.1755 28.2792 44.85H26.7792C26.7792 47.0039 28.5252 48.75 30.6792 48.75V47.25ZM28.2792 44.85C28.2792 43.5245 29.3537 42.45 30.6792 42.45V40.95C28.5252 40.95 26.7792 42.6961 26.7792 44.85H28.2792ZM30.6792 42.45C32.0046 42.45 33.0792 43.5245 33.0792 44.85H34.5792C34.5792 42.6961 32.8331 40.95 30.6792 40.95V42.45ZM45.6792 44.85C45.6792 46.1755 44.6046 47.25 43.2792 47.25V48.75C45.4331 48.75 47.1792 47.0039 47.1792 44.85H45.6792ZM43.2792 47.25C41.9537 47.25 40.8792 46.1755 40.8792 44.85H39.3792C39.3792 47.0039 41.1253 48.75 43.2792 48.75V47.25ZM40.8792 44.85C40.8792 43.5245 41.9537 42.45 43.2792 42.45V40.95C41.1253 40.95 39.3792 42.6961 39.3792 44.85H40.8792ZM43.2792 42.45C44.6046 42.45 45.6792 43.5245 45.6792 44.85H47.1792C47.1792 42.6961 45.4331 40.95 43.2792 40.95V42.45ZM57.2292 48C57.2292 59.1838 48.1629 68.25 36.9792 68.25V69.75C48.9914 69.75 58.7292 60.0122 58.7292 48H57.2292ZM36.9792 68.25C25.7954 68.25 16.7292 59.1838 16.7292 48H15.2292C15.2292 60.0122 24.967 69.75 36.9792 69.75V68.25ZM55.2808 39.3218C56.5299 41.9512 57.2292 44.8929 57.2292 48H58.7292C58.7292 44.6655 57.9783 41.5044 56.6357 38.6782L55.2808 39.3218ZM16.7292 48C16.7292 44.8929 17.4284 41.9512 18.6775 39.3218L17.3226 38.6782C15.98 41.5044 15.2292 44.6655 15.2292 48H16.7292ZM45.9792 36C46.2425 36.7022 46.2428 36.7021 46.2431 36.702C46.2433 36.7019 46.2437 36.7018 46.244 36.7017C46.2447 36.7014 46.2456 36.7011 46.2467 36.7007C46.2488 36.6999 46.2517 36.6988 46.2552 36.6974C46.2624 36.6947 46.2724 36.6909 46.2851 36.6859C46.3106 36.676 46.3473 36.6616 46.3943 36.6427C46.4884 36.6048 46.6242 36.5488 46.7961 36.4742C47.1398 36.3252 47.6287 36.1017 48.2184 35.8009C49.3965 35.1999 50.984 34.286 52.6222 33.0333C55.8872 30.5366 59.4324 26.6305 60.2216 21.1061L58.7367 20.8939C58.0259 25.8695 54.8212 29.4634 51.7111 31.8417C50.1618 33.0265 48.6556 33.8939 47.5367 34.4647C46.978 34.7498 46.5177 34.96 46.1993 35.098C46.0402 35.167 45.9167 35.218 45.8342 35.2511C45.793 35.2677 45.7621 35.2799 45.7421 35.2876C45.7321 35.2915 45.7249 35.2943 45.7205 35.296C45.7183 35.2968 45.7168 35.2974 45.716 35.2977C45.7156 35.2978 45.7154 35.2979 45.7154 35.2979C45.7153 35.2979 45.7155 35.2979 45.7154 35.2979C45.7156 35.2978 45.7158 35.2978 45.9792 36ZM60.2216 21.1061C60.9954 15.6894 59.8337 11.052 58.4852 7.77694C57.8106 6.13866 57.0872 4.83611 56.5302 3.93999C56.2515 3.49169 56.014 3.14437 55.8443 2.90684C55.7595 2.78806 55.6916 2.69666 55.6439 2.63375C55.62 2.60229 55.6012 2.57795 55.5879 2.56086C55.5813 2.55232 55.576 2.54559 55.5721 2.54068C55.5702 2.53823 55.5686 2.53624 55.5674 2.5347C55.5668 2.53394 55.5662 2.53328 55.5658 2.53275C55.5656 2.53248 55.5654 2.53216 55.5652 2.53203C55.565 2.53174 55.5648 2.53148 54.9792 3C54.3935 3.46852 54.3933 3.46832 54.3932 3.46815C54.3932 3.46813 54.3931 3.46798 54.393 3.46794C54.393 3.46786 54.393 3.46789 54.3931 3.46804C54.3933 3.46833 54.3939 3.46908 54.3949 3.47027C54.3968 3.47266 54.4001 3.47684 54.4047 3.48281C54.414 3.49474 54.4287 3.51379 54.4485 3.53983C54.4879 3.59191 54.5475 3.6719 54.6237 3.7787C54.7763 3.99235 54.9959 4.313 55.2563 4.73189C55.7773 5.57014 56.4602 6.79884 57.0981 8.34806C58.3746 11.448 59.4629 15.8106 58.7367 20.8939L60.2216 21.1061ZM51.1907 18.2372C51.4065 17.5897 51.5624 16.9195 51.6719 16.2473L50.1914 16.0062C50.0926 16.6126 49.9541 17.2033 49.7676 17.7628L51.1907 18.2372ZM51.6719 16.2473C52.0239 14.0856 51.9034 11.8509 51.7021 10.1759C51.601 9.33419 51.4783 8.62451 51.3805 8.1237C51.3316 7.87312 51.2888 7.67437 51.2579 7.537C51.2425 7.46831 51.23 7.41493 51.2213 7.37805C51.2169 7.35962 51.2134 7.3453 51.211 7.33526C51.2098 7.33024 51.2088 7.32629 51.2081 7.32342C51.2077 7.32199 51.2074 7.32083 51.2072 7.31994C51.2071 7.31949 51.207 7.31912 51.2069 7.31881C51.2069 7.31866 51.2069 7.31848 51.2068 7.3184C51.2068 7.31824 51.2068 7.3181 50.4792 7.5C49.7515 7.6819 49.7515 7.68179 49.7515 7.6817C49.7515 7.68169 49.7515 7.68162 49.7515 7.6816C49.7515 7.68157 49.7515 7.6816 49.7515 7.68171C49.7515 7.68191 49.7517 7.68239 49.7519 7.68313C49.7522 7.68462 49.7528 7.68718 49.7537 7.6908C49.7555 7.69804 49.7583 7.70949 49.762 7.725C49.7693 7.75605 49.7804 7.80335 49.7944 7.86572C49.8224 7.9905 49.8623 8.17545 49.9083 8.41113C50.0004 8.88281 50.1168 9.5558 50.2128 10.3548C50.4058 11.9611 50.5116 14.0397 50.1914 16.0062L51.6719 16.2473ZM50.6166 16.8074L54.6641 18.6806L55.2942 17.3194L51.2466 15.4461L50.6166 16.8074ZM44.4792 25.5C44.8952 26.124 44.8953 26.124 44.8954 26.1239C44.8955 26.1239 44.8956 26.1238 44.8957 26.1237C44.8959 26.1236 44.8961 26.1234 44.8963 26.1233C44.8968 26.1229 44.8975 26.1225 44.8982 26.122C44.8996 26.1211 44.9015 26.1198 44.9038 26.1182C44.9084 26.1151 44.9148 26.1108 44.9228 26.1053C44.9389 26.0944 44.9616 26.0787 44.9905 26.0585C45.0484 26.018 45.1311 25.9591 45.235 25.8825C45.4425 25.7293 45.7349 25.5051 46.0816 25.2157C46.7736 24.6381 47.6891 23.7951 48.5794 22.7341L47.4304 21.7699C46.6113 22.746 45.7639 23.527 45.1204 24.0641C44.7993 24.3321 44.5308 24.5379 44.3444 24.6755C44.2512 24.7442 44.1787 24.7958 44.1305 24.8295C44.1065 24.8463 44.0885 24.8587 44.0771 24.8665C44.0714 24.8704 44.0674 24.8731 44.065 24.8747C44.0638 24.8755 44.0631 24.876 44.0628 24.8762C44.0626 24.8763 44.0626 24.8763 44.0626 24.8763C44.0627 24.8763 44.0627 24.8762 44.0628 24.8762C44.0628 24.8762 44.0629 24.8761 44.0629 24.8761C44.063 24.876 44.0631 24.876 44.4792 25.5ZM48.5794 22.7341C49.5994 21.5186 50.6046 19.9953 51.1907 18.2372L49.7676 17.7628C49.2596 19.2869 48.3729 20.6467 47.4304 21.7699L48.5794 22.7341ZM47.5303 22.8327L51.5045 26.0807L52.4538 24.9193L48.4795 21.6713L47.5303 22.8327ZM25.7409 36C26.0043 35.2978 26.0045 35.2978 26.0046 35.2979C26.0046 35.2979 26.0047 35.2979 26.0047 35.2979C26.0047 35.2979 26.0045 35.2978 26.0041 35.2977C26.0033 35.2974 26.0018 35.2968 25.9996 35.296C25.9952 35.2943 25.9879 35.2915 25.978 35.2876C25.958 35.2799 25.927 35.2677 25.8858 35.2511C25.8034 35.218 25.6799 35.167 25.5208 35.098C25.2024 34.96 24.7421 34.7498 24.1833 34.4647C23.0645 33.8939 21.5583 33.0265 20.009 31.8417C16.8989 29.4634 13.6942 25.8695 12.9834 20.8939L11.4985 21.1061C12.2877 26.6305 15.8329 30.5366 19.0978 33.0333C20.736 34.286 22.3236 35.1999 23.5016 35.8009C24.0913 36.1017 24.5802 36.3252 24.924 36.4742C25.0959 36.5488 25.2317 36.6048 25.3258 36.6427C25.3728 36.6616 25.4094 36.676 25.435 36.6859C25.4477 36.6909 25.4577 36.6947 25.4649 36.6974C25.4684 36.6988 25.4713 36.6999 25.4734 36.7007C25.4745 36.7011 25.4753 36.7014 25.476 36.7017C25.4764 36.7018 25.4768 36.7019 25.477 36.702C25.4773 36.7021 25.4776 36.7022 25.7409 36ZM12.9834 20.8939C12.2572 15.8106 13.3455 11.448 14.6219 8.34806C15.2599 6.79884 15.9428 5.57014 16.4638 4.73189C16.7242 4.313 16.9437 3.99235 17.0963 3.7787C17.1726 3.6719 17.2321 3.59191 17.2716 3.53983C17.2914 3.51379 17.3061 3.49474 17.3154 3.48281C17.32 3.47684 17.3233 3.47266 17.3252 3.47027C17.3261 3.46908 17.3267 3.46833 17.327 3.46804C17.3271 3.46789 17.3271 3.46786 17.327 3.46794C17.327 3.46798 17.3269 3.46813 17.3269 3.46815C17.3267 3.46832 17.3266 3.46852 16.7409 3C16.1553 2.53148 16.1551 2.53174 16.1548 2.53203C16.1547 2.53216 16.1545 2.53248 16.1543 2.53275C16.1538 2.53328 16.1533 2.53394 16.1527 2.5347C16.1515 2.53624 16.1499 2.53823 16.148 2.54068C16.1441 2.54559 16.1388 2.55232 16.1322 2.56086C16.1188 2.57795 16.1 2.60229 16.0762 2.63375C16.0285 2.69666 15.9606 2.78806 15.8757 2.90684C15.7061 3.14437 15.4686 3.49169 15.1899 3.93999C14.6329 4.83611 13.9095 6.13866 13.2349 7.77694C11.8864 11.052 10.7247 15.6894 11.4985 21.1061L12.9834 20.8939ZM21.9524 17.7628C21.7659 17.2033 21.6275 16.6126 21.5287 16.0062L20.0482 16.2473C20.1577 16.9195 20.3136 17.5897 20.5294 18.2372L21.9524 17.7628ZM21.5287 16.0062C21.2085 14.0397 21.3143 11.9611 21.5073 10.3548C21.6033 9.5558 21.7197 8.88281 21.8118 8.41113C21.8578 8.17545 21.8977 7.9905 21.9257 7.86572C21.9397 7.80335 21.9507 7.75605 21.9581 7.725C21.9618 7.70949 21.9646 7.69804 21.9664 7.6908C21.9672 7.68718 21.9679 7.68462 21.9682 7.68313C21.9684 7.68239 21.9685 7.68191 21.9686 7.68171C21.9686 7.6816 21.9686 7.68157 21.9686 7.6816C21.9686 7.68162 21.9686 7.68169 21.9686 7.6817C21.9686 7.68179 21.9685 7.6819 21.2409 7.5C20.5133 7.3181 20.5133 7.31824 20.5132 7.3184C20.5132 7.31848 20.5132 7.31866 20.5131 7.31881C20.5131 7.31912 20.513 7.31949 20.5129 7.31994C20.5126 7.32083 20.5124 7.32199 20.512 7.32342C20.5113 7.32629 20.5103 7.33024 20.5091 7.33526C20.5066 7.3453 20.5032 7.35962 20.4988 7.37805C20.49 7.41493 20.4776 7.46831 20.4621 7.537C20.4313 7.67437 20.3885 7.87312 20.3396 8.1237C20.2418 8.62451 20.1191 9.33419 20.018 10.1759C19.8167 11.8509 19.6962 14.0856 20.0482 16.2473L21.5287 16.0062ZM20.4734 15.4461L16.4259 17.3194L17.0559 18.6806L21.1035 16.8074L20.4734 15.4461ZM27.2409 25.5C27.657 24.876 27.6571 24.876 27.6571 24.8761C27.6572 24.8761 27.6572 24.8762 27.6573 24.8762C27.6574 24.8762 27.6574 24.8763 27.6575 24.8763C27.6575 24.8763 27.6575 24.8763 27.6573 24.8762C27.657 24.876 27.6562 24.8755 27.6551 24.8747C27.6527 24.8731 27.6487 24.8704 27.643 24.8665C27.6316 24.8587 27.6136 24.8463 27.5895 24.8295C27.5414 24.7958 27.4689 24.7442 27.3757 24.6755C27.1893 24.5379 26.9208 24.3321 26.5997 24.0641C25.9562 23.527 25.1088 22.746 24.2897 21.7699L23.1407 22.7341C24.031 23.7951 24.9465 24.6381 25.6385 25.2157C25.9852 25.5051 26.2776 25.7293 26.4851 25.8825C26.589 25.9591 26.6717 26.018 26.7296 26.0585C26.7585 26.0787 26.7812 26.0944 26.7973 26.1053C26.8053 26.1108 26.8116 26.1151 26.8163 26.1182C26.8186 26.1198 26.8205 26.1211 26.8219 26.122C26.8226 26.1225 26.8232 26.1229 26.8237 26.1233C26.824 26.1234 26.8242 26.1236 26.8244 26.1237C26.8245 26.1238 26.8246 26.1239 26.8247 26.1239C26.8248 26.124 26.8249 26.124 27.2409 25.5ZM24.2897 21.7699C23.3472 20.6467 22.4605 19.2869 21.9524 17.7628L20.5294 18.2372C21.1155 19.9953 22.1207 21.5186 23.1407 22.7341L24.2897 21.7699ZM23.2406 21.6713L19.2663 24.9193L20.2155 26.0807L24.1898 22.8327L23.2406 21.6713Z" fill="#4D4DAA"/>
</svg>
