<svg width="72" height="72" viewBox="0 0 72 72" fill="none" xmlns="http://www.w3.org/2000/svg">
<path d="M53.7282 26.1192C51.886 17.6528 44.6481 12 36 12C27.3519 12 20.114 17.6528 18.2717 26.1192C17.9749 27.4834 17.8182 28.9033 17.8182 30.3616C17.8182 33.817 18.6983 37.8803 20.2368 41.778C23.3772 49.7339 29.2603 57 36 57C42.7396 57 48.6228 49.7339 51.7631 41.778M53.7282 26.1192C54.025 27.4834 54.1818 28.9033 54.1818 30.3616C54.1818 33.817 53.3016 37.8803 51.7631 41.778M53.7282 26.1192C53.7282 26.1192 57.5096 23.2406 60.0174 21.5154C63.9884 18.7837 70.4998 15 70.4998 15L63.5353 24.286M51.7631 41.778L59.285 30.3616M31.0909 47.5369C31.0909 47.5369 32.7273 46.2496 36 46.2495C39.2727 46.2494 40.9091 47.5369 40.9091 47.5369M18.2891 26.1192C18.2891 26.1192 14.5077 23.2406 12 21.5154C8.02891 18.7837 1.51756 15 1.51756 15L10.5176 27L11.8043 28.9529M20.2542 41.778L11.8043 28.9529M59.285 30.3616L61.4998 27L63.5353 24.286M59.285 30.3616V36M63.5353 24.286V30.8373M11.8043 28.9529V37.5M32.7273 30.8373C32.7273 32.7288 31.262 34.2622 29.4545 34.2622C27.647 34.2622 26.1818 32.7288 26.1818 30.8373C26.1818 28.9457 27.647 27.4123 29.4545 27.4123C31.262 27.4123 32.7273 28.9457 32.7273 30.8373ZM45.8182 30.8373C45.8182 32.7288 44.3529 34.2622 42.5454 34.2622C40.738 34.2622 39.2727 32.7288 39.2727 30.8373C39.2727 28.9457 40.738 27.4123 42.5454 27.4123C44.3529 27.4123 45.8182 28.9457 45.8182 30.8373Z" stroke="#4D4DAA" stroke-width="1.5" stroke-linecap="round" stroke-linejoin="round"/>
</svg>
