<svg width="72" height="72" viewBox="0 0 72 72" fill="none" xmlns="http://www.w3.org/2000/svg">
<path d="M38.5084 31.759L12.1097 58.1576L15.3422 61.3901L17.4635 59.2688M54.0311 19.4688L53.324 20.1759M53.324 20.1759V20.1759C56.8945 23.7464 56.8945 29.5353 53.324 33.1058L53.0546 33.3752C49.4841 36.9457 43.6951 36.9457 40.1246 33.3752V33.3752C36.5541 29.8047 36.5541 24.0158 40.1246 20.4452L40.394 20.1759C43.9645 16.6054 49.7534 16.6054 53.324 20.1759V20.1759ZM46.6233 36.574L46.6106 37.7988M36.9258 26.8765L35.701 26.8892M42.6506 18.4994L42.0696 17.3191M55.0004 30.8493L56.1807 31.4302M43.8371 40.3875L44.9397 41.4901L46.5559 43.1063L48.2059 41.4564L49.3314 40.3308C51.9206 39.7841 54.3978 38.497 56.4218 36.473C56.8582 36.0366 57.2604 35.5791 57.6282 35.1039L60.9401 33.773L60.0742 30.2259C61.1393 26.3751 60.5308 22.1867 58.2367 18.8214L58.24 18.4923L58.2737 15.2261L55.0075 15.2598L54.6785 15.2632C51.3132 12.969 47.1248 12.3605 43.2739 13.4257L39.7269 12.5598L38.3959 15.8716C37.9208 16.2395 37.4633 16.6417 37.0268 17.0781C35.0028 19.1021 33.7157 21.5793 33.169 24.1684L32.0434 25.294L30.3935 26.9439L32.0098 28.5602L33.1124 29.6628M49.7884 23.7114C48.0311 21.9541 45.1818 21.9541 43.4245 23.7114" stroke="#7B61FF" stroke-width="1.5" stroke-linecap="round" stroke-linejoin="round"/>
</svg>
