<svg width="73" height="72" viewBox="0 0 73 72" fill="none" xmlns="http://www.w3.org/2000/svg">
<path d="M53.4626 40.8408C50.0668 29.7267 36.5 9 36.5 9C36.5 9 18.5 31.5 18.5 48C18.5 64.5 32 66 36.5 66C40.4522 66 51.3465 64.843 53.9404 53.3835M42.5193 58.2167C45.1882 55.6148 46.2921 51.4301 44.8877 47.8165C43.555 44.4058 42.5 40.5 42.5 40.5C42.5 40.5 41.1501 44.3672 39.9477 44.8696C38.7452 45.372 38.1503 43.3237 38 42C37.7094 36.8406 32 34.5 32 34.5C33.8838 38.2778 31.6207 41.4106 28.5745 47.1015C26.7799 50.4508 26.9042 54.1101 29 57C30.2278 58.6931 33.5 60 36.5 60C39.5 60 41.3151 59.3907 42.5193 58.2167Z" stroke="#7B61FF" stroke-width="1.5" stroke-linecap="round" stroke-linejoin="round"/>
</svg>
