<svg width="24" height="24" viewBox="0 0 24 24" fill="none" xmlns="http://www.w3.org/2000/svg">
<path d="M12 14V13.4438C12 12.2612 12.7445 11.2383 13.6367 10.462C14.1092 10.0509 14.5 9.54588 14.5 9C14.5 7.61929 13.3807 6.5 12 6.5C10.6193 6.5 9.5 7.61929 9.5 9M21 12C21 7.02944 16.9706 3 12 3C7.02944 3 3 7.02944 3 12C3 14.3051 3.86656 16.4077 5.29168 18C6.93964 19.8412 9.3345 21 12 21C14.6655 21 17.0604 19.8412 18.7083 18C20.1334 16.4077 21 14.3051 21 12ZM12 16L11 17L12 18L13 17L12 16Z" stroke="#4D4DAA" stroke-linecap="round" stroke-linejoin="round"/>
</svg>
