<svg width="24" height="24" viewBox="0 0 24 24" fill="none" xmlns="http://www.w3.org/2000/svg">
    <path d="M20 19V3.5C20 2.67157 19.3284 2 18.5 2H7M20 19V21.5C20 22.3284 19.3284 23 18.5 23H5.5C4.67157 23 4 22.3284 4 21.5V20M20 19H7M7 2H5.5C4.67157 2 4 2.67157 4 3.5V15V17.5C4 18.3284 4.67157 19 5.5 19H7M7 2V9.5V14M7 19V16M12 16H15M10 6V7C10 7.55228 10.4477 8 11 8H16C16.5523 8 17 7.55228 17 7V6C17 5.44772 16.5523 5 16 5H11C10.4477 5 10 5.44772 10 6Z"
          stroke="#4D4DAA" stroke-linecap="round" stroke-linejoin="round"></path>
</svg>
