<svg width="24" height="24" viewBox="0 0 24 24" fill="none" xmlns="http://www.w3.org/2000/svg">
    <path d="M14 9H21M14 9C14 8.44772 13.5523 8 13 8H11C10.4477 8 10 8.44772 10 9M14 9V11C14 11.5523 13.5523 12 13 12H11C10.4477 12 10 11.5523 10 11V9M3 9H10M3 17V18C3 18.5304 3.21071 19.0391 3.58579 19.4142C3.96086 19.7893 4.46957 20 5 20H6M3 17V11V7C3 4.79086 4.79086 3 7 3H17C19.2091 3 21 4.79086 21 7V11V17M3 17H6V20M6 20H18M21 17V18C21 18.5304 20.7893 19.0391 20.4142 19.4142C20.0391 19.7893 19.5304 20 19 20H18M21 17H18V20"
          stroke="#7B61FF" stroke-linecap="round" stroke-linejoin="round"/>
</svg>
