<svg width="24" height="24" viewBox="0 0 24 24" fill="none" xmlns="http://www.w3.org/2000/svg">
    <path d="M8 13.5C8 13.5 8.5 11 12 11C15.5 11 16 13.5 16 13.5M19.4845 16C20.4417 14.5699 21 12.8501 21 11C21 6.02944 16.9706 2 12 2C7.02944 2 3 6.02944 3 11C3 12.8501 3.55827 14.5699 4.51555 16M19.4845 16V16C20.3215 16 21 16.6785 21 17.5155V21C21 21.5523 20.5523 22 20 22H4C3.44772 22 3 21.5523 3 21V17.5155C3 16.6785 3.67853 16 4.51555 16V16M19.4845 16H4.51555M10 18H18M10 20H14M6 17.5L4.51555 19L6 20.5L7.5 19L6 17.5ZM12 5.5V5.5C13.1046 5.5 14 6.39543 14 7.5V7.5C14 8.60457 13.1046 9.5 12 9.5V9.5C10.8954 9.5 10 8.60457 10 7.5V7.5C10 6.39543 10.8954 5.5 12 5.5Z"
          stroke="#7B61FF" stroke-linecap="round" stroke-linejoin="round"/>
</svg>
