<svg width="24" height="24" viewBox="0 0 24 24" fill="none" xmlns="http://www.w3.org/2000/svg">
    <path d="M14 19H16V16C17.8135 14.7351 19 12.3787 19 10C19 6.13401 15.866 3 12 3C8.13401 3 5 6.13401 5 10C5 12.3787 6.18652 14.7351 8 16V20H10V17H11V19H13V17H14V18.5M17 10C17 11.1046 16.1046 12 15 12C13.8954 12 13 11.1046 13 10C13 8.89543 13.8954 8 15 8C16.1046 8 17 8.89543 17 10ZM11 10C11 11.1046 10.1046 12 9 12C7.89543 12 7 11.1046 7 10C7 8.89543 7.89543 8 9 8C10.1046 8 11 8.89543 11 10ZM11.8211 12.3578L11.1447 13.7106C11.0782 13.8435 11.1749 14 11.3236 14H12.6764C12.8251 14 12.9218 13.8435 12.8553 13.7106L12.1789 12.3578C12.1052 12.2104 11.8948 12.2104 11.8211 12.3578Z"
          stroke="#4D4DAA" stroke-linecap="round" stroke-linejoin="round"/>
</svg>
