<svg width="150" height="150" viewBox="0 0 150 150" fill="none" xmlns="http://www.w3.org/2000/svg">
<path d="M114.54 38.2242C107.015 34.8185 99.1799 32.3416 91.0359 31C90.005 32.8577 88.871 35.2313 88.0463 37.1922C79.3869 35.8505 70.6244 35.8505 61.965 37.1922C61.0372 35.0249 60.0063 32.9609 58.8724 31C50.7284 32.3416 42.7906 34.8185 35.3683 38.3274C20.5236 60.516 16.5031 82.0854 18.4618 103.448C27.2243 109.95 36.9146 114.904 47.3265 118C49.6975 114.801 51.7593 111.498 53.5118 107.989C50.1099 106.751 46.9142 105.203 43.8215 103.345C44.6462 102.726 45.3678 102.107 46.1925 101.488C64.4391 110.157 85.6753 110.157 103.922 101.488C104.747 102.107 105.468 102.726 106.293 103.345C103.2 105.203 99.9015 106.751 96.4995 107.989C98.252 111.498 100.314 114.801 102.685 118C113.097 114.801 122.89 109.95 131.55 103.448C133.817 78.6797 127.426 57.2135 114.54 38.2242ZM55.9859 90.2384C50.3161 90.2384 45.7802 85.0783 45.7802 78.7829C45.7802 72.4875 50.3161 67.2242 55.9859 67.2242C61.7588 67.2242 66.2947 72.3843 66.2947 78.7829C66.1916 85.0783 61.7588 90.2384 55.9859 90.2384ZM93.9223 90.2384C88.2525 90.2384 83.7166 85.0783 83.7166 78.7829C83.7166 72.4875 88.2525 67.2242 93.9223 67.2242C99.6953 67.2242 104.231 72.3843 104.128 78.7829C104.025 85.1815 99.5922 90.2384 93.9223 90.2384Z" fill="white"/>
</svg>
