<svg width="16" height="16" viewBox="0 0 16 16" fill="none" xmlns="http://www.w3.org/2000/svg">
<path fill-rule="evenodd" clip-rule="evenodd" d="M1.92002 10.5527C1.92002 11.2525 2.28576 11.9014 2.88441 12.2637L6.96441 14.7332C7.60105 15.1185 8.39899 15.1185 9.03562 14.7332L13.1156 12.2637C13.7143 11.9014 14.08 11.2525 14.08 10.5527V5.4473C14.08 4.74753 13.7143 4.09865 13.1156 3.7363L9.03562 1.26683C8.39899 0.881496 7.60105 0.881495 6.96441 1.26683L2.88441 3.7363C2.28576 4.09865 1.92002 4.74753 1.92002 5.4473V10.5527Z" fill="white" stroke="#CE0000"/>
<path d="M7.991 12L10.1332 6.17668C10.1417 6.15356 10.1594 6.13449 10.1826 6.12355L11.9726 5.28062C12.0172 5.25961 12.0046 5.19669 11.9549 5.19241L9.72506 5.00039C9.68116 4.99661 9.63988 5.0206 9.62379 5.05926L7.991 9.20016L6.3762 5.05926C6.36011 5.0206 6.31884 4.99661 6.27493 5.00039L4.04508 5.19241C3.99541 5.19669 3.98282 5.25961 4.02743 5.28062L5.81737 6.12355C5.84058 6.13449 5.85832 6.15356 5.86676 6.17668L7.991 12Z" fill="#CE0000"/>
</svg>
