<svg width="16" height="16" viewBox="0 0 16 16" fill="none" xmlns="http://www.w3.org/2000/svg">
<path d="M12 0H4C1.79086 0 0 1.79086 0 4V12C0 14.2091 1.79086 16 4 16H12C14.2091 16 16 14.2091 16 12V4C16 1.79086 14.2091 0 12 0Z" fill="white"/>
<g clip-path="url(#clip0_844_1880)">
<path d="M5.29829 3.91811L8.5 13V8.99151L5.95677 3.07377C5.93345 3.01958 5.86814 2.98937 5.8047 3.00344L2.54898 3.72493C2.47508 3.74131 2.48845 3.83775 2.56462 3.83775H5.17496C5.23143 3.83775 5.28143 3.8703 5.29829 3.91811Z" fill="#CE0000"/>
<path d="M11.1681 3.91811L8.5 13V8.99151L10.6194 3.07377C10.6388 3.01958 10.6932 2.98937 10.7461 3.00344L13.4592 3.72493C13.5208 3.74131 13.5096 3.83775 13.4462 3.83775H11.2709C11.2238 3.83775 11.1821 3.8703 11.1681 3.91811Z" fill="#CE0000"/>
</g>
<defs>
<clipPath id="clip0_844_1880">
<rect width="11" height="12" fill="white" transform="translate(2.5 2)"/>
</clipPath>
</defs>
</svg>
