<svg width="16" height="16" viewBox="0 0 16 16" fill="none" xmlns="http://www.w3.org/2000/svg">
<path d="M12 0H4C1.79086 0 0 1.79086 0 4V12C0 14.2091 1.79086 16 4 16H12C14.2091 16 16 14.2091 16 12V4C16 1.79086 14.2091 0 12 0Z" fill="#CE0000"/>
<path d="M7.9865 14L11.1998 4.84908C11.2125 4.81274 11.2391 4.78276 11.2739 4.76558L13.9589 3.44097C14.0258 3.40796 14.0069 3.30908 13.9324 3.30236L10.5876 3.00061C10.5217 2.99467 10.4598 3.03237 10.4357 3.09312L7.9865 9.60025L5.56431 3.09312C5.54016 3.03237 5.47825 2.99467 5.4124 3.00061L2.06761 3.30236C1.99311 3.30908 1.97423 3.40796 2.04114 3.44097L4.72605 4.76558C4.76088 4.78276 4.78748 4.81274 4.80014 4.84908L7.9865 14Z" fill="white"/>
</svg>
