<svg width="50" height="50" viewBox="0 0 50 50" fill="none" xmlns="http://www.w3.org/2000/svg">
<path d="M37.5 0H12.5C5.59644 0 0 5.59644 0 12.5V37.5C0 44.4036 5.59644 50 12.5 50H37.5C44.4036 50 50 44.4036 50 37.5V12.5C50 5.59644 44.4036 0 37.5 0Z" fill="white"/>
<path d="M24.9572 43L35.1329 13.0515C35.1729 12.9326 35.2572 12.8345 35.3675 12.7783L43.8697 8.44318C44.0816 8.33514 44.0218 8.01153 43.7859 7.98954L33.194 7.00201C32.9855 6.98256 32.7894 7.10595 32.713 7.30475L24.9572 28.6008L17.287 7.30475C17.2105 7.10595 17.0145 6.98256 16.8059 7.00201L6.21411 7.98954C5.97819 8.01153 5.9184 8.33514 6.13029 8.44318L14.6325 12.7783C14.7428 12.8345 14.827 12.9326 14.8671 13.0515L24.9572 43Z" fill="#CE0000"/>
</svg>
