<svg width="16" height="16" viewBox="0 0 16 16" fill="none" xmlns="http://www.w3.org/2000/svg">
<path d="M12 0H4C1.79086 0 0 1.79086 0 4V12C0 14.2091 1.79086 16 4 16H12C14.2091 16 16 14.2091 16 12V4C16 1.79086 14.2091 0 12 0Z" fill="white"/>
<path d="M4.79829 3.91065L8 12.9188V8.94285L5.45677 3.07318C5.43345 3.01942 5.36814 2.98946 5.3047 3.00341L2.04898 3.71904C1.97508 3.73529 1.98845 3.83094 2.06462 3.83094H4.67496C4.73143 3.83094 4.78143 3.86323 4.79829 3.91065Z" fill="#CE0000"/>
<path d="M11.2017 3.99188L8 13V9.02407L10.5432 3.1544C10.5666 3.10065 10.6319 3.07068 10.6953 3.08463L13.951 3.80027C14.0249 3.81651 14.0115 3.91217 13.9354 3.91217H11.325C11.2686 3.91217 11.2186 3.94446 11.2017 3.99188Z" fill="#CE0000"/>
</svg>
