<?xml version="1.0" encoding="utf-8"?>
<!-- Generator: Adobe Illustrator 24.0.1, SVG Export Plug-In . SVG Version: 6.00 Build 0)  -->
<svg version="1.1" id="Слой_1" xmlns="http://www.w3.org/2000/svg" xmlns:xlink="http://www.w3.org/1999/xlink" x="0px" y="0px"
	 viewBox="0 0 250 250" style="enable-background:new 0 0 250 250;" xml:space="preserve">
<style type="text/css">
	.st0{fill:#35393D;}
</style>
<path class="st0" d="M1,159.1c-0.3,0-0.7,0-1,0.1v12.7c0.3,0,0.7-0.1,1-0.1V159.1z"/>
<path class="st0" d="M136.7,1c0-0.2-0.1-0.4-0.1-0.6c0-0.1,0-0.2-0.1-0.4h-5c-0.2,0.3-0.4,0.7-0.6,1H136.7z"/>
<path class="st0" d="M172,0c-0.4,0.3-0.9,0.7-1.3,1h36.8c0.1-0.3,0.1-0.7,0.2-1H172z"/>
<path class="st0" d="M89.5,1c-0.2-0.2-0.3-0.4-0.5-0.5c-0.2-0.2-0.3-0.3-0.5-0.5H74.9c-0.7,0.3-1.3,0.7-2,1H89.5z"/>
<path class="st0" d="M146.4,0c0.1,0.3,0.1,0.7,0.2,1h7.2c0.6-0.3,1.1-0.7,1.7-1H146.4z"/>
<path class="st0" d="M1,181.7c-0.3,0-0.7,0.1-1,0.1v24.3c0.3,0,0.7,0,1,0V181.7z"/>
<path class="st0" d="M249,53.3v17.3c0.3-0.1,0.7-0.3,1-0.4V52.7c-0.2,0.1-0.3,0.2-0.5,0.3C249.3,53.1,249.2,53.2,249,53.3z"/>
<path class="st0" d="M249,41.6c0.3-0.2,0.7-0.4,1-0.6v-6.9c-0.3,0.1-0.7,0.1-1,0.2V41.6z"/>
<path class="st0" d="M249,100.7c0.1,0.1,0.2,0.1,0.2,0.2c0.3,0.2,0.5,0.4,0.8,0.7V87.6c-0.3,0.2-0.7,0.5-1,0.7V100.7z"/>
<path class="st0" d="M250,124.9c-0.3,0.4-0.7,0.9-1,1.3v79.3c0.3,0,0.7,0,1,0.1V124.9z"/>
<path class="st0" d="M249,24.4c0.3-0.1,0.7-0.1,1-0.2V0h-32.2c-0.1,0.3-0.1,0.7-0.2,1H249V24.4z"/>
<path class="st0" d="M67,249c0,0.3,0,0.7,0.1,1h42c0.2-0.3,0.4-0.7,0.7-1H67z"/>
<path class="st0" d="M155.2,249h-34c-0.2,0.3-0.4,0.7-0.7,1h34.9C155.3,249.7,155.3,249.3,155.2,249z"/>
<path class="st0" d="M57.2,250c0-0.3-0.1-0.7-0.1-1H46.4c-0.2,0.3-0.4,0.7-0.6,1H57.2z"/>
<path class="st0" d="M249,215.6V249h-58.6c-0.4,0.1-0.9,0.2-1.3,0.3c-1.2,0.3-2.4,0.1-3.4-0.3h-5.9c-0.1,0.3-0.3,0.7-0.5,1H250
	v-34.3C249.7,215.7,249.3,215.7,249,215.6z"/>
<path class="st0" d="M34.6,249H1v-32.9c-0.3,0-0.7,0-1,0V250h33.9C34.1,249.7,34.4,249.3,34.6,249z"/>
<path class="st0" d="M1,55.6V1h41.6c0.1-0.3,0.1-0.7,0.2-1H0v55.7C0.3,55.6,0.7,55.6,1,55.6z"/>
<path class="st0" d="M56,1c0.4-0.3,0.8-0.7,1.1-1h-4.4c-0.1,0.3-0.1,0.7-0.2,1H56z"/>
<path class="st0" d="M0,149.1c0.3,0,0.7,0,1-0.1V65.2c-0.3,0-0.7,0-1,0V149.1z"/>
<path class="st0" d="M101.5,1h18.1c0.1-0.3,0.3-0.7,0.4-1H101C101.2,0.3,101.4,0.7,101.5,1z"/>
</svg>
