<svg width="72" height="72" viewBox="0 0 72 72" fill="none" xmlns="http://www.w3.org/2000/svg">
<path d="M33 10.5L24 6M27 43.5L21 40.5M27 49.5L21 46.5M19.958 52.2133C19.0873 56.3822 18 60 18 60L33 64.5V15L24 10.5L27 16.5L19.5 30C19.5 30 21.2811 39.1196 21 45C20.8953 47.1907 20.4631 49.7947 19.958 52.2133ZM19.958 52.2133L27 55.5M37.5 10.5L46.5 6M43.5 43.5L49.5 40.5M43.5 49.5L49.5 46.5M50.5421 52.2133C51.4127 56.3822 52.5 60 52.5 60L37.5 64.5V15L46.5 10.5L43.5 16.5L51 30C51 30 49.2189 39.1196 49.5 45C49.6048 47.1907 50.037 49.7947 50.5421 52.2133ZM50.5421 52.2133L43.5 55.5M19.5 10.5C19.5 10.5 12.1198 11.811 9.00003 15C4.4201 19.6816 6.00003 31.5 6.00003 31.5L15 30L22.5 16.5L19.5 10.5ZM51 10.5C51 10.5 58.3803 11.811 61.5 15C66.08 19.6816 64.5 31.5 64.5 31.5L55.5 30L48 16.5L51 10.5Z" stroke="#4D4DAA" stroke-width="1.5" stroke-linecap="round" stroke-linejoin="round"/>
</svg>
