<svg width="60" height="60" viewBox="0 0 60 60" fill="none" xmlns="http://www.w3.org/2000/svg">
<path d="M18.75 34.25C18.3358 34.25 18 34.5858 18 35C18 35.4142 18.3358 35.75 18.75 35.75V34.25ZM41.25 35.75C41.6642 35.75 42 35.4142 42 35C42 34.5858 41.6642 34.25 41.25 34.25V35.75ZM18.75 40.5C18.3358 40.5 18 40.8358 18 41.25C18 41.6642 18.3358 42 18.75 42V40.5ZM31.25 42C31.6642 42 32 41.6642 32 41.25C32 40.8358 31.6642 40.5 31.25 40.5V42ZM18.75 46.75C18.3358 46.75 18 47.0858 18 47.5C18 47.9142 18.3358 48.25 18.75 48.25V46.75ZM35 48.25C35.4142 48.25 35.75 47.9142 35.75 47.5C35.75 47.0858 35.4142 46.75 35 46.75V48.25ZM36.75 27.5C36.75 27.9142 37.0858 28.25 37.5 28.25C37.9142 28.25 38.25 27.9142 38.25 27.5H36.75ZM33.75 21.6667V20.9167V21.6667ZM21.75 27.5C21.75 27.9142 22.0858 28.25 22.5 28.25C22.9142 28.25 23.25 27.9142 23.25 27.5H21.75ZM11.75 7V53H13.25V7H11.75ZM14.5 55.75H45.5V54.25H14.5V55.75ZM48.25 53V7H46.75V53H48.25ZM45.5 4.25H14.5V5.75H45.5V4.25ZM18.75 35.75H41.25V34.25H18.75V35.75ZM18.75 42H31.25V40.5H18.75V42ZM18.75 48.25H35V46.75H18.75V48.25ZM33.75 14.375C33.75 16.3573 32.0911 18 30 18V19.5C32.8794 19.5 35.25 17.2252 35.25 14.375H33.75ZM30 18C27.9089 18 26.25 16.3573 26.25 14.375H24.75C24.75 17.2252 27.1206 19.5 30 19.5V18ZM26.25 14.375C26.25 12.3927 27.9089 10.75 30 10.75V9.25C27.1206 9.25 24.75 11.5248 24.75 14.375H26.25ZM30 10.75C32.0911 10.75 33.75 12.3927 33.75 14.375H35.25C35.25 11.5248 32.8794 9.25 30 9.25V10.75ZM38.25 27.5V25.5556H36.75V27.5H38.25ZM38.25 25.5556C38.25 24.3339 37.7823 23.157 36.9415 22.2851L35.8618 23.3263C36.4275 23.913 36.75 24.7144 36.75 25.5556H38.25ZM36.9415 22.2851C36.0999 21.4123 34.9525 20.9167 33.75 20.9167V22.4167C34.5367 22.4167 35.2969 22.7405 35.8618 23.3263L36.9415 22.2851ZM33.75 20.9167H26.25V22.4167H33.75V20.9167ZM26.25 20.9167C25.0475 20.9167 23.9001 21.4123 23.0585 22.2851L24.1382 23.3263C24.7031 22.7405 25.4633 22.4167 26.25 22.4167V20.9167ZM23.0585 22.2851C22.2177 23.157 21.75 24.3339 21.75 25.5556H23.25C23.25 24.7144 23.5725 23.913 24.1382 23.3263L23.0585 22.2851ZM21.75 25.5556V27.5H23.25V25.5556H21.75ZM48.25 7C48.25 5.48122 47.0188 4.25 45.5 4.25V5.75C46.1904 5.75 46.75 6.30964 46.75 7H48.25ZM45.5 55.75C47.0188 55.75 48.25 54.5188 48.25 53H46.75C46.75 53.6904 46.1904 54.25 45.5 54.25V55.75ZM11.75 53C11.75 54.5188 12.9812 55.75 14.5 55.75V54.25C13.8096 54.25 13.25 53.6904 13.25 53H11.75ZM13.25 7C13.25 6.30964 13.8096 5.75 14.5 5.75V4.25C12.9812 4.25 11.75 5.48122 11.75 7H13.25Z" fill="#4D4DAA"/>
</svg>
