<svg width="60" height="60" viewBox="0 0 60 60" fill="none" xmlns="http://www.w3.org/2000/svg">
<path d="M30 15L30.7115 14.7628C30.6094 14.4566 30.3228 14.25 30 14.25C29.6772 14.25 29.3906 14.4566 29.2885 14.7628L30 15ZM27.9167 21.25V22C28.2395 22 28.5261 21.7934 28.6282 21.4872L27.9167 21.25ZM26.8919 24.3243L27.6034 24.5615C27.7084 24.2466 27.5939 23.9002 27.322 23.7099L26.8919 24.3243ZM25 30L24.2885 29.7628C24.1862 30.0698 24.2922 30.4077 24.5516 30.6012C24.8109 30.7946 25.165 30.8 25.4301 30.6144L25 30ZM30 26.5L30.4301 25.8856C30.1719 25.7048 29.8281 25.7048 29.5699 25.8856L30 26.5ZM33.1081 24.3243L32.678 23.7099C32.4061 23.9002 32.2916 24.2466 32.3966 24.5615L33.1081 24.3243ZM37.5 21.25L37.9301 21.8644C38.1983 21.6767 38.3137 21.3367 38.2153 21.0245C38.1169 20.7123 37.8274 20.5 37.5 20.5V21.25ZM32.0833 21.25L31.3718 21.4872C31.4739 21.7934 31.7605 22 32.0833 22V21.25ZM22.5 21.25V20.5C22.1726 20.5 21.8831 20.7123 21.7847 21.0245C21.6863 21.3367 21.8017 21.6767 22.0699 21.8644L22.5 21.25ZM35 30L34.5699 30.6144C34.835 30.8 35.1891 30.7946 35.4484 30.6012C35.7078 30.4077 35.8138 30.0698 35.7115 29.7628L35 30ZM23.25 38.75C23.25 38.3358 22.9142 38 22.5 38C22.0858 38 21.75 38.3358 21.75 38.75H23.25ZM22.5 56.25H21.75C21.75 56.5533 21.9327 56.8268 22.213 56.9429C22.4932 57.059 22.8158 56.9948 23.0303 56.7803L22.5 56.25ZM30 48.75L30.5303 48.2197C30.2374 47.9268 29.7626 47.9268 29.4697 48.2197L30 48.75ZM37.5 56.25L36.9697 56.7803C37.1842 56.9948 37.5068 57.059 37.787 56.9429C38.0673 56.8268 38.25 56.5533 38.25 56.25H37.5ZM38.25 38.75C38.25 38.3358 37.9142 38 37.5 38C37.0858 38 36.75 38.3358 36.75 38.75H38.25ZM29.2885 14.7628L27.2052 21.0128L28.6282 21.4872L30.7115 15.2372L29.2885 14.7628ZM26.1804 24.0872L24.2885 29.7628L25.7115 30.2372L27.6034 24.5615L26.1804 24.0872ZM25.4301 30.6144L30.4301 27.1144L29.5699 25.8856L24.5699 29.3856L25.4301 30.6144ZM33.5382 24.9387L37.9301 21.8644L37.0699 20.6356L32.678 23.7099L33.5382 24.9387ZM37.5 20.5H32.0833V22H37.5V20.5ZM27.9167 20.5H22.5V22H27.9167V20.5ZM22.0699 21.8644L26.4618 24.9387L27.322 23.7099L22.9301 20.6356L22.0699 21.8644ZM29.5699 27.1144L34.5699 30.6144L35.4301 29.3856L30.4301 25.8856L29.5699 27.1144ZM35.7115 29.7628L33.8196 24.0872L32.3966 24.5615L34.2885 30.2372L35.7115 29.7628ZM32.7948 21.0128L30.7115 14.7628L29.2885 15.2372L31.3718 21.4872L32.7948 21.0128ZM21.75 38.75V56.25H23.25V38.75H21.75ZM23.0303 56.7803L30.5303 49.2803L29.4697 48.2197L21.9697 55.7197L23.0303 56.7803ZM29.4697 49.2803L36.9697 56.7803L38.0303 55.7197L30.5303 48.2197L29.4697 49.2803ZM38.25 56.25V38.75H36.75V56.25H38.25ZM30 34.25C23.5107 34.25 18.25 28.9893 18.25 22.5H16.75C16.75 29.8178 22.6822 35.75 30 35.75V34.25ZM41.75 22.5C41.75 28.9893 36.4893 34.25 30 34.25V35.75C37.3178 35.75 43.25 29.8178 43.25 22.5H41.75ZM30 10.75C36.4893 10.75 41.75 16.0107 41.75 22.5H43.25C43.25 15.1822 37.3178 9.25 30 9.25V10.75ZM30 9.25C22.6822 9.25 16.75 15.1822 16.75 22.5H18.25C18.25 16.0107 23.5107 10.75 30 10.75V9.25Z" fill="#4D4DAA"/>
<path d="M37.7018 35.8336C37.4089 35.5407 37.4089 35.0658 37.7018 34.7729C37.9947 34.48 38.4696 34.48 38.7625 34.7729L37.7018 35.8336ZM39.9999 37.071L40.6707 37.4064C40.5629 37.622 40.358 37.7727 40.1201 37.8113C39.8821 37.8499 39.6401 37.7718 39.4696 37.6013L39.9999 37.071ZM41.7677 33.5355L41.0969 33.2001C41.1694 33.0549 41.2871 32.9372 41.4323 32.8646L41.7677 33.5355ZM45.3032 31.7677L45.8336 31.2374C46.004 31.4078 46.0822 31.6499 46.0435 31.8878C46.0049 32.1258 45.8543 32.3307 45.6386 32.4385L45.3032 31.7677ZM43.0051 30.5303C42.7122 30.2374 42.7122 29.7625 43.0051 29.4696C43.298 29.1767 43.7729 29.1767 44.0658 29.4696L43.0051 30.5303ZM21.2374 34.7728C21.5303 34.4799 22.0052 34.4799 22.2981 34.7728C22.591 35.0657 22.591 35.5406 22.2981 35.8335L21.2374 34.7728ZM20 37.0709L20.5303 37.6013C20.3599 37.7717 20.1178 37.8499 19.8799 37.8112C19.6419 37.7726 19.437 37.622 19.3292 37.4063L20 37.0709ZM18.2322 33.5354L18.5676 32.8646C18.7128 32.9371 18.8305 33.0548 18.9031 33.2L18.2322 33.5354ZM14.6967 31.7676L14.3613 32.4384C14.1457 32.3306 13.995 32.1257 13.9564 31.8878C13.9178 31.6498 13.9959 31.4078 14.1664 31.2373L14.6967 31.7676ZM15.9341 29.4695C16.227 29.1766 16.7019 29.1766 16.9948 29.4695C17.2877 29.7624 17.2877 30.2373 16.9948 30.5302L15.9341 29.4695ZM15 17.9999C15.4142 17.9999 15.75 18.3356 15.75 18.7499C15.75 19.1641 15.4142 19.4999 15 19.4999L15 17.9999ZM12.5 18.7499L11.7885 18.987C11.7123 18.7583 11.7506 18.5069 11.8916 18.3113C12.0325 18.1157 12.2589 17.9999 12.5 17.9999L12.5 18.7499ZM13.75 22.4998L14.4615 22.2627C14.5128 22.4166 14.5128 22.5831 14.4615 22.737L13.75 22.4998ZM12.5 26.2499L12.5 26.9999C12.2589 26.9999 12.0325 26.884 11.8916 26.6884C11.7506 26.4928 11.7123 26.2414 11.7885 26.0127L12.5 26.2499ZM15 25.4998C15.4142 25.4998 15.75 25.8356 15.75 26.2498C15.75 26.6641 15.4142 26.9998 15 26.9998L15 25.4998ZM45 19.4998C44.5858 19.4998 44.25 19.1641 44.25 18.7498C44.25 18.3356 44.5858 17.9998 45 17.9998L45 19.4998ZM47.5 18.7498L47.5 17.9998C47.7411 17.9998 47.9675 18.1157 48.1084 18.3113C48.2494 18.5069 48.2878 18.7583 48.2115 18.987L47.5 18.7498ZM46.25 22.4998L45.5385 22.737C45.4872 22.5831 45.4872 22.4166 45.5385 22.2627L46.25 22.4998ZM47.5 26.2498L48.2115 26.0127C48.2878 26.2414 48.2494 26.4928 48.1084 26.6884C47.9675 26.884 47.7411 26.9998 47.5 26.9998L47.5 26.2498ZM45 26.9998C44.5858 26.9998 44.25 26.6641 44.25 26.2498C44.25 25.8356 44.5858 25.4998 45 25.4998L45 26.9998ZM27 7.49985C27 7.91406 26.6642 8.24985 26.25 8.24985C25.8357 8.24985 25.5 7.91406 25.5 7.49985L27 7.49985ZM26.25 4.99985L25.5 4.99985C25.5 4.75877 25.6159 4.53238 25.8114 4.39142C26.007 4.25046 26.2584 4.2121 26.4871 4.28834L26.25 4.99985ZM30 6.24985L30.2371 6.96136C30.0832 7.01268 29.9167 7.01268 29.7628 6.96136L30 6.24985ZM33.75 4.99985L33.5128 4.28834C33.7415 4.2121 33.9929 4.25045 34.1885 4.39142C34.3841 4.53238 34.5 4.75877 34.5 4.99985L33.75 4.99985ZM34.5 7.49985C34.5 7.91406 34.1642 8.24985 33.75 8.24985C33.3357 8.24985 33 7.91406 33 7.49985L34.5 7.49985ZM22.2981 8.73729C22.591 9.03018 22.591 9.50505 22.2981 9.79795C22.0052 10.0908 21.5303 10.0908 21.2374 9.79795L22.2981 8.73729ZM20 7.49985L19.3291 7.16444C19.437 6.94881 19.6419 6.79815 19.8798 6.75953C20.1178 6.72092 20.3598 6.79905 20.5303 6.96952L20 7.49985ZM18.2322 11.0354L18.903 11.3708C18.8304 11.5159 18.7127 11.6336 18.5676 11.7062L18.2322 11.0354ZM14.6967 12.8032L14.1663 13.3335C13.9959 13.163 13.9177 12.921 13.9563 12.683C13.995 12.445 14.1456 12.2401 14.3612 12.1323L14.6967 12.8032ZM16.9948 14.0406C17.2876 14.3335 17.2876 14.8084 16.9948 15.1012C16.7019 15.3941 16.227 15.3941 15.9341 15.1012L16.9948 14.0406ZM38.7625 9.79795C38.4696 10.0908 37.9948 10.0908 37.7019 9.79795C37.409 9.50505 37.409 9.03018 37.7019 8.73729L38.7625 9.79795ZM40 7.49985L39.4696 6.96952C39.6401 6.79904 39.8821 6.72091 40.1201 6.75953C40.3581 6.79815 40.563 6.9488 40.6708 7.16444L40 7.49985ZM41.7677 11.0354L41.4323 11.7062C41.2872 11.6336 41.1695 11.5159 41.0969 11.3708L41.7677 11.0354ZM45.3033 12.8031L45.6387 12.1323C45.8543 12.2401 46.005 12.445 46.0436 12.683C46.0822 12.921 46.0041 13.163 45.8336 13.3335L45.3033 12.8031ZM44.0658 15.1012C43.7729 15.3941 43.2981 15.3941 43.0052 15.1012C42.7123 14.8084 42.7123 14.3335 43.0052 14.0406L44.0658 15.1012ZM38.7625 34.7729L40.5303 36.5407L39.4696 37.6013L37.7018 35.8336L38.7625 34.7729ZM39.3291 36.7356L41.0969 33.2001L42.4385 33.8709L40.6707 37.4064L39.3291 36.7356ZM41.4323 32.8646L44.9678 31.0969L45.6386 32.4385L42.1031 34.2063L41.4323 32.8646ZM44.7729 32.298L43.0051 30.5303L44.0658 29.4696L45.8336 31.2374L44.7729 32.298ZM22.2981 35.8335L20.5303 37.6013L19.4697 36.5406L21.2374 34.7728L22.2981 35.8335ZM19.3292 37.4063L17.5614 33.8708L18.9031 33.2L20.6708 36.7355L19.3292 37.4063ZM17.8968 34.2062L14.3613 32.4384L15.0321 31.0968L18.5676 32.8646L17.8968 34.2062ZM14.1664 31.2373L15.9341 29.4695L16.9948 30.5302L15.227 32.298L14.1664 31.2373ZM15 19.4999L12.5 19.4999L12.5 17.9999L15 17.9999L15 19.4999ZM13.2115 18.5127L14.4615 22.2627L13.0385 22.737L11.7885 18.987L13.2115 18.5127ZM14.4615 22.737L13.2115 26.487L11.7885 26.0127L13.0385 22.2627L14.4615 22.737ZM12.5 25.4999L15 25.4998L15 26.9998L12.5 26.9999L12.5 25.4999ZM45 17.9998L47.5 17.9998L47.5 19.4998L45 19.4998L45 17.9998ZM48.2115 18.987L46.9615 22.737L45.5385 22.2627L46.7885 18.5127L48.2115 18.987ZM46.9615 22.2627L48.2115 26.0127L46.7885 26.487L45.5385 22.737L46.9615 22.2627ZM47.5 26.9998L45 26.9998L45 25.4998L47.5 25.4998L47.5 26.9998ZM25.5 7.49985L25.5 4.99985L27 4.99985L27 7.49985L25.5 7.49985ZM26.4871 4.28834L30.2371 5.53834L29.7628 6.96136L26.0128 5.71136L26.4871 4.28834ZM29.7628 5.53834L33.5128 4.28834L33.9871 5.71136L30.2371 6.96136L29.7628 5.53834ZM34.5 4.99985L34.5 7.49985L33 7.49985L33 4.99985L34.5 4.99985ZM21.2374 9.79795L19.4696 8.03018L20.5303 6.96952L22.2981 8.73729L21.2374 9.79795ZM20.6708 7.83526L18.903 11.3708L17.5614 10.7L19.3291 7.16444L20.6708 7.83526ZM18.5676 11.7062L15.0321 13.474L14.3612 12.1323L17.8968 10.3646L18.5676 11.7062ZM15.227 12.2728L16.9948 14.0406L15.9341 15.1012L14.1663 13.3335L15.227 12.2728ZM37.7019 8.73729L39.4696 6.96952L40.5303 8.03018L38.7625 9.79795L37.7019 8.73729ZM40.6708 7.16444L42.4385 10.7L41.0969 11.3708L39.3291 7.83526L40.6708 7.16444ZM42.1031 10.3646L45.6387 12.1323L44.9679 13.474L41.4323 11.7062L42.1031 10.3646ZM45.8336 13.3335L44.0658 15.1012L43.0052 14.0406L44.7729 12.2728L45.8336 13.3335Z" fill="#4D4DAA"/>
</svg>
