<svg width="24" height="24" viewBox="0 0 24 24" fill="none" xmlns="http://www.w3.org/2000/svg">
<path fill-rule="evenodd" clip-rule="evenodd" d="M8 4.5C7.17157 4.5 6.5 5.17157 6.5 6V19.7929L10.2322 16.0607C11.2085 15.0843 12.7915 15.0844 13.7678 16.0607L17.5 19.7929V6C17.5 5.17157 16.8284 4.5 16 4.5H8ZM5.5 6C5.5 4.61929 6.61929 3.5 8 3.5H16C17.3807 3.5 18.5 4.61929 18.5 6V21C18.5 21.2022 18.3782 21.3846 18.1913 21.4619C18.0045 21.5393 17.7894 21.4966 17.6464 21.3536L13.0607 16.7678C12.4749 16.182 11.5251 16.182 10.9393 16.7678L6.35355 21.3536C6.21055 21.4966 5.9955 21.5393 5.80866 21.4619C5.62182 21.3846 5.5 21.2022 5.5 21V6Z" fill="#4D4DAA"/>
</svg>