<svg width="24" height="24" viewBox="0 0 24 24" fill="none" xmlns="http://www.w3.org/2000/svg">
    <path d="M8.31802 8.81799L4.07538 13.0606C3.29433 13.8417 3.29433 15.108 4.07538 15.8891L7.61091 19.4246C8.39196 20.2056 9.65829 20.2056 10.4393 19.4246L14.682 15.182M8.31802 8.81799L14.682 15.182M8.31802 8.81799L9.73223 7.40378M14.682 15.182L16.0962 13.7677M18.9246 10.9393L17.5104 12.3535M18.9246 10.9393C19.7057 10.1583 19.7057 8.89193 18.9246 8.11088L15.3891 4.57535C14.608 3.7943 13.3417 3.7943 12.5607 4.57535M18.9246 10.9393L12.5607 4.57535M12.5607 4.57535L11.1464 5.98956M9.73223 7.40378L16.0962 13.7677M9.73223 7.40378L11.1464 5.98956M16.0962 13.7677L17.5104 12.3535M17.5104 12.3535L11.1464 5.98956"
          stroke="#4D4DAA" stroke-linecap="round" stroke-linejoin="round"/>
</svg>
