<svg width="24" height="24" viewBox="0 0 24 24" fill="none" xmlns="http://www.w3.org/2000/svg">
<path d="M10.5981 18.3564L10.3481 18.7894C10.5872 18.9275 10.893 18.8456 11.0311 18.6064L10.5981 18.3564ZM8 16.8564L7.56699 16.6064C7.42892 16.8456 7.51085 17.1513 7.75 17.2894L8 16.8564ZM7 18.5885L7.25 18.1554C7.08599 18.0608 6.88255 18.0669 6.72451 18.1712C6.56646 18.2756 6.48094 18.4602 6.50359 18.6483L7 18.5885ZM9.59808 20.0885L9.79449 20.5483C9.96865 20.4739 10.0858 20.3075 10.0972 20.1184C10.1085 19.9294 10.0121 19.7501 9.84808 19.6554L9.59808 20.0885ZM7.29904 21.0705L6.80263 21.1303C6.82145 21.2866 6.91274 21.4248 7.04904 21.5035C7.18533 21.5822 7.35072 21.5921 7.49545 21.5303L7.29904 21.0705ZM10.8481 17.9234L8.25 16.4234L7.75 17.2894L10.3481 18.7894L10.8481 17.9234ZM8.43301 17.1064L15.933 4.11603L15.067 3.61603L7.56699 16.6064L8.43301 17.1064ZM16.616 3.93301L17.4821 4.43301L17.9821 3.56699L17.116 3.06699L16.616 3.93301ZM17.6651 5.11603L10.1651 18.1064L11.0311 18.6064L18.5311 5.61603L17.6651 5.11603ZM6.75 19.0215L9.34808 20.5215L9.84808 19.6554L7.25 18.1554L6.75 19.0215ZM9.40167 19.6286L7.10263 20.6107L7.49545 21.5303L9.79449 20.5483L9.40167 19.6286ZM7.79545 21.0107L7.49641 18.5286L6.50359 18.6483L6.80263 21.1303L7.79545 21.0107ZM17.4821 4.43301C17.7212 4.57108 17.8031 4.87688 17.6651 5.11603L18.5311 5.61603C18.9453 4.89859 18.6995 3.9812 17.9821 3.56699L17.4821 4.43301ZM15.933 4.11603C16.0711 3.87688 16.3769 3.79494 16.616 3.93301L17.116 3.06699C16.3986 2.65277 15.4812 2.89859 15.067 3.61603L15.933 4.11603Z" fill="#4D4DAA"/>
</svg>
