<svg width="24" height="24" viewBox="0 0 24 24" fill="none" xmlns="http://www.w3.org/2000/svg">
    <path fill-rule="evenodd" clip-rule="evenodd"
          d="M4.15532 2.5C2.87848 2.5 2.18547 3.99362 3.00996 4.96859L3.00996 4.96859L9.3818 12.5033L9.38182 12.5033C9.45813 12.5935 9.50002 12.7079 9.50002 12.8261V19.382C9.50002 19.9501 9.82102 20.4695 10.3292 20.7236L12.3292 21.7236L12.3292 21.7236C12.6785 21.8982 13.0493 21.9227 13.3838 21.833C13.115 21.5097 12.8796 21.1577 12.6828 20.7824L10.7764 19.8292C10.607 19.7445 10.5 19.5713 10.5 19.382V12.8261C10.5 12.4715 10.3744 12.1283 10.1454 11.8575L10.1454 11.8575L3.77353 4.32287L3.77353 4.32287C3.4987 3.99787 3.72971 3.5 4.15532 3.5H19.8447C20.2703 3.5 20.5013 3.99785 20.2265 4.32286L20.2265 4.32289L13.8546 11.8575L13.8546 11.8576C13.6257 12.1283 13.5 12.4715 13.5 12.8261V14.0313C13.7981 13.6935 14.1336 13.3896 14.5 13.126V12.8261C14.5 12.708 14.5419 12.5935 14.6182 12.5033L14.6182 12.5032L20.9901 4.9686L20.9901 4.96857C21.8145 3.99362 21.1216 2.5 19.8447 2.5H4.15532Z"
          fill="#7B61FF"/>
    <path d="M21 18C21 19.6569 19.6569 21 18 21C16.3431 21 15 19.6569 15 18C15 16.3431 16.3431 15 18 15C19.6569 15 21 16.3431 21 18Z"
          fill="#7B61FF"/>
</svg>
