<svg width="24" height="24" viewBox="0 0 24 24" fill="none" xmlns="http://www.w3.org/2000/svg">
    <path fill-rule="evenodd" clip-rule="evenodd"
          d="M3.00993 4.96859C2.18544 3.99362 2.87845 2.5 4.15529 2.5H19.8447C21.1215 2.5 21.8145 3.99362 20.9901 4.96857L14.6182 12.5032C14.6182 12.5032 14.6182 12.5032 14.6182 12.5032C14.5419 12.5935 14.5 12.708 14.5 12.8261V20.382C14.5 21.497 13.3265 22.2222 12.3292 21.7236L10.3292 20.7236C9.82099 20.4695 9.49999 19.9501 9.49999 19.382V12.8261C9.49999 12.7079 9.4581 12.5935 9.38179 12.5033L3.00993 4.96859ZM3.7735 4.32287C3.7735 4.32287 3.7735 4.32287 3.7735 4.32287C3.49867 3.99788 3.72968 3.5 4.15529 3.5H19.8447C20.2702 3.5 20.5013 3.99785 20.2265 4.32286C20.2265 4.32286 20.2265 4.32287 20.2265 4.32286L13.8546 11.8575C13.6257 12.1283 13.5 12.4715 13.5 12.8261V20.382C13.5 20.7536 13.1089 20.9954 12.7764 20.8292C12.7764 20.8292 12.7764 20.8292 12.7764 20.8292L10.7764 19.8292C10.607 19.7445 10.5 19.5713 10.5 19.382V12.8261C10.5 12.4715 10.3743 12.1283 10.1453 11.8575C10.1453 11.8575 10.1453 11.8575 10.1453 11.8575L3.7735 4.32287Z"
          fill="#7B61FF"/>
</svg>
