<svg width="24" height="24" viewBox="0 0 24 24" fill="none" xmlns="http://www.w3.org/2000/svg">
<path d="M1.51635 11.3822C4.14379 8.35562 7.31123 6.50012 12 6.50012C13.1252 6.50012 14.1628 6.60698 15.1264 6.81124L13.5229 8.30013C13.0535 8.1067 12.5392 8 12 8C9.79086 8 8 9.79086 8 12C8 12.4347 8.06935 12.8532 8.19758 13.2451L5.37182 15.869C3.92727 15.0497 2.66979 13.9467 1.51638 12.6181C1.20818 12.2631 1.20816 11.7372 1.51635 11.3822Z" fill="#4D4DAA"/>
<path d="M22.4836 12.6181C19.8562 15.6446 16.6888 17.5001 12 17.5001C10.2738 17.5001 8.75377 17.2486 7.391 16.7798L9.33044 14.9789C10.0385 15.6138 10.9741 16 12 16C14.2091 16 16 14.2091 16 12C16 11.0806 15.6898 10.2336 15.1683 9.558L17.3716 7.51207C19.3619 8.35183 21.0079 9.68225 22.4836 11.3821C22.7918 11.7371 22.7918 12.2631 22.4836 12.6181Z" fill="#4D4DAA"/>
<path d="M19 6L17.3716 7.51207M5 19L7.391 16.7798M17.3716 7.51207C19.3619 8.35183 21.0079 9.68225 22.4836 11.3821C22.7918 11.7371 22.7918 12.2631 22.4836 12.6181C19.8562 15.6446 16.6888 17.5001 12 17.5001C10.2738 17.5001 8.75377 17.2486 7.391 16.7798M17.3716 7.51207L15.1683 9.558C15.6898 10.2336 16 11.0806 16 12C16 14.2091 14.2091 16 12 16C10.9741 16 10.0385 15.6138 9.33044 14.9789L7.391 16.7798M12 6.50012C7.31123 6.50012 4.14379 8.35562 1.51635 11.3822C1.20816 11.7372 1.20818 12.2631 1.51638 12.6181C2.66979 13.9467 3.92727 15.0497 5.37182 15.869L8.19758 13.2451C8.06935 12.8532 8 12.4347 8 12C8 9.79086 9.79086 8 12 8C12.5392 8 13.0535 8.1067 13.5229 8.30013L15.1264 6.81124C14.1628 6.60698 13.1252 6.50012 12 6.50012Z" stroke="#4D4DAA" stroke-linecap="round" stroke-linejoin="round"/>
<path d="M14 12C14 13.1045 13.1046 14 12 14C11.6397 14 11.3016 13.9047 11.0096 13.7379C10.901 13.6759 10.893 13.5279 10.9847 13.4428L13.5141 11.0941C13.6057 11.009 13.7528 11.0279 13.8066 11.1408C13.9306 11.4011 14 11.6924 14 12Z" fill="#4D4DAA"/>
</svg>
