<svg width="24" height="24" viewBox="0 0 24 24" fill="none" xmlns="http://www.w3.org/2000/svg">
<path fill-rule="evenodd" clip-rule="evenodd" d="M0.68638 7.61059C0.901453 7.43739 1.21621 7.47134 1.38941 7.68641C2.00865 8.45536 2.65254 9.15234 3.3353 9.76958C4.48171 10.806 5.73965 11.6194 7.17884 12.1707C8.57769 12.7065 10.1615 13.0001 12 13.0001C13.8385 13.0001 15.4223 12.7066 16.8211 12.1707C18.2603 11.6194 19.5183 10.806 20.6647 9.76963C21.3474 9.15239 21.9913 8.45541 22.6106 7.68646C22.7838 7.47139 23.0985 7.43744 23.3136 7.61064C23.5287 7.78385 23.5626 8.0986 23.3894 8.31368C22.8638 8.96635 22.3161 9.57566 21.7381 10.1347L22.8358 11.1295C23.0404 11.3149 23.0559 11.6311 22.8705 11.8357C22.685 12.0403 22.3688 12.0559 22.1642 11.8704L20.9947 10.8105C19.9873 11.6692 18.8874 12.3791 17.658 12.9095L18.4604 14.805C18.5681 15.0593 18.4492 15.3527 18.1949 15.4604C17.9406 15.568 17.6472 15.4492 17.5395 15.1949L16.7242 13.2688C15.4516 13.7009 14.0543 13.9494 12.5 13.9931V15.9999C12.5 16.2761 12.2761 16.4999 12 16.4999C11.7238 16.4999 11.5 16.2761 11.5 15.9999V13.9931C9.94568 13.9494 8.54834 13.7009 7.27578 13.2687L6.46043 15.1948C6.35278 15.4491 6.05937 15.568 5.80507 15.4603C5.55078 15.3527 5.43189 15.0593 5.53954 14.805L6.34194 12.9095C5.11255 12.3791 4.01269 11.6691 3.00529 10.8105L1.83575 11.8704C1.63114 12.0558 1.31494 12.0403 1.1295 11.8357C0.94406 11.631 0.959606 11.3148 1.16422 11.1294L2.26189 10.1346C1.68385 9.57561 1.13617 8.9663 0.610563 8.31362C0.437363 8.09855 0.471307 7.78379 0.68638 7.61059Z" fill="#4D4DAA"/>
</svg>
