<svg width="24" height="24" viewBox="0 0 24 24" fill="none" xmlns="http://www.w3.org/2000/svg">
<path d="M12 13.5001V15.9999M12 13.5001C13.8931 13.5001 15.5383 13.1976 17 12.6376M12 13.5001C10.1068 13.5001 8.46172 13.1975 7 12.6376M23 8.00005C22.3673 8.78574 21.7056 9.50267 21 10.1405M17 12.6376L18 14.9999M17 12.6376C18.5041 12.0615 19.814 11.2127 21 10.1405M21 10.1405L22.5 11.4999M1 8C1.63272 8.78569 2.29445 9.50262 3 10.1405M7 12.6376L6 14.9999M7 12.6376C5.49592 12.0614 4.18604 11.2127 3 10.1405M3 10.1405L1.5 11.4999" stroke="#4D4DAA" stroke-linecap="round" stroke-linejoin="round"/>
</svg>
