<svg width="24" height="24" viewBox="0 0 24 24" fill="none" xmlns="http://www.w3.org/2000/svg">
    <path d="M5 11.3293V18.8209C5 19.597 5.20341 20.3802 5.86425 20.7873C6.77333 21.3472 8.56932 22.0011 11.9999 22.0011C15.4305 22.0011 17.2265 21.3473 18.1356 20.7873C18.7965 20.3802 18.9999 19.597 18.9999 18.8208L19 11.3293M10 13V10M14 13V10M10 4.5H6.5C4.567 4.5 3 6.067 3 8V8C3 9.933 4.567 11.5 6.5 11.5H17.5C19.433 11.5 21 9.933 21 8V8C21 6.067 19.433 4.5 17.5 4.5H14M10 4.5C10 4.5 9.99988 2 11.9999 2C14 2 14 4.5 14 4.5M10 4.5H14M15 18V17C15 16.4477 14.5523 16 14 16H10C9.44772 16 9 16.4477 9 17V18C9 18.5523 9.44772 19 10 19H14C14.5523 19 15 18.5523 15 18Z"
          stroke="#7B61FF" stroke-linecap="round" stroke-linejoin="round"/>
</svg>
