<svg width="24" height="24" viewBox="0 0 24 24" fill="none" xmlns="http://www.w3.org/2000/svg">
    <path fill-rule="evenodd" clip-rule="evenodd"
          d="M12 1.5C12.2761 1.5 12.5 1.72386 12.5 2V4C12.5 4.27614 12.2761 4.5 12 4.5C11.7239 4.5 11.5 4.27614 11.5 4V2C11.5 1.72386 11.7239 1.5 12 1.5ZM6.75001 2.90673C6.98916 2.76866 7.29495 2.8506 7.43302 3.08974L8.43235 4.82064C8.57042 5.05979 8.48849 5.36558 8.24934 5.50365C8.01019 5.64172 7.7044 5.55979 7.56633 5.32064L6.567 3.58974C6.42893 3.3506 6.51086 3.0448 6.75001 2.90673ZM17.25 2.90673C17.4892 3.0448 17.5711 3.3506 17.433 3.58974L16.4337 5.32064C16.2956 5.55979 15.9898 5.64173 15.7507 5.50366C15.5115 5.36559 15.4296 5.05979 15.5677 4.82064L16.567 3.08974C16.7051 2.8506 17.0109 2.76866 17.25 2.90673ZM2.90674 6.75C3.04481 6.51085 3.35061 6.42891 3.58975 6.56699L5.32064 7.56632C5.55979 7.70439 5.64173 8.01018 5.50366 8.24933C5.36559 8.48848 5.05979 8.57042 4.82064 8.43234L3.08975 7.43301C2.85061 7.29494 2.76867 6.98914 2.90674 6.75ZM21.0933 6.75C21.2313 6.98914 21.1494 7.29494 20.9103 7.43301L19.1794 8.43235C18.9402 8.57042 18.6344 8.48848 18.4963 8.24934C18.3583 8.01019 18.4402 7.70439 18.6794 7.56632L20.4103 6.56699C20.6494 6.42891 20.9552 6.51085 21.0933 6.75ZM1.5 12C1.5 11.7239 1.72386 11.5 2 11.5H4C4.27614 11.5 4.5 11.7239 4.5 12C4.5 12.2761 4.27614 12.5 4 12.5H2C1.72386 12.5 1.5 12.2761 1.5 12ZM19.5 12C19.5 11.7239 19.7239 11.5 20 11.5H22C22.2761 11.5 22.5 11.7239 22.5 12C22.5 12.2761 22.2761 12.5 22 12.5H20C19.7239 12.5 19.5 12.2761 19.5 12ZM18.4963 15.7507C18.6344 15.5115 18.9402 15.4296 19.1794 15.5676L20.9103 16.567C21.1494 16.7051 21.2313 17.0109 21.0933 17.25C20.9552 17.4891 20.6494 17.5711 20.4103 17.433L18.6794 16.4337C18.4402 16.2956 18.3583 15.9898 18.4963 15.7507ZM5.50366 15.7507C5.64173 15.9898 5.55979 16.2956 5.32064 16.4337L3.58976 17.433C3.35061 17.5711 3.04481 17.4891 2.90674 17.25C2.76867 17.0109 2.85061 16.7051 3.08975 16.567L4.82064 15.5677C5.05979 15.4296 5.36559 15.5115 5.50366 15.7507ZM15.7507 18.4963C15.9898 18.3583 16.2956 18.4402 16.4337 18.6794L17.433 20.4103C17.5711 20.6494 17.4892 20.9552 17.25 21.0933C17.0109 21.2313 16.7051 21.1494 16.567 20.9103L15.5677 19.1794C15.4296 18.9402 15.5115 18.6344 15.7507 18.4963ZM8.24934 18.4963C8.48848 18.6344 8.57042 18.9402 8.43235 19.1794L7.43302 20.9103C7.29495 21.1494 6.98915 21.2313 6.75001 21.0933C6.51086 20.9552 6.42892 20.6494 6.56699 20.4103L7.56632 18.6794C7.7044 18.4402 8.01019 18.3583 8.24934 18.4963ZM12 19.5C12.2761 19.5 12.5 19.7239 12.5 20V22C12.5 22.2761 12.2761 22.5 12 22.5C11.7239 22.5 11.5 22.2761 11.5 22V20C11.5 19.7239 11.7239 19.5 12 19.5Z"
          fill="#4D4DAA"/>
    <path d="M9.24918 7.23637C10.0588 6.76795 10.9989 6.5 12 6.5C13.0011 6.5 13.9412 6.76795 14.7508 7.23637C15.5853 7.71918 16.2808 8.41474 16.7636 9.24918C17.2321 10.0588 17.5 10.9989 17.5 12C17.5 13.0011 17.2321 13.9412 16.7636 14.7508C16.2808 15.5853 15.5853 16.2808 14.7508 16.7636C13.9412 17.2321 13.0012 17.5 12 17.5C10.9989 17.5 10.0588 17.2321 9.24918 16.7636C8.41474 16.2808 7.71918 15.5853 7.23637 14.7508C6.76795 13.9412 6.5 13.0011 6.5 12C6.5 10.9989 6.76795 10.0588 7.23637 9.24918C7.71918 8.41474 8.41474 7.71918 9.24918 7.23637Z"
          fill="#4D4DAA"/>
</svg>
