<svg width="24" height="24" viewBox="0 0 24 24" fill="none" xmlns="http://www.w3.org/2000/svg">
    <path d="M20 12H22M12 20V22M4 12H2M12 4V2M17 3.33974L16.0007 5.07064M7.00001 20.6603L7.99934 18.9294M20.6603 17L18.9294 16.0007M3.33975 7L5.07064 7.99933M20.6603 7L18.9294 7.99934M3.33976 17L5.07064 16.0007M17 20.6603L16.0007 18.9294M7.00001 3.33974L7.99934 5.07064"
          stroke="#4D4DAA" stroke-linecap="round" stroke-linejoin="round"/>
    <path d="M14.5004 7.66915C13.7649 7.24358 12.9109 7 12 7C11.0891 7 10.2351 7.24358 9.49959 7.66915C8.74084 8.10816 8.10816 8.74084 7.66915 9.49958C7.24358 10.2351 7 11.0891 7 12C7 12.9109 7.24358 13.7649 7.66915 14.5004C8.10816 15.2592 8.74084 15.8918 9.49959 16.3308C10.2351 16.7564 11.0891 17 12 17C12.9109 17 13.7649 16.7564 14.5004 16.3308C15.2592 15.8918 15.8918 15.2592 16.3308 14.5004C16.7564 13.7649 17 12.9109 17 12C17 11.0891 16.7564 10.2351 16.3308 9.49959C15.8918 8.74084 15.2592 8.10816 14.5004 7.66915Z"
          stroke="#4D4DAA" stroke-linecap="round" stroke-linejoin="round"/>
</svg>
