<svg width="48" height="48" viewBox="0 0 48 48" fill="none" xmlns="http://www.w3.org/2000/svg">
    <path fill-rule="evenodd" clip-rule="evenodd"
          d="M23 11.5C21.6193 11.5 20.5 12.6193 20.5 14V18C20.5 18.8284 19.8284 19.5 19 19.5C18.1716 19.5 17.5 18.8284 17.5 18V14C17.5 10.9624 19.9624 8.5 23 8.5H34C37.0376 8.5 39.5 10.9624 39.5 14V34C39.5 37.0376 37.0376 39.5 34 39.5H23C19.9624 39.5 17.5 37.0376 17.5 34V30C17.5 29.1716 18.1716 28.5 19 28.5C19.8284 28.5 20.5 29.1716 20.5 30V34C20.5 35.3807 21.6193 36.5 23 36.5H34C35.3807 36.5 36.5 35.3807 36.5 34V14C36.5 12.6193 35.3807 11.5 34 11.5H23Z"
          fill="black"/>
    <path fill-rule="evenodd" clip-rule="evenodd"
          d="M24.4393 18.9393C25.0251 18.3536 25.9749 18.3536 26.5607 18.9393L30.5607 22.9393C31.1464 23.5251 31.1464 24.4749 30.5607 25.0607L26.5607 29.0607C25.9749 29.6464 25.0251 29.6464 24.4393 29.0607C23.8536 28.4749 23.8536 27.5251 24.4393 26.9393L25.8787 25.5H10C9.17157 25.5 8.5 24.8284 8.5 24C8.5 23.1716 9.17157 22.5 10 22.5H25.8787L24.4393 21.0607C23.8536 20.4749 23.8536 19.5251 24.4393 18.9393Z"
          fill="black"/>
</svg>
