<svg width="24" height="24" viewBox="0 0 24 24" fill="none" xmlns="http://www.w3.org/2000/svg">
<path d="M14 20.5C14.2761 20.5 14.5 20.2761 14.5 20C14.5 19.7239 14.2761 19.5 14 19.5V20.5ZM14 4.5C14.2761 4.5 14.5 4.27614 14.5 4C14.5 3.72386 14.2761 3.5 14 3.5V4.5ZM11 11.5C10.7239 11.5 10.5 11.7239 10.5 12C10.5 12.2761 10.7239 12.5 11 12.5V11.5ZM20 12L20.3536 12.3536C20.5488 12.1583 20.5488 11.8417 20.3536 11.6464L20 12ZM17.3536 8.64645C17.1583 8.45118 16.8417 8.45118 16.6464 8.64645C16.4512 8.84171 16.4512 9.15829 16.6464 9.35355L17.3536 8.64645ZM16.6464 14.6464C16.4512 14.8417 16.4512 15.1583 16.6464 15.3536C16.8417 15.5488 17.1583 15.5488 17.3536 15.3536L16.6464 14.6464ZM14 19.5H7V20.5H14V19.5ZM4.5 17V7H3.5V17H4.5ZM7 4.5H14V3.5H7V4.5ZM11 12.5H20V11.5H11V12.5ZM20.3536 11.6464L17.3536 8.64645L16.6464 9.35355L19.6464 12.3536L20.3536 11.6464ZM19.6464 11.6464L16.6464 14.6464L17.3536 15.3536L20.3536 12.3536L19.6464 11.6464ZM4.5 7C4.5 5.61929 5.61929 4.5 7 4.5V3.5C5.067 3.5 3.5 5.067 3.5 7H4.5ZM7 19.5C5.61929 19.5 4.5 18.3807 4.5 17H3.5C3.5 18.933 5.067 20.5 7 20.5V19.5Z" fill="#4D4DAA"/>
</svg>
