<svg width="24" height="24" viewBox="0 0 24 24" fill="none" xmlns="http://www.w3.org/2000/svg">
<path d="M15 20.5C15.2761 20.5 15.5 20.2761 15.5 20C15.5 19.7239 15.2761 19.5 15 19.5V20.5ZM15 4.5C15.2761 4.5 15.5 4.27614 15.5 4C15.5 3.72386 15.2761 3.5 15 3.5V4.5ZM9 11.5C8.72386 11.5 8.5 11.7239 8.5 12C8.5 12.2761 8.72386 12.5 9 12.5V11.5ZM18 12L18.3536 12.3536C18.5488 12.1583 18.5488 11.8417 18.3536 11.6464L18 12ZM15.3536 8.64645C15.1583 8.45118 14.8417 8.45118 14.6464 8.64645C14.4512 8.84171 14.4512 9.15829 14.6464 9.35355L15.3536 8.64645ZM14.6464 14.6464C14.4512 14.8417 14.4512 15.1583 14.6464 15.3536C14.8417 15.5488 15.1583 15.5488 15.3536 15.3536L14.6464 14.6464ZM15 19.5H8V20.5H15V19.5ZM5.5 17V7H4.5V17H5.5ZM8 4.5H15V3.5H8V4.5ZM9 12.5H18V11.5H9V12.5ZM18.3536 11.6464L15.3536 8.64645L14.6464 9.35355L17.6464 12.3536L18.3536 11.6464ZM17.6464 11.6464L14.6464 14.6464L15.3536 15.3536L18.3536 12.3536L17.6464 11.6464ZM5.5 7C5.5 5.61929 6.61929 4.5 8 4.5V3.5C6.067 3.5 4.5 5.067 4.5 7H5.5ZM8 19.5C6.61929 19.5 5.5 18.3807 5.5 17H4.5C4.5 18.933 6.067 20.5 8 20.5V19.5Z" fill="#4D4DAA"/>
</svg>
