<svg width="24" height="24" viewBox="0 0 24 24" fill="none" xmlns="http://www.w3.org/2000/svg">
    <path d="M7 8H5C3.89543 8 3 8.89543 3 10V16C3 17.1046 3.89543 18 5 18H7M7 8V5C7 3.89543 7.89543 3 9 3H15C16.1046 3 17 3.89543 17 5V8M7 8H17M17 8H19C20.1046 8 21 8.89543 21 10V16C21 17.1046 20.1046 18 19 18H17M7 18V16.5C7 15.3954 7.89543 14.5 9 14.5H15C16.1046 14.5 17 15.3954 17 16.5V18M7 18V19C7 20.1046 7.89543 21 9 21H15C16.1046 21 17 20.1046 17 19V18M9 17H13M9 19H11M17.5 10.5V10.5C17.7761 10.2239 18.2239 10.2239 18.5 10.5V10.5C18.7761 10.7761 18.7761 11.2239 18.5 11.5V11.5C18.2239 11.7761 17.7761 11.7761 17.5 11.5V11.5C17.2239 11.2239 17.2239 10.7761 17.5 10.5ZM15.5 11.5V11.5C15.7761 11.2239 15.7761 10.7761 15.5 10.5V10.5C15.2239 10.2239 14.7761 10.2239 14.5 10.5V10.5C14.2239 10.7761 14.2239 11.2239 14.5 11.5V11.5C14.7761 11.7761 15.2239 11.7761 15.5 11.5Z"
          stroke="#4D4DAA" stroke-linecap="round" stroke-linejoin="round"/>
</svg>
