<svg width="30" height="30" viewBox="0 0 30 30" fill="none" xmlns="http://www.w3.org/2000/svg">
    <path d="M24 25C24.5523 25 25 24.5523 25 24V21.25C25 19.9239 24.4732 18.6521 23.5355 17.7145C22.5979 16.7768 21.3261 16.25 20 16.25H10C8.67392 16.25 7.40215 16.7768 6.46447 17.7145C5.52678 18.6521 5 19.9239 5 21.25V24C5 24.5523 5.44772 25 6 25H24Z"
          fill="#4D4DAA"
    />
    <path d="M20 10C20 12.7614 17.7614 15 15 15C12.2386 15 10 12.7614 10 10C10 7.23858 12.2386 5 15 5C17.7614 5 20 7.23858 20 10Z"
          fill="#4D4DAA"
    />
</svg>
