<svg width="24" height="24" viewBox="0 0 24 24" fill="none" xmlns="http://www.w3.org/2000/svg">
<path fill-rule="evenodd" clip-rule="evenodd" d="M12 6.50012C7.31123 6.50012 4.14379 8.35562 1.51635 11.3822C1.20816 11.7372 1.20816 12.2631 1.51635 12.6181C4.14379 15.6446 7.31123 17.5001 12 17.5001C16.6888 17.5001 19.8562 15.6446 22.4836 12.6181C22.7918 12.2631 22.7918 11.7372 22.4836 11.3822C19.8562 8.35562 16.6888 6.50012 12 6.50012ZM12 16C14.2091 16 16 14.2091 16 12C16 9.79086 14.2091 8 12 8C9.79086 8 8 9.79086 8 12C8 14.2091 9.79086 16 12 16Z" fill="#4D4DAA" stroke="#4D4DAA" stroke-linecap="round" stroke-linejoin="round"/>
<path d="M14 12C14 13.1046 13.1046 14 12 14C10.8954 14 10 13.1046 10 12C10 10.8954 10.8954 10 12 10C13.1046 10 14 10.8954 14 12Z" fill="#4D4DAA"/>
</svg>
