<svg width="24" height="24" viewBox="0 0 24 24" fill="none" xmlns="http://www.w3.org/2000/svg">
    <path d="M12 6.5C12 6.5 9.66754 5.51916 8 5.00002C6.40655 4.50395 4.05238 4.71209 2.82013 4.87468C2.34256 4.9377 2 5.34937 2 5.83108V16.3163C2 16.9354 2.55703 17.4114 3.17323 17.3523C4.25108 17.2488 5.85086 17.1797 7 17.5C9.10292 18.0862 12 19.5 12 19.5M12 6.5V19.5M12 6.5C12 6.5 14.3325 5.51916 16 5.00002C17.5934 4.50395 19.9476 4.71207 21.1799 4.87466C21.6574 4.93767 22 5.34934 22 5.83106V16.3163C22 16.9353 21.443 17.4114 20.8268 17.3523C19.7489 17.2488 18.1491 17.1797 17 17.5C14.8971 18.0862 12 19.5 12 19.5M4 7.50004C4 7.50004 5.84276 7.31731 7 7.50004C8.21983 7.69264 10 8.50004 10 8.50004M4 10C4 10 5.53248 9.86929 6.5 10C7.29783 10.1079 8.5 10.5 8.5 10.5M4 12.5C4 12.5 5.42138 12.4087 6 12.5C6.60992 12.5963 7.5 13 7.5 13M4 15C4 15 5.84276 14.8173 7 15C8.21983 15.1926 10 16 10 16M20 7.50004C20 7.50004 18.1572 7.31731 17 7.50004C15.7802 7.69264 14 8.50004 14 8.50004M18.5 10.5C18.5 10.5 16.9675 10.3693 16 10.5C15.2022 10.6078 14 11 14 11M17.5 13C17.5 13 16.0786 12.9086 15.5 13C14.8901 13.0963 14 13.5 14 13.5M20 15C20 15 18.1572 14.8173 17 15C15.7802 15.1926 14 16 14 16"
          stroke="#7B61FF" stroke-linecap="round" stroke-linejoin="round"/>
</svg>
