<svg viewBox="0 0 60 60" fill="none" xmlns="http://www.w3.org/2000/svg">
    <path d="M52 33V44.5882M52 33L47 25M52 33H49L46 31L43 33H41L38 31L35 33H33L30 31L27 33H25L22 31L19 33H17L14 31L11 33H8M8 33V44.5882M8 33L13 25M52 20C52 14.5421 49.6223 7 42.2222 7H17.7778C10.3777 7 8 14.5421 8 20M52 20L47 25M52 20H45L42 22L39 20H37L34 22L31 20H29L26 22L23 20H21L18 22L15 20H8M8 20L13 25M8 44.5882V47.0588C8 48.3693 8.51508 49.6261 9.43192 50.5528C10.3488 51.4794 11.5923 52 12.8889 52H15.3333M8 44.5882H15.3333V52M15.3333 52H44.6667M52 44.5882V47.0588C52 48.3693 51.4849 49.6261 50.5681 50.5528C49.6512 51.4794 48.4077 52 47.1111 52H44.6667M52 44.5882H44.6667V52M47 25H13M17 10L23 11M43 10L37 11M40 17V17C38.8954 17 38 16.1046 38 15V15C38 13.8954 38.8954 13 40 13V13C41.1046 13 42 13.8954 42 15V15C42 16.1046 41.1046 17 40 17ZM20 17V17C21.1046 17 22 16.1046 22 15V15C22 13.8954 21.1046 13 20 13V13C18.8954 13 18 13.8954 18 15V15C18 16.1046 18.8954 17 20 17Z"
          stroke="#4D4DAA" stroke-width="1.5" stroke-linecap="round" stroke-linejoin="round"/>
</svg>
