<svg viewBox="0 0 24 24" fill="none" xmlns="http://www.w3.org/2000/svg">
    <path d="M7 5V7.9047M7 5L6 4L7 3L8 4L7 5ZM7 7.9047L10.493 5.87546C11.4248 5.33418 12.5752 5.33418 13.507 5.87546L17 7.9047M7 7.9047L5.89204 8.54835C5.34101 8.86847 5 9.47066 5 10.1236V16.1427C5 16.7957 5.34101 17.3978 5.89204 17.718L11.142 20.7679C11.6748 21.0774 12.3252 21.0774 12.858 20.7679L18.108 17.718C18.659 17.3978 19 16.7957 19 16.1427V10.1236C19 9.47066 18.659 8.86847 18.108 8.54836L17 7.9047M17 5L17 7.9047M17 5L16 4L17 3L18 4L17 5ZM9.5 11.5V12.5M14.5 11.5V12.5M10 16.5C10 16.5 11 17 12 17C13 17 14 16.5 14 16.5M8.95017 14H15.0124C16.1101 14 17 13.1101 17 12.0124V12.0124C17 10.905 16.0951 10.0112 14.9878 10.0249L8.92607 10.0998C7.8585 10.113 7 10.9822 7 12.0498V12.0498C7 13.1269 7.87312 14 8.95017 14Z"
          stroke="#4D4DAA" stroke-linecap="round" stroke-linejoin="round"/>
</svg>
