<svg width="16" height="16" viewBox="0 0 16 16" fill="none" xmlns="http://www.w3.org/2000/svg">
<rect width="16" height="16" rx="4" fill="#CE0000"/>
<g clip-path="url(#clip0_2546_4296)">
<path d="M10.0156 5.86917C10.0156 5.93203 10.0542 5.99022 10.1171 6.02221L13.6778 7.83238C13.8156 7.90243 13.9897 7.81701 13.9897 7.67934V7.08074C13.9897 7.01788 13.9511 6.9597 13.8881 6.92771L10.3275 5.11754C10.1897 5.04748 10.0156 5.13291 10.0156 5.27058V5.86917Z" fill="white"/>
<path d="M9.33849 8.60423C9.33849 8.54142 9.29995 8.48327 9.2371 8.45126L8.64017 8.14727C8.50237 8.0771 8.32812 8.16251 8.32812 8.30024V11.389C8.32812 11.5267 8.50237 11.6122 8.64017 11.542L9.2371 11.238C9.29995 11.206 9.33849 11.1478 9.33849 11.085V8.60423Z" fill="white"/>
<path d="M9.34197 4.28225C9.34197 4.14458 9.5161 4.05915 9.6539 4.12922L13.6777 6.17536C13.8155 6.24543 13.9896 6.16 13.9896 6.02233V4.9793C13.9896 4.91645 13.9511 4.85828 13.8882 4.82628L8.64356 2.15867C8.50576 2.08858 8.3316 2.174 8.3316 2.31169V5.71081C8.3316 5.7423 8.35097 5.77143 8.38252 5.78741L9.18617 6.19436C9.25507 6.22925 9.34197 6.18653 9.34197 6.11776V4.28225Z" fill="white"/>
<path d="M7.65807 8.30024C7.65807 8.16251 7.48382 8.0771 7.34602 8.14727L6.7491 8.45126C6.68625 8.48327 6.64771 8.54142 6.64771 8.60423V11.085C6.64771 11.1478 6.68625 11.206 6.74909 11.238L7.34602 11.542C7.48382 11.6122 7.65807 11.5267 7.65807 11.389V8.30024Z" fill="white"/>
<path d="M6.33575 4.12922C6.47355 4.05915 6.64768 4.14458 6.64768 4.28225V6.11776C6.64768 6.18653 6.73458 6.22925 6.80348 6.19436L7.60713 5.78741C7.63868 5.77143 7.65804 5.7423 7.65804 5.71081V2.31169C7.65804 2.174 7.48389 2.08858 7.34609 2.15867L2.10148 4.82628C2.03858 4.85828 2 4.91645 2 4.9793V6.02233C2 6.16 2.17413 6.24543 2.31193 6.17536L6.33575 4.12922Z" fill="white"/>
<path d="M13.9897 9.41534C13.9897 9.35249 13.9511 9.29432 13.8882 9.26233L8.10005 6.31805C8.03515 6.28504 7.95451 6.28503 7.8896 6.31803L3.78546 8.40477C3.72254 8.43676 3.68394 8.49495 3.68394 8.55781V9.15908C3.68394 9.2968 3.85817 9.38222 3.99597 9.31206L7.88958 7.32974C7.95449 7.29669 8.03518 7.29667 8.10011 7.32969L12.8802 9.76065C12.9416 9.79188 12.9793 9.84868 12.9793 9.91004V9.91004C12.9793 9.9714 12.9416 10.0282 12.8802 10.0594L8.10005 12.4904C8.03516 12.5234 7.95451 12.5234 7.88961 12.4904L3.11186 10.0607C3.04895 10.0287 3.01037 9.97048 3.01037 9.90763V7.57787C3.01037 7.51499 3.04899 7.45679 3.11194 7.42481L5.87253 6.0222C5.93548 5.99022 5.9741 5.93202 5.9741 5.86914V5.27058C5.9741 5.13291 5.79999 5.04748 5.66219 5.11754L2.10152 6.92771C2.0386 6.95969 2 7.01788 2 7.08074V10.852C2 10.9149 2.03861 10.9731 2.10155 11.0051L7.88967 13.9465C7.95454 13.9795 8.03513 13.9795 8.1 13.9465L13.8881 11.0051C13.9511 10.9731 13.9897 10.9149 13.9897 10.852V9.41534Z" fill="white"/>
</g>
<defs>
<clipPath id="clip0_2546_4296">
<rect width="12" height="12" fill="white" transform="translate(2 2)"/>
</clipPath>
</defs>
</svg>
