<svg width="16" height="16" viewBox="0 0 16 16" fill="none" xmlns="http://www.w3.org/2000/svg">
<rect width="16" height="16" rx="4" fill="#CE0000"/>
<path d="M9.8427 5.229C9.8427 5.02921 10.0532 4.9052 10.2198 5.0068L13.6228 6.91031C13.7895 7.01191 14 6.8879 14 6.6881V5.83144C14 5.74017 13.9533 5.65568 13.8771 5.60926L9.37716 3.03627C9.21051 2.93464 9 3.05865 9 3.25846V12.3063C9 12.352 9.02345 12.3943 9.06163 12.4175L9.65433 12.7773C9.73765 12.8279 9.8427 12.7659 9.8427 12.6661V5.229Z" fill="white"/>
<path d="M5.78019 5.0068C5.94684 4.9052 6.15732 5.02921 6.15732 5.229V12.6661C6.15732 12.7659 6.26237 12.8279 6.3457 12.7773L6.93839 12.4175C6.97657 12.3943 7.00002 12.352 7.00002 12.3063V3.25846C7.00002 3.05865 6.78951 2.93464 6.62286 3.03627L2.12284 5.60926C2.04671 5.65568 2 5.74017 2 5.83144V6.68811C2 6.8879 2.21048 7.01191 2.37714 6.91031L5.78019 5.0068Z" fill="white"/>
</svg>
