<svg width="24" height="24" viewBox="0 0 24 24" fill="none" xmlns="http://www.w3.org/2000/svg">
<path d="M15 7.99999L2 21L3 22M14 6.99999C14 6.99999 13 5.99999 13 4.49999C13 2.99999 13 1.99999 13 1.99999C13 1.99999 9.5 0.499991 7 2.99999C4.5 5.49999 6 8.99999 6 8.99999C6 8.99999 7 9 8.5 8.99999C10 8.99999 11 9.99999 11 9.99999M7 6.99999C7 6.99999 6.5 5.49999 8 3.99999C9.5 2.49999 11 2.99999 11 2.99999M13 12C13 12 14 13 14 14.5C14 16 14 17 14 17C14 17 17.5 18.5 20 16C22.5 13.5 21 10 21 10C21 10 20 10 18.5 10C17 10 16 9 16 9M20 12C20 12 20.5 13.5 19 15C17.5 16.5 16 16 16 16" stroke="#7B61FF" stroke-linecap="round" stroke-linejoin="round"/>
</svg>
