<svg width="72" height="72" viewBox="0 0 72 72" fill="none" xmlns="http://www.w3.org/2000/svg">
<path d="M45 51.7241C48.2409 49.7872 51 46.2405 51 39.7895C51 38.5621 50.8668 37.2927 50.6256 36M27 51.7241C23.7591 49.7872 21 46.2405 21 39.7895C21 38.5621 21.1332 37.2927 21.3744 36M46.0835 24C41.7095 15.7613 36 9 36 9C36 9 30.2905 15.7613 25.9165 24M36 66C36 66 38.4446 60.9626 39.1727 53.746C39.3001 52.4832 39.375 51.1536 39.375 49.7727C39.375 40.5 38.25 34.3182 38.25 34.3182L40.5 32.3863L45 33L49.5 30L45 27L40.6633 27.7228C40.5546 27.7409 40.4446 27.75 40.3345 27.75H38.25L37.5 18H34.5L33.75 27.75H31.6655C31.5554 27.75 31.4454 27.7409 31.3367 27.7228L27 27L22.5 30L27 33L31.5 32.3863L33.75 34.3182C33.75 34.3182 32.625 40.5 32.625 49.7727C32.625 51.1536 32.6999 52.4832 32.8273 53.746C33.5554 60.9626 36 66 36 66Z" stroke="#7B61FF" stroke-width="1.5" stroke-linecap="round" stroke-linejoin="round"/>
</svg>
