<svg width="73" height="72" viewBox="0 0 73 72" fill="none" xmlns="http://www.w3.org/2000/svg">
<path d="M24.5 42L15.5 51M15.5 51L9.5 45M15.5 51L27.5 63M15.5 51L6.5 60L12.5 66M42.5 24L60.5 6H66.5V12L63.5 15M29 49.5L26 52.5M48.5 42L57.5 51M57.5 51L63.5 45M57.5 51L45.5 63M57.5 51L66.5 60L60.5 66L48.5 54M30.5 24L12.5 6H6.5V12M24.5 30C24.5 25.6389 24.5 24 24.5 24H48.5C48.5 24 48.5 29 48.5 39C48.5 49 36.5 54 36.5 54C36.5 54 24.5 50.25 24.5 39C24.5 35.1872 24.5 32.2358 24.5 30ZM24.5 30L21.5 27L15.5 21M54.5 24L59 19.5" stroke="#7B61FF" stroke-width="1.5" stroke-linecap="round" stroke-linejoin="round"/>
</svg>
