<svg width="24" height="24" viewBox="0 0 24 24" fill="none" xmlns="http://www.w3.org/2000/svg">
<path d="M7 11.5L6.30317 14.2873C6.10412 15.0835 6.05387 15.9555 6.52263 16.6291C6.83815 17.0826 7.31472 17.5 8 17.5C9.5 17.5 10 15.5 10 15.5C10 15.5 10.5 17.5 12 17.5M12 17.5C13.5 17.5 14 15.5 14 15.5C14 15.5 14.5 17.5 16 17.5C17.5 17.5 18 15.5 18 15.5C18 15.5 18.5 16.5 19.5 16.5C19.7623 16.5 19.9901 16.4312 20.1836 16.3297C20.871 15.9692 21 15.0959 21 14.3197V8.5C21 8.5 21 8.5 21 8.5C21 8.5 21 7 19.5 7C18 7 18 8.5 18 8.5C18 8.5 17.5 6 16 6C14.5 6 14 7.5 14 7.5C14 7.5 13.5 6 12 6C10.5 6 10 8 10 8C10 8 9 6.5 8 6.5C7.36547 6.5 6.73093 7.10395 6.35188 7.5454C6.10272 7.83558 5.93219 8.18083 5.79789 8.53895L3.40266 14.9262C3.14589 15.6109 3.18582 16.3716 3.51285 17.0257V17.0257C3.82477 17.6495 4.37172 18.1239 5.0334 18.3445L7 19M12 17.5L11.7279 18.3162C11.5918 18.7246 11.2097 19 10.7792 19H10M18 10.5V13.5M18 10.5L17.5 10M18 10.5L18.5 10M14 13.5V10M14 10L13.5 9.5M14 10L14.5 9.5M10 10V13.5M10 10L9.5 9.5M10 10L10.5 9.5" stroke="#7B61FF" stroke-linecap="round" stroke-linejoin="round"/>
</svg>
