<svg width="72" height="72" viewBox="0 0 72 72" fill="none" xmlns="http://www.w3.org/2000/svg">
<path d="M52.7409 27C52.7409 27 55.7409 24 57.2409 19.5C58.7409 15 58.7409 9 58.7409 9C58.7409 9 64.7409 19.5 63.2409 28.5C61.7409 37.5 55.7409 48 55.7409 48M16.741 27C16.741 27 13.741 24 12.241 19.5C10.741 15 10.741 9 10.741 9C10.741 9 4.74097 19.5 6.24097 28.5C7.74097 37.5 13.741 48 13.741 48M24 32.1429C24 32.1429 24 22.5 34.5 22.5M27.2409 37.2857V63L19.7409 55.2857V32.1429C19.7409 32.1429 19.7409 32.1429 19.7409 32.1429C19.7409 32.1429 19.7409 18 34.7409 18C49.7409 18 49.7409 32.1429 49.7409 32.1429C49.7409 32.1429 49.7409 32.1429 49.7409 32.1429V55.2857L42.2409 63V37.2857L34.7409 42.4286L27.2409 37.2857Z" stroke="#7B61FF" stroke-width="1.5" stroke-linecap="round" stroke-linejoin="round"/>
</svg>
