<svg width="24" height="24" viewBox="0 0 24 24" fill="none" xmlns="http://www.w3.org/2000/svg">
    <path d="M17 22V20.6667C17 19.9594 16.7366 19.2811 16.2678 18.781C15.7989 18.281 15.163 18 14.5 18H9.5C8.83696 18 8.20107 18.281 7.73223 18.781C7.26339 19.2811 7 19.9594 7 20.6667V22M5.5 7.5L10 4.5M18.5 7.5L14 4.5M8 15L5 11M16 15L19 11M15 13C15 14.6569 13.6569 16 12 16C10.3431 16 9 14.6569 9 13C9 11.3431 10.3431 10 12 10C13.6569 10 15 11.3431 15 13ZM14 4C14 5.10457 13.1046 6 12 6C10.8954 6 10 5.10457 10 4C10 2.89543 10.8954 2 12 2C13.1046 2 14 2.89543 14 4ZM6 9C6 10.1046 5.10457 11 4 11C2.89543 11 2 10.1046 2 9C2 7.89543 2.89543 7 4 7C5.10457 7 6 7.89543 6 9ZM22 9C22 10.1046 21.1046 11 20 11C18.8954 11 18 10.1046 18 9C18 7.89543 18.8954 7 20 7C21.1046 7 22 7.89543 22 9Z"
          stroke="#7B61FF" stroke-linecap="round" stroke-linejoin="round"/>
</svg>
