<svg width="24" height="24" viewBox="0 0 24 24" fill="none" xmlns="http://www.w3.org/2000/svg">
    <path d="M12.638 13.0451L12.6446 13.0518L12.6512 13.0587L12.6577 13.0657L12.6641 13.0729L12.6704 13.0802L12.6767 13.0876L12.6829 13.0951L12.689 13.1028L12.695 13.1106L12.7009 13.1185L12.7068 13.1265L12.7126 13.1347L12.7182 13.143L12.7238 13.1514L12.7293 13.1599L12.7347 13.1686L12.74 13.1774L12.7452 13.1863L12.7503 13.1953L12.7553 13.2044L12.7601 13.2137L12.7649 13.223L12.7696 13.2325L12.7741 13.2421L12.7786 13.2518L12.7829 13.2616L12.7871 13.2715L12.7913 13.2815L12.7952 13.2916L12.7991 13.3018L12.8028 13.3122L12.8065 13.3226L12.81 13.3331L12.8133 13.3438L12.8166 13.3545L12.8197 13.3653L12.8226 13.3762L12.8255 13.3872L12.8282 13.3983L12.8308 13.4095L12.8332 13.4207L12.8355 13.4321L12.8376 13.4435L12.8396 13.455L12.8415 13.4666L12.8432 13.4783L12.8448 13.49L12.8462 13.5019L12.8475 13.5138L12.8487 13.5257L12.8496 13.5378L12.8505 13.5499L12.8511 13.562L12.8517 13.5743L12.852 13.5866L12.8522 13.5989L12.8523 13.6113L12.8521 13.6238L12.8519 13.6363L12.8514 13.6489L12.8508 13.6615L12.8501 13.6742L12.8491 13.6869L12.848 13.6997L12.8468 13.7125L12.8453 13.7253L12.8437 13.7382L12.842 13.7511L12.84 13.7641L12.8379 13.7771L12.8356 13.7901L12.8332 13.8031L12.8305 13.8162L12.8277 13.8292L12.8247 13.8423L12.8216 13.8555L12.8183 13.8686L12.8147 13.8818L12.811 13.8949L12.8072 13.9081L12.8031 13.9213L12.7989 13.9345L12.7945 13.9476L12.7899 13.9608L12.7851 13.974L12.7802 13.9872L12.7751 14.0004L12.7697 14.0135L12.7642 14.0267L12.7586 14.0398L12.7527 14.0529L12.7467 14.066L12.7404 14.0791L12.734 14.0922L12.7274 14.1052L12.7206 14.1182L12.7137 14.1312L12.7065 14.1441L12.6992 14.157L12.6917 14.1699L12.684 14.1827L12.6761 14.1955L12.668 14.2082L12.6598 14.2209L12.6514 14.2336L12.6427 14.2462L12.6339 14.2587L12.6249 14.2712L12.6158 14.2836L12.6064 14.2959L12.5969 14.3082L12.5872 14.3205L12.5773 14.3326L12.5672 14.3447L12.557 14.3567L12.5465 14.3686L12.5359 14.3805L12.5251 14.3923L12.5141 14.4039L12.503 14.4156L12.4917 14.4271L12.4802 14.4385L12.4685 14.4498L12.4566 14.461L12.4446 14.4722L12.4324 14.4832L12.42 14.4941L12.4075 14.505L12.3948 14.5157L12.3819 14.5263L12.3688 14.5368L12.3556 14.5472L12.3422 14.5574L12.3286 14.5676L12.3149 14.5776L12.301 14.5875L12.287 14.5973L12.2727 14.6069L12.2584 14.6164L12.2438 14.6258L12.2291 14.6351L12.2143 14.6442L12.1993 14.6531L12.1841 14.662L12.1688 14.6706L12.1533 14.6792L12.1377 14.6876L12.122 14.6958L12.106 14.7039L12.09 14.7118L12.0738 14.7196L12.0574 14.7272L12.0409 14.7346L12.0243 14.7419L12.0076 14.749L11.9906 14.756L11.9736 14.7628L11.9564 14.7694L11.9391 14.7758L11.9217 14.7821L11.9041 14.7882L11.8865 14.7941L11.8686 14.7998L11.8507 14.8053L11.8327 14.8107L11.8145 14.8159L11.7962 14.8208L11.7778 14.8256L11.7593 14.8302L11.7406 14.8346L11.7219 14.8388L11.7031 14.8428L11.6841 14.8466L11.6651 14.8502L11.6459 14.8536L11.6266 14.8568L11.6073 14.8598L11.5879 14.8626L11.5683 14.8652L11.5487 14.8676L11.529 14.8697L11.5092 14.8716L11.4893 14.8734L11.4694 14.8749L11.4493 14.8762L11.4292 14.8772L11.409 14.8781L11.3888 14.8787L11.3684 14.8791L11.3481 14.8793L11.3276 14.8792L11.3071 14.8789L11.2865 14.8784L11.2659 14.8777L11.2452 14.8767L11.2245 14.8755L11.2037 14.874L11.1828 14.8724L11.162 14.8705L11.1411 14.8683L11.1201 14.8659L11.0991 14.8633L11.0781 14.8604L11.0571 14.8573L11.036 14.854L11.0149 14.8504L10.9938 14.8466L10.9726 14.8425L10.9515 14.8382L10.9303 14.8336L10.9091 14.8288L10.8879 14.8237L10.8667 14.8184L10.8455 14.8128L10.8243 14.807L10.8031 14.801L10.7819 14.7947L10.7608 14.7881L10.7396 14.7813L10.7185 14.7743L10.6973 14.767L10.6762 14.7594L10.6551 14.7516L10.6341 14.7435L10.613 14.7352L10.592 14.7266L10.5711 14.7178L10.5501 14.7087L10.5292 14.6994L10.5084 14.6898L10.4876 14.68L10.4669 14.6699L10.4462 14.6595L10.4255 14.6489L10.4049 14.6381L10.3844 14.627L10.364 14.6156L10.3436 14.604L10.3233 14.5921L10.3031 14.58L10.2829 14.5677L10.2628 14.555L10.2428 14.5422L10.2229 14.529L10.2031 14.5157L10.1833 14.502L10.1637 14.4882L10.1442 14.4741L10.1247 14.4597L10.1054 14.4451L10.0862 14.4302L10.0671 14.4151L10.0481 14.3997L10.0292 14.3841L10.0104 14.3683L9.99176 14.3522L9.97324 14.3359L9.95485 14.3193L9.93659 14.3025L9.91846 14.2854L9.90047 14.2681L9.88261 14.2506L9.8649 14.2328L9.84734 14.2148L9.82993 14.1966L9.81266 14.1781L9.79555 14.1594L9.7786 14.1405L9.76181 14.1214L9.74518 14.102L9.72871 14.0824L9.71242 14.0625L9.69629 14.0425L9.68035 14.0222L9.66457 14.0017L9.64898 13.9809L9.63357 13.96L9.61835 13.9388L9.60331 13.9175L9.58847 13.8959L9.57382 13.8741L9.55936 13.8521L9.54511 13.8299L9.53105 13.8074L9.51721 13.7848L9.50356 13.762L9.49013 13.739L9.47691 13.7157L9.46391 13.6923L9.45112 13.6687L9.43856 13.6449L9.42621 13.6209L9.4141 13.5967L9.40221 13.5724L9.39055 13.5478L9.37912 13.5231L9.36793 13.4982L9.35697 13.4731L9.34626 13.4478L9.33579 13.4224L9.32556 13.3967L9.31558 13.371L9.30585 13.345L9.29638 13.3189L9.28715 13.2927L9.27818 13.2662L9.26947 13.2397L9.26103 13.2129L9.25284 13.1861L9.24492 13.159L9.23727 13.1318L9.22988 13.1045L9.22277 13.0771L9.21593 13.0495L9.20937 13.0218L9.20308 12.9939L9.19708 12.9659L9.19135 12.9378L9.18591 12.9096L9.18075 12.8812L9.17588 12.8527L9.1713 12.8242L9.16701 12.7955L9.16301 12.7667L9.1593 12.7377L9.15589 12.7087L9.15278 12.6796L9.14997 12.6504L9.14746 12.6211L9.14525 12.5917L9.14334 12.5622L9.14174 12.5327L9.14045 12.503L9.13946 12.4733L9.13878 12.4435L9.13842 12.4137L9.13836 12.3837L9.13862 12.3538L9.1392 12.3237L9.14009 12.2936L9.1413 12.2634L9.14282 12.2332L9.14467 12.2029L9.14684 12.1726L9.14932 12.1423L9.15213 12.1119L9.15527 12.0815L9.15873 12.051L9.16251 12.0205L9.16662 11.9901L9.17106 11.9595L9.17583 11.929L9.18092 11.8984L9.18635 11.8679L9.19211 11.8373L9.19819 11.8068L9.20461 11.7762L9.21136 11.7456L9.21844 11.7151L9.22586 11.6846L9.23361 11.654L9.24169 11.6235L9.25011 11.5931L9.25886 11.5626L9.26794 11.5322L9.27737 11.5018L9.28712 11.4715L9.29722 11.4412L9.30765 11.4109L9.31841 11.3807L9.32951 11.3505L9.34095 11.3204L9.35272 11.2904L9.36483 11.2604L9.37728 11.2305L9.39006 11.2007L9.40317 11.1709L9.41662 11.1413L9.43041 11.1117L9.44453 11.0821L9.45898 11.0527L9.47377 11.0234L9.48889 10.9942L9.50434 10.9651L9.52013 10.936L9.53625 10.9071L9.5527 10.8783L9.56948 10.8496L9.58659 10.8211L9.60403 10.7927L9.6218 10.7644L9.63989 10.7362L9.65832 10.7081L9.67707 10.6802L9.69614 10.6525L9.71554 10.6249L9.73526 10.5974L9.7553 10.5701L9.77566 10.543L9.79634 10.516L9.81734 10.4892L9.83866 10.4625L9.86029 10.436L9.88224 10.4097L9.9045 10.3836L9.92707 10.3577L9.94996 10.3319L9.97315 10.3064L9.99665 10.281L10.0205 10.2559L10.0446 10.2309L10.069 10.2061L10.0937 10.1816L10.1187 10.1573L10.144 10.1331L10.1696 10.1092L10.1955 10.0856L10.2217 10.0621L10.2482 10.0389L10.2749 10.0159L10.302 9.99318L10.3293 9.97068L10.357 9.94842L10.3848 9.9264L10.413 9.90464L10.4415 9.88313L10.4702 9.86189L10.4992 9.8409L10.5285 9.82017L10.558 9.79972L10.5878 9.77953L10.6178 9.75962L10.6481 9.73999L10.6787 9.72064L10.7095 9.70157L10.7406 9.68279L10.7719 9.66429L10.8035 9.6461L10.8353 9.62819L10.8673 9.61059L10.8996 9.59329L10.9321 9.57629L10.9649 9.55961L10.9979 9.54323L11.0311 9.52717L11.0645 9.51143L11.0981 9.496L11.132 9.4809L11.1661 9.46612L11.2004 9.45168L11.2349 9.43756L11.2696 9.42378L11.3045 9.41033L11.3396 9.39723L11.3748 9.38446L11.4103 9.37204L11.446 9.35997L11.4819 9.34824L11.5179 9.33687L11.5541 9.32586L11.5905 9.31519L11.627 9.30489L11.6638 9.29495L11.7007 9.28538L11.7377 9.27617L11.7749 9.26733L11.8123 9.25886L11.8498 9.25076L11.8874 9.24304L11.9252 9.2357L11.9632 9.22873L12.0012 9.22215L12.0394 9.21595L12.0778 9.21013L12.1162 9.2047L12.1548 9.19967L12.1934 9.19502L12.2322 9.19076L12.2711 9.1869L12.3101 9.18344L12.3492 9.18037L12.3884 9.1777L12.4277 9.17544L12.4671 9.17357L12.5065 9.17211L12.5461 9.17106L12.5857 9.17041L12.6253 9.17017L12.6651 9.17034L12.7049 9.17093L12.7447 9.17192L12.7847 9.17333L12.8246 9.17515L12.8646 9.17739L12.9047 9.18005L12.9448 9.18312L12.9849 9.18662L13.025 9.19053L13.0652 9.19486L13.1054 9.19962L13.1456 9.20479L13.1858 9.2104L13.226 9.21642L13.2662 9.22287L13.3064 9.22974L13.3466 9.23704L13.3868 9.24477L13.427 9.25293L13.4672 9.26151L13.5073 9.27051L13.5474 9.27995L13.5875 9.28982L13.6275 9.30011L13.6675 9.31083L13.7074 9.32198L13.7473 9.33356L13.7871 9.34557L13.8269 9.35801L13.8666 9.37087L13.9062 9.38417L13.9457 9.39789L13.9852 9.41205L14.0246 9.42663L14.0639 9.44164L14.1031 9.45707L14.1422 9.47294L14.1812 9.48923L14.2201 9.50595L14.2589 9.52309L14.2975 9.54066L14.3361 9.55865L14.3745 9.57707L14.4127 9.59591L14.4509 9.61517L14.4889 9.63485L14.5268 9.65495L14.5645 9.67548L14.602 9.69642L14.6394 9.71778L14.6767 9.73956L14.7137 9.76175L14.7506 9.78435L14.7873 9.80737L14.8239 9.8308L14.8602 9.85464L14.8964 9.87889L14.9324 9.90355L14.9681 9.92862L15.0037 9.95408L15.0391 9.97995L15.0742 10.0062L15.1091 10.0329L15.1438 10.06L15.1783 10.0874L15.2126 10.1153L15.2466 10.1435L15.2803 10.1722L15.3139 10.2012L15.3472 10.2306L15.3802 10.2604L15.413 10.2906L15.4455 10.3212L15.4777 10.3521L15.5097 10.3834L15.5414 10.4151L15.5728 10.4472L15.604 10.4796L15.6348 10.5124L15.6654 10.5456L15.6957 10.5791L15.7256 10.613L15.7553 10.6472L15.7847 10.6818L15.8137 10.7167L15.8424 10.752L15.8709 10.7876L15.8989 10.8236L15.9267 10.8599L15.9541 10.8965L15.9812 10.9335L16.008 10.9708L16.0344 11.0085L16.0605 11.0464L16.0862 11.0847L16.1116 11.1233L16.1366 11.1622L16.1612 11.2014L16.1855 11.2409L16.2094 11.2807L16.233 11.3209L16.2561 11.3613L16.2789 11.402L16.3013 11.443L16.3233 11.4843L16.3449 11.5259L16.3662 11.5677L16.387 11.6098L16.4074 11.6522L16.4274 11.6949L16.4471 11.7378L16.4663 11.781L16.4851 11.8244L16.5034 11.8681L16.5214 11.9121L16.5389 11.9562L16.5561 12.0007L16.5727 12.0453L16.589 12.0902L16.6048 12.1353L16.6202 12.1806L16.6351 12.2262L16.6496 12.272L16.6637 12.3179L16.6772 12.3641L16.6904 12.4105L16.7031 12.4571L16.7153 12.5038L16.7271 12.5508L16.7384 12.5979L16.7493 12.6452L16.7596 12.6927L16.7696 12.7404L16.779 12.7882L16.788 12.8362L16.7965 12.8843L16.8045 12.9326L16.812 12.981L16.8191 13.0296L16.8256 13.0783L16.8317 13.1271L16.8373 13.1761M16.7266 14.8788L16.7143 14.9289L16.7015 14.9789L16.6881 15.0289L16.6742 15.0788L16.6598 15.1286L16.6449 15.1783L16.6294 15.2279L16.6135 15.2775L16.597 15.3269L16.58 15.3762L16.5624 15.4254L16.5444 15.4745L16.5258 15.5235L16.5067 15.5723L16.4871 15.621L16.467 15.6696L16.4463 15.718L16.4251 15.7662L16.4035 15.8143L16.3813 15.8623L16.3586 15.91L16.3354 15.9576L16.3116 16.005L16.2874 16.0522L16.2627 16.0993L16.2374 16.1461L16.2117 16.1928L16.1854 16.2392L16.1587 16.2854L16.1314 16.3314L16.1037 16.3772L16.0754 16.4227L16.0467 16.468L16.0174 16.5131L15.9877 16.5579L15.9575 16.6025L15.9268 16.6468L15.8956 16.6909L15.8639 16.7347L15.8318 16.7782L15.7991 16.8214L15.766 16.8644L15.7324 16.9071L15.6984 16.9495L15.6639 16.9915L15.6289 17.0333L15.5934 17.0748L15.5575 17.1159L15.5211 17.1568L15.4843 17.1973L15.447 17.2375L15.4093 17.2773L15.3711 17.3169L15.3325 17.356L15.2935 17.3948L15.254 17.4333L15.214 17.4714L15.1737 17.5092L15.1329 17.5465L15.0917 17.5835L15.05 17.6202L15.008 17.6564L14.9655 17.6923L14.9226 17.7277L14.8793 17.7628L14.8356 17.7975L14.7915 17.8317L14.747 17.8656L14.7022 17.899L14.6569 17.932L14.6112 17.9646L14.5652 17.9968L14.5188 18.0285L14.472 18.0598L14.4248 18.0907L14.3773 18.1211L14.3294 18.151L14.2812 18.1805L14.2326 18.2096L14.1837 18.2381L14.1344 18.2662L14.0848 18.2939L14.0348 18.3211L13.9845 18.3477L13.9339 18.3739L13.883 18.3997L13.8317 18.4249L13.7801 18.4496L13.7283 18.4739L13.6761 18.4976L13.6236 18.5208L13.5709 18.5435L13.5178 18.5658L13.4645 18.5874L13.4109 18.6086L13.357 18.6293L13.3028 18.6494L13.2484 18.669L13.1938 18.688L13.1388 18.7066L13.0837 18.7246L13.0283 18.742L12.9726 18.7589L12.9167 18.7752L12.8606 18.791L12.8043 18.8063L12.7478 18.821L12.691 18.8351L12.6341 18.8487L12.5769 18.8617L12.5196 18.8741L12.462 18.886L12.4043 18.8973L12.3464 18.908L12.2884 18.9181L12.2301 18.9277L12.1718 18.9366L12.1132 18.945L12.0545 18.9528L11.9957 18.9601L11.9367 18.9667L11.8777 18.9727L11.8184 18.9781L11.7591 18.983L11.6997 18.9872L11.6401 18.9909L11.5805 18.9939L11.5207 18.9963L11.4609 18.9982L11.401 18.9994L11.341 19L11.2809 19L11.2208 18.9994L11.1606 18.9982L11.1004 18.9963L11.0401 18.9939L10.9798 18.9908L10.9195 18.9872L10.8591 18.9829L10.7987 18.9779L10.7383 18.9724L10.6779 18.9662L10.6175 18.9595L10.5571 18.9521L10.4967 18.9441L10.4363 18.9354L10.376 18.9262L10.3157 18.9163L10.2554 18.9058L10.1952 18.8946L10.135 18.8829L10.0749 18.8705L10.0148 18.8575L9.95479 18.8438L9.89487 18.8296L9.83503 18.8147L9.77529 18.7992L9.71563 18.7831L9.65608 18.7663L9.59664 18.749L9.53731 18.731L9.47811 18.7123L9.41903 18.6931L9.36008 18.6733L9.30128 18.6528L9.24262 18.6317L9.18412 18.61L9.12577 18.5877L9.06759 18.5647L9.00959 18.5412L8.95176 18.517L8.89412 18.4922L8.83667 18.4668L8.77942 18.4408L8.72238 18.4142L8.66555 18.387L8.60893 18.3592L8.55254 18.3307L8.49637 18.3017L8.44045 18.2721L8.38477 18.2419L8.32933 18.211L8.27415 18.1796L8.21924 18.1476L8.16459 18.115L8.11022 18.0819L8.05613 18.0481L8.00232 18.0137L7.94881 17.9788L7.89559 17.9433L7.84269 17.9072L7.79009 17.8706L7.73781 17.8333L7.68586 17.7955L7.63423 17.7572L7.58295 17.7183L7.532 17.6788L7.4814 17.6388L7.43116 17.5982L7.38127 17.557L7.33175 17.5153L7.28261 17.4731L7.23384 17.4303L7.18545 17.387L7.13746 17.3432L7.08986 17.2988L7.04266 17.2539L6.99586 17.2085L6.94948 17.1626L6.90352 17.1161L6.85798 17.0692L6.81287 17.0217L6.7682 16.9737L6.72396 16.9252L6.68018 16.8763L6.63684 16.8268L6.59396 16.7769L6.55154 16.7264L6.50959 16.6755L6.46811 16.6241L6.42711 16.5723L6.38659 16.5199L6.34657 16.4672L6.30703 16.4139L6.26799 16.3602L6.22946 16.3061L6.19144 16.2515L6.15393 16.1965L6.11694 16.141L6.08047 16.0852L6.04453 16.0289L6.00912 15.9721L5.97425 15.915L5.93993 15.8575L5.90615 15.7995L5.87292 15.7412L5.84025 15.6825L5.80814 15.6233L5.7766 15.5638L5.74562 15.504L5.71522 15.4437L5.68539 15.3831L5.65615 15.3221L5.6275 15.2608L5.59944 15.1991L5.57197 15.1371L5.5451 15.0748L5.51883 15.0121L5.49317 14.9491L5.46812 14.8858L5.44368 14.8221L5.41986 14.7582L5.39667 14.694L5.3741 14.6294L5.35215 14.5646L5.33084 14.4995L5.31017 14.4341L5.29014 14.3684L5.27074 14.3025L5.252 14.2363L5.2339 14.1699L5.21645 14.1033L5.19966 14.0363L5.18353 13.9692L5.16806 13.9018L5.15325 13.8343L5.13911 13.7665L5.12563 13.6985L5.11283 13.6303L5.10071 13.5619L5.08926 13.4933L5.07849 13.4246L5.06841 13.3556L5.059 13.2865L5.05029 13.2173L5.04226 13.1479L5.03493 13.0784L5.02829 13.0087L5.02234 12.9389L5.01709 12.8689L5.01254 12.7989L5.00869 12.7287L5.00554 12.6585L5.00309 12.5881L5.00135 12.5177L5.00032 12.4472L5 12.3766L5.00039 12.3059L5.00148 12.2352L5.0033 12.1644L5.00582 12.0936L5.00906 12.0227L5.01301 11.9519L5.01768 11.881L5.02307 11.81L5.02918 11.7391L5.036 11.6682L5.04355 11.5972L5.05181 11.5263L5.06079 11.4555L5.0705 11.3846L5.08093 11.3138L5.09207 11.243L5.10394 11.1723L5.11654 11.1016L5.12985 11.031L5.14388 10.9604L5.15864 10.89L5.17412 10.8196L5.19032 10.7494L5.20724 10.6792L5.22488 10.6091L5.24324 10.5392L5.26232 10.4694L5.28212 10.3997L5.30263 10.3302L5.32386 10.2608L5.34581 10.1915L5.36848 10.1225L5.39185 10.0536L5.41594 9.98484L5.44075 9.9163L5.46626 9.84795L5.49248 9.7798L5.51941 9.71185L5.54705 9.64413L5.57539 9.57662L5.60443 9.50934L5.63418 9.4423L5.66462 9.3755L5.69576 9.30896L5.7276 9.24267L5.76013 9.17665L5.79335 9.1109L5.82727 9.04543L5.86186 8.98026L5.89715 8.91537L5.93311 8.85079L5.96976 8.78652L6.00708 8.72256L6.04507 8.65893L6.08374 8.59563L6.12308 8.53266L6.16308 8.47005L6.20375 8.40778L6.24508 8.34587L6.28706 8.28434L6.3297 8.22317L6.37298 8.16238L6.41692 8.10198L6.4615 8.04198L6.50672 7.98238L6.55257 7.92318L6.59906 7.8644L6.64618 7.80604L6.69392 7.74811L6.74229 7.69062L6.79127 7.63357L6.84087 7.57696L6.89108 7.52081L6.9419 7.46513L6.99331 7.40991L7.04533 7.35516L7.09793 7.3009L7.15113 7.24712L7.20491 7.19384L7.25927 7.14106L7.3142 7.08879L7.36971 7.03703L7.42578 6.98578L7.48241 6.93507L7.5396 6.88488L7.59734 6.83524L7.65563 6.78613L7.71445 6.73758L7.77382 6.68958L7.83371 6.64215L7.89413 6.59528L7.95507 6.54898L8.01653 6.50327L8.07849 6.45814L8.14096 6.4136L8.20392 6.36965L8.26738 6.32631L8.33133 6.28358L8.39575 6.24145L8.46066 6.19995L8.52603 6.15907L8.59186 6.11881L8.65816 6.07919L8.7249 6.04021M10.4456 5.30874L10.5215 5.28723L10.5977 5.26647L10.6741 5.24647L10.7508 5.22722L10.8278 5.20874L10.905 5.19102L10.9825 5.17407L11.0602 5.15789L11.1381 5.14248L11.2162 5.12785L11.2945 5.11399L11.3731 5.10092L11.4518 5.08863L11.5307 5.07713L11.6098 5.06642L11.689 5.0565L11.7685 5.04738L11.848 5.03905L11.9277 5.03152L12.0076 5.02479L12.0876 5.01886L12.1677 5.01374L12.2479 5.00943L12.3282 5.00592L12.4087 5.00322L12.4892 5.00133L12.5698 5.00026L12.6504 5L12.7312 5.00056L12.812 5.00193L12.8928 5.00412L12.9737 5.00713L13.0546 5.01096L13.1355 5.01562L13.2165 5.02109L13.2974 5.02739L13.3784 5.03451L13.4593 5.04246L13.5402 5.05123L13.6211 5.06083L13.702 5.07125L13.7828 5.08249L13.8636 5.09457L13.9443 5.10747L14.025 5.12119L14.1055 5.13574L14.186 5.15112L14.2664 5.16732L14.3467 5.18435L14.4269 5.20221L14.5069 5.22088L14.5869 5.24038L14.6667 5.26071L14.7463 5.28185L14.8258 5.30382L14.9052 5.32661L14.9843 5.35022L15.0633 5.37465L15.1421 5.39989L15.2208 5.42595L15.2992 5.45282L15.3774 5.48051L15.4554 5.50901L15.5331 5.53832L15.6106 5.56843L15.6879 5.59936L15.7649 5.63108L15.8417 5.66361L15.9182 5.69694L15.9944 5.73107L16.0703 5.766L16.146 5.80171L16.2213 5.83822L16.2963 5.87552L16.371 5.91361L16.4454 5.95247L16.5195 5.99212L16.5932 6.03255L16.6665 6.07375L16.7395 6.11572L16.8121 6.15846L16.8844 6.20197L16.9562 6.24624L17.0277 6.29127L17.0988 6.33706L17.1695 6.3836L17.2397 6.43088L17.3096 6.47891L17.379 6.52768L17.4479 6.57719L17.5164 6.62744M21.3591 8.47005C21.7734 9.56771 22 10.7574 22 12C22 17.5228 17.5228 22 12 22C6.47715 22 2 17.5228 2 12C2 6.47715 6.47715 2 12 2C15.5867 2 18.7324 3.88832 20.4972 6.72504"
          stroke="#4D4DAA" stroke-linecap="round" stroke-linejoin="round"/>
</svg>
