<svg width="72" height="72" viewBox="0 0 72 72" fill="none" xmlns="http://www.w3.org/2000/svg">
<path d="M36 63V60M36 28.5V54M36 18V12M36 12L33 15M36 12L39 15M33 63L36 60M36 60L39 63M36 60V54M39 57L36 54M36 54L33 57M15 36L31.5 52.5M40.5 52.5L57 36M63 30L69 24M69 24H64.5M69 24V28.5M9 30L3 24M3 24V28.5M3 24H7.5M30 60L23.25 56.25M42 60L55.5 52.5M62.25 48.75L69 45C69 45 61.5 24 36 24C10.5 24 3 45 3 45L16.5 52.5" stroke="#4D4DAA" stroke-width="1.5" stroke-linecap="round" stroke-linejoin="round"/>
</svg>
