<svg width="72" height="72" viewBox="0 0 72 72" fill="none" xmlns="http://www.w3.org/2000/svg">
<path d="M27 27L36 3L45 27M48 27L60 18L57 33M24 27L12 18L15 33M30 57L36 69L42 57M45 57L51 60V54M52.5 52.5H57V48M27 57L21 60V54M19.5 52.5H15V48M57 42C57 42 49.5 54 36 54C22.5 54 15 42 15 42C15 42 22.5 30 36 30C49.5 30 57 42 57 42ZM36 48V48C39.3137 48 42 45.3137 42 42V42C42 38.6863 39.3137 36 36 36V36C32.6863 36 30 38.6863 30 42V42C30 45.3137 32.6863 48 36 48Z" stroke="#4D4DAA" stroke-width="1.5" stroke-linecap="round" stroke-linejoin="round"/>
</svg>
