<svg width="73" height="72" viewBox="0 0 73 72" fill="none" xmlns="http://www.w3.org/2000/svg">
<g clip-path="url(#clip0)">
<path d="M33.18 36.0206C36.1089 38.9495 39.9477 40.4139 43.7865 40.4139M33.18 14.8075C31.7887 16.1989 30.7278 17.7955 29.9974 19.5M43.87 40.4139C42.4889 40.777 41.039 40.9703 39.5439 40.9703C38.9791 40.9703 38.4207 40.9427 37.87 40.8888M43.87 70.4139L37.87 70.4139L37.87 40.8888M37.87 40.8888C29.2832 40.0481 22.5735 32.8075 22.5735 23.9999C22.5735 14.6273 30.1714 7.0294 39.5439 7.0294C44.9296 7.0294 49.7293 9.53817 52.8381 13.4508C47.6496 10.4552 41.1768 9.66922 36.0592 12.5992M51.0832 44.7783C51.0832 44.7783 47.1899 46.1726 45.0832 48.9312C42.9766 51.6898 41.7633 55.1306 42.6566 55.8128C43.5499 56.495 46.5499 54.4186 48.6565 51.6599C50.7632 48.9013 51.0832 44.7783 51.0832 44.7783ZM24.2376 50.2547C24.2376 50.2547 24.8306 54.3474 27.1158 56.96C29.4009 59.5727 32.5321 61.4453 33.3782 60.7053C34.2242 59.9653 32.7851 56.6127 30.5 54C28.2149 51.3874 24.2376 50.2547 24.2376 50.2547Z" stroke="#4D4DAA" stroke-width="1.5" stroke-linecap="round" stroke-linejoin="round"/>
</g>
<defs>
<clipPath id="clip0">
<rect width="72" height="72" fill="white" transform="translate(0.5)"/>
</clipPath>
</defs>
</svg>
