<svg width="73" height="72" viewBox="0 0 73 72" fill="none" xmlns="http://www.w3.org/2000/svg">
<path d="M21.5 34.5L18.8032 45.2873C18.6041 46.0835 18.5953 46.9205 18.8996 47.6827C19.5977 49.4308 21.2816 52.5 24.5 52.5C29 52.5 30.5 46.5 30.5 46.5C30.5 46.5 32 52.5 36.5 52.5M36.5 52.5C41 52.5 42.5 46.5 42.5 46.5C42.5 46.5 44 52.5 48.5 52.5C53 52.5 54.5 46.5 54.5 46.5C54.5 46.5 56 49.5 59 49.5C60.8545 49.5 62.1358 48.3536 62.8439 47.4782C63.332 46.8747 63.5 46.0959 63.5 45.3197V25.5C63.5 25.5 63.5 25.5 63.5 25.5C63.5 25.5 63.5 21 59 21C54.5 21 54.5 25.5 54.5 25.5C54.5 25.5 53 18 48.5 18C44 18 42.5 22.5 42.5 22.5C42.5 22.5 41 18 36.5 18C32 18 30.5 24 30.5 24C30.5 24 27.5 19.5 24.5 19.5C22.0983 19.5 19.6966 22.3841 18.8342 23.5344C18.6047 23.8405 18.4322 24.1808 18.2979 24.539L10.708 44.7787C9.93768 46.8328 10.0575 49.1149 11.0386 51.0771V51.0771C11.9743 52.9486 13.6152 54.3717 15.6002 55.0334L21.5 57M36.5 52.5L35.2279 56.3162C35.0918 56.7246 34.7097 57 34.2792 57H30.5M54.5 31.5V40.5M54.5 31.5L53 30M54.5 31.5L56 30M42.5 40.5V30M42.5 30L41 28.5M42.5 30L44 28.5M30.5 30V40.5M30.5 30L29 28.5M30.5 30L32 28.5" stroke="#4D4DAA" stroke-width="1.5" stroke-linecap="round" stroke-linejoin="round"/>
</svg>
