<svg width="24" height="24" viewBox="0 0 24 24" fill="none" xmlns="http://www.w3.org/2000/svg">
    <path d="M12 21V3M12 21C9.3345 21 6.93964 19.8412 5.29168 18M12 21C14.6655 21 17.0604 19.8412 18.7083 18M12 3C7.02944 3 3 7.02944 3 12C3 14.3051 3.86656 16.4077 5.29168 18M12 3C16.9706 3 21 7.02944 21 12C21 14.3051 20.1334 16.4077 18.7083 18M5.29168 18C5.29168 18 8 16.5 12 16.5C16 16.5 18.7083 18 18.7083 18M5.29168 6C5.29168 6 8 7.5 12 7.5C16 7.5 18.7083 6 18.7083 6"
          stroke="#7B61FF" stroke-linecap="round" stroke-linejoin="round"/>
</svg>
