<svg width="72" height="72" viewBox="0 0 72 72" fill="none" xmlns="http://www.w3.org/2000/svg">
<path d="M36 51C47.598 51 57 41.598 57 30C57 18.402 47.598 9 36 9C24.402 9 15 18.402 15 30C15 41.598 24.402 51 36 51Z" stroke="#7B61FF" stroke-width="1.5" stroke-linecap="round" stroke-linejoin="round"/>
<path d="M27 36C30.3137 36 33 33.3137 33 30C33 26.6863 30.3137 24 27 24C23.6863 24 21 26.6863 21 30C21 33.3137 23.6863 36 27 36Z" fill="#7B61FF"/>
<path d="M45 36C48.3137 36 51 33.3137 51 30C51 26.6863 48.3137 24 45 24C41.6863 24 39 26.6863 39 30C39 33.3137 41.6863 36 45 36Z" fill="#7B61FF"/>
<path d="M33.1447 41.7106L35.8211 36.3578C35.8948 36.2104 36.1052 36.2104 36.1789 36.3578L38.8553 41.7106C38.9218 41.8435 38.8251 42 38.6764 42H33.3236C33.1749 42 33.0782 41.8435 33.1447 41.7106Z" fill="#7B61FF"/>
<path d="M24 59.5V48L36 51L48 48V56.691C48 56.8804 47.893 57.0535 47.7236 57.1382L42.7236 59.6382C42.3912 59.8044 42 59.5627 42 59.191V53C42 52.7239 41.7761 52.5 41.5 52.5H39.5C39.2239 52.5 39 52.7239 39 53V56.7324C39 56.8996 38.9164 57.0557 38.7773 57.1484L35.1212 59.5859C34.8251 59.7833 34.4234 59.6169 34.3536 59.2679L33.0804 52.9019C33.0336 52.6682 32.8284 52.5 32.5901 52.5H30.4099C30.1716 52.5 29.9664 52.6682 29.9196 52.9019L28.5804 59.5981C28.5336 59.8318 28.3284 60 28.0901 60H24.5C24.2239 60 24 59.7761 24 59.5Z" fill="#7B61FF"/>
</svg>
