<svg width="60" height="60" viewBox="0 0 60 60" fill="none" xmlns="http://www.w3.org/2000/svg">
<path d="M30 42.5C39.665 42.5 47.5 34.665 47.5 25C47.5 15.335 39.665 7.5 30 7.5C20.335 7.5 12.5 15.335 12.5 25C12.5 34.665 20.335 42.5 30 42.5Z" stroke="#7B61FF" stroke-width="1.5" stroke-linecap="round" stroke-linejoin="round"/>
<path d="M22.5 30C25.2614 30 27.5 27.7614 27.5 25C27.5 22.2386 25.2614 20 22.5 20C19.7386 20 17.5 22.2386 17.5 25C17.5 27.7614 19.7386 30 22.5 30Z" fill="#7B61FF"/>
<path d="M37.5 30C40.2614 30 42.5 27.7614 42.5 25C42.5 22.2386 40.2614 20 37.5 20C34.7386 20 32.5 22.2386 32.5 25C32.5 27.7614 34.7386 30 37.5 30Z" fill="#7B61FF"/>
<path d="M27.6447 34.7106L29.8211 30.3578C29.8948 30.2104 30.1052 30.2104 30.1789 30.3578L32.3553 34.7106C32.4218 34.8435 32.3251 35 32.1764 35H27.8236C27.6749 35 27.5782 34.8435 27.6447 34.7106Z" fill="#7B61FF"/>
<path d="M20 49.5V40L30 42.5L40 40V47.191C40 47.3804 39.893 47.5535 39.7236 47.6382L35.7236 49.6382C35.3912 49.8044 35 49.5627 35 49.191V44.25C35 43.9739 34.7761 43.75 34.5 43.75H33C32.7239 43.75 32.5 43.9739 32.5 44.25V47.2324C32.5 47.3996 32.4164 47.5557 32.2774 47.6484L29.3712 49.5859C29.0751 49.7833 28.6734 49.6169 28.6036 49.2679L27.5804 44.1519C27.5336 43.9182 27.3284 43.75 27.0901 43.75H25.4099C25.1716 43.75 24.9664 43.9182 24.9196 44.1519L23.8304 49.5981C23.7836 49.8318 23.5784 50 23.3401 50H20.5C20.2239 50 20 49.7761 20 49.5Z" fill="#7B61FF"/>
</svg>
