<svg width="72" height="72" viewBox="0 0 72 72" fill="none" xmlns="http://www.w3.org/2000/svg">
<path d="M15 33.9879V58.823C15 59.5991 15.1852 60.372 15.7321 60.9228C17.4015 62.6042 22.4517 66.0032 35.9998 66.0032C49.5478 66.0032 54.5982 62.6042 56.2677 60.9228C56.8146 60.372 56.9998 59.5991 56.9998 58.8229L57 33.9879M30 39V30M42 39V30M30 13.5H19C13.4772 13.5 9 17.9772 9 23.5V24.5C9 30.0228 13.4772 34.5 19 34.5H53C58.5228 34.5 63 30.0228 63 24.5V23.5C63 17.9772 58.5228 13.5 53 13.5H42M30 13.5C30 13.5 29.9996 6 35.9998 6C42 6 42 13.5 42 13.5M30 13.5H42M45 56V49C45 48.4477 44.5523 48 44 48H28C27.4477 48 27 48.4477 27 49V56C27 56.5523 27.4477 57 28 57H44C44.5523 57 45 56.5523 45 56Z" stroke="#7B61FF" stroke-width="1.5" stroke-linecap="round" stroke-linejoin="round"/>
</svg>
