<svg width="72" height="72" viewBox="0 0 72 72" fill="none" xmlns="http://www.w3.org/2000/svg">
<path d="M51 66V62C51 59.8783 50.2098 57.8434 48.8033 56.3431C47.3968 54.8429 45.4891 54 43.5 54H28.5C26.5109 54 24.6032 54.8429 23.1967 56.3431C21.7902 57.8434 21 59.8783 21 62V66M16.5 22.5L30 13.5M55.5 22.5L42 13.5M24 45L15 33M48 45L57 33M45 39C45 43.9706 40.9706 48 36 48C31.0294 48 27 43.9706 27 39C27 34.0294 31.0294 30 36 30C40.9706 30 45 34.0294 45 39ZM42 12C42 15.3137 39.3137 18 36 18C32.6863 18 30 15.3137 30 12C30 8.68629 32.6863 6 36 6C39.3137 6 42 8.68629 42 12ZM18 27C18 30.3137 15.3137 33 12 33C8.68629 33 6 30.3137 6 27C6 23.6863 8.68629 21 12 21C15.3137 21 18 23.6863 18 27ZM66 27C66 30.3137 63.3137 33 60 33C56.6863 33 54 30.3137 54 27C54 23.6863 56.6863 21 60 21C63.3137 21 66 23.6863 66 27Z" stroke="#7B61FF" stroke-width="1.5" stroke-linecap="round" stroke-linejoin="round"/>
</svg>
