<svg width="24" height="24" viewBox="0 0 24 24" fill="none" xmlns="http://www.w3.org/2000/svg">
<g clip-path="url(#clip0)">
<path d="M10.9393 15.682C7.75733 18.864 4.9289 19.5711 4.9289 19.5711C4.9289 19.5711 5.98956 16.3891 8.81799 13.5607C11.6464 10.7322 13.8856 9.20017 13.8856 9.20017L14.8284 9.67157M14.8284 9.67157L12 8.25736V8.25736C10.4379 7.47631 9.80471 5.57682 10.5858 4.01472L12 1.18629L15.0553 6.27847C15.1394 6.41869 15.2404 6.54806 15.356 6.66369L15.8891 7.1967L16.2426 7.55025M14.8284 9.67157L15.2998 10.6144C15.2998 10.6144 14.8564 11.3239 13.7791 12.6069M14.8284 9.67157L16.2426 12.5V12.5C17.0237 14.0621 18.9232 14.6953 20.4853 13.9142L23.3137 12.5L18.2215 9.4447C18.0813 9.36056 17.9519 9.25955 17.8363 9.14392L17.3033 8.61091L16.9497 8.25736M16.2426 7.55025L18.3639 4.72183L19.7781 6.13604L16.9497 8.25736M16.2426 7.55025L16.9497 8.25736M12.3535 5.07538L13.0606 5.78249V7.1967L12.3535 6.48959V5.07538ZM19.4246 12.1464L18.7175 11.4393H17.3033L18.0104 12.1464H19.4246Z" stroke="#4D4DAA" stroke-linecap="round" stroke-linejoin="round"/>
</g>
<defs>
<clipPath id="clip0">
<rect width="24" height="24" fill="white"/>
</clipPath>
</defs>
</svg>
