<svg width="24" height="24" viewBox="0 0 24 24" fill="none" xmlns="http://www.w3.org/2000/svg">
<path d="M17.6542 13.6136C16.5223 9.9089 12 3 12 3C12 3 6 10.5 6 16C6 21.5 10.5 22 12 22C13.3174 22 16.9488 21.6143 17.8135 17.7945M14.0064 19.4056C14.8961 18.5383 15.264 17.1434 14.7959 15.9388C14.3517 14.8019 14 13.5 14 13.5C14 13.5 13.55 14.7891 13.1492 14.9565C12.7484 15.124 12.5501 14.4412 12.5 14C12.4031 12.2802 10.5 11.5 10.5 11.5C11.1279 12.7593 10.3736 13.8035 9.35815 15.7005C8.75996 16.8169 8.80141 18.0367 9.5 19C9.90928 19.5644 11 20 12 20C13 20 13.605 19.7969 14.0064 19.4056Z" stroke="#4D4DAA" stroke-linecap="round" stroke-linejoin="round"/>
</svg>
