<svg width="24" height="24" viewBox="0 0 24 24" fill="none" xmlns="http://www.w3.org/2000/svg">
<path d="M9 9L12 1L15 9M16 9L20 6L19 11M8 9L4 6L5 11M10 19L12 23L14 19M15 19L17 20V18M17.5 17.5H19V16M9 19L7 20V18M6.5 17.5H5V16M19 14C19 14 16.5 18 12 18C7.5 18 5 14 5 14C5 14 7.5 10 12 10C16.5 10 19 14 19 14ZM12 16V16C13.1046 16 14 15.1046 14 14V14C14 12.8954 13.1046 12 12 12V12C10.8954 12 10 12.8954 10 14V14C10 15.1046 10.8954 16 12 16Z" stroke="#4D4DAA" stroke-linecap="round" stroke-linejoin="round"/>
</svg>
