<svg viewBox="0 0 60 60" fill="none" xmlns="http://www.w3.org/2000/svg">
    <path d="M27.5 8.75L20 5M22.5 36.25L17.5 33.75M22.5 41.25L17.5 38.75M16.6317 43.5111C15.9061 46.9852 15 50 15 50L27.5 53.75V12.5L20 8.75L22.5 13.75L16.25 25C16.25 25 17.7343 32.5997 17.5 37.5C17.4128 39.3256 17.0526 41.4956 16.6317 43.5111ZM16.6317 43.5111L22.5 46.25M31.25 8.75L38.75 5M36.25 36.25L41.25 33.75M36.25 41.25L41.25 38.75M42.1184 43.5111C42.844 46.9852 43.75 50 43.75 50L31.25 53.75V12.5L38.75 8.75L36.25 13.75L42.5 25C42.5 25 41.0158 32.5997 41.25 37.5C41.3373 39.3256 41.6975 41.4956 42.1184 43.5111ZM42.1184 43.5111L36.25 46.25M16.25 8.75C16.25 8.75 10.0998 9.8425 7.50003 12.5C3.68342 16.4013 5.00003 26.25 5.00003 26.25L12.5 25L18.75 13.75L16.25 8.75ZM42.5 8.75C42.5 8.75 48.6502 9.8425 51.25 12.5C55.0666 16.4013 53.75 26.25 53.75 26.25L46.25 25L40 13.75L42.5 8.75Z"
          stroke="#7B61FF" stroke-width="1.5" stroke-linecap="round" stroke-linejoin="round"/>
</svg>
