<svg viewBox="0 0 60 60" fill="none" xmlns="http://www.w3.org/2000/svg">
    <path d="M42.5 55V51.6667C42.5 49.8986 41.8415 48.2029 40.6694 46.9526C39.4973 45.7024 37.9076 45 36.25 45H23.75C22.0924 45 20.5027 45.7024 19.3306 46.9526C18.1585 48.2029 17.5 49.8986 17.5 51.6667V55M13.75 18.75L25 11.25M46.25 18.75L35 11.25M20 37.5L12.5 27.5M40 37.5L47.5 27.5M37.5 32.5C37.5 36.6421 34.1421 40 30 40C25.8579 40 22.5 36.6421 22.5 32.5C22.5 28.3579 25.8579 25 30 25C34.1421 25 37.5 28.3579 37.5 32.5ZM35 10C35 12.7614 32.7614 15 30 15C27.2386 15 25 12.7614 25 10C25 7.23858 27.2386 5 30 5C32.7614 5 35 7.23858 35 10ZM15 22.5C15 25.2614 12.7614 27.5 10 27.5C7.23858 27.5 5 25.2614 5 22.5C5 19.7386 7.23858 17.5 10 17.5C12.7614 17.5 15 19.7386 15 22.5ZM55 22.5C55 25.2614 52.7614 27.5 50 27.5C47.2386 27.5 45 25.2614 45 22.5C45 19.7386 47.2386 17.5 50 17.5C52.7614 17.5 55 19.7386 55 22.5Z"
          stroke="#7B61FF" stroke-width="1.5" stroke-linecap="round" stroke-linejoin="round"/>
</svg>
