<svg viewBox="0 0 60 60" fill="none" xmlns="http://www.w3.org/2000/svg">
    <path d="M30.7229 14.4578C30.7229 14.4578 27.4699 13.3735 27.4699 16.6265C27.4699 19.8795 29.6385 20.9638 31.8072 20.9638C33.9759 20.9638 38.3132 22.0482 38.3132 16.6265C38.3132 11.2048 32.8916 7.95178 29.6385 7.95178C26.3855 7.95178 20.9638 9.03612 20.9638 16.6265C20.9638 24.2168 30.7229 27.4699 31.8072 29.6385C32.8916 31.8072 33.9759 33.9759 33.9759 36.1446C33.9759 38.3132 31.8072 40.4819 29.6385 40.4819C27.4699 40.4819 25.3012 38.3132 25.3012 36.1446C25.3012 33.9759 27.4699 31.8072 27.4699 31.8072M16.6265 42.6506C16.6265 42.6506 24.2169 46.9879 29.6385 46.9879C35.0602 46.9879 42.6506 42.6506 42.6506 42.6506M20.9638 49.1566C20.9638 49.1566 24.2169 51.3253 29.6385 51.3253C35.0602 51.3253 38.3132 49.1566 38.3132 49.1566"
          stroke="#7B61FF" stroke-width="1.5" stroke-linecap="round" stroke-linejoin="round"/>
</svg>
