<svg viewBox="0 0 60 60" fill="none" xmlns="http://www.w3.org/2000/svg">
    <path d="M12.9999 25.5C12.8224 31.7854 19.9999 40 19.9999 40V51H23.5L25 45H28L29 50L32.5 48V45H35V50L39.9999 48V40C39.9999 40 47.1775 31.7854 46.9999 25.5C46.7348 16.1149 39.3888 8.5 29.9999 8.5C20.6111 8.5 13.2651 16.1149 12.9999 25.5Z"
          stroke="#4D4DAA" stroke-width="1.5"/>
    <path d="M30 31L27 36H33L30 31Z" stroke="#4D4DAA" stroke-width="1.5"/>
    <path d="M40.682 28.682C42.4393 26.9246 42.4393 24.0754 40.682 22.318C38.9246 20.5607 36.0754 20.5607 34.318 22.318C32.5607 24.0754 32.5607 26.9246 34.318 28.682C36.0754 30.4393 38.9246 30.4393 40.682 28.682Z"
          stroke="#4D4DAA" stroke-width="1.5"/>
    <path d="M25.682 28.682C27.4393 26.9246 27.4393 24.0754 25.682 22.318C23.9246 20.5607 21.0754 20.5607 19.318 22.318C17.5607 24.0754 17.5607 26.9246 19.318 28.682C21.0754 30.4393 23.9246 30.4393 25.682 28.682Z"
          stroke="#4D4DAA" stroke-width="1.5"/>
</svg>
