<svg viewBox="0 0 60 60" fill="none" xmlns="http://www.w3.org/2000/svg">
    <path d="M12.5 28.3232V48.8225C12.5 49.5986 12.6854 50.3715 13.2493 50.9048C14.7719 52.3449 19.0635 55.0027 29.9998 55.0027C40.9362 55.0027 45.2278 52.3449 46.7505 50.9048C47.3145 50.3715 47.4999 49.5986 47.4999 48.8224L47.5 28.3232M25 32.5V25M35 32.5V25M25 11.25H16.25C11.4175 11.25 7.5 15.1675 7.5 20V20C7.5 24.8325 11.4175 28.75 16.25 28.75H43.75C48.5825 28.75 52.5 24.8325 52.5 20V20C52.5 15.1675 48.5825 11.25 43.75 11.25H35M25 11.25C25 11.25 24.9997 5 29.9998 5C35 5 35 11.25 35 11.25M25 11.25H35M37.5 46.5V41C37.5 40.4477 37.0523 40 36.5 40H23.5C22.9477 40 22.5 40.4477 22.5 41V46.5C22.5 47.0523 22.9477 47.5 23.5 47.5H36.5C37.0523 47.5 37.5 47.0523 37.5 46.5Z"
          stroke="#7B61FF" stroke-width="1.5" stroke-linecap="round" stroke-linejoin="round"/>
</svg>
