<svg viewBox="0 0 60 60" fill="none" xmlns="http://www.w3.org/2000/svg">
    <path d="M22.5 38.75V56.25L30 48.75L37.5 56.25V38.75M43.5355 14.5709C44.4052 13.7013 44.1672 12.2352 43.0672 11.6851L42.4526 11.3778C42.008 11.1556 41.6476 10.7951 41.4253 10.3505L41.118 9.73594C40.568 8.63589 39.1019 8.39797 38.2322 9.26764M33.75 7.49988C33.75 6.26998 32.545 5.40151 31.3782 5.79044L30.7264 6.00773C30.2548 6.16491 29.7451 6.16491 29.2735 6.00773L28.6217 5.79044C27.4549 5.40152 26.25 6.26998 26.25 7.49987M45 26.2499C46.2299 26.2499 47.0984 25.0449 46.7094 23.8782L46.4921 23.2263C46.335 22.7548 46.335 22.245 46.4921 21.7734L46.7094 21.1216C47.0984 19.9548 46.2299 18.7499 45 18.7499M15 26.2499C13.7701 26.2499 12.9016 25.045 13.2906 23.8782L13.5079 23.2263C13.665 22.7548 13.665 22.245 13.5079 21.7735L13.2906 21.1216C12.9016 19.9548 13.7701 18.7499 15 18.7499M16.4645 29.9999C15.5948 30.8696 15.8327 32.3357 16.9328 32.8857L17.5473 33.193C17.9919 33.4153 18.3524 33.7757 18.5747 34.2203L18.882 34.8349C19.432 35.9349 20.8981 36.1729 21.7678 35.3032M16.4644 14.5709C15.5947 13.7013 15.8327 12.2352 16.9327 11.6851L17.5473 11.3778C17.9919 11.1556 18.3523 10.7951 18.5746 10.3505L18.8819 9.73594C19.4319 8.63589 20.8981 8.39797 21.7677 9.26764M38.2321 35.3033C39.1018 36.1729 40.5679 35.935 41.118 34.835L41.4252 34.2204C41.6475 33.7758 42.008 33.4153 42.4526 33.193L43.0672 32.8858C44.1672 32.3357 44.4051 30.8696 43.5354 30M30 15L27.9167 21.25H22.5L26.8919 24.3243L25 30L30 26.5L35 30L33.1081 24.3243L37.5 21.25H32.0833L30 15ZM30 35C23.0964 35 17.5 29.4036 17.5 22.5C17.5 15.5965 23.0964 10 30 10C36.9036 10 42.5 15.5965 42.5 22.5C42.5 29.4036 36.9036 35 30 35Z"
          stroke="#4D4DAA" stroke-width="1.5" stroke-linecap="round" stroke-linejoin="round"/>
</svg>
