<svg viewBox="0 0 60 60" fill="none" xmlns="http://www.w3.org/2000/svg">
    <path d="M18.75 35H41.25M18.75 41.25H31.25M18.75 47.5H35M37.5 27.5V25.5556C37.5 24.5242 37.1049 23.535 36.4017 22.8057C35.6984 22.0764 34.7446 21.6667 33.75 21.6667H26.25C25.2554 21.6667 24.3016 22.0764 23.5983 22.8057C22.8951 23.535 22.5 24.5242 22.5 25.5556V27.5M34.5 14.375C34.5 16.7912 32.4853 18.75 30 18.75C27.5147 18.75 25.5 16.7912 25.5 14.375C25.5 11.9588 27.5147 10 30 10C32.4853 10 34.5 11.9588 34.5 14.375ZM47.5 7V53C47.5 54.1046 46.6046 55 45.5 55H14.5C13.3954 55 12.5 54.1046 12.5 53V7C12.5 5.89543 13.3954 5 14.5 5H45.5C46.6046 5 47.5 5.89543 47.5 7Z"
          stroke="#4D4DAA" stroke-width="1.5" stroke-linecap="round" stroke-linejoin="round"/>
</svg>
