<svg viewBox="0 0 60 60" fill="none" xmlns="http://www.w3.org/2000/svg">
    <path d="M34.8889 23.8235H52M34.8889 23.8235C34.8889 22.4591 33.7945 21.3529 32.4444 21.3529H27.5556C26.2055 21.3529 25.1111 22.4591 25.1111 23.8235M34.8889 23.8235V28.7647C34.8889 30.1292 33.7945 31.2353 32.4444 31.2353H27.5556C26.2055 31.2353 25.1111 30.1292 25.1111 28.7647V23.8235M8 23.8235H25.1111M8 43.5882V46.0588C8 47.3693 8.51508 48.6261 9.43192 49.5528C10.3488 50.4794 11.5923 51 12.8889 51H15.3333M8 43.5882V28.7647V18.8824C8 13.4245 12.3777 9 17.7778 9H42.2222C47.6223 9 52 13.4245 52 18.8824V28.7647V43.5882M8 43.5882H15.3333V51M15.3333 51H44.6667M52 43.5882V46.0588C52 47.3693 51.4849 48.6261 50.5681 49.5528C49.6512 50.4794 48.4077 51 47.1111 51H44.6667M52 43.5882H44.6667V51"
          stroke="#4D4DAA" stroke-width="1.5" stroke-linecap="round" stroke-linejoin="round"/>
</svg>
