<svg viewBox="0 0 60 60" fill="none" xmlns="http://www.w3.org/2000/svg">
    <path d="M16.1111 25.9028C16.1111 28.4251 16.7835 31.391 17.9587 34.2361M16.1111 25.9028C16.1111 24.8383 16.2309 23.8019 16.4576 22.8061M16.1111 25.9028V42.5694M43.5424 22.8061C42.1352 16.6261 36.6062 14.7917 30 14.7917C23.3938 14.7917 17.8649 16.6261 16.4576 22.8061M43.5424 22.8061C43.7692 23.8019 43.8889 24.8383 43.8889 25.9028C43.8889 28.4251 43.2165 31.391 42.0413 34.2361M43.5424 22.8061L43.8889 21.25C43.8889 12.5 38.4753 7.84721 30 7.84721C21.5247 7.84721 14.3158 11.8807 11.6534 19.4456M43.5424 22.8061C43.5424 22.8061 46.25 18.4439 47.5 21.25C48.75 24.0561 47.5 27.5 46.25 30C45 32.5 42.0413 34.2361 42.0413 34.2361M42.0413 34.2361C39.6424 40.0434 35.1483 45.3472 30 45.3472C24.8517 45.3472 20.3576 40.0434 17.9587 34.2361M17.9587 34.2361L5 14.7917C7.63105 16.632 9.5824 17.997 11.6534 19.4456M16.4576 22.8061C14.6142 21.5167 13.1044 20.4606 11.6534 19.4456M10.5556 48.125C10.5556 48.125 10.5556 37.4247 10.5556 31.4583M16.1111 49.5139V50.9028M30 2.5V52.5M27.5 36.25C27.5 36.25 28.9085 37.5 30 37.5C32.5 37.5 33.75 36.25 33.75 36.25M39.0002 26.9999C39.0002 28.6568 37.657 29.9999 36.0002 29.9999C34.3433 29.9999 33.0002 28.6568 33.0002 26.9999C33.0002 25.3431 34.3433 23.9999 36.0002 23.9999C37.657 23.9999 39.0002 25.3431 39.0002 26.9999ZM26.75 26.9999C26.75 28.6568 25.4069 29.9999 23.75 29.9999C22.0931 29.9999 20.75 28.6568 20.75 26.9999C20.75 25.3431 22.0931 23.9999 23.75 23.9999C25.4069 23.9999 26.75 25.3431 26.75 26.9999Z"
          stroke="#7B61FF" stroke-width="1.5" stroke-linecap="round" stroke-linejoin="round"/>
</svg>
