<svg width="60" height="60" viewBox="0 0 60 60" fill="none" xmlns="http://www.w3.org/2000/svg">
    <path d="M21.9 20.0769H38.1M21.9 26.8077H32.7M43.5 20.0769H51.6V38.9231M21.9 33.5385H35.4M19.2 12H7C4.79086 12 3 13.7909 3 16V43C3 45.2091 4.79086 47 7 47H19.2H40.8H53C55.2091 47 57 45.2091 57 43V16C57 13.7909 55.2091 12 53 12H40.8H19.2ZM8.4 20.0769H16.5V28.1538H8.4V20.0769ZM8.4 33.5385H16.5V38.9231H8.4V33.5385Z"
          stroke="#4D4DAA" stroke-width="1.5" stroke-linecap="round" stroke-linejoin="round"/>
</svg>
