<svg width="40" height="40" viewBox="0 0 40 40" fill="none" xmlns="http://www.w3.org/2000/svg">
<path d="M33.8379 22H38.75C38.8346 22 38.877 21.9447 38.877 21.834C38.877 21.7168 38.8639 21.6484 38.8379 21.6289C38.8053 21.6029 38.763 21.5801 38.7109 21.5605C38.6589 21.5345 38.5938 21.4824 38.5156 21.4043C38.431 21.3197 38.3431 21.1699 38.252 20.9551C38.1608 20.7337 38.1152 20.5124 38.1152 20.291V7.71289C38.1152 7.23763 38.2715 6.84375 38.584 6.53125C38.61 6.50521 38.6654 6.47266 38.75 6.43359C38.8346 6.39453 38.877 6.31315 38.877 6.18945C38.877 6.06576 38.8346 6.00391 38.75 6.00391H34.3262C32.7376 6.00391 31.2174 6.43359 29.7656 7.29297C28.737 7.90495 27.8841 8.77083 27.207 9.89062C26.5299 11.0039 26.1914 12.3581 26.1914 13.9531C26.1914 14.9688 26.3802 15.9616 26.7578 16.9316C27.1354 17.8952 27.653 18.7513 28.3105 19.5C28.9616 20.2487 29.7721 20.8542 30.7422 21.3164C31.7057 21.7721 32.7376 22 33.8379 22ZM36.2207 20.1055C36.2207 20.3464 36.0221 20.4668 35.625 20.4668H34.5312C31.888 20.4603 30.0521 19.5586 29.0234 17.7617C28.4245 16.7135 28.125 15.444 28.125 13.9531C28.125 12.1367 28.6263 10.6361 29.6289 9.45117C30.1302 8.85872 30.7975 8.39648 31.6309 8.06445C32.4642 7.72591 33.4245 7.55664 34.5117 7.55664H36.0156C36.0677 7.55664 36.1165 7.57617 36.1621 7.61523C36.2012 7.6543 36.2207 7.70312 36.2207 7.76172V20.1055Z" fill="#171717"/>
<path d="M6.16211 22H1.25C1.16536 22 1.12305 21.9447 1.12305 21.834C1.12305 21.7168 1.13607 21.6484 1.16211 21.6289C1.19466 21.6029 1.23698 21.5801 1.28906 21.5605C1.34115 21.5345 1.40625 21.4824 1.48438 21.4043C1.56901 21.3197 1.6569 21.1699 1.74805 20.9551C1.83919 20.7337 1.88477 20.5124 1.88477 20.291V7.71289C1.88477 7.23763 1.72852 6.84375 1.41602 6.53125C1.38997 6.50521 1.33464 6.47266 1.25 6.43359C1.16536 6.39453 1.12305 6.31315 1.12305 6.18945C1.12305 6.06576 1.16536 6.00391 1.25 6.00391H5.67383C7.26237 6.00391 8.78255 6.43359 10.2344 7.29297C11.263 7.90495 12.1159 8.77083 12.793 9.89062C13.4701 11.0039 13.8086 12.3581 13.8086 13.9531C13.8086 14.9688 13.6198 15.9616 13.2422 16.9316C12.8646 17.8952 12.347 18.7513 11.6895 19.5C11.0384 20.2487 10.2279 20.8542 9.25781 21.3164C8.29427 21.7721 7.26237 22 6.16211 22ZM3.7793 20.1055C3.7793 20.3464 3.97786 20.4668 4.375 20.4668H5.46875C8.11198 20.4603 9.94792 19.5586 10.9766 17.7617C11.5755 16.7135 11.875 15.444 11.875 13.9531C11.875 12.1367 11.3737 10.6361 10.3711 9.45117C9.86979 8.85872 9.20247 8.39648 8.36914 8.06445C7.53581 7.72591 6.57552 7.55664 5.48828 7.55664H3.98438C3.93229 7.55664 3.88346 7.57617 3.83789 7.61523C3.79883 7.6543 3.7793 7.70312 3.7793 7.76172V20.1055Z" fill="#171717"/>
<path d="M5.4432 35.332C6.32602 35.332 7.11508 35.1328 7.81039 34.7344C8.50961 34.3359 9.08383 33.8008 9.53305 33.1289C9.58383 33.0469 9.62094 33.0215 9.64437 33.0527C9.67172 33.084 9.70492 33.127 9.74398 33.1816L9.92562 33.4453C9.98422 33.543 10.0057 33.6035 9.99008 33.627C9.7557 34.1035 9.36312 34.5703 8.81234 35.0273C7.79281 35.8789 6.66977 36.3047 5.4432 36.3047C4.73227 36.3047 4.06625 36.168 3.44516 35.8945C2.82406 35.6172 2.30062 35.248 1.87484 34.7871C1.44906 34.3262 1.11312 33.7871 0.867031 33.1699C0.624844 32.5488 0.50375 31.9062 0.50375 31.2422C0.50375 30.5781 0.634609 29.9434 0.896328 29.3379C1.16195 28.7285 1.51547 28.2031 1.95687 27.7617C2.39828 27.3164 2.92172 26.9609 3.52719 26.6953C4.13266 26.4258 4.74398 26.291 5.36117 26.291C6.09555 26.291 6.83578 26.4336 7.58187 26.7188L7.85141 26.8184C7.89047 26.834 7.94516 26.8184 8.01547 26.7715C8.08578 26.7246 8.16 26.7012 8.23812 26.7012C8.31625 26.7012 8.3768 26.7383 8.41977 26.8125C8.43539 26.8242 8.44125 26.8652 8.43734 26.9355C8.42953 27.0488 8.47641 27.3086 8.57797 27.7148L8.72445 28.3594C8.76352 28.5273 8.78305 28.6348 8.78305 28.6816C8.78305 28.7051 8.73227 28.7422 8.6307 28.793C8.53305 28.8398 8.47641 28.8496 8.46078 28.8223C8.13656 28.2559 7.72836 27.8652 7.23617 27.6504C6.74789 27.4355 6.13656 27.3281 5.40219 27.3281C4.67172 27.3281 4.01156 27.4941 3.42172 27.8262C2.83187 28.1582 2.3768 28.6211 2.05648 29.2148C1.73617 29.8047 1.57602 30.4746 1.57602 31.2246C1.57602 31.7168 1.6893 32.2148 1.91586 32.7188C2.14242 33.2188 2.43344 33.6602 2.78891 34.043C3.14828 34.4219 3.5643 34.7324 4.03695 34.9746C4.50961 35.2129 4.97836 35.332 5.4432 35.332ZM13.0852 34.9746V27.4277C13.0852 27.1426 12.9915 26.9062 12.804 26.7188C12.7884 26.7031 12.7552 26.6836 12.7044 26.6602C12.6536 26.6367 12.6282 26.5879 12.6282 26.5137C12.6282 26.4395 12.6536 26.4023 12.7044 26.4023H14.6028C14.6536 26.4023 14.679 26.4375 14.679 26.5078C14.679 26.5742 14.6692 26.6152 14.6497 26.6309C14.6341 26.6426 14.6106 26.6562 14.5794 26.6719C14.5481 26.6836 14.5071 26.7148 14.4563 26.7656C14.4095 26.8125 14.3587 26.9023 14.304 27.0352C14.2493 27.1641 14.222 27.2949 14.222 27.4277V35.0508H18.1126C18.554 35.0508 18.8411 35 18.9739 34.8984C19.0442 34.8516 19.0989 34.7988 19.138 34.7402C19.177 34.6816 19.2063 34.6523 19.2259 34.6523C19.2493 34.6484 19.2884 34.6562 19.343 34.6758C19.4016 34.6953 19.4309 34.7129 19.4309 34.7285C19.4309 34.7441 19.4036 34.8203 19.3489 34.957L19.1614 35.4316C19.0911 35.6074 19.0423 35.7422 19.0149 35.8359C18.9915 35.9258 18.9583 35.9805 18.9153 36H12.7044C12.6536 36 12.6282 35.9668 12.6282 35.9004C12.6282 35.8301 12.636 35.7891 12.6516 35.7773C12.6712 35.7617 12.6966 35.748 12.7278 35.7363C12.7591 35.7207 12.7981 35.6895 12.845 35.6426C12.8958 35.5918 12.9485 35.502 13.0032 35.373C13.0579 35.2402 13.0852 35.1074 13.0852 34.9746ZM21.9109 27.4277C21.9109 27.1504 21.8132 26.9141 21.6179 26.7188C21.6023 26.7031 21.5691 26.6836 21.5183 26.6602C21.4675 26.6367 21.4421 26.5879 21.4421 26.5137C21.4421 26.4395 21.4675 26.4023 21.5183 26.4023H23.487C23.5378 26.4023 23.5632 26.4375 23.5632 26.5078C23.5632 26.5742 23.5534 26.6152 23.5339 26.6309C23.5183 26.6426 23.4948 26.6562 23.4636 26.6719C23.4323 26.6836 23.3913 26.7148 23.3405 26.7656C23.2937 26.8125 23.2429 26.9023 23.1882 27.0352C23.1335 27.1641 23.1062 27.2949 23.1062 27.4277V32.2852C23.1062 33.1875 23.3835 33.8887 23.9382 34.3887C24.4968 34.8848 25.1784 35.1328 25.9831 35.1328C26.4558 35.1328 26.8991 35.0137 27.3132 34.7754C27.7312 34.5332 28.0612 34.2148 28.3034 33.8203C28.5495 33.4219 28.6726 33 28.6726 32.5547V27.4277C28.6726 27.1426 28.5788 26.9062 28.3913 26.7188C28.3757 26.7031 28.3425 26.6836 28.2917 26.6602C28.2409 26.6367 28.2155 26.5879 28.2155 26.5137C28.2155 26.4395 28.2409 26.4023 28.2917 26.4023H30.1198C30.1706 26.4023 30.196 26.4375 30.196 26.5078C30.196 26.5742 30.1862 26.6152 30.1667 26.6309C30.1511 26.6426 30.1277 26.6562 30.0964 26.6719C30.0652 26.6836 30.0241 26.7148 29.9734 26.7656C29.9265 26.8125 29.8757 26.9023 29.821 27.0352C29.7663 27.1641 29.739 27.2949 29.739 27.4277V32.5547C29.739 33.2266 29.5652 33.8438 29.2175 34.4062C28.8737 34.9688 28.4109 35.4102 27.8288 35.7305C27.2507 36.0508 26.6081 36.2109 25.9011 36.2109C25.198 36.2109 24.5398 36.0469 23.9265 35.7188C23.3171 35.3906 22.8288 34.9258 22.4616 34.3242C22.0945 33.7188 21.9109 33.0391 21.9109 32.2852V27.4277ZM36.6486 35.0449C36.9377 35.0449 37.1994 34.9785 37.4338 34.8457C37.6681 34.709 37.8478 34.5742 37.9728 34.4414C38.2619 34.1328 38.4064 33.7617 38.4064 33.3281C38.4064 32.6484 38.1838 32.1309 37.7384 31.7754C37.2931 31.416 36.6935 31.2363 35.9396 31.2363H35.1545C35.1037 31.2363 35.0783 31.1816 35.0783 31.0723V30.4102C35.0783 30.3008 35.1037 30.2461 35.1545 30.2461H35.9396C36.5529 30.2461 37.0021 30.084 37.2873 29.7598C37.5724 29.4355 37.715 29.0859 37.715 28.7109C37.715 28.4766 37.672 28.2715 37.5861 28.0957C37.5041 27.916 37.3693 27.7578 37.1818 27.6211C36.9982 27.4805 36.8088 27.3965 36.6134 27.3691L36.4845 27.3516H35.1134C35.0236 27.3516 34.9455 27.3809 34.8791 27.4395C34.8127 27.4941 34.7795 27.5645 34.7795 27.6504V34.7461C34.7795 34.832 34.8127 34.9043 34.8791 34.9629C34.9455 35.0176 35.0236 35.0449 35.1134 35.0449H36.6486ZM36.4318 36H33.2619C33.2111 36 33.1857 35.9668 33.1857 35.9004C33.1857 35.8301 33.1935 35.7891 33.2091 35.7773C33.2287 35.7617 33.2541 35.748 33.2853 35.7363C33.3166 35.7207 33.3556 35.6895 33.4025 35.6426C33.4533 35.5918 33.506 35.502 33.5607 35.373C33.6154 35.2402 33.6427 35.1074 33.6427 34.9746V27.4277C33.6427 27.1426 33.549 26.9062 33.3615 26.7188C33.3459 26.7031 33.3127 26.6836 33.2619 26.6602C33.2111 26.6367 33.1857 26.5879 33.1857 26.5137C33.1857 26.4395 33.2111 26.4023 33.2619 26.4023H36.4025C36.7345 26.4023 37.0529 26.4668 37.3576 26.5957C37.6623 26.7246 37.9201 26.8945 38.131 27.1055C38.5959 27.5703 38.8283 28.0703 38.8283 28.6055C38.8283 29.0117 38.7267 29.3594 38.5236 29.6484C38.3205 29.9336 37.9865 30.248 37.5216 30.5918V30.7148C38.8849 31.2734 39.5666 32.1406 39.5666 33.3164C39.5666 33.9414 39.2873 34.5352 38.7287 35.0977C38.467 35.3633 38.1349 35.5801 37.7326 35.748C37.3302 35.916 36.8966 36 36.4318 36Z" fill="#171717"/>
<path d="M15.0439 5.14034L20 21V14L16.0632 3.66588C16.0271 3.57124 15.926 3.51849 15.8278 3.54305L10.7881 4.80299C10.6737 4.83159 10.6944 5 10.8123 5H14.853C14.9404 5 15.0178 5.05685 15.0439 5.14034Z" fill="#CE0000"/>
<path d="M24.9561 5.14034L20 21V14L23.9368 3.66588C23.9729 3.57124 24.074 3.51849 24.1722 3.54305L29.2119 4.80299C29.3263 4.83159 29.3056 5 29.1877 5H25.147C25.0596 5 24.9822 5.05685 24.9561 5.14034Z" fill="#CE0000"/>
</svg>
